<svg width="596" height="379" viewBox="0 0 596 379" fill="none" xmlns="http://www.w3.org/2000/svg">
<g clip-path="url(#clip0_2428_5900)">
<rect width="596" height="379" rx="24" fill="#F2F2F2"/>
<path opacity="0.0526316" d="M-93.0964 495.799C-78.7298 514.913 -32.8126 546.897 35.9234 521.926C121.843 490.711 155.074 407.97 231.758 365.067C288.358 333.402 440.442 285.871 527.893 338.393" stroke="#1D1F2C" stroke-opacity="0.1"/>
<path opacity="0.105263" d="M-107.267 455.729C-94.9775 476.24 -52.6551 512.848 18.3146 495.198C107.027 473.136 148.724 394.321 229.473 359.67C289.072 334.094 445.292 302.72 526.773 364.096" stroke="#1D1F2C" stroke-opacity="0.1"/>
<path opacity="0.157895" d="M-117.975 415.119C-107.896 436.802 -69.6319 477.634 2.7939 467.499C93.3262 454.83 143.033 380.806 226.962 354.785C288.908 335.579 447.551 320.706 522.171 390.263" stroke="#1D1F2C" stroke-opacity="0.1"/>
<path opacity="0.210526" d="M-125.178 374.334C-117.421 396.952 -83.6345 441.56 -10.546 439.051C80.8146 435.915 137.987 367.492 224.176 350.386C287.79 337.761 447.119 339.552 514.059 416.528" stroke="#1D1F2C" stroke-opacity="0.1"/>
<path opacity="0.263158" d="M-128.877 333.74C-123.527 357.044 -94.5883 404.94 -21.638 410.084C69.5499 416.515 133.561 354.443 221.066 346.44C285.652 340.534 443.92 358.97 502.448 442.521" stroke="#1D1F2C" stroke-opacity="0.1"/>
<path opacity="0.315789" d="M-129.117 293.702C-126.232 317.438 -102.459 368.096 -30.4459 380.837C59.5703 396.765 129.719 341.724 217.581 342.912C282.43 343.788 437.905 378.667 487.378 467.879" stroke="#1D1F2C" stroke-opacity="0.1"/>
<path opacity="0.368421" d="M-125.97 254.579C-125.582 278.486 -107.234 331.352 -36.9474 351.551C50.9108 376.801 126.429 329.394 213.685 339.759C278.088 347.409 429.065 398.349 468.942 492.243" stroke="#1D1F2C" stroke-opacity="0.1"/>
<path opacity="0.421053" d="M-119.552 216.723C-121.665 240.54 -108.944 295.034 -41.1535 322.47C43.5842 356.764 123.644 317.511 209.339 336.94C272.589 351.281 417.414 417.722 447.258 515.27" stroke="#1D1F2C" stroke-opacity="0.1"/>
<path opacity="0.473684" d="M-110.013 180.465C-114.604 203.931 -107.648 259.456 -43.0971 293.828C37.5915 336.792 121.316 306.122 204.511 334.403C265.915 355.276 403.001 436.492 422.486 536.625" stroke="#1D1F2C" stroke-opacity="0.1"/>
<path opacity="0.526316" d="M-97.5355 146.123C-104.554 168.981 -103.441 224.929 -42.8361 265.859C32.9195 317.022 119.391 295.272 199.174 332.094C258.06 359.271 385.906 454.372 394.817 555.993" stroke="#1D1F2C" stroke-opacity="0.1"/>
<path opacity="0.578947" d="M-82.341 113.995C-91.7105 135.993 -96.4511 191.751 -40.457 238.792C29.5356 297.594 117.807 285.001 193.304 329.961C249.026 363.145 366.232 471.088 364.471 573.084" stroke="#1D1F2C" stroke-opacity="0.1"/>
<path opacity="0.631579" d="M-64.6705 84.3527C-76.2882 105.251 -86.831 160.208 -36.0608 212.845C27.4019 278.64 116.506 275.344 186.89 327.949C238.838 366.775 344.119 486.378 331.706 587.632" stroke="#1D1F2C" stroke-opacity="0.1"/>
<path opacity="0.684211" d="M-44.7992 57.4437C-58.5377 77.0136 -74.7673 130.567 -29.7773 188.222C26.4602 260.291 115.421 266.326 179.92 326.001C227.526 370.044 319.727 499.997 296.799 599.398" stroke="#1D1F2C" stroke-opacity="0.1"/>
<path opacity="0.736842" d="M-23.0239 33.4756C-38.7328 51.5022 -60.4714 103.066 -21.7544 165.108C26.6418 242.661 114.484 257.962 172.393 324.051C215.133 372.83 293.246 511.708 260.053 608.168" stroke="#1D1F2C" stroke-opacity="0.1"/>
<path opacity="0.789474" d="M0.335534 12.6399C-17.1716 28.9257 -44.1809 77.9347 -12.1612 143.684C27.8634 225.87 113.625 250.27 164.308 322.05C201.716 375.029 264.884 521.312 221.79 613.774" stroke="#1D1F2C" stroke-opacity="0.1"/>
<path opacity="0.842105" d="M24.9447 -4.92057C5.83111 9.44602 -26.1531 55.3632 -1.18146 124.099C30.0331 210.019 112.774 243.249 155.677 319.934C187.342 376.533 234.873 528.618 182.351 616.069" stroke="#1D1F2C" stroke-opacity="0.1"/>
<path opacity="0.894737" d="M50.4507 -19.0917C29.9401 -6.80173 -6.66855 35.5207 10.9814 106.49C33.0439 195.203 111.858 236.899 146.51 317.649C172.086 377.248 203.459 533.467 142.083 614.949" stroke="#1D1F2C" stroke-opacity="0.1"/>
<path opacity="0.947368" d="M76.5023 -29.7968C54.8194 -19.7181 13.9874 18.5458 24.1223 90.9716C36.791 181.504 110.815 231.211 136.837 315.14C156.042 377.086 170.915 535.729 101.358 610.349" stroke="#1D1F2C" stroke-opacity="0.1"/>
<path d="M102.725 -37C80.1069 -29.243 35.4989 4.54322 38.0078 77.6317C41.1438 168.992 109.567 226.164 126.673 312.354C139.298 375.968 137.506 535.297 60.5304 602.237" stroke="#1D1F2C" stroke-opacity="0.1"/>
<g clip-path="url(#clip1_2428_5900)">
<path d="M93.8239 312.243C73.9306 298.228 91.5478 278.765 106.277 281.819C121.006 284.872 140.253 258.512 128.281 234.366C116.31 210.22 145.734 151.723 193.256 180.449C240.779 209.175 315.903 214.319 340.452 180.304C365 146.29 436.294 176.322 430.642 219.085C424.99 261.847 435.297 255.892 457.529 265.375C479.76 274.859 496.311 287.919 483.054 303.846C483.054 303.846 498.305 301.302 497.638 312.243H93.8239Z" fill="#F3F6FF"/>
<path d="M499.392 311.082H80.7791C78.1397 311.082 76 313.22 76 315.858C76 318.496 78.1397 320.634 80.7791 320.634H499.392C502.031 320.634 504.171 318.496 504.171 315.858C504.171 313.22 502.031 311.082 499.392 311.082Z" fill="#B8C9FF"/>
<path d="M112.383 305.71C108.594 295.717 102.068 299.52 101.188 303.468C101.188 303.468 99.868 296.831 92.7441 299.527C85.6201 302.223 90.8668 309.877 90.8668 309.877C90.8668 309.877 88.8039 307.126 86.5485 309.877C84.293 312.628 87.5799 314.464 87.5799 314.464H118.07L112.383 305.71Z" fill="#588E4D"/>
<path d="M478.453 314.507C473.096 307.024 482.579 305.78 484.023 309.205C484.023 309.205 479.416 300.36 486.704 299.515C493.993 298.669 495.712 304.961 493.684 309.83C493.684 309.83 498.676 306.172 499.605 310.057C500.533 313.943 495.616 315.353 495.616 315.353L478.453 314.507Z" fill="#588E4D"/>
<path d="M421.084 308.295C433.283 286.254 458.168 294.218 458.168 294.218L430.862 310.723H423.752L421.084 308.295Z" fill="#406D35"/>
<path d="M426.357 313.24C434.293 302.237 450.995 304.919 450.995 304.919L438.694 315.035L426.357 313.928" fill="#588E4D"/>
<path d="M414.229 308.971C427.562 267.199 444.711 265.645 444.711 265.645C444.711 265.645 441.665 295.388 423.752 310.67L414.229 308.971Z" fill="#588E4D"/>
<path d="M423.895 295.574C421.832 278.635 410.83 276.771 410.83 276.771L414.268 308.971L423.936 308.283V293.772" fill="#406D35"/>
<path d="M151.572 227.902H116.351C112.69 227.902 109.723 230.871 109.723 234.532V307.829C109.723 311.491 112.69 314.459 116.351 314.459H151.572C155.233 314.459 158.201 311.491 158.201 307.829V234.532C158.201 230.871 155.233 227.902 151.572 227.902Z" fill="#2D2D2D"/>
<path d="M154.707 233.65H113.215V299.527H154.707V233.65Z" fill="#4C65BF"/>
<path d="M133.96 311.363C136.467 311.363 138.499 309.331 138.499 306.824C138.499 304.317 136.467 302.285 133.96 302.285C131.454 302.285 129.422 304.317 129.422 306.824C129.422 309.331 131.454 311.363 133.96 311.363Z" fill="#1E1E1E"/>
<path d="M159.568 238.23H157.801V247.308H159.568V238.23Z" fill="#1E1E1E"/>
<path d="M138.829 231.32H129.092C128.92 231.32 128.756 231.252 128.635 231.131C128.513 231.01 128.445 230.845 128.445 230.674C128.445 230.502 128.513 230.338 128.635 230.217C128.756 230.095 128.92 230.027 129.092 230.027H138.829C139 230.027 139.164 230.095 139.286 230.217C139.407 230.338 139.475 230.502 139.475 230.674C139.475 230.845 139.407 231.01 139.286 231.131C139.164 231.252 139 231.32 138.829 231.32Z" fill="#1E1E1E"/>
<path d="M146.173 243.182H122.326V267.032H146.173V243.182Z" fill="#98AAEA"/>
<path d="M146.173 272.314H122.326V277.603H146.173V272.314Z" fill="#98AAEA"/>
<path d="M146.173 281.041H122.326V286.33H146.173V281.041Z" fill="#98AAEA"/>
<path d="M407.598 146.062H177.013C172.668 146.062 169.146 149.585 169.146 153.93V288.936C169.146 293.282 172.668 296.804 177.013 296.804H407.598C411.943 296.804 415.465 293.282 415.465 288.936V153.93C415.465 149.585 411.943 146.062 407.598 146.062Z" fill="#383736"/>
<path d="M412.606 296.117H172.002C170.163 296.118 168.39 296.799 167.023 298.029L150.135 313.241H434.479L417.591 298.029C416.223 296.797 414.447 296.116 412.606 296.117Z" fill="#424242"/>
<path d="M391.611 298.971H193.001C191.526 298.953 190.083 299.398 188.875 300.243L174.93 310.387H409.668L395.723 300.243C394.518 299.401 393.081 298.956 391.611 298.971Z" fill="#515150"/>
<path d="M402.766 153.834H181.842V271.18H402.766V153.834Z" fill="#6E80DB"/>
<path d="M150.127 313.234H434.478V322.381C434.478 323.871 433.887 325.3 432.833 326.354C431.779 327.408 430.35 328 428.86 328H155.766C154.276 328 152.847 327.408 151.793 326.354C150.739 325.3 150.148 323.871 150.148 322.381V313.234H150.127Z" fill="#1E1E1E"/>
<path d="M297.68 283.92C298.161 280.955 296.147 278.161 293.182 277.679C290.217 277.198 287.423 279.212 286.942 282.177C286.46 285.143 288.474 287.937 291.439 288.418C294.404 288.9 297.198 286.886 297.68 283.92Z" fill="#1E1E1E"/>
<g style="mix-blend-mode:multiply" opacity="0.17">
<path d="M200.366 146.062C184.44 161.296 189.982 192.793 189.982 192.793L219.75 190.558L237.752 146.062H200.366Z" fill="#383736"/>
</g>
<path opacity="0.72" d="M363.363 307.499C382.287 307.499 397.628 305.645 397.628 303.359C397.628 301.072 382.287 299.219 363.363 299.219C344.439 299.219 329.098 301.072 329.098 303.359C329.098 305.645 344.439 307.499 363.363 307.499Z" fill="#1E1E1E"/>
<path d="M383.511 268.842H333.107C332.765 268.842 332.488 269.119 332.488 269.461V276.902C332.488 277.244 332.765 277.521 333.107 277.521H383.511C383.853 277.521 384.13 277.244 384.13 276.902V269.461C384.13 269.119 383.853 268.842 383.511 268.842Z" fill="#FFCF73"/>
<path d="M384.13 272.047H332.488V274.316H384.13V272.047Z" fill="#FFE3B6"/>
<path d="M376.429 277.52H326.025C325.683 277.52 325.406 277.797 325.406 278.138V285.58C325.406 285.921 325.683 286.199 326.025 286.199H376.429C376.771 286.199 377.048 285.921 377.048 285.58V278.138C377.048 277.797 376.771 277.52 376.429 277.52Z" fill="#FFCF73"/>
<path d="M377.048 280.725H325.406V282.994H377.048V280.725Z" fill="#FFE3B6"/>
<path d="M387.052 286.199H336.648C336.306 286.199 336.029 286.476 336.029 286.818V294.259C336.029 294.601 336.306 294.878 336.648 294.878H387.052C387.394 294.878 387.671 294.601 387.671 294.259V286.818C387.671 286.476 387.394 286.199 387.052 286.199Z" fill="#FFCF73"/>
<path d="M387.671 289.404H336.029V291.674H387.671V289.404Z" fill="#FFE3B6"/>
<path d="M392.355 294.879H341.951C341.609 294.879 341.332 295.156 341.332 295.498V302.939C341.332 303.281 341.609 303.558 341.951 303.558H392.355C392.696 303.558 392.974 303.281 392.974 302.939V295.498C392.974 295.156 392.696 294.879 392.355 294.879Z" fill="#FFCF73"/>
<path d="M392.974 298.084H341.332V300.353H392.974V298.084Z" fill="#FFE3B6"/>
<path opacity="0.5" d="M333.107 277.52L377.047 280.869V277.52H333.107Z" fill="#FC9047"/>
<path opacity="0.5" d="M376.421 286.199L336.029 289.342V286.199H376.421Z" fill="#FC9047"/>
<path opacity="0.5" d="M387.665 294.879L341.332 298.063V294.879H387.665Z" fill="#FC9047"/>
<g style="mix-blend-mode:multiply" opacity="0.17">
<path d="M409.648 165.614L375.266 179.96C375.266 179.96 347.114 155.526 329.572 155.299L337.343 146.062H405.728L410.803 165.614" fill="#383736"/>
</g>
<path d="M417.342 165.174L387.726 176.666C387.726 176.666 382.521 168.049 369.504 160.236C361.74 155.574 351.206 151.2 337.336 149.095L369.6 115.459C369.6 115.459 406.732 131.572 417.342 165.174Z" fill="#D2DFFF"/>
<g style="mix-blend-mode:multiply" opacity="0.17">
<path d="M402.82 188.393L415.514 210.537V194.073L402.82 188.393Z" fill="#383736"/>
</g>
<path d="M478.35 307.931L478.006 312.091H473.715L473.976 307.119L478.35 307.931Z" fill="#FFCA9F"/>
<path d="M509.273 257.954C509.874 258.758 510.249 259.708 510.36 260.705C510.36 262.005 510.993 262.988 510.986 264.666C511.398 265.161 512.086 264.137 511.921 262.947C511.756 261.757 511.852 262.046 511.852 262.046C511.852 262.046 513.764 264.453 514.451 265.443C515.139 266.434 515.785 265.684 515.263 264.934C514.74 264.185 513.764 262.342 513.764 262.342C513.764 262.342 516.514 265.821 516.989 265.478C517.463 265.134 516.645 264.013 514.885 261.482C514.885 261.482 517.016 264.198 517.504 263.745C517.993 263.291 515.366 260.182 515.366 260.182C515.366 260.182 517.016 262.335 517.601 261.888C518.041 261.551 516.081 259.928 514.389 258.415C512.698 256.902 512.327 257.555 511.584 256.352L509.273 257.954Z" fill="#FFCA9F"/>
<path d="M497.975 235.191L499.247 235.948C499.984 236.403 500.602 237.028 501.048 237.77L511.603 256.373L509.389 258.361L493.498 239.27L497.975 235.191Z" fill="#FFCF73"/>
<path d="M480.75 224.703L493.479 239.282L498.478 235.232L487.166 219.552C486.7 218.904 486.054 218.407 485.309 218.122C484.563 217.838 483.751 217.778 482.972 217.949L480.338 218.864L480.75 224.703Z" fill="#FFCF73"/>
<path d="M490.583 249.895H477.16V264.928H490.583V249.895Z" fill="#678CE8"/>
<path d="M484.648 250.789L481.506 280.203H472.284L471.92 250.789H484.648Z" fill="#678CE8"/>
<path d="M481.975 255.176V263.084L483.336 264.171V254.873L481.975 255.176Z" fill="#527FD8"/>
<path d="M493.829 250.789L493.361 280.203H484.14L483.775 250.789H493.829Z" fill="#678CE8"/>
<path d="M460.292 227.503L448.533 239.648L451.346 245.149L466.474 232.193C467.043 231.707 467.457 231.065 467.665 230.346C467.872 229.627 467.865 228.864 467.643 228.149L466.24 226.457L463.111 226.368C462.588 226.348 462.066 226.439 461.581 226.635C461.095 226.83 460.656 227.126 460.292 227.503Z" fill="#FFCF73"/>
<path d="M461.771 226.472C462.459 224.477 470.257 219.299 470.257 219.299L472.182 218.611C472.182 218.611 481.692 216.507 484.223 218.116L494.537 253.568L471.103 261.394L461.771 226.472Z" fill="#464461"/>
<path d="M491.381 242.777V242.887C491.223 248.534 482.745 254.015 479.155 255.638C475.566 257.261 483.281 255.906 483.281 255.906L494.118 252.144" fill="#2F2F47"/>
<path d="M467.981 221.794C470.587 225.233 475.166 224.483 475.765 218.906C475.787 218.72 475.766 218.531 475.705 218.354C475.644 218.177 475.543 218.016 475.411 217.884C475.278 217.752 475.118 217.651 474.941 217.59C474.764 217.528 474.575 217.508 474.389 217.53C472.147 217.839 470.019 218.707 468.201 220.054C468.071 220.153 467.962 220.277 467.881 220.418C467.799 220.56 467.747 220.716 467.727 220.878C467.706 221.04 467.718 221.204 467.762 221.362C467.805 221.519 467.88 221.666 467.981 221.794Z" fill="#6B6B89"/>
<path d="M481.506 280.203L478.302 309.473H473.736L472.285 280.203H481.506Z" fill="#678CE8"/>
<path d="M510.716 301.832L513.123 305.25L509.829 307.994L506.838 304.012L510.716 301.832Z" fill="#FFCA9F"/>
<path d="M492.522 279.164L511.673 303.049L508.166 305.971L485.866 286.151C484.999 285.377 484.465 284.298 484.374 283.139L484.147 280.209L492.522 279.164Z" fill="#678CE8"/>
<path d="M461.027 204.67L461.901 204.54C462.466 203.386 463.234 202.345 464.17 201.465C465.428 200.448 470.132 199.897 470.084 199.904C470.035 199.911 474.636 202.112 474.636 202.112C474.636 202.112 476.699 206.341 476.836 207.992C476.864 208.4 476.864 208.809 476.836 209.216C476.642 212.095 475.422 214.808 473.398 216.864C472.8 217.476 471.796 218.163 471.741 218.04C471.589 217.682 465.002 208.556 465.002 208.556L461.426 212.834L461.027 204.67Z" fill="#714837"/>
<path d="M472.305 216.066L473.474 219.429C473.56 219.675 473.596 219.935 473.581 220.195C473.566 220.454 473.499 220.708 473.385 220.942C473.272 221.176 473.113 221.385 472.918 221.558C472.723 221.73 472.496 221.862 472.25 221.946C472.005 222.032 471.745 222.069 471.486 222.054C471.227 222.039 470.973 221.973 470.739 221.86C470.505 221.747 470.296 221.589 470.124 221.395C469.951 221.201 469.818 220.975 469.733 220.729L468.564 217.366L469.898 216.348L470.222 216.101H470.627L472.305 216.066Z" fill="#FFAB8A"/>
<path d="M462.115 212.346C461.29 211.06 460.829 211.748 461.049 212.834C461.269 213.921 462.472 215.351 462.851 214.602L462.569 212.772L462.115 212.346Z" fill="#FFAB8A"/>
<path d="M474.492 211.244C474.375 215.185 472.086 219.063 468.833 219.559C468.757 219.559 468.689 219.593 468.613 219.607H468.386C463.903 219.421 462.129 216.326 461.29 212.475C460.114 206.753 465.416 205.323 467.018 205.02H467.238H467.492C469.108 205 474.561 205.405 474.492 211.244Z" fill="#FFCA9F"/>
<path d="M464.11 212.848C464.186 213.315 464.069 213.721 463.855 213.756C463.642 213.79 463.415 213.432 463.347 212.965C463.278 212.497 463.388 212.091 463.601 212.057C463.814 212.023 464.041 212.38 464.11 212.848Z" fill="#5C301D"/>
<path d="M468.359 212.201C468.428 212.669 468.311 213.075 468.104 213.109C467.898 213.144 467.658 212.786 467.589 212.318C467.52 211.851 467.63 211.445 467.843 211.41C468.056 211.376 468.304 211.734 468.359 212.201Z" fill="#5C301D"/>
<path d="M466.613 215.84L466.221 215.95C466.18 215.961 466.137 215.963 466.095 215.955C466.053 215.948 466.013 215.931 465.979 215.906C465.944 215.88 465.916 215.848 465.896 215.81C465.876 215.773 465.865 215.731 465.863 215.688V213.453L466.613 215.84Z" fill="#FFAB8A"/>
<path d="M466.625 217.022L469.41 216.582C469.311 216.88 469.129 217.143 468.885 217.34C468.641 217.537 468.346 217.661 468.035 217.696C467.758 217.77 467.464 217.743 467.206 217.619C466.947 217.496 466.741 217.284 466.625 217.022Z" fill="white"/>
<path d="M473.372 209.051L472.808 210.426L473.723 211.43L473.406 215.632C473.406 215.632 475.641 210.468 475.572 210C475.504 209.532 474.603 206.107 474.603 206.107L472.402 206.438L472.45 208.061L473.372 209.051Z" fill="#714837"/>
<path d="M472.47 210.77C473.013 208.844 474.01 209.518 474.155 210.962C474.299 212.407 473.357 214.655 472.601 213.865L472.236 211.471L472.47 210.77Z" fill="#FFCA9F"/>
<path d="M508.276 298.84C509.892 302.347 507.691 304.183 507.691 304.183L510.662 301.701L508.276 298.84Z" fill="#527FD8"/>
<path d="M473.461 304.074C473.605 307.066 476.645 307.795 476.645 307.795H473.647L473.461 304.074Z" fill="#527FD8"/>
<path d="M472.705 307.793H479.334L478.715 310.283H473.2L472.705 307.793Z" fill="#B4C4FC"/>
<path d="M505.979 305.608L511.074 301.357L512.188 303.661L507.959 307.196L505.979 305.608Z" fill="#B4C4FC"/>
<path d="M478.887 320.461H465.203C465.215 320.225 465.266 319.993 465.354 319.773C465.905 318.398 467.802 317.834 469.962 316.906C470.706 316.555 471.359 316.034 471.866 315.385C472.374 314.737 472.722 313.979 472.884 313.171V312.105C472.886 311.899 472.969 311.701 473.116 311.555C473.263 311.41 473.461 311.328 473.668 311.328H477.794C477.904 311.327 478.014 311.348 478.115 311.393C478.217 311.437 478.308 311.502 478.382 311.584C478.456 311.666 478.512 311.763 478.546 311.868C478.58 311.974 478.59 312.085 478.578 312.195C478.553 312.378 478.516 312.56 478.468 312.738C478.418 312.929 478.351 313.116 478.268 313.295C478.887 315.276 478.887 320.461 478.887 320.461Z" fill="#F05823"/>
<path d="M471.742 315.6C472.334 315.707 472.882 315.984 473.32 316.397C473.759 316.809 474.068 317.34 474.211 317.924" stroke="white" stroke-miterlimit="10"/>
<path d="M470.168 316.625C470.856 317.086 471.347 317.787 471.543 318.592" stroke="white" stroke-miterlimit="10"/>
<path d="M478.887 320.461H465.203C465.215 320.225 465.266 319.993 465.354 319.774C466.933 320.124 468.555 320.243 470.168 320.124C473.262 319.987 476.673 320.461 477.656 319.34C478.64 318.219 478.385 315.214 477.993 314.134C477.794 313.577 476.969 313.412 476.198 313.371C476.991 313.362 477.766 313.144 478.447 312.738C478.397 312.929 478.33 313.116 478.248 313.295C478.887 315.276 478.887 320.461 478.887 320.461Z" fill="#C14727"/>
<path d="M465.202 320.463C465.128 320.768 465.128 321.086 465.202 321.391H478.996C479.045 321.077 479.007 320.756 478.886 320.463C478.693 320.098 465.202 320.463 465.202 320.463Z" fill="#EAE9E8"/>
<path d="M519.327 310.971L508.82 319.74C508.678 319.553 508.568 319.344 508.497 319.121C508.043 317.746 509.129 316.061 510.188 313.963C510.535 313.217 510.702 312.399 510.677 311.577C510.652 310.754 510.435 309.949 510.044 309.225L509.356 308.413C509.29 308.334 509.24 308.242 509.209 308.143C509.179 308.045 509.168 307.941 509.177 307.838C509.187 307.735 509.217 307.635 509.265 307.544C509.314 307.453 509.38 307.372 509.459 307.306L512.616 304.672C512.699 304.599 512.798 304.546 512.904 304.515C513.011 304.484 513.123 304.476 513.233 304.493C513.342 304.509 513.447 304.549 513.54 304.61C513.633 304.67 513.712 304.75 513.771 304.844C513.871 304.999 513.958 305.163 514.032 305.332C514.117 305.511 514.184 305.697 514.231 305.889C515.999 306.99 519.327 310.971 519.327 310.971Z" fill="#F05823"/>
<path d="M510.695 311.837C511.219 311.539 511.818 311.4 512.42 311.435C513.021 311.47 513.6 311.679 514.085 312.036" stroke="white" stroke-miterlimit="10"/>
<path d="M510.166 313.612C510.987 313.531 511.808 313.759 512.47 314.251" stroke="white" stroke-miterlimit="10"/>
<path d="M519.326 310.971L508.819 319.74C508.677 319.553 508.568 319.344 508.496 319.121C509.933 318.38 511.253 317.432 512.416 316.308C514.699 314.245 517.621 312.395 517.662 310.909C517.704 309.424 515.599 307.278 514.582 306.694C514.066 306.391 513.33 306.79 512.718 307.258C513.317 306.74 513.772 306.077 514.038 305.332C514.123 305.511 514.19 305.697 514.238 305.889C515.998 306.989 519.326 310.971 519.326 310.971Z" fill="#C14727"/>
<path d="M508.818 319.739C508.957 320.012 509.16 320.248 509.41 320.427L519.999 311.596C519.83 311.327 519.593 311.106 519.312 310.957C518.94 310.819 508.818 319.739 508.818 319.739Z" fill="#EAE9E8"/>
<path d="M472.588 211.395C472.829 210.508 473.331 210.66 473.523 210.873C473.716 211.086 473.482 212.798 472.945 213.163C472.945 213.163 473.564 212.007 473.221 211.382C472.877 210.756 472.65 211.492 472.65 211.492L472.588 211.395Z" fill="#F99273"/>
<path d="M461.193 211.713C459.027 207.985 459.226 204.547 460.849 202.036C462.472 199.526 464.569 199.574 464.569 199.574C464.569 199.574 466.838 199.609 467.189 200.406C467.54 201.204 467.76 201.218 467.76 201.218C467.76 201.218 472.993 202.655 473.502 204.024C474.01 205.392 466.577 205.688 466.577 205.688L463.091 206.823L461.592 209.519L461.193 211.713Z" fill="#714837"/>
<path d="M461.653 208.735C463.029 206.934 465.415 206.892 466.872 207.009C467.927 207.121 468.969 207.325 469.987 207.621C469.987 207.621 469.864 206.562 469.059 206.404C469.059 206.404 471.665 207.443 472.009 209.306C472.191 210.156 472.331 211.015 472.429 211.878C472.429 211.878 472.745 210.187 473.618 209.554C474.491 208.921 474.65 207.697 474.306 207.312L471.652 204.313C471.652 204.313 469.045 203.873 468.516 203.887C467.032 204.098 465.569 204.436 464.143 204.898C463.418 205.33 462.729 205.817 462.08 206.356L461.158 207.731L461.653 208.735Z" fill="#714837"/>
<path d="M495.066 252.453C494.909 252.004 494.585 251.634 494.16 251.42C493.736 251.205 493.244 251.164 492.79 251.305C485.914 253.444 471.15 258.044 469.844 259.055C468.413 260.156 471.219 264.399 471.219 264.399C471.219 264.399 490.679 259.31 493.643 257.618C496.098 256.236 495.857 254.75 495.066 252.453Z" fill="#6B6B89"/>
<path d="M439.361 225.569C438.882 224.783 438.621 223.884 438.605 222.963C438.715 221.78 438.227 220.831 438.378 219.291C438.041 218.809 437.326 219.683 437.381 220.783C437.436 221.883 437.381 221.615 437.381 221.615C437.381 221.615 435.84 219.249 435.318 218.28C434.795 217.31 434.121 217.95 434.527 218.679C434.933 219.408 435.669 221.182 435.669 221.182C435.669 221.182 433.482 217.743 433 218.032C432.519 218.321 433.186 219.407 434.575 221.863C434.575 221.863 432.863 219.201 432.382 219.573C431.9 219.944 434.025 223.011 434.025 223.011C434.025 223.011 432.705 220.907 432.127 221.264C431.701 221.533 433.344 223.183 434.768 224.703C436.191 226.223 436.569 225.666 437.147 226.821L439.361 225.569Z" fill="#FFCA9F"/>
<path d="M437.242 221.926C436.41 222.827 436.947 224.45 436.947 224.45C436.947 224.45 435.702 223.446 434.918 223.762C435.108 223.586 435.35 223.476 435.607 223.447C435.864 223.419 436.124 223.474 436.348 223.604C436.294 223.435 436.275 223.257 436.291 223.081C436.307 222.904 436.358 222.733 436.441 222.576C436.525 222.42 436.638 222.282 436.776 222.17C436.913 222.058 437.072 221.975 437.242 221.926Z" fill="#FFB185"/>
<path d="M452.757 244.201L451.643 245.088C451.182 245.451 450.648 245.708 450.078 245.841C449.508 245.974 448.915 245.981 448.342 245.86C447.769 245.74 447.229 245.495 446.761 245.143C446.293 244.79 445.908 244.34 445.633 243.823L436.852 226.224L438.66 224.553L449.738 238.789L452.757 244.201Z" fill="#FFCF73"/>
<path d="M511.185 254.158L507.451 256.854C507.451 256.854 508.366 258.773 509.28 258.766C510.195 258.759 512.718 256.414 512.718 256.414C512.63 255.953 512.449 255.515 512.185 255.127C511.921 254.74 511.581 254.41 511.185 254.158Z" fill="#FFDCA4"/>
<path d="M439.223 224.359C438.128 224.709 437.168 225.389 436.473 226.305L437.58 228.313C437.58 228.313 440.585 226.711 440.722 226.016C440.86 225.321 439.794 224.159 439.223 224.359Z" fill="#FFDCA4"/>
<path d="M475.18 217.709C475.18 217.709 486.87 255.128 488.823 263.704C488.823 263.704 496.847 262.115 499.35 258.89C499.35 258.89 495.059 245.7 493.499 241.594C491.938 237.488 490.61 229.27 490.61 229.27L486.636 221.705C485.935 220.442 485.135 219.237 484.243 218.101C482.572 216.581 475.18 217.709 475.18 217.709Z" fill="#FFCF73"/>
<path d="M467.567 220.639C468.028 225.171 473.172 249.434 473.584 254.11C473.997 258.787 476.335 267.177 476.335 267.177L467.836 268.428C467.836 268.428 464.308 242.831 463.758 238.925L463.201 235.026L459.914 227.922C459.914 227.922 465.704 221.423 467.567 220.639Z" fill="#FFCF73"/>
<path d="M481.975 229.292L486.919 227.414L487.868 229.697L482.532 231.142L481.975 229.292Z" fill="#FFDCA4"/>
<path d="M492.342 237.984L490.582 232.393L497.266 243.829L492.342 237.984Z" fill="#FFA076"/>
<path d="M463.174 235.02L462.872 231.809L455.26 241.808L463.174 235.02Z" fill="#FFA076"/>
<path d="M431.396 208.547L431.208 221.984C431.199 222.656 431.736 223.209 432.408 223.218L438.239 223.3C438.911 223.309 439.464 222.772 439.473 222.099L439.661 208.663C439.67 207.99 439.133 207.438 438.461 207.429L432.63 207.347C431.958 207.338 431.405 207.875 431.396 208.547Z" fill="#383736"/>
<path d="M439.064 208.476L432.078 208.379L431.91 220.454L438.895 220.552L439.064 208.476Z" fill="#4C65BF"/>
<path d="M436.205 221.884C436.204 222.049 436.153 222.21 436.06 222.346C435.968 222.482 435.836 222.588 435.683 222.649C435.53 222.711 435.363 222.725 435.201 222.691C435.04 222.657 434.893 222.576 434.777 222.458C434.662 222.34 434.585 222.191 434.555 222.028C434.525 221.866 434.544 221.699 434.609 221.548C434.674 221.396 434.783 221.268 434.922 221.178C435.06 221.089 435.222 221.042 435.387 221.045C435.606 221.049 435.815 221.139 435.969 221.296C436.122 221.453 436.207 221.665 436.205 221.884Z" fill="#1E1E1E"/>
<path d="M439.944 209.348L439.621 209.344L439.598 211.008L439.921 211.012L439.944 209.348Z" fill="#1E1E1E"/>
<path d="M436.458 208.046H434.677C434.646 208.046 434.617 208.034 434.595 208.012C434.573 207.99 434.561 207.96 434.561 207.929C434.561 207.898 434.573 207.869 434.595 207.847C434.617 207.825 434.646 207.812 434.677 207.812H436.465C436.497 207.814 436.527 207.828 436.548 207.851C436.57 207.874 436.582 207.905 436.582 207.936C436.579 207.967 436.564 207.995 436.541 208.015C436.519 208.035 436.489 208.047 436.458 208.046Z" fill="#1E1E1E"/>
<path d="M366.438 86.8574C394.287 86.8574 413.293 108.968 413.293 108.968L421.387 104.546V126.649L402.243 121.347L408.431 112.303C408.431 112.303 392.96 95.2614 366.438 94.8212V86.8574Z" fill="#F5949B"/>
<path d="M216.965 98.1562C189.115 98.1562 170.109 120.266 170.109 120.266L162.016 115.844V137.948L181.159 132.645L174.971 123.602C174.971 123.602 190.443 106.56 216.965 106.113V98.1562Z" fill="#F5949B"/>
<path d="M296.464 172.162H245.689C244.497 172.163 243.344 172.581 242.43 173.345L225.184 187.787H301.546V177.244C301.546 175.896 301.01 174.604 300.057 173.651C299.104 172.698 297.812 172.162 296.464 172.162Z" fill="#FFBE5F"/>
<path d="M326.499 141.042C326.499 141.042 304.722 150.189 285.757 177.45C280.682 184.774 276.325 192.57 272.747 200.73L195.394 190.558C196.767 181.89 199.445 173.48 203.337 165.615C220.899 130.218 257.536 118.059 257.536 118.059L326.499 141.042Z" fill="#D2DFFF"/>
<path d="M285.757 177.451C280.682 184.774 276.325 192.57 272.747 200.73L195.395 190.559C196.767 181.891 199.445 173.481 203.337 165.615C199.053 186.687 237.533 184.053 285.757 177.451Z" fill="#B2C9F9"/>
<path d="M168.935 187.752H301.545V255.252C301.534 257.081 300.8 258.831 299.502 260.12C298.205 261.408 296.449 262.131 294.621 262.129H168.935C167.106 262.131 165.351 261.408 164.053 260.12C162.756 258.831 162.021 257.081 162.01 255.252V194.732C162.002 193.818 162.175 192.911 162.519 192.064C162.864 191.217 163.373 190.447 164.017 189.798C164.66 189.149 165.427 188.634 166.271 188.282C167.115 187.931 168.02 187.751 168.935 187.752Z" fill="#FFCF73"/>
<path d="M261.668 262.143H168.933C168.023 262.143 167.121 261.964 166.28 261.616C165.439 261.267 164.675 260.756 164.032 260.111C163.39 259.466 162.881 258.701 162.534 257.858C162.188 257.016 162.012 256.114 162.016 255.203V194.684C162.015 193.775 162.193 192.875 162.54 192.035C162.888 191.196 163.397 190.433 164.04 189.79C164.682 189.147 165.445 188.638 166.285 188.29C167.125 187.943 168.025 187.765 168.933 187.766C161.782 211.382 183.25 243.416 206.148 251.215C221.262 256.359 246.361 260.155 261.668 262.143Z" fill="#FFBE5F"/>
<path d="M194.823 280.766H179.221C178.854 280.767 178.499 280.896 178.217 281.13L172.922 285.559H196.384V282.334C196.384 281.919 196.22 281.521 195.927 281.227C195.635 280.933 195.238 280.767 194.823 280.766Z" fill="#FFBE5F"/>
<path d="M156.948 285.561H196.384V304.982C196.384 305.894 196.022 306.768 195.377 307.413C194.732 308.058 193.858 308.42 192.946 308.42H156.948C156.036 308.42 155.162 308.058 154.517 307.413C153.872 306.768 153.51 305.894 153.51 304.982V288.999C153.51 288.087 153.872 287.213 154.517 286.568C155.162 285.923 156.036 285.561 156.948 285.561Z" fill="#FFCF73"/>
<path d="M381.737 179.961H320.709V195.249H381.737V179.961Z" fill="#98AAEA"/>
<path d="M381.737 202.896H320.709V218.185H381.737V202.896Z" fill="#98AAEA"/>
<path d="M381.737 225.832H320.709V256.36H381.737V225.832Z" fill="#98AAEA"/>
<path d="M369.504 160.236C361.74 155.574 351.206 151.2 337.336 149.095L369.6 115.459C356.377 134.97 363.934 151.949 369.504 160.236Z" fill="#B2C9F9"/>
<path d="M432.155 204.347L424.123 206.094C421.086 202.567 417.848 199.217 414.428 196.06C410.787 192.625 406.908 189.451 402.82 186.563L422.377 179.555C422.377 179.555 422.562 179.878 422.879 180.449C424.694 183.777 430.965 195.709 432.155 204.347Z" fill="#D2DFFF"/>
<path d="M422.879 180.442C418.355 184.525 415.371 190.039 414.428 196.06C410.787 192.625 406.908 189.451 402.82 186.563L422.377 179.555C422.377 179.555 422.562 179.871 422.879 180.442Z" fill="#B2C9F9"/>
<path d="M128.508 171.356C124.382 165.51 117.004 166.858 114.693 170.51C111.386 175.758 114.171 186.06 107.59 180.888C107.59 180.888 109.783 196.258 119.335 191.891C128.886 187.524 129.189 182.415 128.226 180.2C127.263 177.986 128.508 171.356 128.508 171.356Z" fill="#EF6071"/>
<path d="M143.781 246.278L143.871 250.397L148.1 250.658L148.148 245.734L143.781 246.278Z" fill="#FFCA9F"/>
<path d="M127.71 227.145L150.402 226.835L150.877 221.526C150.933 220.895 150.863 220.259 150.67 219.655C150.477 219.051 150.166 218.492 149.754 218.01C149.342 217.528 148.838 217.134 148.272 216.85C147.705 216.565 147.088 216.397 146.455 216.355L128.082 215.103C126.55 215.001 125.039 215.501 123.87 216.497C122.702 217.492 121.968 218.904 121.824 220.433V220.715C121.748 221.532 121.844 222.357 122.106 223.135C122.368 223.913 122.789 224.628 123.344 225.233C123.898 225.839 124.573 226.322 125.325 226.651C126.077 226.98 126.889 227.148 127.71 227.145Z" fill="#2E2E42"/>
<path d="M142.336 218.754L143.739 247.796L148.236 248.071L150.581 224.627L142.336 218.754Z" fill="#2E2E42"/>
<path d="M148.835 242.09C147.625 245.707 144.799 245.528 144.799 245.528L148.615 245.755L148.835 242.09Z" fill="#2E2E42"/>
<path d="M142.604 245.396L149.143 245.795L148.38 248.209L142.947 247.879L142.604 245.396Z" fill="#B4C4FC"/>
<path d="M142.57 257.956L156.062 258.781C156.063 258.547 156.026 258.315 155.952 258.093C155.491 256.718 153.655 256.03 151.585 254.985C150.871 254.594 150.259 254.042 149.797 253.372C149.335 252.702 149.036 251.933 148.924 251.127L148.986 250.081C149 249.882 148.935 249.686 148.807 249.533C148.679 249.381 148.497 249.284 148.298 249.263L144.241 249.015C144.132 249.008 144.022 249.025 143.92 249.063C143.817 249.102 143.724 249.162 143.647 249.239C143.57 249.317 143.509 249.41 143.471 249.512C143.432 249.615 143.416 249.724 143.423 249.834C143.435 250.014 143.46 250.193 143.499 250.37C143.534 250.563 143.589 250.752 143.664 250.934C142.88 252.812 142.57 257.956 142.57 257.956Z" fill="#D55840"/>
<path d="M149.928 253.566C149.338 253.637 148.781 253.876 148.324 254.256C147.866 254.635 147.528 255.138 147.35 255.705" stroke="white" stroke-miterlimit="10"/>
<path d="M151.399 254.668C150.7 255.085 150.181 255.747 149.941 256.525" stroke="white" stroke-miterlimit="10"/>
<path d="M142.57 257.955L156.062 258.78C156.063 258.546 156.025 258.314 155.951 258.092C154.374 258.343 152.769 258.361 151.186 258.147C148.14 257.824 144.75 258.092 143.856 256.923C142.962 255.754 143.381 252.797 143.856 251.772C144.083 251.236 144.908 251.084 145.664 251.133C144.886 251.074 144.136 250.811 143.492 250.369C143.527 250.562 143.582 250.751 143.657 250.933C142.88 252.811 142.57 257.955 142.57 257.955Z" fill="#A84335"/>
<path d="M156.061 258.752C156.114 259.055 156.096 259.366 156.006 259.66L142.405 258.834C142.379 258.523 142.436 258.209 142.57 257.927C142.783 257.583 156.061 258.752 156.061 258.752Z" fill="#EAE9E8"/>
<path d="M134.607 247.906L134.827 252.026L139.063 252.15L138.953 247.232L134.607 247.906Z" fill="#FFCA9F"/>
<path d="M119.122 229.249L140.597 228.273L140.899 222.95C140.936 222.318 140.845 221.685 140.634 221.088C140.423 220.491 140.095 219.942 139.669 219.473C139.243 219.005 138.728 218.625 138.155 218.358C137.581 218.091 136.959 217.94 136.327 217.916L116.798 215.165C113.607 215.048 111.812 218.872 111.496 222.764V223.053C110.657 228.513 115.629 229.407 119.122 229.249Z" fill="#464461"/>
<path d="M132.311 220.447L134.614 249.428L139.118 249.565L140.734 226.059L132.311 220.447Z" fill="#464461"/>
<path d="M139.53 243.568C138.43 247.22 135.604 247.131 135.604 247.131L139.42 247.248L139.53 243.568Z" fill="#2E2E42"/>
<path d="M133.404 247.068L139.951 247.261L139.27 249.702L133.824 249.537L133.404 247.068Z" fill="#B4C4FC"/>
<path d="M133.762 259.592L147.274 259.997C147.268 259.762 147.224 259.53 147.143 259.31C146.641 257.934 144.785 257.322 142.68 256.339C141.96 255.968 141.336 255.435 140.859 254.78C140.381 254.126 140.063 253.369 139.93 252.57V251.525C139.935 251.32 139.86 251.121 139.719 250.971C139.579 250.822 139.385 250.734 139.18 250.727L135.123 250.61C135.014 250.606 134.906 250.625 134.805 250.665C134.704 250.706 134.613 250.768 134.537 250.847C134.462 250.925 134.404 251.019 134.368 251.122C134.331 251.224 134.317 251.334 134.326 251.442C134.343 251.626 134.375 251.807 134.422 251.985C134.469 252.176 134.531 252.362 134.608 252.542C133.913 254.468 133.762 259.592 133.762 259.592Z" fill="#D55840"/>
<path d="M140.988 255.004C140.4 255.092 139.85 255.348 139.404 255.742C138.959 256.137 138.637 256.652 138.479 257.225" stroke="white" stroke-miterlimit="10"/>
<path d="M142.481 256.064C141.803 256.505 141.313 257.181 141.105 257.963" stroke="white" stroke-miterlimit="10"/>
<path d="M133.762 259.592L147.274 259.997C147.268 259.762 147.224 259.53 147.143 259.31C145.576 259.61 143.972 259.68 142.385 259.516C139.332 259.289 135.955 259.66 135.02 258.526C134.085 257.391 134.422 254.44 134.834 253.368C135.054 252.824 135.873 252.68 136.629 252.68C135.849 252.645 135.091 252.408 134.429 251.992C134.476 252.182 134.538 252.369 134.614 252.549C133.913 254.468 133.762 259.592 133.762 259.592Z" fill="#A84335"/>
<path d="M147.273 260.018C147.344 260.316 147.344 260.627 147.273 260.926L133.651 260.52C133.614 260.211 133.661 259.897 133.789 259.612C133.967 259.241 147.273 260.018 147.273 260.018Z" fill="#EAE9E8"/>
<path d="M117.429 191.797L110.773 208.302L105.23 206.26L110.319 189.252C110.529 188.55 110.939 187.924 111.5 187.453C112.061 186.981 112.748 186.684 113.475 186.598H116.033L117.429 191.797Z" fill="#B4C4FC"/>
<path d="M112.012 215.536C112.012 215.536 112.83 216.024 118.668 216.733C124.506 217.441 132.201 216.045 132.201 216.045C131.938 214.96 131.265 214.018 130.323 213.418H113.882C113.125 213.631 112.472 214.676 112.177 215.22L112.012 215.536Z" fill="#EAE9E8"/>
<path d="M112.012 215.536C112.012 215.536 112.83 216.024 118.668 216.733C124.506 217.441 132.201 216.045 132.201 216.045C131.938 214.96 131.265 214.018 130.323 213.418H129.34C130.99 215.571 127.662 216.588 124.416 216.41C121.171 216.231 116.295 216.76 114.15 215.818C113.523 215.529 112.859 215.328 112.177 215.22L112.012 215.536Z" fill="#D6D5D4"/>
<path d="M134.546 182.504C130.968 183.803 127.147 184.289 123.358 183.927H121.295C121.295 183.927 113.119 185.447 111.799 187.215L113.862 213.396H130.296L134.546 182.504Z" fill="#B4C4FC"/>
<path d="M132.201 196.018L147.865 179.093L143.258 174.754L126.322 188.103C125.16 189.203 127.896 190.633 128.446 192.139L129.677 194.581L132.201 196.018Z" fill="#B4C4FC"/>
<path d="M148.222 178.674L151.598 175.668L146.778 172.67L144.158 174.981L147.899 178.832L148.222 178.674Z" fill="#FCA781"/>
<path d="M147.178 172.025L156.282 156.207L158.978 156.895L152.424 174.535C152.289 174.9 152.082 175.235 151.815 175.519C151.548 175.803 151.226 176.03 150.87 176.187C150.513 176.344 150.128 176.428 149.739 176.434C149.349 176.439 148.962 176.366 148.601 176.22C148.211 176.063 147.858 175.824 147.569 175.518C147.279 175.213 147.059 174.848 146.924 174.45C146.789 174.051 146.742 173.628 146.785 173.209C146.829 172.791 146.963 172.387 147.178 172.025Z" fill="#FFCA9F"/>
<path d="M156.274 156.172C156.274 156.172 155.765 152.273 156.074 150.918C156.191 150.395 156.563 149.667 156.762 149.99C156.887 150.35 156.913 150.737 156.838 151.111C156.838 151.111 157.195 149.185 157.704 149.137C158.213 149.089 158.027 150.107 158.027 151.269C158.027 151.269 158.529 148.779 159.231 149.048C159.932 149.316 159.079 151.895 159.079 151.895C159.079 151.895 159.678 149.955 160.214 150.12C160.75 150.285 160.138 152.445 159.657 153.435C159.657 153.435 160.826 151.723 161.404 152.06C161.981 152.397 160.166 154.811 158.962 156.839C157.759 158.868 156.274 156.172 156.274 156.172Z" fill="#FFCA9F"/>
<path d="M145.871 182.078L139.559 176.618L143.602 174.41L148.766 179.293L145.871 182.078Z" fill="#EAE9E8"/>
<path d="M159.197 153.965C158.871 154.089 158.573 154.279 158.322 154.523C158.072 154.767 157.873 155.059 157.739 155.382C157.739 155.382 157.265 153.538 156.9 153.318C156.9 153.318 157.925 153.69 158.049 154.192C158.212 154.072 158.399 153.989 158.598 153.95C158.796 153.911 159.001 153.916 159.197 153.965Z" fill="#FCA781"/>
<path d="M113.146 204.127C114.762 211.21 125.524 213.397 125.524 213.397H113.882L113.146 204.127Z" fill="#92ACF4"/>
<path d="M122.725 217.119C124.87 216.431 126.328 216.197 127.057 216.933C127.786 217.669 128.006 219.574 128.432 220.151C128.858 220.729 126.782 220.323 126.692 219.725C126.692 219.725 123.254 221.1 121.239 219.257C119.224 217.414 121.239 216.933 121.239 216.933L122.725 217.119Z" fill="#FFCA9F"/>
<path d="M106.339 214.251L121.254 219.258L122.725 217.119L104.751 207.539L104.063 208.866C103.819 209.364 103.685 209.908 103.669 210.462C103.654 211.016 103.758 211.567 103.973 212.078C104.189 212.588 104.512 213.046 104.92 213.421C105.328 213.796 105.812 214.079 106.339 214.251Z" fill="#FFCA9F"/>
<path d="M110.581 208.761L110.114 210.426L104.592 207.86L105.087 206.705L110.581 208.424V208.761Z" fill="#FCA781"/>
<path d="M107.706 203.426C111.495 204.045 113.675 198.199 113.675 198.199L114.142 199.678L111.811 205.689L107.686 203.784L107.706 203.426Z" fill="#92ACF4"/>
<path d="M125.517 184.472C127.628 188.66 124.651 191.17 121.625 190.661C120.298 190.429 119.115 189.684 118.331 188.589C117.546 187.493 117.223 186.133 117.431 184.802C118.772 184.217 120.181 183.804 121.625 183.571C122.301 183.454 122.994 183.474 123.662 183.629C124.33 183.784 124.961 184.07 125.517 184.472Z" fill="#EAE9E8"/>
<path d="M119.795 181.893L120.544 185.077C120.596 185.311 120.694 185.533 120.833 185.73C120.971 185.926 121.147 186.093 121.35 186.221C121.554 186.349 121.781 186.436 122.018 186.475C122.255 186.515 122.497 186.507 122.731 186.452C122.966 186.4 123.188 186.302 123.384 186.164C123.581 186.026 123.748 185.85 123.876 185.646C124.004 185.443 124.09 185.216 124.129 184.979C124.169 184.742 124.161 184.499 124.106 184.265L123.357 181.088L121.823 180.95L121.452 180.916L121.129 181.109L119.795 181.893Z" fill="#FFAB8A"/>
<path d="M128.61 176.157C129.105 174.843 129.649 175.373 129.662 176.391C129.676 177.409 128.865 178.922 128.39 178.323L128.287 176.625L128.61 176.157Z" fill="#FFAB8A"/>
<path d="M117.677 176.955C117.024 175.71 116.549 176.302 116.666 177.313C116.783 178.324 117.76 179.733 118.165 179.073L118.062 177.381L117.677 176.955Z" fill="#FFAB8A"/>
<path d="M117.61 177.23C117.238 176.68 116.922 176.804 116.922 177.134C116.922 177.464 117.211 178.399 117.61 178.598C117.61 178.598 117.011 177.505 117.19 177.223C117.369 176.941 117.61 177.23 117.61 177.23Z" fill="#F99273"/>
<path d="M117.643 177.168C118.276 180.73 119.459 184.423 124.004 184.045C127.876 183.729 128.536 180.098 128.735 176.48C128.962 171.123 124.259 170.545 122.835 170.49H122.615H122.423C121.047 170.765 116.763 171.886 117.643 177.168Z" fill="#FFCA9F"/>
<path d="M125.935 177.052C125.935 177.485 126.142 177.829 126.334 177.815C126.527 177.801 126.671 177.444 126.644 177.011C126.616 176.577 126.437 176.233 126.238 176.24C126.038 176.247 125.908 176.619 125.935 177.052Z" fill="#5C301D"/>
<path d="M121.515 177.319C121.515 177.752 121.722 178.096 121.914 178.082C122.107 178.068 122.251 177.711 122.224 177.277C122.196 176.844 122.017 176.5 121.818 176.514C121.619 176.528 121.488 176.885 121.515 177.319Z" fill="#5C301D"/>
<path d="M124.596 180.201H124.974C125.013 180.205 125.052 180.198 125.088 180.184C125.124 180.169 125.156 180.146 125.181 180.116C125.207 180.087 125.225 180.052 125.234 180.014C125.244 179.976 125.244 179.937 125.235 179.899L124.823 177.891L124.596 180.201Z" fill="#FFAB8A"/>
<path d="M125.62 181.219L123.041 181.363C123.189 181.613 123.406 181.814 123.666 181.943C123.926 182.071 124.218 182.12 124.506 182.085C125.537 181.982 125.62 181.219 125.62 181.219Z" fill="white"/>
<path d="M128.927 175.428L128.666 177.43L128.171 174.479L127.421 173.214L126.046 172.148C126.046 172.148 123.103 174.122 120.813 173.963C121.34 173.548 121.758 173.009 122.03 172.395C120.992 173.317 119.804 174.054 118.517 174.576C118.517 174.576 117.409 176.46 117.719 177.588C117.298 177.398 116.937 177.096 116.675 176.715C116.413 176.335 116.26 175.89 116.234 175.428C116.13 173.86 117.183 171.261 117.361 170.999C118.352 170.298 119.432 169.731 120.573 169.314C120.978 169.314 124.588 169.913 124.588 169.913L127.593 170.972C127.944 171.103 128.652 172.698 128.783 172.891C128.892 173.732 128.941 174.58 128.927 175.428Z" fill="#EF6071"/>
<path d="M139.606 209.52L140.321 212.27L139.132 216.637L135.061 215.778L135.666 212.195L134.318 209.863L139.606 209.52Z" fill="#FFCA9F"/>
<path d="M139.696 205.365L140.322 209.265L133.933 211.589L132.455 207.786L139.696 205.365Z" fill="#EAE9E8"/>
<path d="M112.425 205.365L105.219 202.408L105.088 206.706L111.325 208.948L112.425 205.365Z" fill="#EAE9E8"/>
<path d="M128.789 176.419C129.092 175.834 129.429 175.91 129.429 176.247C129.429 176.584 129.298 177.54 128.94 177.781C128.94 177.781 129.401 176.625 129.188 176.405C128.975 176.185 128.789 176.419 128.789 176.419Z" fill="#F99273"/>
<path d="M149.048 218.885H125.634C125.427 218.889 125.223 218.847 125.035 218.761C124.847 218.676 124.681 218.549 124.549 218.39C124.417 218.232 124.322 218.046 124.272 217.846C124.222 217.645 124.217 217.437 124.258 217.234L126.369 206.815C126.434 206.5 126.606 206.217 126.858 206.016C127.109 205.815 127.423 205.709 127.745 205.715H151.166C151.372 205.711 151.576 205.753 151.764 205.839C151.952 205.924 152.118 206.051 152.25 206.21C152.382 206.368 152.477 206.554 152.527 206.755C152.577 206.955 152.582 207.163 152.541 207.366L150.43 217.778C150.367 218.096 150.193 218.381 149.941 218.583C149.688 218.786 149.371 218.893 149.048 218.885Z" fill="#E3F5FC"/>
<path d="M149.927 218.885H126.548C126.341 218.889 126.137 218.847 125.949 218.761C125.761 218.676 125.595 218.549 125.463 218.39C125.331 218.232 125.236 218.046 125.186 217.846C125.136 217.645 125.131 217.437 125.172 217.234L127.283 206.815C127.348 206.5 127.521 206.217 127.772 206.016C128.023 205.815 128.337 205.709 128.659 205.715H152.073C152.279 205.711 152.484 205.753 152.671 205.839C152.859 205.924 153.025 206.051 153.157 206.21C153.289 206.368 153.384 206.554 153.434 206.755C153.485 206.955 153.489 207.163 153.448 207.366L151.303 217.778C151.24 218.094 151.067 218.379 150.816 218.581C150.565 218.784 150.25 218.891 149.927 218.885Z" fill="#F8FDFF"/>
<path d="M146.558 221.079H122.525C122.235 221.079 121.957 220.963 121.752 220.758C121.547 220.553 121.432 220.275 121.432 219.985C121.431 219.841 121.458 219.698 121.513 219.565C121.567 219.431 121.648 219.31 121.749 219.207C121.851 219.105 121.972 219.024 122.105 218.969C122.238 218.913 122.381 218.885 122.525 218.885H146.558C146.85 218.885 147.13 219.001 147.336 219.207C147.542 219.413 147.658 219.693 147.658 219.985C147.656 220.276 147.54 220.554 147.333 220.759C147.127 220.964 146.849 221.079 146.558 221.079Z" fill="#E3F5FC"/>
<path d="M149.962 221.079H125.936C125.646 221.079 125.367 220.964 125.161 220.759C124.954 220.554 124.838 220.276 124.836 219.985C124.836 219.693 124.952 219.413 125.158 219.207C125.365 219.001 125.644 218.885 125.936 218.885H149.962C150.107 218.884 150.25 218.912 150.384 218.967C150.518 219.022 150.64 219.103 150.742 219.205C150.845 219.307 150.926 219.429 150.981 219.563C151.035 219.697 151.063 219.84 151.062 219.985C151.062 220.129 151.034 220.272 150.979 220.405C150.923 220.538 150.842 220.659 150.74 220.761C150.637 220.862 150.516 220.943 150.383 220.997C150.249 221.052 150.106 221.08 149.962 221.079Z" fill="#F8FDFF"/>
<path d="M139.889 213.981C140.713 213.981 141.381 213.313 141.381 212.488C141.381 211.664 140.713 210.996 139.889 210.996C139.065 210.996 138.396 211.664 138.396 212.488C138.396 213.313 139.065 213.981 139.889 213.981Z" fill="#E3F5FC"/>
<path d="M126.287 171.453C123.908 175.841 119.294 178.55 117.306 176.384C115.319 174.218 118.166 171.453 118.166 171.453L121.508 170.766L126.287 171.453Z" fill="#EF6071"/>
<path d="M298.327 71.947H362.208C362.208 71.947 364.56 62.8622 352.781 64.2101C352.781 64.2101 353.228 53.1103 340.403 52.4433C327.579 51.7762 332.633 63.5362 332.633 63.5362C332.633 63.5362 329.587 45.9993 312.774 52.4157C295.961 58.8322 308.401 65.8951 308.401 65.8951C308.401 65.8951 291.581 63.8732 298.327 71.947Z" fill="#E1E7FF"/>
<path d="M231.757 87.1246H275.009C275.009 87.1246 276.604 80.9832 268.641 81.891C268.641 81.891 268.944 74.3811 260.259 73.9272C251.574 73.4733 255.006 81.4371 255.006 81.4371C255.006 81.4371 252.943 69.5671 241.569 73.8722C230.196 78.1773 238.633 83.0258 238.633 83.0258C238.633 83.0258 227.239 81.6641 231.757 87.1246Z" fill="#E1E7FF"/>
</g>
</g>
<defs>
<clipPath id="clip0_2428_5900">
<rect width="596" height="379" rx="24" fill="white"/>
</clipPath>
<clipPath id="clip1_2428_5900">
<rect width="444" height="277" fill="white" transform="translate(76 51)"/>
</clipPath>
</defs>
</svg>
