<svg width="596" height="379" viewBox="0 0 596 379" fill="none" xmlns="http://www.w3.org/2000/svg">
<g clip-path="url(#clip0_2428_6349)">
<rect width="596" height="379" rx="24" fill="#F1F1F1"/>
<path opacity="0.0526316" d="M-100.096 493.799C-85.7298 512.913 -39.8126 544.897 28.9234 519.926C114.843 488.711 148.074 405.97 224.758 363.067C281.358 331.402 433.442 283.871 520.893 336.393" stroke="#D2D2D5"/>
<path opacity="0.105263" d="M-114.267 453.729C-101.978 474.24 -59.6551 510.848 11.3146 493.198C100.027 471.136 141.724 392.321 222.473 357.67C282.072 332.094 438.292 300.72 519.773 362.096" stroke="#D2D2D5"/>
<path opacity="0.157895" d="M-124.975 413.119C-114.896 434.802 -76.6319 475.634 -4.2061 465.499C86.3262 452.83 136.033 378.806 219.962 352.785C281.908 333.579 440.551 318.706 515.171 388.263" stroke="#D2D2D5"/>
<path opacity="0.210526" d="M-132.178 372.334C-124.421 394.952 -90.6345 439.56 -17.546 437.051C73.8146 433.915 130.987 365.492 217.176 348.386C280.79 335.761 440.119 337.552 507.059 414.528" stroke="#D2D2D5"/>
<path opacity="0.263158" d="M-135.877 331.74C-130.527 355.044 -101.588 402.94 -28.638 408.084C62.5499 414.515 126.561 352.443 214.066 344.44C278.652 338.534 436.92 356.97 495.448 440.521" stroke="#D2D2D5"/>
<path opacity="0.315789" d="M-136.117 291.702C-133.232 315.438 -109.459 366.096 -37.4459 378.837C52.5703 394.765 122.719 339.724 210.581 340.912C275.43 341.788 430.905 376.667 480.378 465.879" stroke="#D2D2D5"/>
<path opacity="0.368421" d="M-132.97 252.579C-132.582 276.486 -114.234 329.352 -43.9474 349.551C43.9108 374.801 119.429 327.394 206.685 337.759C271.088 345.409 422.065 396.349 461.942 490.243" stroke="#D2D2D5"/>
<path opacity="0.421053" d="M-126.552 214.723C-128.665 238.54 -115.944 293.034 -48.1535 320.47C36.5842 354.764 116.644 315.511 202.339 334.94C265.589 349.281 410.414 415.722 440.258 513.27" stroke="#D2D2D5"/>
<path opacity="0.473684" d="M-117.013 178.465C-121.604 201.931 -114.648 257.456 -50.0971 291.828C30.5915 334.792 114.316 304.122 197.511 332.403C258.915 353.276 396.001 434.492 415.486 534.625" stroke="#D2D2D5"/>
<path opacity="0.526316" d="M-104.536 144.123C-111.554 166.981 -110.441 222.929 -49.8361 263.859C25.9195 315.022 112.391 293.272 192.174 330.094C251.06 357.271 378.906 452.372 387.817 553.993" stroke="#D2D2D5"/>
<path opacity="0.578947" d="M-89.341 111.995C-98.7105 133.993 -103.451 189.751 -47.457 236.792C22.5356 295.594 110.807 283.001 186.304 327.961C242.026 361.145 359.232 469.088 357.471 571.084" stroke="#D2D2D5"/>
<path opacity="0.631579" d="M-71.6705 82.3527C-83.2882 103.251 -93.831 158.208 -43.0608 210.845C20.4019 276.64 109.506 273.344 179.89 325.949C231.838 364.775 337.119 484.378 324.706 585.632" stroke="#D2D2D5"/>
<path opacity="0.684211" d="M-51.7992 55.4437C-65.5377 75.0136 -81.7673 128.567 -36.7773 186.222C19.4602 258.291 108.421 264.326 172.92 324.001C220.526 368.044 312.727 497.997 289.799 597.398" stroke="#D2D2D5"/>
<path opacity="0.736842" d="M-30.0239 31.4756C-45.7328 49.5022 -67.4714 101.066 -28.7544 163.108C19.6418 240.661 107.484 255.962 165.393 322.051C208.133 370.83 286.246 509.708 253.053 606.168" stroke="#D2D2D5"/>
<path opacity="0.789474" d="M-6.66447 10.6399C-24.1716 26.9257 -51.1809 75.9347 -19.1612 141.684C20.8634 223.87 106.625 248.27 157.308 320.05C194.716 373.029 257.884 519.312 214.79 611.774" stroke="#D2D2D5"/>
<path opacity="0.842105" d="M17.9447 -6.92057C-1.16889 7.44602 -33.1531 53.3632 -8.18146 122.099C23.0331 208.019 105.774 241.249 148.677 317.934C180.342 374.533 227.873 526.618 175.351 614.069" stroke="#D2D2D5"/>
<path opacity="0.894737" d="M43.4507 -21.0917C22.9401 -8.80173 -13.6686 33.5207 3.98141 104.49C26.0439 193.203 104.858 234.899 139.51 315.649C165.086 375.248 196.459 531.467 135.083 612.949" stroke="#D2D2D5"/>
<path opacity="0.947368" d="M69.5023 -31.7968C47.8194 -21.7181 6.98739 16.5458 17.1223 88.9716C29.791 179.504 103.815 229.211 129.837 313.14C149.042 375.086 163.915 533.729 94.3577 608.349" stroke="#D2D2D5"/>
<path d="M95.7245 -39C73.1069 -31.243 28.4989 2.54322 31.0078 75.6317C34.1438 166.992 102.567 224.164 119.673 310.354C132.298 373.968 130.506 533.297 53.5304 600.237" stroke="#D2D2D5"/>
<g style="mix-blend-mode:multiply">
<path d="M177.339 328.237H380.284C473.758 328.237 532.011 228.835 482.907 151.788C466.882 126.66 440.514 106.892 398.363 99.8638C249.512 74.896 245.352 195.669 202.099 190.03C192.598 188.751 182.997 188.305 173.414 188.699C128.877 190.739 97.2559 230.063 106.518 272.854C113.674 305.946 142.819 328.237 177.339 328.237Z" fill="#7B8BDD"/>
</g>
<path d="M131.179 138.004C131.179 138.004 131.564 147.409 133.066 150.532C134.078 152.631 129.028 157.845 125.397 155.088C122.589 152.945 120.701 141.193 121.819 138.962C123.828 134.786 124.957 130.263 125.14 125.659L131.179 138.004Z" fill="#F9AF9A"/>
<g style="mix-blend-mode:multiply" opacity="0.34">
<path d="M131.6 137.359C131.6 137.359 131.079 146.771 132.823 149.791C134 151.817 130.015 157.419 126.172 154.911C123.198 152.98 120.383 141.403 121.326 139.099C122.992 134.79 123.762 130.204 123.591 125.606L131.6 137.359Z" fill="#F9AF9A"/>
</g>
<g style="mix-blend-mode:multiply">
<path d="M120.625 332.377C154.769 332.377 182.448 330.173 182.448 327.455C182.448 324.737 154.769 322.533 120.625 322.533C86.4813 322.533 58.8021 324.737 58.8021 327.455C58.8021 330.173 86.4813 332.377 120.625 332.377Z" fill="#C7E9F9"/>
</g>
<path d="M90.5888 300.025C90.5888 300.025 81.3115 313.24 81.1077 316.655C80.9039 320.07 89.2149 330.938 85.1235 329.475C81.0322 328.013 64.2592 313.51 67.3768 311.806C70.4943 310.102 75.2047 303.374 75.2047 303.374L90.5888 300.025Z" fill="#F9AF9A"/>
<path d="M90.6113 332.326C94.5969 333.145 90.6113 324.53 80.7226 316.405C76.5832 314.703 72.9199 312.074 70.0337 308.733C69.0071 310.291 66.2594 311.622 64.878 314.65C63.4136 317.904 83.0023 330.746 90.6113 332.326Z" fill="#F23A30"/>
<path d="M79.6282 320.514C79.6282 320.514 80.5039 318.927 85.418 320.595L79.6282 320.514Z" fill="white"/>
<path d="M82.2929 322.154C82.2929 322.154 83.0024 320.874 86.9881 322.227L82.2929 322.154Z" fill="white"/>
<path d="M84.0665 323.5C84.0665 323.5 84.6628 322.417 88.0295 323.558L84.0665 323.5Z" fill="white"/>
<path d="M132.537 226.882C132.537 226.882 128.763 257.869 122.339 266.375C115.915 274.88 82.331 313.253 82.331 313.253L71.8988 306.942C71.8988 306.942 80.3005 276.423 89.2607 267.64C94.9146 262.104 99.2626 257.957 99.6702 252.282C102.191 217.368 105.158 206.142 105.158 206.142L132.537 226.882Z" fill="#0A5487"/>
<g style="mix-blend-mode:multiply" opacity="0.2">
<path d="M132.537 226.882C132.537 226.882 128.763 257.869 122.339 266.375C115.915 274.88 82.331 313.253 82.331 313.253L71.8988 306.942C71.8988 306.942 80.3005 276.423 89.2607 267.64C94.9146 262.104 99.2626 257.957 99.6702 252.282C102.191 217.368 105.158 206.142 105.158 206.142L132.537 226.882Z" fill="#0A5487"/>
</g>
<path d="M161.109 300.806C161.109 300.806 163.373 316.639 165.6 319.301C167.827 321.963 181.497 324.633 177.451 326.198C173.405 327.763 149.642 326.147 150.774 322.856C151.907 319.565 150.729 311.505 150.729 311.505L161.109 300.806Z" fill="#F9AF9A"/>
<g style="mix-blend-mode:multiply" opacity="0.15">
<path d="M130.958 237.355L126.647 232.63L116.336 221.66C116.336 221.66 120.54 248.134 116.336 260.904C112.131 273.673 89.8402 304.681 89.8402 304.681C100.144 292.863 117.914 272.334 122.375 266.374C126.3 261.108 129.274 247.169 130.958 237.355Z" fill="#0A5487"/>
</g>
<path d="M106.796 196.474C106.796 196.474 99.5119 204.643 110.933 221.866C122.354 239.089 140.071 253.313 139.965 259.515C139.859 265.716 135.436 267.516 138.765 279.743C142.094 291.971 150.805 315.645 150.805 315.645L163.637 314.84C163.637 314.84 158.406 261.453 157.991 254.608C157.576 247.762 138.365 203.414 138.365 203.414L106.796 196.474Z" fill="#0A5487"/>
<g style="mix-blend-mode:multiply" opacity="0.1">
<path d="M145.045 280.095C143.535 267.531 148.208 266.368 149.227 260.247C149.559 258.302 148.223 255.31 145.974 251.529C152.088 253.723 153.598 253.541 145.928 248.67C144.902 248.019 143.52 246.352 142.607 245.569C141.694 244.787 141.49 244.18 144.607 244.947C148.525 245.92 149.363 245.101 143.188 240.245C136.017 234.668 130.261 227.573 126.362 219.504C126.272 219.322 126.181 219.131 126.098 218.941C121.999 210.224 121.667 204.037 122.475 199.927L106.796 196.482C106.796 196.482 99.5119 204.651 110.933 221.874C122.354 239.097 140.071 253.321 139.965 259.523C139.859 265.725 135.436 267.524 138.765 279.752C142.094 291.98 150.805 315.646 150.805 315.646H151.288C150.118 309.853 146.276 290.685 145.045 280.095Z" fill="#0A5487"/>
</g>
<path d="M183.67 327.345C187.649 325.729 178.847 320.551 165.154 319.301C160.494 320.245 155.669 320.105 151.076 318.891C151.151 320.844 149.566 323.623 150.275 327.046C151.045 330.724 176.069 330.432 183.67 327.345Z" fill="#F23A30"/>
<path d="M166.761 323.506C166.761 323.506 167.365 320.581 171.849 320.193L166.761 323.506Z" fill="white"/>
<path d="M170.097 323.376C170.097 323.376 170.671 320.692 174.219 320.692L170.097 323.376Z" fill="white"/>
<path d="M172.484 323.506C172.484 323.506 172.945 321.4 175.964 321.239L172.484 323.506Z" fill="white"/>
<path d="M143.497 131.911C142.395 131.012 141.678 128.701 141.685 128.562C142.221 121.102 135.835 116.86 130.257 118.411C125.108 119.873 121.123 129.176 123.569 135.582C126.014 141.989 128.196 144.044 134.484 142.94C137.828 142.355 141.942 138.735 142.1 133.878C142.467 133.806 142.809 133.646 143.096 133.414C143.383 133.181 143.607 132.884 143.746 132.547C143.92 132.24 143.769 132.138 143.497 131.911Z" fill="#F9AF9A"/>
<g style="mix-blend-mode:multiply" opacity="0.34">
<path d="M130.258 118.41C131.728 117.999 133.269 117.882 134.787 118.066C134.092 118.205 132.069 118.936 132.741 118.673C141.55 115.199 125.789 117.21 128.469 132.568C129.178 136.605 131.745 142.537 137.006 141.988C128.793 145.396 125.993 141.82 123.6 135.56C121.124 129.175 125.14 119.851 130.258 118.41Z" fill="#F9AF9A"/>
</g>
<path d="M119.244 141.015C119.456 140.798 119.721 140.636 120.016 140.546C120.31 140.456 120.624 140.44 120.926 140.5C121.229 140.56 121.51 140.694 121.744 140.889C121.978 141.084 122.157 141.334 122.263 141.615C123.186 143.938 124.839 145.92 126.989 147.283C131.329 150.164 132.393 147.488 132.393 147.488C137.22 159.742 140.074 172.642 140.855 185.736C141.912 204.21 142.056 211.063 142.056 211.063C142.056 211.063 117.508 214.807 106.366 209.271C100.402 206.302 100.667 206.199 104.267 181.751C107.981 156.542 113.22 147.334 119.244 141.015Z" fill="#FFCF73"/>
<path d="M198.775 193.109L199.477 161.925C199.49 161.343 199.385 160.765 199.167 160.222C198.949 159.679 198.623 159.184 198.207 158.763C197.791 158.343 197.294 158.006 196.744 157.772C196.194 157.538 195.602 157.411 195.001 157.398L162.262 156.667L156.843 153.142L141.813 152.828C141.201 152.815 140.593 152.921 140.024 153.141C139.455 153.36 138.937 153.688 138.501 154.104C138.066 154.521 137.721 155.018 137.487 155.566C137.253 156.115 137.135 156.703 137.141 157.296L136.801 191.888C136.783 193.572 137.451 195.195 138.661 196.404C139.871 197.614 141.525 198.311 143.263 198.346L192.004 199.377C192.874 199.398 193.74 199.253 194.551 198.949C195.363 198.645 196.105 198.189 196.734 197.607C197.363 197.024 197.868 196.327 198.218 195.555C198.568 194.784 198.758 193.952 198.775 193.109Z" fill="#BD8B26"/>
<path d="M198.775 193.782L199.477 162.598C199.49 162.016 199.385 161.437 199.167 160.895C198.949 160.352 198.623 159.856 198.207 159.436C197.791 159.016 197.294 158.679 196.744 158.444C196.194 158.21 195.602 158.083 195.001 158.071L162.262 157.376L156.843 153.815L141.813 153.5C141.201 153.487 140.593 153.594 140.024 153.813C139.455 154.032 138.937 154.36 138.501 154.777C138.066 155.194 137.721 155.691 137.487 156.239C137.253 156.787 137.135 157.375 137.141 157.969L136.801 192.561C136.783 194.245 137.451 195.868 138.661 197.077C139.871 198.286 141.525 198.984 143.263 199.018L192.004 200.05C192.874 200.071 193.74 199.926 194.551 199.622C195.363 199.318 196.105 198.862 196.734 198.279C197.363 197.697 197.868 197 198.218 196.228C198.568 195.456 198.758 194.625 198.775 193.782Z" fill="#FCBA33"/>
<g style="mix-blend-mode:multiply" opacity="0.28">
<path d="M192.247 190.234L179.203 189.956C169.254 189.749 159.692 186.184 152.165 179.877C144.638 173.57 139.619 164.917 137.973 155.408C137.432 156.158 137.147 157.053 137.158 157.968L136.818 192.56C136.8 194.244 137.468 195.867 138.678 197.076C139.888 198.285 141.542 198.983 143.28 199.018L192.021 200.049C192.889 200.067 193.752 199.92 194.561 199.615C195.371 199.31 196.11 198.853 196.737 198.271C197.363 197.689 197.865 196.992 198.214 196.222C198.563 195.452 198.752 194.622 198.769 193.781L198.996 183.974C198.956 185.671 198.223 187.283 196.958 188.457C195.693 189.63 193.999 190.27 192.247 190.234Z" fill="#FED70A"/>
</g>
<path d="M193.951 201.608L198.48 170.724C198.65 169.561 198.337 168.38 197.61 167.441C196.882 166.502 195.8 165.881 194.6 165.714L162.141 161.253L157.257 157.106L142.371 155.058C141.769 154.98 141.157 155.018 140.57 155.171C139.984 155.324 139.434 155.588 138.954 155.949C138.474 156.31 138.073 156.76 137.775 157.272C137.476 157.785 137.286 158.35 137.215 158.935L132.626 193.241C132.4 194.913 132.864 196.603 133.917 197.945C134.97 199.287 136.527 200.172 138.249 200.408L186.561 207.049C188.283 207.266 190.025 206.817 191.408 205.798C192.792 204.78 193.705 203.274 193.951 201.608Z" fill="#052A44"/>
<path d="M193.951 202.113L198.48 171.229C198.65 170.066 198.337 168.886 197.61 167.946C196.882 167.007 195.8 166.386 194.6 166.219L162.141 161.758L157.227 157.597L142.341 155.549C141.735 155.465 141.118 155.5 140.526 155.651C139.934 155.803 139.379 156.068 138.895 156.43C138.411 156.793 138.006 157.247 137.706 157.763C137.406 158.28 137.216 158.85 137.148 159.44L132.558 193.747C132.332 195.418 132.796 197.109 133.849 198.45C134.902 199.792 136.459 200.678 138.182 200.914L186.493 207.554C188.226 207.79 189.986 207.349 191.384 206.329C192.783 205.309 193.706 203.793 193.951 202.113Z" fill="#0A5487"/>
<g style="mix-blend-mode:multiply" opacity="0.28">
<path d="M187.904 197.833L174.959 196.056C165.108 194.698 156.054 190.054 149.357 182.924C142.661 175.794 138.741 166.625 138.272 156.995C137.647 157.678 137.254 158.531 137.148 159.438L132.558 193.745C132.332 195.416 132.796 197.107 133.849 198.448C134.902 199.79 136.459 200.676 138.182 200.912L186.493 207.552C187.352 207.67 188.226 207.623 189.066 207.413C189.907 207.203 190.696 206.835 191.389 206.33C192.082 205.825 192.666 205.192 193.107 204.468C193.548 203.744 193.837 202.943 193.958 202.111L195.385 192.399C195.263 193.232 194.972 194.034 194.53 194.758C194.088 195.482 193.503 196.114 192.808 196.619C192.113 197.124 191.322 197.491 190.481 197.699C189.64 197.907 188.764 197.953 187.904 197.833Z" fill="#FED70A"/>
</g>
<path d="M189.016 210.837L196.527 180.509C196.666 179.943 196.689 179.356 196.594 178.781C196.499 178.206 196.288 177.655 195.973 177.159C195.659 176.664 195.246 176.233 194.759 175.892C194.273 175.55 193.722 175.305 193.137 175.17L161.29 167.776L156.798 163.191L142.177 159.79C141.581 159.653 140.964 159.632 140.36 159.73C139.756 159.828 139.179 160.042 138.663 160.359C138.146 160.677 137.7 161.092 137.352 161.58C137.004 162.067 136.761 162.618 136.636 163.198L128.732 196.935C128.349 198.578 128.649 200.301 129.567 201.731C130.486 203.162 131.948 204.184 133.639 204.577L181.052 215.584C181.897 215.779 182.773 215.812 183.63 215.679C184.488 215.547 185.31 215.252 186.05 214.811C186.79 214.37 187.432 213.792 187.941 213.11C188.45 212.428 188.815 211.656 189.016 210.837Z" fill="#BD8B26"/>
<path d="M189.016 211.679L196.527 181.343C196.667 180.777 196.691 180.189 196.596 179.613C196.502 179.038 196.291 178.486 195.976 177.989C195.662 177.493 195.249 177.061 194.762 176.719C194.274 176.378 193.722 176.132 193.137 175.997L161.29 168.603L156.798 164.018L142.177 160.625C141.582 160.486 140.964 160.464 140.361 160.561C139.757 160.658 139.18 160.871 138.663 161.189C138.146 161.506 137.701 161.92 137.352 162.408C137.004 162.895 136.76 163.445 136.636 164.025L128.732 197.762C128.349 199.405 128.649 201.128 129.567 202.558C130.486 203.989 131.948 205.011 133.639 205.404L181.052 216.374C182.75 216.771 184.542 216.5 186.035 215.62C187.527 214.74 188.599 213.323 189.016 211.679Z" fill="#FCBA33"/>
<g style="mix-blend-mode:multiply" opacity="0.28">
<path d="M183.415 206.836L170.726 203.911C161.048 201.666 152.482 196.221 146.503 188.514C140.524 180.807 137.507 171.321 137.972 161.691C137.282 162.313 136.81 163.129 136.621 164.024L128.718 197.76C128.334 199.403 128.634 201.127 129.552 202.557C130.471 203.987 131.934 205.01 133.624 205.403L181.037 216.373C181.881 216.569 182.756 216.602 183.613 216.47C184.47 216.338 185.291 216.045 186.031 215.605C186.77 215.166 187.413 214.589 187.923 213.909C188.432 213.229 188.799 212.458 189.001 211.641L191.364 202.097C190.957 203.746 189.891 205.171 188.401 206.06C186.911 206.948 185.118 207.227 183.415 206.836Z" fill="#FED70A"/>
</g>
<path d="M186.329 217.287L196.391 187.654C196.77 186.537 196.676 185.321 196.13 184.272C195.584 183.222 194.629 182.427 193.477 182.059L162.37 172.142L158.278 167.205L144.011 162.657C143.432 162.47 142.819 162.398 142.211 162.445C141.602 162.492 141.009 162.657 140.467 162.929C139.925 163.202 139.445 163.577 139.056 164.033C138.666 164.489 138.375 165.015 138.199 165.582L127.404 198.594C126.871 200.205 127.017 201.955 127.81 203.462C128.603 204.97 129.98 206.111 131.639 206.639L177.98 221.368C179.646 221.897 181.46 221.765 183.025 221C184.59 220.235 185.779 218.9 186.329 217.287Z" fill="#1F756C"/>
<path d="M186.237 218.128L196.307 188.494C196.684 187.377 196.588 186.16 196.04 185.111C195.493 184.063 194.538 183.267 193.386 182.899L162.278 172.982L158.194 168.075L143.912 163.526C143.332 163.34 142.72 163.268 142.11 163.314C141.501 163.361 140.908 163.526 140.365 163.798C139.822 164.071 139.342 164.446 138.952 164.902C138.561 165.358 138.269 165.885 138.092 166.451L127.351 199.442C126.825 201.048 126.974 202.79 127.767 204.29C128.56 205.79 129.933 206.926 131.585 207.45L177.896 222.194C179.559 222.724 181.371 222.593 182.934 221.831C184.498 221.069 185.686 219.737 186.237 218.128Z" fill="#299C90"/>
<g style="mix-blend-mode:multiply" opacity="0.15">
<path d="M181.059 212.885L168.664 208.936C159.214 205.92 151.145 199.804 145.849 191.644C140.552 183.483 138.359 173.788 139.647 164.229C138.907 164.787 138.364 165.554 138.092 166.423L127.351 199.414C126.825 201.02 126.974 202.763 127.767 204.262C128.56 205.762 129.933 206.898 131.585 207.422L177.896 222.195C179.561 222.724 181.374 222.592 182.938 221.826C184.502 221.061 185.689 219.726 186.237 218.114L189.408 208.79C188.861 210.405 187.674 211.744 186.108 212.512C184.543 213.279 182.727 213.414 181.059 212.885Z" fill="#299C90"/>
</g>
<path d="M122.633 154.261C124.354 154.575 123.388 156.893 124.21 158.4C125.245 160.331 127.592 159.373 128.989 164.097C131.08 171.176 132.763 181.152 133.518 181.452C137.8 183.161 141.872 185.33 145.656 187.917C150.638 191.508 160.58 193.438 161.833 193.116C163.086 192.795 166.951 191.178 162.482 194.433C158.013 197.687 161.516 198.755 152.941 198.733C149.883 198.733 140.07 196.312 134.56 195.12C129.049 193.928 122.761 192.195 119.991 187.522C117.22 182.849 109.694 151.884 122.633 154.261Z" fill="#F9AF9A"/>
<g style="mix-blend-mode:multiply" opacity="0.15">
<path d="M118.927 174.534L113.062 169.313C113.062 169.313 109.688 188.327 127.344 196.299C135.912 200.182 152.066 199.648 152.066 199.648L127.042 189.139L118.927 174.534Z" fill="#299C90"/>
</g>
<path d="M173.105 194.134C172.923 193.541 172.025 194.06 169.949 194.645L169.708 194.726C169.36 194.792 168.998 194.85 168.636 194.894H168.017C169.715 194.528 171.957 193.592 171.851 193.022C171.716 192.291 170.885 192.868 168.251 193.6C166.545 194.068 165.156 194.031 164.665 193.665C163.397 192.715 167.164 190.396 165.292 190.74C164.332 190.977 163.393 191.288 162.484 191.669C161.102 192.261 158.234 193.402 157.237 193.132C156.108 192.803 154.901 192.828 153.788 193.205C153.788 193.205 148.632 192.927 152.761 196.13C154.15 197.205 153.584 198.529 155.531 199.055C159.404 200.152 166.167 199.787 168.613 199.055L169.089 198.931C170.357 198.653 171.353 198.149 171.353 197.812C171.353 197.293 169.776 197.556 168.643 197.885C168.279 197.982 167.904 198.039 167.526 198.053C169.791 197.717 172.372 196.781 172.365 196.203C172.357 195.625 170.47 196.042 169.119 196.415C168.703 196.524 168.274 196.578 167.843 196.576C170.198 196.13 173.376 195.026 173.105 194.134Z" fill="#F9AF9A"/>
<path d="M133.602 181.123C133.791 177.62 133.089 170.445 132.523 167.088C131.908 163.42 130.922 159.819 129.579 156.338C128.981 154.746 127.831 153.404 126.325 152.542C120.823 149.544 113.055 153.829 112.421 162.569L113.07 169.312C114.029 174.277 115.086 179.594 116.588 183.726C120.113 198.133 152.066 199.647 152.066 199.647L154.089 191.032L133.602 181.123Z" fill="#FFCF73"/>
<path d="M382.584 114.653L344.751 122.646L333.76 73.8006L357.629 68.7617L374.764 79.8707L382.584 114.653Z" fill="white"/>
<path d="M375.021 79.7829L360.8 82.7887L357.644 68.7617" fill="#DDDDDD"/>
<path d="M340.842 79.6491L356.233 76.402" stroke="#D9F2FF" stroke-width="2.09" stroke-miterlimit="10"/>
<path d="M341.966 84.6606L357.357 81.4135" stroke="#D9F2FF" stroke-width="2.09" stroke-miterlimit="10"/>
<path d="M343.265 90.4157L371.225 84.5138" stroke="#D9F2FF" stroke-width="2.09" stroke-miterlimit="10"/>
<path d="M344.556 96.1632L372.524 90.2614" stroke="#D9F2FF" stroke-width="2.09" stroke-miterlimit="10"/>
<path d="M345.845 101.919L373.813 96.0172" stroke="#D9F2FF" stroke-width="2.09" stroke-miterlimit="10"/>
<path d="M347.142 107.675L375.103 101.773" stroke="#D9F2FF" stroke-width="2.09" stroke-miterlimit="10"/>
<path d="M348.436 113.432L376.403 107.523" stroke="#D9F2FF" stroke-width="2.09" stroke-miterlimit="10"/>
<path d="M111.983 142.281C114.293 145.674 119.969 145.726 122.551 142.537C122.612 142.464 121.449 139.546 121.449 139.546C119.649 139.398 117.899 138.893 116.308 138.062C114.718 137.232 113.32 136.094 112.202 134.719C110.92 133.28 109.752 131.75 108.707 130.141C108.473 129.797 107.877 130.309 107.499 130.646C106.231 131.764 106.556 133.439 107.024 135.034C107.869 137.871 111.983 142.281 111.983 142.281Z" fill="white"/>
<path d="M429.001 82.9115C423.974 72.3218 412.394 70.5666 399.697 75.3056C384.343 81.0319 367.336 96.2291 358.18 116.78C341.505 154.334 355.281 162.685 357.07 182.044C358.859 201.402 330.748 237.698 359.335 256.954C394.262 280.496 393.636 224.191 388.525 207.677C383.415 191.164 375.64 160.616 391.462 143.21C407.284 125.804 437.063 99.9004 429.001 82.9115Z" fill="#588E4D"/>
<g style="mix-blend-mode:multiply" opacity="0.42">
<path d="M368.099 144.234C368.393 143.086 368.725 141.952 369.095 140.826L379.527 105.246L377.64 123.193C380.144 119.294 382.887 115.542 385.853 111.96L396.512 87.965L393.568 103.323C397.689 99.0081 401.524 95.41 404.423 92.6821L411.473 76.8121L409.209 88.6817C414.145 85.1055 420.532 81.8071 426.57 79.072C427.534 80.2674 428.35 81.5683 429.001 82.948C437.063 99.9369 407.284 125.899 391.462 143.276C375.64 160.652 383.423 191.2 388.533 207.714C393.334 223.225 394.179 273.87 365.283 260.37C357.214 246.906 364 226.809 369.933 215.919C378.063 200.971 370.914 195.23 366.77 163.088C365.995 156.78 366.446 150.388 368.099 144.241V144.234Z" fill="#299C90"/>
</g>
<path d="M128.319 130.88C128.52 128.76 129.567 126.8 131.235 125.416C132.904 124.031 135.064 123.331 137.256 123.464C140.276 123.639 143.756 123.522 145.144 121.643C147.13 118.966 144.125 116.18 142.072 117.255C140.019 118.33 140.155 114.637 137.717 115.017C135.278 115.397 133.391 115.478 131.723 115.017C127.473 113.774 120.634 115.492 119.124 121.102C117.615 126.711 114.633 122.989 110.685 128.744C106.737 134.5 111.342 140.789 105.816 145.25C100.291 149.711 91.9267 155.738 93.5119 163.3C95.4293 172.463 100.419 174.591 106.933 174.226C115.992 173.729 114.361 164.068 119.124 162.1C124.212 160.001 125.722 156.074 124.106 149.185C123.087 144.848 127.881 142.72 128.575 138.858C129.149 135.516 128.017 134.258 128.319 130.88Z" fill="#063956"/>
<path d="M525.632 114.945C527.391 99.799 515.661 90.2551 498.125 87.2493C476.944 83.5927 447.3 89.5019 422.76 106.542C377.891 137.675 387.493 156.046 376.004 178.893C364.515 201.74 307.719 223.987 326.288 264.24C348.98 313.466 387.538 250 393.328 228.17C399.118 206.34 411.701 167.031 441.533 157.962C471.365 148.894 522.809 139.247 525.632 114.945Z" fill="#588E4D"/>
<g style="mix-blend-mode:multiply" opacity="0.42">
<path d="M414.681 143.752C415.813 142.66 416.976 141.607 418.169 140.593L454.651 107.573L440.022 126.427C445.548 123.706 451.234 121.304 457.051 119.23L485.736 99.3306L471.756 114.572C479.38 112.436 486.182 110.915 491.33 109.759L510.292 96.5955L499.452 108.399C507.476 107.624 516.904 108.099 525.608 109.014C525.854 110.983 525.854 112.975 525.608 114.945C522.785 139.247 471.341 148.835 441.509 157.932C411.677 167.03 399.101 206.332 393.303 228.141C387.861 248.654 353.5 305.911 330.537 271.918C330.884 251.558 352.496 233.501 366.732 225.186C386.26 213.77 382.26 202.661 400.029 163.959C403.558 156.387 408.52 149.523 414.658 143.723L414.681 143.752Z" fill="#299C90"/>
</g>
<path d="M519.306 216.579C525.088 204.095 517.751 192.832 503.612 185.614C486.537 176.896 459.543 174.081 433.75 182.133C386.624 196.862 389.643 215.101 373.361 231.586C357.078 248.07 363.147 295.416 374.267 278.289C385.386 261.161 407.224 230.905 435.29 231.037C463.355 231.169 510.036 236.603 519.306 216.579Z" fill="#588E4D"/>
<g style="mix-blend-mode:multiply" opacity="0.42">
<path d="M416.343 211.802C417.619 211.166 418.917 210.581 420.223 210.025L460.721 191.479L442.937 203.707C448.434 202.846 453.98 202.299 459.544 202.068L489.663 192.663L473.358 201.981C480.476 202.171 486.719 202.675 491.474 203.048L511.395 196.825L498.796 204.043C505.869 205.506 513.795 208.431 520.982 211.503C520.638 213.252 520.08 214.956 519.321 216.578C510.051 236.602 463.378 231.161 435.313 231.037C407.247 230.912 385.386 261.16 374.244 278.288C363.797 294.377 337.852 272.064 352.353 268.722C372.266 264.144 371.98 253.591 398.098 225.222C403.25 219.688 409.425 215.136 416.305 211.802H416.343Z" fill="#299C90"/>
</g>
<g style="mix-blend-mode:multiply" opacity="0.15">
<path d="M131.239 160.03L133.088 175.834C133.088 175.834 133.601 158.282 132.907 157.594C132.212 156.907 131.239 160.03 131.239 160.03Z" fill="#299C90"/>
</g>
<path d="M374.931 329.057C362.741 319.212 355.084 305.081 353.644 289.769L353.108 283.992L337.316 281.293L302.027 283.992L301.483 289.769C300.773 297.351 298.528 304.723 294.877 311.464C291.226 318.205 286.24 324.183 280.204 329.057L279.743 329.43H375.392L374.931 329.057Z" fill="#FFFFFB"/>
<path opacity="0.8" d="M301.484 289.769C300.975 295.111 299.705 300.358 297.71 305.361H357.412C355.417 300.358 354.147 295.111 353.638 289.769L353.102 283.992L337.31 281.293L302.02 283.992L301.484 289.769Z" fill="#CCCBCA"/>
<path d="M436.619 135.992H218.516C212.392 135.992 207.427 140.802 207.427 146.735V283.999C207.427 289.933 212.392 294.743 218.516 294.743H436.619C442.743 294.743 447.708 289.933 447.708 283.999V146.735C447.708 140.802 442.743 135.992 436.619 135.992Z" fill="#00325B"/>
<path d="M439.025 143.671H216.107V262.579H439.025V143.671Z" fill="#D0E5FA" fill-opacity="0.3"/>
<path d="M207.417 270.946V283.993C207.417 286.843 208.585 289.575 210.665 291.59C212.744 293.605 215.565 294.737 218.506 294.737H436.616C439.557 294.737 442.377 293.605 444.457 291.59C446.536 289.575 447.704 286.843 447.704 283.993V270.946H207.417Z" fill="#FFFFFB"/>
<path opacity="0.8" d="M327.571 287.665C330.777 287.665 333.376 285.147 333.376 282.041C333.376 278.935 330.777 276.417 327.571 276.417C324.365 276.417 321.766 278.935 321.766 282.041C321.766 285.147 324.365 287.665 327.571 287.665Z" fill="#CCCBCA"/>
<path d="M378.637 197.709V174.306C378.635 172.285 377.805 170.346 376.329 168.917C374.852 167.489 372.851 166.686 370.764 166.686H314.421L305.008 160.762H279.131C278.079 160.763 277.037 160.968 276.068 161.365C275.098 161.763 274.221 162.344 273.488 163.076C272.754 163.807 272.18 164.674 271.798 165.625C271.417 166.575 271.236 167.59 271.266 168.609L272.149 197.709H378.637Z" fill="#FCBA33"/>
<g style="mix-blend-mode:multiply">
<path d="M282.378 172.903V220.447H374.154V173.013L282.378 172.903Z" fill="#FED70A"/>
</g>
<path d="M279.003 176.172V223.708H370.341V176.274L279.003 176.172Z" fill="white"/>
<path d="M268.442 190.477L275.832 245.598C276.027 246.832 276.676 247.956 277.66 248.762C278.644 249.569 279.896 250.003 281.184 249.986H369.85C371.138 250.002 372.389 249.567 373.373 248.761C374.356 247.954 375.006 246.831 375.202 245.598L383 190.499C383.09 189.772 383.018 189.036 382.789 188.339C382.56 187.642 382.179 187 381.673 186.457C381.166 185.915 380.546 185.484 379.853 185.193C379.16 184.902 378.411 184.759 377.656 184.772H273.794C273.041 184.758 272.293 184.9 271.601 185.189C270.909 185.478 270.288 185.907 269.781 186.447C269.274 186.988 268.893 187.627 268.662 188.322C268.431 189.017 268.356 189.752 268.442 190.477Z" fill="#FFEE98"/>
<path d="M268.261 191.998L275.651 247.104C275.838 248.345 276.483 249.479 277.467 250.294C278.452 251.109 279.708 251.55 281.003 251.536H369.714C371.002 251.552 372.252 251.117 373.234 250.31C374.216 249.504 374.864 248.381 375.059 247.148L382.857 192.049C382.946 191.323 382.874 190.586 382.645 189.889C382.416 189.192 382.036 188.55 381.529 188.008C381.023 187.465 380.402 187.034 379.709 186.743C379.016 186.452 378.267 186.309 377.512 186.323H273.613C272.862 186.309 272.117 186.45 271.428 186.738C270.738 187.025 270.119 187.451 269.613 187.988C269.106 188.525 268.724 189.16 268.491 189.852C268.258 190.543 268.179 191.275 268.261 191.998Z" fill="#FCBA33"/>
<g style="mix-blend-mode:screen" opacity="0.4">
<path d="M377.264 231.263L382.819 192.034C382.909 191.308 382.837 190.572 382.608 189.874C382.379 189.177 381.999 188.536 381.492 187.993C380.986 187.45 380.365 187.019 379.672 186.729C378.979 186.438 378.23 186.295 377.475 186.308H301.234L377.264 231.263Z" fill="#FED70A"/>
</g>
<g style="mix-blend-mode:screen" opacity="0.4">
<path d="M290.235 186.307L376.236 238.517L375.693 242.02L286.438 186.307H290.235Z" fill="#FED70A"/>
</g>
<g style="mix-blend-mode:screen" opacity="0.58">
<path d="M445.953 140.966C444.955 139.44 443.575 138.184 441.941 137.313C440.307 136.442 438.473 135.986 436.608 135.986H218.513C215.57 135.986 212.748 137.118 210.667 139.135C208.586 141.151 207.417 143.885 207.417 146.736V272.358L445.953 140.966Z" fill="#00325B"/>
</g>
<path d="M171.706 150.194C188.939 71.627 321.923 72.4387 332.672 150.45" stroke="white" stroke-width="2" stroke-miterlimit="10" stroke-dasharray="7.27 10.9"/>
<path d="M333.369 160.762L326.145 146.691L332.531 149.697L338.389 145.814L333.369 160.762Z" fill="white"/>
<path d="M444.801 255.741L419.846 238.927L442.967 206.712L458.706 217.316L461.265 232.799L444.801 255.741Z" fill="white"/>
<path d="M461.46 232.893L452.077 226.575L458.72 217.323" fill="#DDDDDD"/>
<path d="M443.277 213.784L453.43 220.622" stroke="#D9F2FF" stroke-width="1.64" stroke-miterlimit="10"/>
<path d="M440.907 217.081L451.06 223.927" stroke="#D9F2FF" stroke-width="1.64" stroke-miterlimit="10"/>
<path d="M438.181 220.879L456.622 233.304" stroke="#D9F2FF" stroke-width="1.64" stroke-miterlimit="10"/>
<path d="M435.455 224.674L453.896 237.1" stroke="#D9F2FF" stroke-width="1.64" stroke-miterlimit="10"/>
<path d="M432.731 228.47L451.179 240.895" stroke="#D9F2FF" stroke-width="1.64" stroke-miterlimit="10"/>
<path d="M430.013 232.265L448.454 244.691" stroke="#D9F2FF" stroke-width="1.64" stroke-miterlimit="10"/>
<path d="M427.287 236.061L445.728 248.486" stroke="#D9F2FF" stroke-width="1.64" stroke-miterlimit="10"/>
<path d="M156.844 114.294L131.888 97.4809L155.01 65.2656L170.749 75.87L173.308 91.3523L156.844 114.294Z" fill="white"/>
<path d="M173.503 91.4472L164.12 85.1285L170.763 75.8771" fill="#DDDDDD"/>
<path d="M155.318 72.3379L165.471 79.1759" stroke="#D9F2FF" stroke-width="1.64" stroke-miterlimit="10"/>
<path d="M152.947 75.6351L163.1 82.4731" stroke="#D9F2FF" stroke-width="1.64" stroke-miterlimit="10"/>
<path d="M150.223 79.4305L168.665 91.8559" stroke="#D9F2FF" stroke-width="1.64" stroke-miterlimit="10"/>
<path d="M147.497 83.2261L165.939 95.6514" stroke="#D9F2FF" stroke-width="1.64" stroke-miterlimit="10"/>
<path d="M144.773 87.0236L163.222 99.4489" stroke="#D9F2FF" stroke-width="1.64" stroke-miterlimit="10"/>
<path d="M142.056 90.817L160.497 103.242" stroke="#D9F2FF" stroke-width="1.64" stroke-miterlimit="10"/>
<path d="M139.33 94.6125L157.771 107.038" stroke="#D9F2FF" stroke-width="1.64" stroke-miterlimit="10"/>
<path d="M271.96 151.6L238.61 168.055L215.972 125.008L237.017 114.624L255.843 120.935L271.96 151.6Z" fill="white"/>
<path d="M256.064 120.788L243.526 126.975L237.026 114.615" fill="#DDDDDD"/>
<path d="M224.071 128.787L237.644 122.096" stroke="#D9F2FF" stroke-width="2.02" stroke-miterlimit="10"/>
<path d="M226.397 133.207L239.962 126.508" stroke="#D9F2FF" stroke-width="2.02" stroke-miterlimit="10"/>
<path d="M229.062 138.275L253.708 126.113" stroke="#D9F2FF" stroke-width="2.02" stroke-miterlimit="10"/>
<path d="M231.727 143.349L256.373 131.187" stroke="#D9F2FF" stroke-width="2.02" stroke-miterlimit="10"/>
<path d="M234.391 148.416L259.045 136.254" stroke="#D9F2FF" stroke-width="2.02" stroke-miterlimit="10"/>
<path d="M237.06 153.493L261.706 141.323" stroke="#D9F2FF" stroke-width="2.02" stroke-miterlimit="10"/>
<path d="M239.729 158.56L264.375 146.398" stroke="#D9F2FF" stroke-width="2.02" stroke-miterlimit="10"/>
<path d="M514.309 155.093L472.625 170.546L451.368 116.75L477.66 106.994L499.166 116.779L514.309 155.093Z" fill="white"/>
<path d="M499.444 116.633L483.781 122.439L477.674 106.994" fill="#DDDDDD"/>
<path d="M460.48 122.229L477.434 115.94" stroke="#D9F2FF" stroke-width="2.41" stroke-miterlimit="10"/>
<path d="M462.66 127.743L479.614 121.454" stroke="#D9F2FF" stroke-width="2.41" stroke-miterlimit="10"/>
<path d="M465.166 134.077L495.964 122.653" stroke="#D9F2FF" stroke-width="2.41" stroke-miterlimit="10"/>
<path d="M467.665 140.417L498.471 128.993" stroke="#D9F2FF" stroke-width="2.41" stroke-miterlimit="10"/>
<path d="M470.171 146.75L500.977 135.334" stroke="#D9F2FF" stroke-width="2.41" stroke-miterlimit="10"/>
<path d="M472.677 153.091L503.475 141.668" stroke="#D9F2FF" stroke-width="2.41" stroke-miterlimit="10"/>
<path d="M475.177 159.431L505.983 148.008" stroke="#D9F2FF" stroke-width="2.41" stroke-miterlimit="10"/>
<path d="M199.789 310.415L184.231 269.892L239.962 249.81L249.776 275.37L239.479 296.118L199.789 310.415Z" fill="white"/>
<path d="M239.63 296.387L233.78 281.154L249.783 275.384" fill="#DDDDDD"/>
<path d="M234.222 258.586L240.548 275.07" stroke="#D9F2FF" stroke-width="2.41" stroke-miterlimit="10"/>
<path d="M228.51 260.64L234.835 277.125" stroke="#D9F2FF" stroke-width="2.41" stroke-miterlimit="10"/>
<path d="M221.944 263.011L233.441 292.959" stroke="#D9F2FF" stroke-width="2.41" stroke-miterlimit="10"/>
<path d="M215.375 265.373L226.879 295.321" stroke="#D9F2FF" stroke-width="2.41" stroke-miterlimit="10"/>
<path d="M208.816 267.741L220.312 297.689" stroke="#D9F2FF" stroke-width="2.41" stroke-miterlimit="10"/>
<path d="M202.248 270.106L213.745 300.054" stroke="#D9F2FF" stroke-width="2.41" stroke-miterlimit="10"/>
<path d="M195.681 272.474L207.185 302.422" stroke="#D9F2FF" stroke-width="2.41" stroke-miterlimit="10"/>
</g>
<defs>
<clipPath id="clip0_2428_6349">
<rect width="596" height="379" rx="24" fill="white"/>
</clipPath>
</defs>
</svg>
