<svg width="596" height="379" viewBox="0 0 596 379" fill="none" xmlns="http://www.w3.org/2000/svg">
<g clip-path="url(#clip0_2428_6098)">
<rect width="596" height="379" rx="24" fill="#F2F2F2"/>
<path opacity="0.0526316" d="M-95.0964 493.799C-80.7298 512.913 -34.8126 544.897 33.9234 519.926C119.843 488.711 153.074 405.97 229.758 363.067C286.358 331.402 438.442 283.871 525.893 336.393" stroke="#D2D2D5"/>
<path opacity="0.105263" d="M-109.267 453.729C-96.9775 474.24 -54.6551 510.848 16.3146 493.198C105.027 471.136 146.724 392.321 227.473 357.67C287.072 332.094 443.292 300.72 524.773 362.096" stroke="#D2D2D5"/>
<path opacity="0.157895" d="M-119.975 413.119C-109.896 434.802 -71.6319 475.634 0.793903 465.499C91.3262 452.83 141.033 378.806 224.962 352.785C286.908 333.579 445.551 318.706 520.171 388.263" stroke="#D2D2D5"/>
<path opacity="0.210526" d="M-127.178 372.334C-119.421 394.952 -85.6345 439.56 -12.546 437.051C78.8146 433.915 135.987 365.492 222.176 348.386C285.79 335.761 445.119 337.552 512.059 414.528" stroke="#D2D2D5"/>
<path opacity="0.263158" d="M-130.877 331.74C-125.527 355.044 -96.5883 402.94 -23.638 408.084C67.5499 414.515 131.561 352.443 219.066 344.44C283.652 338.534 441.92 356.97 500.448 440.521" stroke="#D2D2D5"/>
<path opacity="0.315789" d="M-131.117 291.702C-128.232 315.438 -104.459 366.096 -32.4459 378.837C57.5703 394.765 127.719 339.724 215.581 340.912C280.43 341.788 435.905 376.667 485.378 465.879" stroke="#D2D2D5"/>
<path opacity="0.368421" d="M-127.97 252.579C-127.582 276.486 -109.234 329.352 -38.9474 349.551C48.9108 374.801 124.429 327.394 211.685 337.759C276.088 345.409 427.065 396.349 466.942 490.243" stroke="#D2D2D5"/>
<path opacity="0.421053" d="M-121.552 214.723C-123.665 238.54 -110.944 293.034 -43.1535 320.47C41.5842 354.764 121.644 315.511 207.339 334.94C270.589 349.281 415.414 415.722 445.258 513.27" stroke="#D2D2D5"/>
<path opacity="0.473684" d="M-112.013 178.465C-116.604 201.931 -109.648 257.456 -45.0971 291.828C35.5915 334.792 119.316 304.122 202.511 332.403C263.915 353.276 401.001 434.492 420.486 534.625" stroke="#D2D2D5"/>
<path opacity="0.526316" d="M-99.5355 144.123C-106.554 166.981 -105.441 222.929 -44.8361 263.859C30.9195 315.022 117.391 293.272 197.174 330.094C256.06 357.271 383.906 452.372 392.817 553.993" stroke="#D2D2D5"/>
<path opacity="0.578947" d="M-84.341 111.995C-93.7105 133.993 -98.4511 189.751 -42.457 236.792C27.5356 295.594 115.807 283.001 191.304 327.961C247.026 361.145 364.232 469.088 362.471 571.084" stroke="#D2D2D5"/>
<path opacity="0.631579" d="M-66.6705 82.3527C-78.2882 103.251 -88.831 158.208 -38.0608 210.845C25.4019 276.64 114.506 273.344 184.89 325.949C236.838 364.775 342.119 484.378 329.706 585.632" stroke="#D2D2D5"/>
<path opacity="0.684211" d="M-46.7992 55.4437C-60.5377 75.0136 -76.7673 128.567 -31.7773 186.222C24.4602 258.291 113.421 264.326 177.92 324.001C225.526 368.044 317.727 497.997 294.799 597.398" stroke="#D2D2D5"/>
<path opacity="0.736842" d="M-25.0239 31.4756C-40.7328 49.5022 -62.4714 101.066 -23.7544 163.108C24.6418 240.661 112.484 255.962 170.393 322.051C213.133 370.83 291.246 509.708 258.053 606.168" stroke="#D2D2D5"/>
<path opacity="0.789474" d="M-1.66447 10.6399C-19.1716 26.9257 -46.1809 75.9347 -14.1612 141.684C25.8634 223.87 111.625 248.27 162.308 320.05C199.716 373.029 262.884 519.312 219.79 611.774" stroke="#D2D2D5"/>
<path opacity="0.842105" d="M22.9447 -6.92057C3.83111 7.44602 -28.1531 53.3632 -3.18146 122.099C28.0331 208.019 110.774 241.249 153.677 317.934C185.342 374.533 232.873 526.618 180.351 614.069" stroke="#D2D2D5"/>
<path opacity="0.894737" d="M48.4507 -21.0917C27.9401 -8.80173 -8.66855 33.5207 8.98141 104.49C31.0439 193.203 109.858 234.899 144.51 315.649C170.086 375.248 201.459 531.467 140.083 612.949" stroke="#D2D2D5"/>
<path opacity="0.947368" d="M74.5023 -31.7968C52.8194 -21.7181 11.9874 16.5458 22.1223 88.9716C34.791 179.504 108.815 229.211 134.837 313.14C154.042 375.086 168.915 533.729 99.3577 608.349" stroke="#D2D2D5"/>
<path d="M100.725 -39C78.1069 -31.243 33.4989 2.54322 36.0078 75.6317C39.1438 166.992 107.567 224.164 124.673 310.354C137.298 373.968 135.506 533.297 58.5304 600.237" stroke="#D2D2D5"/>
<path d="M94.0001 158.583C99.5486 129.4 122.754 107.63 168.578 111.796C204.451 115.058 239.983 113.766 256.341 100.83C272.697 87.8929 285.723 71.4781 301.082 57.4401C316.441 43.402 335.375 31.3585 356.471 30.4853C377.566 29.612 400.266 43.405 402.683 63.7279C404.701 80.7048 392.876 97.6287 396.963 114.254C400.656 129.279 416.012 138.619 430.764 144.476C445.516 150.334 461.734 154.824 472.475 166.239C478.796 172.955 482.634 181.567 484.941 190.377C492.884 220.713 482.393 254.901 458.632 276.107C434.872 297.313 398.844 304.643 368.287 294.489C359.523 291.577 351.236 287.361 342.318 284.922C324.295 279.994 304.787 282.696 287.224 288.996C276.444 292.863 266.166 298.052 255.137 301.19C244.108 304.328 206.192 303.839 195.067 301.042C125.74 283.618 84.3197 209.498 94.0001 158.583Z" fill="#6E80DB" fill-opacity="0.9"/>
<path d="M499.596 262.032C502.9 263.652 502.987 259.615 502.144 257.154C501.302 254.694 497.533 244.125 497.533 244.125C498.268 244.14 499.854 244.234 500.583 244.249C501.16 244.261 501.727 244.272 502.299 244.284C503.862 246.617 512.125 258.694 515.449 258.329C519.129 257.925 517.28 254.94 514.813 252.896C512.347 250.853 504.802 244.269 504.802 244.269C505.417 244.247 506.037 244.224 506.64 244.202C507.621 244.163 508.587 244.124 509.531 244.087C510.476 244.061 511.399 244.012 512.292 243.906C512.416 243.894 512.53 243.883 512.652 243.871C513.993 245.79 521.491 256.326 524.464 255.999C527.734 255.64 525.611 252.854 523.899 251.173C522.187 249.491 515.145 243.628 515.145 243.628C515.897 243.554 516.634 243.482 517.336 243.414C518.901 243.295 520.318 243.049 521.577 242.86C522.114 242.778 522.616 242.702 523.092 242.629L522.703 242.731C522.703 242.731 531.472 252.101 534.091 251.415C536.709 250.729 535.358 249.048 533.012 247.549C530.666 246.05 524.781 242.371 524.781 242.371C524.798 242.368 524.819 242.365 524.837 242.362C525.313 242.29 525.73 242.226 526.093 242.171C527.194 242.259 534.779 242.656 539.051 237.317C539.051 237.317 541.25 235.186 537.225 235.954C533.295 236.704 526.3 241.895 525.977 242.135C525.637 242.176 523.746 242.405 523.559 242.428C524.751 241.052 529.142 235.814 529.524 232.977C529.965 229.693 525.799 232.701 525.799 232.701C525.799 232.701 520.791 237.204 523.136 242.479C522.641 242.539 522.115 242.603 521.552 242.671C520.29 242.821 518.869 243.024 517.303 243.094C516.378 243.155 515.396 243.221 514.386 243.288C515.777 241.589 523.015 232.541 521.716 229.948C520.278 227.08 518.184 229.496 517.206 232.069C516.227 234.643 512.509 243.413 512.509 243.413C512.424 243.418 512.347 243.424 512.261 243.429C511.368 243.508 510.448 243.528 509.507 243.525C508.566 243.533 507.606 243.542 506.628 243.551C505.651 243.557 504.659 243.563 503.655 243.568C503.311 243.55 502.958 243.532 502.61 243.515C504.434 242.282 510.227 238.042 512.441 232.534C515.082 225.962 511.865 227.812 511.865 227.812C511.865 227.812 506.727 229.388 502.168 243.492C501.649 243.466 501.136 243.44 500.613 243.413C499.591 243.361 498.56 243.308 497.526 243.256C496.495 243.165 495.465 243.028 494.432 242.916C493.402 242.795 492.372 242.674 491.345 242.554C491.329 242.551 491.313 242.548 491.297 242.545C493.683 240.989 505.729 232.958 505.361 229.745C504.954 226.179 501.551 228.149 499.753 230.346C497.954 232.542 490.44 242.39 490.44 242.39C489.73 242.262 489.019 242.133 488.316 242.006C486.849 241.785 485.433 241.428 484.049 241.075C485.302 240.028 489.425 236.461 490.135 234.25C490.976 231.636 487.202 233.525 487.202 233.525C487.202 233.525 482.651 236.446 483.589 240.96C483.223 240.867 482.856 240.773 482.494 240.685C481.546 240.481 480.666 240.12 479.777 239.854C478.902 239.548 478.014 239.33 477.21 238.971C476.394 238.642 475.6 238.322 474.833 238.013C474.67 237.947 474.519 237.87 474.361 237.798C475.624 237.168 478.439 234.891 479.309 233.88C480.18 232.868 480.206 231.714 477.542 232.74C475.313 233.6 474.332 236.679 474.07 237.665C473.594 237.439 473.13 237.206 472.675 236.995C472.332 236.828 471.996 236.664 471.668 236.505C471.352 236.325 471.044 236.149 470.742 235.977C470.148 235.625 469.56 235.324 469.051 234.983C468.898 234.881 468.756 234.786 468.609 234.688C469.924 233.694 471.917 232.307 472.551 230.135C472.912 228.898 473.037 227.849 470.604 229.318C468.79 230.415 468.275 233.081 468.13 234.367C467.959 234.253 467.788 234.138 467.625 234.03C467.194 233.727 466.822 233.421 466.473 233.16C465.794 232.632 465.278 232.163 464.978 231.871C464.678 231.586 464.498 231.382 464.498 231.382C464.494 231.378 464.487 231.37 464.484 231.366C464.095 230.943 463.426 230.905 462.99 231.281C462.553 231.657 462.514 232.305 462.902 232.728L462.928 232.756C462.928 232.756 463.091 232.934 463.499 233.306C463.9 233.674 464.453 234.142 465.216 234.7C465.599 234.969 466.012 235.286 466.483 235.594C466.584 235.657 466.694 235.726 466.799 235.791C466.608 237.223 465.786 241.614 467.516 244.285C468.192 245.329 469.905 245.632 470.161 243.154C470.447 240.387 468.659 237.553 467.517 236.239C467.685 236.344 467.851 236.447 468.026 236.556C468.576 236.9 469.199 237.197 469.835 237.547C470.155 237.717 470.484 237.89 470.821 238.068C471.168 238.224 471.523 238.383 471.885 238.546C472.573 238.842 473.274 239.188 474.024 239.476C474.094 242.067 475.142 245.779 475.919 246.903C476.84 248.234 478.453 247.978 478.496 245.118C478.523 243.349 477.807 241.752 476.807 240.507C477.604 240.811 478.459 241.006 479.309 241.274C480.229 241.52 481.145 241.859 482.119 242.038C482.338 242.084 482.561 242.134 482.782 242.183C483.37 244.599 486.939 258.744 490.221 259.555C493.809 260.442 493.116 257.222 491.616 254.258C490.117 251.293 485.416 242.75 485.416 242.75C486.296 242.93 487.187 243.094 488.095 243.203C489.119 243.356 490.152 243.51 491.188 243.665C492.231 243.755 493.279 243.846 494.326 243.936C494.963 243.985 495.598 244.041 496.234 244.093C496.306 247.72 496.759 260.64 499.596 262.032Z" fill="#588E4D"/>
<path d="M486.611 258.757C486.636 258.81 483.212 263.303 476.955 264.451C473.945 265.025 470.801 264.831 468.283 264.555C473.008 266.194 477.524 268.254 481.783 270.694C482.827 269.525 485.711 266.653 490.555 266.536C496.825 266.334 503.249 271.401 503.166 271.423C503.179 271.474 499.07 274.871 493.167 274.63C490.401 274.535 487.697 273.745 485.536 272.985C489.384 275.483 492.993 278.302 496.321 281.406C497.485 280.607 500.387 278.898 504.267 279.622C509.422 280.544 513.768 285.703 513.709 285.709C513.711 285.747 509.708 287.928 504.864 286.738C502.764 286.235 500.818 285.23 499.243 284.279C501.641 286.765 503.869 289.409 505.912 292.194C507.068 291.696 509.694 290.809 512.71 291.931C516.838 293.434 519.7 298.267 519.659 298.265C519.656 298.293 516.004 299.612 512.125 297.945C510.582 297.292 509.217 296.294 508.097 295.338C509.348 297.237 510.514 299.195 511.591 301.207C511.627 301.274 511.641 301.342 511.661 301.41C513.021 302.316 515.315 304.258 516.524 307.182C518.36 311.592 516.839 316 516.836 315.961C516.822 315.931 513.333 313.087 511.655 309.079C510.537 306.374 510.434 303.612 510.455 302.011C510.411 301.956 510.362 301.907 510.326 301.842C509.268 299.867 508.123 297.944 506.896 296.08C507.306 297.443 507.546 299.05 507.273 300.59C506.561 304.477 503.066 306.348 503.09 306.359C503.1 306.327 501.301 302.502 501.798 298.757C502.184 295.97 503.862 293.884 504.749 292.993C502.744 290.258 500.555 287.661 498.201 285.22C499.058 286.78 499.779 288.754 499.759 290.746C499.684 295.362 495.949 298.162 495.984 298.173C495.991 298.131 493.26 294.162 493.074 289.771C492.952 286.398 494.522 283.558 495.332 282.399C492.064 279.351 488.521 276.583 484.742 274.13C486.265 275.746 487.794 277.988 488.3 280.468C489.344 285.787 485.665 289.854 485.717 289.86C485.713 289.805 481.758 285.989 480.416 281.03C479.382 277.109 480.461 273.344 481.056 271.881C476.874 269.486 472.44 267.462 467.801 265.854C469.893 267.16 472.194 269.167 473.403 271.697C475.881 276.986 473.055 282.088 473.117 282.083C473.099 282.025 468.067 279.02 465.324 274.205C463.166 270.352 463.254 266.127 463.473 264.491C461.634 263.97 459.768 263.512 457.876 263.121C457.378 263.018 457.033 262.637 457.111 262.263C457.187 261.889 457.664 261.667 458.173 261.772C460.1 262.17 462.001 262.636 463.874 263.167C464.621 261.722 466.851 257.95 471.991 256.637C478.58 254.898 486.701 258.712 486.611 258.757Z" fill="#3F6F7C"/>
<path d="M485.719 289.862C485.715 289.807 481.76 285.991 480.418 281.033C479.384 277.111 480.463 273.346 481.058 271.883C476.875 269.488 472.442 267.465 467.803 265.856C469.895 267.163 472.196 269.169 473.405 271.7C475.883 276.988 473.057 282.091 473.119 282.086C473.101 282.028 468.069 279.022 465.326 274.208C463.168 270.354 463.256 266.129 463.475 264.494C461.636 263.973 459.77 263.514 457.878 263.123C457.38 263.02 457.035 262.639 457.113 262.265C457.189 261.891 457.666 261.669 458.175 261.774C460.102 262.172 462.004 262.638 463.875 263.169C464.623 261.724 466.853 257.953 471.993 256.64C478.579 254.899 486.7 258.713 486.609 258.758C486.635 258.811 483.211 263.304 476.954 264.453C473.944 265.026 470.8 264.833 468.282 264.557C473.007 266.195 477.523 268.256 481.782 270.696C482.825 269.526 485.71 266.654 490.554 266.537C496.824 266.335 503.248 271.403 503.165 271.425C503.178 271.476 499.069 274.873 493.166 274.632C490.4 274.537 487.696 273.746 485.535 272.986C489.383 275.484 492.992 278.304 496.32 281.408C497.483 280.608 500.386 278.899 504.266 279.623C509.421 280.545 513.767 285.704 513.708 285.71C513.71 285.748 509.707 287.93 504.863 286.739C502.762 286.236 500.817 285.232 499.242 284.281C501.64 286.766 503.868 289.41 505.91 292.196C507.067 291.698 509.692 290.81 512.709 291.933C516.836 293.435 519.699 298.269 519.658 298.267C519.655 298.295 516.003 299.613 512.124 297.947C510.581 297.293 509.215 296.295 508.096 295.34C509.347 297.238 510.513 299.197 511.59 301.208C511.626 301.275 511.64 301.343 511.66 301.411C513.02 302.318 515.314 304.259 516.523 307.183C518.359 311.593 516.838 316.002 516.835 315.963C516.821 315.933 513.332 313.089 511.654 309.081C510.536 306.375 510.433 303.613 510.454 302.013C510.41 301.958 510.36 301.909 510.325 301.844C509.267 299.868 508.122 297.945 506.894 296.081C507.305 297.444 507.545 299.052 507.272 300.591C506.56 304.478 503.065 306.349 503.089 306.36C503.099 306.329 501.299 302.504 501.797 298.759C502.183 295.971 503.861 293.885 504.748 292.994C502.743 290.259 500.554 287.663 498.2 285.222C499.057 286.781 499.778 288.756 499.758 290.747C499.683 295.364 495.948 298.164 495.983 298.175C495.989 298.133 493.259 294.163 493.073 289.772C492.951 286.399 494.521 283.559 495.331 282.4C492.063 279.352 488.52 276.584 484.741 274.132C486.264 275.747 487.793 277.99 488.299 280.469C489.345 285.788 485.667 289.855 485.719 289.862Z" fill="#588E4D"/>
<path d="M496.809 246.52L491.565 254.539L498.373 247.859C502.668 251.736 506.45 256.874 509.203 263.608L506.754 267.215C506.754 267.215 508.279 266.183 509.798 265.132C511.186 268.855 512.272 273.037 512.971 277.738C505.638 277.726 499.337 277.005 493.906 275.773L496.728 272.276L492.403 274.629L493.274 272.067L489.627 274.648C482.353 272.446 476.889 269.247 472.784 265.633L478.794 259.626L470.383 263.323C459.507 251.828 460.477 237.647 460.477 237.647C464.291 236.863 469.945 236.553 476.163 237.551L473.822 241.522L478.322 237.949C484.479 239.225 491.029 241.828 496.809 246.52Z" fill="#588E4D"/>
<path d="M505.726 271.628C505.726 271.628 459.075 238.411 454.752 235.281C450.429 232.151 452.599 229.683 456.526 232.571C459.092 234.458 505.726 271.628 505.726 271.628Z" fill="white"/>
<path fill-rule="evenodd" clip-rule="evenodd" d="M512.682 218.669C512.595 218.417 512.425 218.196 512.143 218.022C510.609 217.08 509.189 216.739 507.978 215.688C506.766 214.636 507.438 213.728 505.374 213.317C503.31 212.906 503.882 213.309 502.325 212.478C500.769 211.647 501.483 211.094 499.896 211.531C498.311 211.968 497.753 213.188 496.404 212.225C495.054 211.261 495.634 210.219 494.231 210.634C492.829 211.049 488.591 213.563 486.367 213.062C484.143 212.561 486.282 211.772 482.653 212.265C479.023 212.757 478.811 213.757 477.018 214.325C475.225 214.894 475.804 213.852 473.594 214.974C471.385 216.097 467.164 219.656 466.102 224.943C465.201 229.423 466.425 231.167 466.549 232.704C467.353 234.033 467.38 236.142 470.76 239.319C474.752 243.069 480.315 243.651 482.789 243.348C485.265 243.045 484.175 242.511 485.982 241.984C487.789 241.458 488.554 242.16 491.821 240.554C495.09 238.947 492.869 239.485 494.399 237.842C495.928 236.2 500.888 235.915 502.284 235.478C503.679 235.042 502.589 234.508 503.127 232.971C503.665 231.433 504.843 232.125 506.402 231.605C507.961 231.085 507.049 231.028 507.835 229.484C508.622 227.939 508.391 228.587 509.841 227.107C511.292 225.627 510.206 225.253 510.578 223.72C510.951 222.187 511.916 221.119 512.619 219.498C512.75 219.198 512.758 218.923 512.682 218.669Z" fill="#588E4D"/>
<path fill-rule="evenodd" clip-rule="evenodd" d="M471.386 229.85C470.571 230.115 469.219 230.605 467.576 231.292C467.206 231.435 466.839 231.58 466.473 231.725C466.424 231.745 466.384 231.777 466.355 231.817C462.785 233.389 458.28 235.731 454.902 238.592C454.4 239.016 455.098 239.704 455.522 239.297C459.403 235.644 463.892 233.405 466.833 232.143C468.421 231.507 470.043 230.879 471.69 230.261C475.026 231.395 482.633 237.311 485.235 239.784C482.93 237.332 475.32 231.47 471.937 230.168C474.13 229.348 476.37 228.547 478.636 227.768C480.776 228.254 490.833 234.126 492.668 235.679C491.073 234.142 481.564 228.519 478.913 227.673C481.704 226.719 484.536 225.802 487.376 224.934C489.272 226.068 492.633 227.147 494.764 228.142C496.372 228.892 498.54 230.048 499.546 231.516L499.932 232.204C500.024 232.455 499.976 232.33 500.076 232.579C499.443 230.38 496.793 228.978 494.818 228.036C492.759 227.054 489.484 225.969 487.599 224.866C490.058 224.116 492.52 223.403 494.967 222.735C497.001 223.723 502.567 226.199 503.729 227.476C503.843 227.693 503.784 227.585 503.906 227.8L503.835 227.629C503.324 226.448 497.208 223.634 495.22 222.666C498.291 221.831 501.335 221.065 504.305 220.386C506.666 219.846 508.968 219.436 511.321 218.943C508.876 219.194 506.018 219.802 503.607 220.328C501.486 220.791 499.324 221.302 497.141 221.853C498.058 219.51 498.973 218.113 500.157 215.905C500.327 215.588 500.435 215.35 500.589 215.026C500.256 215.589 500.419 215.306 500.101 215.876C498.856 217.914 497.813 219.698 496.93 221.907C494.887 222.424 492.823 222.977 490.754 223.56C491.4 222.397 492.101 220.908 492.692 219.728C493.459 218.195 493.838 217.071 494.208 215.412C493.667 217.12 493.429 218.03 492.578 219.673C492.045 220.705 490.988 222.53 490.54 223.619C487.857 224.378 485.165 225.189 482.496 226.038C484.354 223.041 486.284 216.64 486.94 213.462C486.01 216.872 484.243 223.103 482.239 226.12C479.943 226.853 477.663 227.615 475.422 228.4C476.799 226.617 477.836 223.341 478.467 221.458C479.226 219.186 479.989 216.716 480.562 214.395C480.296 215.249 480.046 216.108 479.786 216.964C478.98 219.61 477.039 226.223 475.11 228.51C473.856 228.95 472.612 229.397 471.386 229.85Z" fill="white"/>
<path d="M482.602 222.531C482.606 222.461 476.718 218.945 469.223 220.379C465.609 221.047 462.198 222.625 459.522 224.024C464.024 220.152 468.099 215.899 471.713 211.337C473.414 212.185 477.952 214.132 483.398 212.161C490.471 209.667 495.281 201.24 495.179 201.251C495.168 201.189 489.027 199.188 482.567 202.017C479.533 203.322 476.887 205.374 474.834 207.159C477.963 202.709 480.678 198.006 482.948 193.107C484.612 193.493 488.633 194.137 492.617 191.648C497.929 188.386 500.382 180.759 500.314 180.778C500.299 180.735 494.836 180.042 489.993 183.468C487.887 184.938 486.186 186.9 484.872 188.642C486.393 184.835 487.653 180.926 488.639 176.939C490.157 176.992 493.488 176.841 496.328 174.283C500.227 170.821 501.181 164.2 501.136 164.219C501.119 164.189 496.444 164.306 492.898 167.843C491.482 169.239 490.424 170.943 489.619 172.491C490.133 169.836 490.527 167.151 490.797 164.443C490.806 164.353 490.79 164.271 490.78 164.186C491.875 162.588 493.531 159.432 493.527 155.652C493.532 149.946 489.803 145.7 489.817 145.745C489.814 145.785 487.245 150.463 487.23 155.652C487.235 159.148 488.396 162.268 489.159 164.039C489.135 164.119 489.103 164.195 489.094 164.283C488.829 166.941 488.443 169.578 487.938 172.185C487.765 170.49 487.289 168.596 486.275 167.002C483.686 162.984 478.932 162.418 478.953 162.395C478.979 162.425 478.744 167.463 481.029 171.416C482.746 174.352 485.578 175.944 486.977 176.553C486.008 180.467 484.772 184.306 483.278 188.044C483.512 185.936 483.402 183.426 482.46 181.217C480.243 176.111 474.792 174.614 474.827 174.586C474.852 174.63 473.647 180.233 475.469 185.201C476.892 189.009 479.952 191.488 481.388 192.427C479.159 197.237 476.494 201.855 473.42 206.224C474.369 203.766 475.035 200.606 474.452 197.627C473.157 191.254 467.183 188.322 467.238 188.292C467.259 188.355 464.62 194.318 465.417 200.419C466.078 205.231 469.019 208.954 470.357 210.325C466.808 214.805 462.808 218.98 458.388 222.783C460.113 220.422 461.746 217.189 461.924 213.848C462.239 206.886 456.736 202.432 456.807 202.412C456.813 202.484 452.602 208.012 451.773 214.562C451.15 219.786 453.2 224.452 454.201 226.177C452.395 227.554 450.529 228.874 448.604 230.129C448.097 230.46 447.89 231.033 448.149 231.417C448.407 231.8 449.041 231.841 449.559 231.503C451.52 230.223 453.42 228.881 455.259 227.477C456.758 228.763 460.984 231.993 467.311 231.226C475.446 230.308 482.724 222.541 482.602 222.531Z" fill="#52909D"/>
<path d="M467.238 188.295C467.259 188.358 464.62 194.321 465.417 200.422C466.078 205.234 469.019 208.957 470.357 210.328C466.808 214.808 462.808 218.983 458.388 222.786C460.113 220.425 461.746 217.192 461.924 213.851C462.239 206.889 456.736 202.435 456.807 202.415C456.813 202.487 452.602 208.015 451.773 214.565C451.15 219.789 453.2 224.455 454.201 226.18C452.395 227.557 450.529 228.877 448.604 230.132C448.097 230.463 447.89 231.036 448.149 231.42C448.407 231.803 449.041 231.844 449.558 231.506C451.519 230.226 453.419 228.884 455.258 227.48C456.757 228.766 460.983 231.995 467.31 231.229C475.446 230.309 482.724 222.542 482.601 222.531C482.605 222.461 476.717 218.945 469.222 220.379C465.608 221.047 462.197 222.625 459.521 224.024C464.023 220.152 468.098 215.899 471.712 211.337C473.413 212.185 477.951 214.132 483.397 212.161C490.47 209.667 495.28 201.24 495.178 201.251C495.167 201.189 489.026 199.188 482.566 202.017C479.532 203.322 476.886 205.374 474.833 207.159C477.962 202.709 480.677 198.006 482.947 193.107C484.611 193.493 488.632 194.137 492.616 191.648C497.928 188.386 500.381 180.759 500.313 180.778C500.298 180.735 494.835 180.042 489.991 183.468C487.886 184.938 486.185 186.9 484.871 188.642C486.392 184.835 487.652 180.926 488.638 176.939C490.156 176.992 493.487 176.841 496.327 174.283C500.226 170.821 501.18 164.199 501.135 164.219C501.118 164.189 496.443 164.306 492.897 167.843C491.481 169.239 490.423 170.943 489.618 172.49C490.132 169.835 490.525 167.15 490.796 164.443C490.805 164.353 490.789 164.271 490.779 164.186C491.874 162.588 493.53 159.432 493.526 155.652C493.531 149.946 489.802 145.7 489.816 145.745C489.813 145.785 487.244 150.463 487.229 155.652C487.234 159.148 488.395 162.268 489.158 164.039C489.133 164.119 489.101 164.195 489.093 164.283C488.828 166.941 488.442 169.578 487.937 172.185C487.764 170.49 487.288 168.596 486.274 167.002C483.685 162.984 478.931 162.418 478.952 162.395C478.978 162.425 478.743 167.463 481.028 171.416C482.745 174.352 485.577 175.944 486.976 176.553C486.007 180.467 484.771 184.306 483.277 188.044C483.511 185.936 483.401 183.426 482.459 181.217C480.242 176.111 474.791 174.614 474.826 174.586C474.851 174.63 473.646 180.233 475.468 185.201C476.89 189.009 479.951 191.488 481.387 192.428C479.158 197.238 476.492 201.856 473.419 206.225C474.368 203.767 475.034 200.607 474.451 197.628C473.157 191.257 467.183 188.325 467.238 188.295Z" fill="#588E4D"/>
<path d="M133.067 202.675C129.362 198.227 126.509 204.036 126.07 208.145C125.632 212.253 123.965 229.995 123.965 229.995C122.906 229.507 120.667 228.365 119.618 227.88C118.788 227.497 117.972 227.121 117.149 226.742C116.454 222.361 112.612 199.579 107.536 198.002C101.918 196.255 102.587 201.764 104.79 206.295C106.992 210.827 113.504 225.176 113.504 225.176C112.595 224.819 111.678 224.457 110.786 224.107C109.334 223.542 107.907 222.986 106.51 222.442C105.12 221.881 103.747 221.367 102.377 220.953C102.189 220.892 102.016 220.836 101.83 220.776C101.181 217.138 97.4053 197.079 92.8676 195.669C87.8767 194.118 89.0774 199.509 90.4279 203.038C91.7784 206.567 98.0475 219.549 98.0475 219.549C96.9056 219.179 95.7864 218.815 94.7209 218.47C92.3679 217.65 90.1429 217.109 88.1854 216.585C87.3501 216.363 86.5706 216.156 85.8303 215.96L86.4642 216.059C86.4642 216.059 80.0547 196.888 75.7885 196.224C71.5213 195.56 72.3483 198.859 74.7436 202.523C77.139 206.187 83.2027 215.263 83.2027 215.263C83.1748 215.256 83.1428 215.247 83.1159 215.24C82.3767 215.044 81.7262 214.871 81.1615 214.721C79.621 213.894 68.872 208.508 59.0615 213.555C59.0615 213.555 54.4277 215.256 60.7919 216.691C67.0084 218.094 80.6752 214.991 81.3071 214.846C81.8284 215.002 84.7287 215.868 85.0147 215.953C82.355 217.196 72.4371 222.02 69.9674 225.899C67.1085 230.389 75.1917 228.662 75.1917 228.662C75.1917 228.662 85.5061 225.296 85.6651 216.147C86.426 216.374 87.2314 216.615 88.0945 216.872C90.0304 217.454 92.2306 218.062 94.5526 218.952C95.9371 219.449 97.4084 219.977 98.92 220.519C95.7513 222.107 79.1244 230.658 79.2607 235.252C79.4114 240.328 84.0854 238.146 87.2458 235.03C90.4062 231.913 101.731 221.53 101.731 221.53C101.857 221.576 101.975 221.617 102.102 221.663C103.452 222.115 104.802 222.669 106.168 223.27C107.54 223.854 108.941 224.45 110.366 225.057C111.788 225.668 113.233 226.288 114.697 226.916C115.185 227.16 115.686 227.41 116.179 227.656C112.696 228.291 101.415 230.776 94.4803 237.373C86.2041 245.245 92.1263 244.598 92.1263 244.598C92.1263 244.598 100.653 245.566 116.804 227.969C117.54 228.337 118.267 228.7 119.01 229.071C120.459 229.795 121.92 230.524 123.387 231.257C124.824 232.043 126.228 232.896 127.651 233.713C129.066 234.542 130.48 235.372 131.89 236.197C131.912 236.211 131.933 236.226 131.955 236.241C127.438 236.989 104.517 241.015 102.878 245.916C101.06 251.354 107.335 250.651 111.431 248.599C115.528 246.548 133.096 237.01 133.096 237.01C134.04 237.647 134.986 238.284 135.922 238.916C137.903 240.166 139.718 241.582 141.492 242.974C138.963 243.7 130.567 246.267 128.04 249.029C125.054 252.293 131.81 251.941 131.81 251.941C131.81 251.941 140.394 250.583 142.08 243.432C142.549 243.8 143.018 244.168 143.485 244.525C144.724 245.422 145.761 246.504 146.872 247.454C147.936 248.453 149.077 249.333 150.003 250.364C150.966 251.359 151.902 252.328 152.809 253.264C153.002 253.464 153.168 253.671 153.349 253.875C151.089 253.99 145.463 255.512 143.514 256.428C141.566 257.344 140.747 259.004 145.31 259.201C149.128 259.367 152.633 255.515 153.68 254.25C154.219 254.881 154.736 255.513 155.253 256.108C155.639 256.568 156.017 257.018 156.386 257.458C156.723 257.92 157.052 258.371 157.373 258.811C157.999 259.701 158.648 260.51 159.157 261.328C159.31 261.572 159.454 261.802 159.6 262.036C157.019 262.646 153.187 263.397 150.8 266.151C149.441 267.718 148.551 269.163 153.077 268.57C156.453 268.128 159.002 264.581 160.081 262.806C160.253 263.081 160.425 263.356 160.587 263.615C161.01 264.329 161.343 265.008 161.673 265.608C162.303 266.806 162.736 267.816 162.973 268.429C163.217 269.033 163.34 269.444 163.34 269.444C163.343 269.452 163.347 269.469 163.35 269.477C163.628 270.339 164.574 270.818 165.463 270.549C166.352 270.28 166.846 269.363 166.568 268.502L166.55 268.446C166.55 268.446 166.433 268.084 166.09 267.286C165.755 266.496 165.269 265.467 164.539 264.172C164.164 263.538 163.778 262.817 163.303 262.069C163.198 261.913 163.085 261.743 162.976 261.582C164.221 259.624 168.382 253.767 167.672 248.791C167.394 246.846 165.112 245.318 163.066 248.756C160.781 252.597 161.464 257.845 162.236 260.478C162.063 260.219 161.892 259.965 161.712 259.695C161.144 258.847 160.441 258.021 159.753 257.11C159.402 256.66 159.042 256.2 158.673 255.727C158.275 255.281 157.866 254.824 157.45 254.358C156.651 253.493 155.867 252.544 154.973 251.65C156.621 247.842 157.607 241.785 157.237 239.661C156.798 237.144 154.282 236.495 152.287 240.62C151.054 243.173 151.014 245.948 151.625 248.39C150.674 247.443 149.563 246.617 148.509 245.69C147.34 244.749 146.238 243.676 144.944 242.797C144.656 242.591 144.368 242.377 144.08 242.167C144.86 238.285 149.229 215.476 145.01 212.217C140.397 208.653 139.23 213.769 139.405 219.027C139.581 224.284 140.637 239.672 140.637 239.672C139.481 238.853 138.297 238.049 137.051 237.315C135.667 236.444 134.271 235.566 132.87 234.683C131.415 233.891 129.955 233.095 128.495 232.3C127.604 231.825 126.718 231.34 125.83 230.862C128.176 225.551 136.248 206.495 133.067 202.675Z" fill="#588E4D"/>
<path d="M142.883 202.861L133.895 207.603L141.55 201.19C137.675 196.586 132.409 192.414 125.354 189.17L121.304 191.394C121.304 191.394 122.519 189.925 123.754 188.464C119.844 186.807 115.421 185.423 110.412 184.392C109.92 191.796 110.261 198.209 111.212 203.778L115.167 201.169L112.338 205.374L115.154 204.67L112.127 208.176C113.993 215.671 117.06 221.41 120.663 225.803L127.539 220.149L122.983 228.386C134.598 240.159 149.921 240.156 149.921 240.156C151.028 236.359 151.751 230.673 151.104 224.324L146.671 226.413L150.825 222.116C149.882 215.813 147.533 209.02 142.883 202.861Z" fill="#588E4D"/>
<path d="M116.487 192.129C116.487 192.129 149.006 241.521 152.076 246.102C155.145 250.684 157.95 248.662 155.113 244.498C153.26 241.778 116.487 192.129 116.487 192.129Z" fill="#3F6F7C"/>
<path d="M111.015 295.139L117.623 302.711L109.595 296.741C105.722 301.346 102.567 307.185 100.711 314.535L103.776 317.928C103.776 317.928 102.046 317.071 100.319 316.194C99.4324 320.239 98.9245 324.715 98.8945 329.676C106.479 328.649 112.893 327.032 118.331 325.006L114.896 321.779L119.718 323.615L118.438 321.085L122.593 323.25C129.793 319.967 134.976 315.899 138.69 311.593L131.587 306.209L140.833 308.87C150.392 295.473 147.298 280.933 147.298 280.933C143.236 280.649 137.341 281.11 131.053 283.005L134.059 286.79L128.876 283.716C122.698 285.885 116.304 289.484 111.015 295.139Z" fill="#588E4D"/>
<path d="M105.492 322.352C105.492 322.352 148.863 281.528 152.876 277.691C156.888 273.854 154.278 271.601 150.641 275.132C148.264 277.44 105.492 322.352 105.492 322.352Z" fill="#28484F"/>
<path fill-rule="evenodd" clip-rule="evenodd" d="M99.6931 267.136C99.5899 266.903 99.5651 266.642 99.6529 266.343C100.127 264.726 100.916 263.605 101.088 262.109C101.26 260.612 100.185 260.378 101.386 258.812C102.587 257.246 102.445 257.886 103.008 256.333C103.572 254.781 102.7 254.828 104.117 254.161C105.535 253.493 106.735 254.02 107.064 252.5C107.392 250.981 106.294 250.596 107.567 250.026C108.84 249.457 113.513 248.635 114.769 246.906C116.026 245.176 113.981 245.933 116.893 244.046C119.805 242.157 120.613 242.739 122.266 242.038C123.919 241.337 122.82 240.952 125.134 240.389C127.448 239.825 132.796 239.759 137.029 242.873C140.615 245.511 140.89 247.511 141.811 248.682C142.11 250.125 143.478 251.646 143.156 255.997C142.775 261.134 139.191 264.981 137.228 266.292C135.264 267.604 135.69 266.55 134.055 267.289C132.42 268.029 132.338 269.001 128.951 269.873C125.565 270.744 127.502 269.757 125.331 269.53C123.161 269.302 119.438 272.159 118.156 272.709C116.874 273.259 117.301 272.206 115.906 271.442C114.511 270.677 114.127 271.898 112.673 272.489C111.22 273.08 111.832 272.476 110.256 271.861C108.681 271.246 109.271 271.565 107.264 271.404C105.257 271.244 105.786 270.306 104.512 269.443C103.238 268.58 101.848 268.415 100.282 267.691C99.9915 267.555 99.8057 267.365 99.6931 267.136Z" fill="#588E4D"/>
<path fill-rule="evenodd" clip-rule="evenodd" d="M136.486 249.632C137.24 249.318 138.528 248.834 140.151 248.309C140.508 248.184 140.865 248.059 141.221 247.937C141.269 247.92 141.32 247.919 141.366 247.93C144.945 246.849 149.697 245.739 153.985 245.695C154.623 245.687 154.577 246.608 154.007 246.58C148.838 246.37 144.166 247.543 141.24 248.456C139.69 248.983 138.121 249.536 136.539 250.112C134.906 252.979 133.372 261.889 133.141 265.258C133.175 262.088 134.747 253.214 136.303 250.198C134.2 250.966 132.077 251.776 129.949 252.62C128.742 254.285 125.431 264.678 125.143 266.917C125.27 264.837 128.354 254.96 129.689 252.723C127.071 253.765 124.448 254.858 121.853 255.991C121.246 257.969 119.56 260.813 118.694 262.837C118.042 264.363 117.256 266.526 117.503 268.193L117.679 268.92C117.778 269.156 117.731 269.037 117.823 269.277C116.828 267.32 117.796 264.684 118.586 262.794C119.409 260.823 121.031 258.029 121.649 256.079C119.403 257.061 117.178 258.073 114.995 259.105C114.195 261.065 111.852 266.265 111.863 267.892C111.925 268.116 111.896 268.004 111.95 268.232L111.888 268.067C111.476 266.91 113.988 261.13 114.769 259.213C112.03 260.512 109.357 261.843 106.793 263.193C104.755 264.265 102.844 265.392 100.842 266.492C102.751 265.162 105.187 263.833 107.252 262.721C109.069 261.742 110.945 260.772 112.865 259.818C110.672 258.713 109.099 258.281 106.805 257.438C106.476 257.317 106.241 257.214 105.918 257.078C106.526 257.274 106.224 257.172 106.825 257.383C109.052 258.067 110.968 258.696 113.05 259.726C114.847 258.833 116.682 257.955 118.54 257.095C117.315 256.664 115.836 256.036 114.641 255.558C113.086 254.938 112.077 254.371 110.722 253.417C112.232 254.301 112.998 254.803 114.685 255.45C115.744 255.857 117.697 256.507 118.732 257.007C121.145 255.893 123.596 254.809 126.058 253.768C122.764 252.777 117.179 249.404 114.623 247.543C117.527 249.401 122.883 252.753 126.295 253.668C128.415 252.774 130.541 251.911 132.654 251.087C130.5 250.666 127.608 248.97 125.92 248.016C123.885 246.866 121.718 245.576 119.783 244.273C120.535 244.718 121.277 245.176 122.027 245.627C124.342 247.015 130.072 250.532 132.949 250.973C134.133 250.514 135.313 250.066 136.486 249.632Z" fill="white"/>
<path d="M128.561 260.859C128.507 260.907 130.192 267.55 136.707 271.707C139.831 273.729 143.479 274.947 146.46 275.786C140.322 275.481 134.213 275.748 128.21 276.56C127.599 274.762 125.736 270.197 120.316 267.852C113.325 264.759 103.596 267.553 103.679 267.616C103.641 267.668 106.631 273.386 113.423 275.81C116.597 276.965 120.038 277.308 122.852 277.434C117.285 278.501 111.833 280.039 106.559 282.029C105.633 280.593 103.183 277.335 98.4443 276.381C92.1669 275.069 84.7434 278.917 84.8074 278.95C84.7868 278.992 88.2497 283.287 94.3072 284.154C96.9255 284.544 99.6141 284.298 101.858 283.942C97.9363 285.658 94.1296 287.628 90.4653 289.845C89.3998 288.753 86.8631 286.551 82.9066 286.442C77.5089 286.255 71.9212 290.412 71.9687 290.429C71.9583 290.462 75.446 293.621 80.6424 293.508C82.7043 293.474 84.7341 292.969 86.4645 292.401C84.127 293.976 81.8556 295.658 79.6585 297.44C79.5852 297.499 79.5367 297.57 79.4809 297.638C77.5027 298.042 73.9644 299.19 71.1736 301.942C66.9519 306.091 66.5265 311.768 66.5492 311.725C66.5812 311.698 71.9088 310.077 75.7547 306.312C78.3359 303.764 79.7968 300.688 80.5505 298.87C80.628 298.829 80.7075 298.795 80.7787 298.736C82.9366 296.986 85.1667 295.337 87.4619 293.788C86.3344 295.141 85.2803 296.85 84.8405 298.714C83.7533 303.434 86.7949 307.145 86.7629 307.147C86.767 307.107 90.6615 303.604 91.9222 299.143C92.8431 295.815 91.9593 292.691 91.3904 291.277C94.9886 289.101 98.7261 287.165 102.576 285.482C100.848 286.854 99.072 288.757 98.1252 291.017C95.9633 296.271 98.8232 301.142 98.7778 301.138C98.7912 301.088 103.81 297.847 106.157 292.968C107.937 289.21 107.542 285.283 107.191 283.602C112.369 281.65 117.723 280.138 123.188 279.091C120.681 280.221 117.86 282.059 116.082 284.631C112.313 290.167 114.493 296.446 114.431 296.43C114.463 296.37 120.791 293.862 124.722 288.87C127.798 284.908 128.411 280.159 128.45 278.233C134.343 277.435 140.342 277.173 146.368 277.473C143.368 277.994 139.79 279.213 137.19 281.522C131.814 286.369 132.526 293.429 132.459 293.394C132.508 293.337 139.658 292.237 145.104 288.046C149.418 284.676 151.375 279.859 151.923 277.909C154.255 278.16 156.588 278.495 158.917 278.917C159.53 279.028 160.104 278.754 160.2 278.297C160.295 277.838 159.865 277.369 159.238 277.255C156.866 276.825 154.49 276.484 152.115 276.229C151.974 274.253 151.286 268.971 146.115 265.139C139.518 260.164 128.481 260.766 128.561 260.859Z" fill="#52909D"/>
<path d="M114.434 296.433C114.466 296.373 120.794 293.865 124.725 288.873C127.801 284.912 128.414 280.162 128.453 278.236C134.346 277.439 140.345 277.177 146.372 277.477C143.372 277.998 139.794 279.216 137.194 281.525C131.818 286.372 132.53 293.432 132.463 293.397C132.512 293.34 139.662 292.24 145.108 288.05C149.422 284.68 151.379 279.862 151.927 277.913C154.26 278.163 156.592 278.498 158.921 278.92C159.534 279.031 160.108 278.757 160.204 278.299C160.299 277.841 159.869 277.372 159.242 277.259C156.87 276.828 154.494 276.487 152.119 276.232C151.978 274.257 151.29 268.974 146.12 265.142C139.52 260.167 128.482 260.768 128.563 260.861C128.509 260.909 130.194 267.553 136.709 271.709C139.833 273.732 143.481 274.949 146.462 275.788C140.324 275.483 134.215 275.75 128.212 276.562C127.601 274.764 125.738 270.2 120.318 267.854C113.327 264.762 103.598 267.556 103.681 267.619C103.643 267.671 106.633 273.388 113.425 275.812C116.598 276.968 120.04 277.311 122.854 277.437C117.287 278.503 111.835 280.042 106.561 282.031C105.635 280.596 103.185 277.338 98.4462 276.383C92.1688 275.071 84.7454 278.919 84.8094 278.952C84.7887 278.994 88.2516 283.289 94.3091 284.157C96.9275 284.547 99.616 284.301 101.86 283.945C97.9383 285.66 94.1315 287.631 90.4673 289.847C89.4018 288.755 86.865 286.553 82.9086 286.444C77.5108 286.257 71.9231 290.414 71.9706 290.431C71.9603 290.464 75.448 293.623 80.6444 293.51C82.7062 293.476 84.7361 292.971 86.4665 292.403C84.129 293.978 81.8575 295.66 79.6604 297.442C79.5871 297.501 79.5386 297.572 79.4829 297.64C77.5046 298.045 73.9664 299.192 71.1756 301.945C66.9538 306.093 66.5285 311.771 66.5512 311.728C66.5832 311.701 71.9107 310.079 75.7567 306.314C78.3378 303.766 79.7988 300.69 80.5525 298.871C80.6299 298.83 80.7094 298.797 80.7807 298.738C82.9385 296.987 85.1687 295.338 87.4639 293.789C86.3364 295.143 85.2822 296.851 84.8424 298.716C83.7552 303.435 86.7969 307.146 86.7649 307.148C86.769 307.108 90.6635 303.605 91.9241 299.144C92.8451 295.816 91.9613 292.692 91.3924 291.279C94.9906 289.102 98.7281 287.166 102.578 285.483C100.85 286.855 99.074 288.758 98.1272 291.019C95.9652 296.272 98.8252 301.144 98.7797 301.14C98.7931 301.09 103.812 297.849 106.159 292.969C107.939 289.211 107.544 285.284 107.193 283.603C112.371 281.651 117.725 280.139 123.19 279.092C120.683 280.222 117.862 282.06 116.084 284.633C112.316 290.171 114.496 296.45 114.434 296.433Z" fill="#588E4D"/>
<path fill-rule="evenodd" clip-rule="evenodd" d="M103.045 282.536C103.058 282.801 103.159 283.059 103.383 283.301C104.593 284.612 105.864 285.315 106.733 286.647C107.602 287.978 106.701 288.675 108.571 289.614C110.441 290.555 110.004 290.016 111.268 291.227C112.531 292.437 111.689 292.78 113.338 292.778C114.987 292.777 115.866 291.75 116.893 293.033C117.921 294.317 117.07 295.166 118.536 295.137C120.002 295.108 124.787 293.809 126.786 294.878C128.784 295.947 126.505 296.141 130.135 296.625C133.766 297.11 134.251 296.204 136.137 296.13C138.023 296.056 137.171 296.907 139.614 296.409C142.056 295.912 147.118 293.603 149.627 288.796C151.753 284.725 151.066 282.722 151.379 281.212C150.978 279.721 151.546 277.685 149.187 273.736C146.401 269.074 141.213 267.045 138.746 266.683C136.278 266.321 137.177 267.122 135.291 267.152C133.404 267.182 132.867 266.304 129.27 266.986C125.673 267.668 127.961 267.738 126.028 268.914C124.094 270.091 119.242 269.056 117.776 269.107C116.311 269.158 117.209 269.961 116.26 271.298C115.309 272.636 114.371 271.658 112.724 271.747C111.078 271.836 111.94 272.132 110.748 273.41C109.558 274.687 109.961 274.126 108.149 275.166C106.338 276.208 107.277 276.854 106.487 278.231C105.697 279.608 104.469 280.38 103.337 281.755C103.129 282.009 103.043 282.271 103.045 282.536Z" fill="#588E4D"/>
<path fill-rule="evenodd" clip-rule="evenodd" d="M145.924 282.68C146.782 282.64 148.222 282.525 149.996 282.298C150.392 282.257 150.786 282.216 151.178 282.174C151.232 282.168 151.279 282.147 151.318 282.116C155.195 281.545 160.189 280.481 164.242 278.621C164.845 278.345 164.367 277.499 163.844 277.778C159.082 280.268 154.133 281.237 150.949 281.676C149.242 281.868 147.505 282.045 145.745 282.205C142.855 280.232 137.201 272.533 135.391 269.466C136.92 272.433 142.593 280.082 145.481 282.229C143.141 282.439 140.761 282.619 138.361 282.769C136.439 281.737 128.413 273.431 127.085 271.453C128.187 273.353 135.755 281.274 138.068 282.787C135.113 282.968 132.13 283.103 129.154 283.189C127.648 281.596 124.718 279.671 122.946 278.151C121.61 277.005 119.85 275.321 119.295 273.642L119.117 272.88C119.098 272.614 119.11 272.747 119.084 272.481C119.074 274.763 121.229 276.812 122.865 278.24C124.569 279.729 127.416 281.636 128.919 283.197C126.342 283.269 123.771 283.304 121.23 283.302C119.552 281.814 114.892 277.962 114.133 276.427C114.086 276.188 114.112 276.307 114.054 276.069L114.073 276.252C114.233 277.523 119.327 281.845 120.967 283.302C117.777 283.295 114.635 283.228 111.585 283.097C109.161 282.993 106.832 282.78 104.429 282.634C106.852 283.037 109.773 283.207 112.241 283.337C114.412 283.451 116.635 283.531 118.891 283.578C117.35 285.59 116.075 286.693 114.316 288.504C114.063 288.764 113.892 288.965 113.652 289.237C114.131 288.782 113.896 289.013 114.36 288.547C116.131 286.916 117.636 285.474 119.108 283.583C121.22 283.625 123.36 283.637 125.515 283.622C124.566 284.571 123.473 285.818 122.573 286.797C121.403 288.07 120.722 289.051 119.9 290.549C120.901 289.048 121.384 288.235 122.666 286.879C123.47 286.027 124.999 284.55 125.736 283.62C128.532 283.598 131.35 283.529 134.156 283.417C131.526 285.811 127.868 291.459 126.343 294.344C128.198 291.308 131.65 285.781 134.426 283.406C136.842 283.307 139.249 283.175 141.627 283.013C139.8 284.364 137.882 287.243 136.745 288.889C135.375 290.873 133.946 293.048 132.741 295.131C133.238 294.379 133.719 293.619 134.212 292.864C135.733 290.531 139.46 284.681 141.958 282.99C143.294 282.894 144.616 282.792 145.924 282.68Z" fill="#D2D2D5"/>
<path d="M154.4 127.673H234.371C245.15 127.673 253.887 136.138 253.887 146.581V329.069C253.887 339.511 245.149 347.977 234.371 347.977H149.52C138.742 347.977 134.883 339.511 134.883 329.069V269.847V191.279V146.58C134.884 136.138 143.622 127.673 154.4 127.673Z" fill="#A7A7A7"/>
<path d="M149.522 345.956C139.15 345.956 136.972 336.774 136.972 329.071V146.581C136.972 137.27 144.79 129.695 154.401 129.695H234.372C243.982 129.695 251.8 137.27 251.8 146.581V329.07C251.8 338.38 243.982 345.955 234.372 345.955H149.522V345.956Z" fill="#494949"/>
<path d="M182.106 138.725H204.607C205.071 138.725 205.447 139.254 205.447 139.907C205.447 140.559 205.07 141.088 204.607 141.088H182.106C181.642 141.088 181.266 140.559 181.266 139.907C181.265 139.254 181.642 138.725 182.106 138.725Z" fill="#152316"/>
<path d="M232.932 132.268H225.232L217.73 141.176C215.898 143.353 213.175 144.612 210.303 144.612H178.697C175.824 144.612 173.102 143.353 171.27 141.176L163.768 132.268H156.069C146.833 132.268 139.317 139.663 139.317 148.752V326.897C139.317 334.417 141.41 343.38 151.38 343.38H232.931C242.168 343.38 249.682 335.986 249.682 326.897V148.752C249.683 139.662 242.169 132.268 232.932 132.268Z" fill="#D0E5FA"/>
<path d="M253.073 211.3C253.073 243.567 252.976 269.726 252.856 269.726C252.737 269.726 252.64 243.567 252.64 211.3C252.64 179.032 252.737 152.874 252.856 152.874C252.976 152.874 253.073 179.032 253.073 211.3Z" fill="#D8D8D8"/>
<path d="M136.065 211.3C136.065 243.567 135.968 269.726 135.849 269.726C135.729 269.726 135.632 243.567 135.632 211.3C135.632 179.032 135.729 152.874 135.849 152.874C135.967 152.874 136.065 179.032 136.065 211.3Z" fill="#D8D8D8"/>
<path d="M194.969 128.688C176.13 128.688 160.857 128.594 160.857 128.478C160.857 128.362 176.129 128.268 194.969 128.268C213.809 128.268 229.082 128.362 229.082 128.478C229.082 128.594 213.809 128.688 194.969 128.688Z" fill="#D8D8D8"/>
<path d="M209.751 139.815C209.751 140.546 209.14 141.138 208.385 141.138C207.63 141.138 207.019 140.546 207.019 139.815C207.019 139.085 207.63 138.491 208.385 138.491C209.14 138.491 209.751 139.084 209.751 139.815Z" fill="#152316"/>
<path d="M193.395 347.12C174.555 347.12 159.282 347.026 159.282 346.91C159.282 346.794 174.554 346.7 193.395 346.7C212.235 346.7 227.507 346.794 227.507 346.91C227.507 347.026 212.234 347.12 193.395 347.12Z" fill="#D8D8D8"/>
<path d="M473.043 314.127L321.208 314.012C320.1 314.011 319.202 313.14 319.203 312.067L319.279 217.754C319.282 214.468 322.034 211.808 325.425 211.81L468.991 211.919C472.382 211.922 475.129 214.587 475.126 217.872L475.05 312.185C475.049 313.259 474.151 314.128 473.043 314.127Z" fill="#2F3339"/>
<path d="M469.197 308.791L325.063 308.681L325.138 217.143L469.272 217.253L469.197 308.791Z" fill="url(#paint0_linear_2428_6098)"/>
<path d="M507.709 347.402L286.643 347.234C283.974 347.232 281.813 345.135 281.815 342.549V342.382L512.546 342.557V342.724C512.543 345.31 510.378 347.404 507.709 347.402Z" fill="#929496"/>
<path d="M507.212 343.803L287.125 343.636C283.127 343.633 280.909 342.855 282.168 341.9L317.187 315.358C318.447 314.403 321.624 313.63 324.283 313.632L470.658 313.743C473.317 313.745 476.478 314.522 477.719 315.479L512.202 342.074C513.445 343.032 511.209 343.806 507.212 343.803Z" fill="#D0D2D3"/>
<path d="M439.454 341.777L354.901 341.713L360.612 331.088L433.977 331.144L439.454 341.777Z" fill="#BBBDBF"/>
<path d="M333.698 317.51L326.947 317.505C326.55 317.505 326.351 317.396 326.503 317.262L329.083 314.983C329.235 314.849 329.665 314.741 330.044 314.741L336.502 314.746C336.882 314.746 337.08 314.855 336.946 314.989L334.66 317.268C334.525 317.402 334.094 317.51 333.698 317.51Z" fill="#929496"/>
<path d="M343.263 317.518L336.512 317.513C336.115 317.513 335.9 317.404 336.032 317.27L338.268 314.991C338.399 314.857 338.813 314.749 339.193 314.749L345.651 314.754C346.03 314.754 346.246 314.863 346.131 314.997L344.189 317.276C344.074 317.41 343.66 317.519 343.263 317.518Z" fill="#929496"/>
<path d="M352.83 317.526L346.079 317.521C345.682 317.521 345.451 317.412 345.562 317.278L347.454 315C347.566 314.866 347.963 314.758 348.342 314.758L354.8 314.763C355.179 314.763 355.411 314.872 355.317 315.006L353.719 317.284C353.625 317.418 353.227 317.526 352.83 317.526Z" fill="#929496"/>
<path d="M362.394 317.531L355.643 317.526C355.247 317.526 354.999 317.417 355.09 317.283L356.639 315.004C356.73 314.87 357.111 314.762 357.491 314.762L363.949 314.767C364.329 314.767 364.576 314.876 364.503 315.01L363.247 317.289C363.173 317.423 362.792 317.531 362.394 317.531Z" fill="#929496"/>
<path d="M371.963 317.54L365.211 317.535C364.814 317.535 364.55 317.426 364.621 317.292L365.827 315.012C365.897 314.878 366.263 314.77 366.642 314.77L373.1 314.775C373.479 314.775 373.743 314.884 373.69 315.018L372.778 317.298C372.724 317.432 372.36 317.54 371.963 317.54Z" fill="#929496"/>
<path d="M381.567 317.546L374.815 317.541C374.419 317.541 374.138 317.432 374.189 317.298L375.05 315.018C375.1 314.884 375.449 314.776 375.828 314.776L382.286 314.781C382.665 314.781 382.946 314.89 382.913 315.024L382.346 317.304C382.312 317.438 381.963 317.547 381.567 317.546Z" fill="#929496"/>
<path d="M391.134 317.554L384.382 317.549C383.986 317.549 383.689 317.44 383.72 317.306L384.237 315.026C384.267 314.892 384.599 314.784 384.979 314.784L391.437 314.789C391.816 314.789 392.114 314.898 392.1 315.032L391.877 317.313C391.863 317.446 391.53 317.554 391.134 317.554Z" fill="#929496"/>
<path d="M400.699 317.561L393.948 317.556C393.552 317.556 393.238 317.447 393.248 317.313L393.422 315.032C393.432 314.898 393.748 314.79 394.127 314.79L400.585 314.795C400.964 314.795 401.278 314.904 401.285 315.038L401.405 317.319C401.412 317.453 401.096 317.561 400.699 317.561Z" fill="#929496"/>
<path d="M410.264 317.567L403.513 317.562C403.116 317.562 402.787 317.453 402.776 317.319L402.607 315.039C402.597 314.905 402.896 314.797 403.276 314.797L409.734 314.802C410.113 314.802 410.444 314.911 410.47 315.045L410.934 317.325C410.96 317.459 410.66 317.568 410.264 317.567Z" fill="#929496"/>
<path d="M419.832 317.575L413.081 317.57C412.685 317.57 412.339 317.461 412.308 317.327L411.795 315.047C411.765 314.913 412.048 314.805 412.426 314.805L418.885 314.81C419.263 314.81 419.61 314.919 419.658 315.053L420.465 317.333C420.513 317.467 420.23 317.575 419.832 317.575Z" fill="#929496"/>
<path d="M429.856 317.584L423.104 317.579C422.708 317.579 422.344 317.47 422.293 317.336L421.42 315.055C421.369 314.921 421.635 314.813 422.014 314.813L428.472 314.818C428.851 314.818 429.214 314.927 429.284 315.061L430.45 317.343C430.518 317.476 430.252 317.585 429.856 317.584Z" fill="#929496"/>
<path d="M439.42 317.592L432.669 317.587C432.273 317.587 431.893 317.478 431.821 317.344L430.605 315.063C430.534 314.929 430.784 314.821 431.163 314.821L437.621 314.826C438.001 314.826 438.38 314.935 438.469 315.069L439.979 317.351C440.067 317.483 439.818 317.592 439.42 317.592Z" fill="#929496"/>
<path d="M448.987 317.599L442.236 317.594C441.84 317.594 441.444 317.485 441.352 317.351L439.792 315.069C439.7 314.935 439.934 314.827 440.313 314.827L446.771 314.832C447.15 314.832 447.546 314.941 447.655 315.075L449.509 317.357C449.618 317.491 449.385 317.599 448.987 317.599Z" fill="#929496"/>
<path d="M458.555 317.605L451.803 317.6C451.407 317.6 450.995 317.491 450.882 317.357L448.979 315.075C448.867 314.941 449.084 314.833 449.463 314.833L455.921 314.838C456.3 314.838 456.713 314.947 456.842 315.081L459.039 317.363C459.168 317.497 458.951 317.605 458.555 317.605Z" fill="#929496"/>
<path d="M468.118 317.611L461.367 317.606C460.97 317.606 460.542 317.497 460.409 317.363L458.163 315.082C458.031 314.948 458.231 314.84 458.611 314.84L465.069 314.845C465.448 314.845 465.877 314.954 466.026 315.088L468.567 317.37C468.715 317.503 468.514 317.612 468.118 317.611Z" fill="#929496"/>
<path d="M334.677 320.676L323.401 320.667C322.985 320.667 322.77 320.558 322.921 320.424L325.501 318.145C325.653 318.011 326.099 317.903 326.499 317.903L337.306 317.911C337.706 317.911 337.927 318.02 337.801 318.154L335.659 320.433C335.533 320.568 335.093 320.677 334.677 320.676Z" fill="#929496"/>
<path d="M344.624 320.682L337.536 320.677C337.12 320.677 336.882 320.568 337.005 320.434L339.101 318.155C339.224 318.021 339.647 317.913 340.047 317.913L346.842 317.918C347.241 317.918 347.479 318.027 347.372 318.161L345.57 320.44C345.463 320.574 345.04 320.682 344.624 320.682Z" fill="#929496"/>
<path d="M354.666 320.69L347.578 320.685C347.162 320.685 346.908 320.576 347.011 320.442L348.764 318.164C348.867 318.029 349.274 317.921 349.673 317.921L356.468 317.926C356.868 317.926 357.122 318.035 357.036 318.17L355.577 320.448C355.489 320.582 355.082 320.691 354.666 320.69Z" fill="#929496"/>
<path d="M364.71 320.697L357.622 320.692C357.206 320.692 356.935 320.583 357.018 320.449L358.427 318.17C358.51 318.036 358.9 317.928 359.3 317.928L366.094 317.933C366.494 317.933 366.764 318.042 366.698 318.176L365.583 320.455C365.517 320.589 365.127 320.697 364.71 320.697Z" fill="#929496"/>
<path d="M374.794 320.706L367.706 320.701C367.29 320.701 367.003 320.592 367.065 320.458L368.129 318.178C368.192 318.044 368.566 317.936 368.965 317.936L375.759 317.941C376.159 317.941 376.446 318.05 376.4 318.184L375.63 320.464C375.585 320.598 375.21 320.706 374.794 320.706Z" fill="#929496"/>
<path d="M384.834 320.714L377.746 320.709C377.33 320.709 377.027 320.6 377.069 320.466L377.79 318.186C377.832 318.052 378.19 317.944 378.589 317.944L385.384 317.949C385.783 317.949 386.086 318.058 386.061 318.192L385.634 320.472C385.609 320.606 385.25 320.715 384.834 320.714Z" fill="#929496"/>
<path d="M394.879 320.721L387.791 320.716C387.375 320.716 387.055 320.607 387.077 320.473L387.455 318.192C387.477 318.058 387.819 317.95 388.218 317.95L395.013 317.955C395.412 317.955 395.731 318.064 395.726 318.198L395.643 320.479C395.636 320.613 395.295 320.721 394.879 320.721Z" fill="#929496"/>
<path d="M404.921 320.729L397.834 320.724C397.417 320.724 397.081 320.615 397.083 320.481L397.117 318.2C397.119 318.066 397.444 317.958 397.843 317.958L404.637 317.963C405.037 317.963 405.373 318.072 405.388 318.206L405.648 320.487C405.663 320.621 405.338 320.729 404.921 320.729Z" fill="#929496"/>
<path d="M414.964 320.735L407.876 320.73C407.46 320.73 407.107 320.621 407.089 320.487L406.779 318.207C406.761 318.073 407.069 317.965 407.469 317.965L414.264 317.97C414.663 317.97 415.015 318.079 415.05 318.213L415.654 320.493C415.689 320.627 415.381 320.736 414.964 320.735Z" fill="#929496"/>
<path d="M425.489 320.744L418.401 320.739C417.985 320.739 417.615 320.629 417.576 320.495L416.907 318.215C416.868 318.081 417.159 317.973 417.559 317.973L424.353 317.978C424.753 317.978 425.122 318.087 425.178 318.221L426.142 320.501C426.197 320.635 425.905 320.745 425.489 320.744Z" fill="#929496"/>
<path d="M435.53 320.752L428.442 320.747C428.026 320.747 427.64 320.638 427.58 320.504L426.567 318.223C426.507 318.089 426.783 317.981 427.183 317.981L433.977 317.986C434.377 317.986 434.762 318.095 434.839 318.229L436.146 320.511C436.222 320.644 435.946 320.752 435.53 320.752Z" fill="#929496"/>
<path d="M445.576 320.759L438.488 320.754C438.072 320.754 437.669 320.645 437.59 320.511L436.233 318.229C436.154 318.095 436.413 317.987 436.811 317.987L443.606 317.992C444.005 317.992 444.407 318.101 444.504 318.235L446.155 320.517C446.251 320.651 445.992 320.76 445.576 320.759Z" fill="#929496"/>
<path d="M455.615 320.767L448.527 320.762C448.111 320.762 447.692 320.653 447.592 320.519L445.892 318.237C445.792 318.103 446.035 317.995 446.434 317.995L453.229 318C453.629 318 454.047 318.109 454.164 318.243L456.157 320.525C456.275 320.659 456.032 320.767 455.615 320.767Z" fill="#929496"/>
<path d="M471.611 320.778L458.572 320.768C458.156 320.768 457.721 320.659 457.601 320.525L455.557 318.243C455.437 318.109 455.664 318.001 456.063 318.001L468.561 318.011C468.961 318.011 469.405 318.12 469.554 318.254L472.095 320.536C472.244 320.67 472.027 320.779 471.611 320.778Z" fill="#929496"/>
<path d="M325.55 330.267L312.65 330.257C312.175 330.257 311.911 330.148 312.062 330.014L314.642 327.735C314.794 327.601 315.288 327.493 315.748 327.493L328.18 327.502C328.639 327.502 328.909 327.611 328.783 327.745L326.64 330.024C326.515 330.159 326.026 330.267 325.55 330.267Z" fill="#929496"/>
<path d="M336.929 330.275L328.82 330.269C328.344 330.269 328.057 330.16 328.18 330.026L330.276 327.748C330.399 327.614 330.87 327.506 331.33 327.506L339.145 327.512C339.604 327.512 339.89 327.621 339.784 327.755L337.981 330.033C337.878 330.168 337.406 330.276 336.929 330.275Z" fill="#929496"/>
<path d="M348.418 330.286L340.308 330.28C339.833 330.28 339.529 330.171 339.632 330.037L341.385 327.758C341.489 327.624 341.944 327.516 342.403 327.516L350.218 327.522C350.678 327.522 350.98 327.631 350.894 327.765L349.436 330.045C349.349 330.178 348.893 330.287 348.418 330.286Z" fill="#929496"/>
<path d="M359.905 330.295L351.796 330.289C351.32 330.289 351.001 330.18 351.084 330.046L352.493 327.766C352.576 327.632 353.015 327.524 353.474 327.524L361.289 327.53C361.748 327.53 362.067 327.639 362.001 327.773L360.886 330.053C360.821 330.187 360.381 330.295 359.905 330.295Z" fill="#929496"/>
<path d="M424.063 330.343L363.524 330.297C363.048 330.297 362.711 330.188 362.774 330.054L363.832 327.774C363.894 327.64 364.317 327.532 364.776 327.532L423.121 327.576C423.58 327.576 423.99 327.685 424.038 327.819L424.84 330.1C424.888 330.235 424.54 330.343 424.063 330.343Z" fill="#929496"/>
<path d="M435.567 330.351L427.458 330.345C426.982 330.345 426.554 330.236 426.505 330.102L425.652 327.821C425.602 327.687 425.934 327.579 426.392 327.579L434.207 327.585C434.666 327.585 435.093 327.694 435.16 327.828L436.307 330.109C436.374 330.243 436.043 330.352 435.567 330.351Z" fill="#929496"/>
<path d="M447.053 330.36L438.944 330.354C438.468 330.354 438.024 330.245 437.954 330.111L436.758 327.83C436.687 327.696 437.002 327.588 437.462 327.588L445.277 327.594C445.736 327.594 446.179 327.703 446.267 327.837L447.756 330.118C447.845 330.252 447.529 330.36 447.053 330.36Z" fill="#929496"/>
<path d="M458.542 330.369L450.433 330.363C449.957 330.363 449.497 330.254 449.406 330.12L447.867 327.838C447.776 327.704 448.076 327.596 448.534 327.596L456.349 327.602C456.808 327.602 457.268 327.711 457.375 327.845L459.209 330.126C459.317 330.261 459.018 330.369 458.542 330.369Z" fill="#929496"/>
<path d="M470.03 330.377L461.921 330.371C461.445 330.371 460.969 330.262 460.859 330.128L458.976 327.846C458.865 327.712 459.147 327.604 459.607 327.604L467.421 327.61C467.881 327.61 468.357 327.719 468.485 327.853L470.662 330.135C470.789 330.268 470.507 330.377 470.03 330.377Z" fill="#929496"/>
<path d="M481.552 330.385L473.443 330.379C472.967 330.379 472.475 330.27 472.344 330.136L470.116 327.854C469.985 327.72 470.251 327.612 470.71 327.612L478.525 327.618C478.985 327.618 479.477 327.727 479.625 327.861L482.146 330.144C482.295 330.277 482.028 330.386 481.552 330.385Z" fill="#929496"/>
<path d="M337.585 323.842L319.858 323.829C319.421 323.829 319.191 323.72 319.343 323.586L321.923 321.307C322.075 321.173 322.537 321.065 322.955 321.065L339.981 321.078C340.4 321.078 340.647 321.187 340.532 321.321L338.583 323.6C338.468 323.734 338.022 323.842 337.585 323.842Z" fill="#929496"/>
<path d="M348.191 323.851L340.767 323.845C340.331 323.845 340.068 323.736 340.179 323.602L342.076 321.323C342.188 321.189 342.617 321.081 343.036 321.081L350.167 321.086C350.586 321.086 350.849 321.195 350.754 321.329L349.151 323.608C349.058 323.743 348.627 323.851 348.191 323.851Z" fill="#929496"/>
<path d="M358.709 323.857L351.285 323.851C350.849 323.851 350.569 323.742 350.66 323.608L352.214 321.33C352.306 321.195 352.719 321.087 353.138 321.087L360.268 321.093C360.688 321.093 360.966 321.203 360.893 321.337L359.633 323.616C359.559 323.749 359.146 323.857 358.709 323.857Z" fill="#929496"/>
<path d="M369.271 323.864L361.846 323.858C361.409 323.858 361.114 323.749 361.185 323.615L362.394 321.336C362.466 321.202 362.862 321.094 363.281 321.094L370.412 321.099C370.831 321.099 371.126 321.208 371.072 321.342L370.158 323.621C370.105 323.756 369.707 323.864 369.271 323.864Z" fill="#929496"/>
<path d="M379.792 323.873L372.367 323.867C371.932 323.867 371.619 323.758 371.669 323.624L372.535 321.344C372.585 321.21 372.966 321.102 373.385 321.102L380.516 321.107C380.935 321.107 381.247 321.216 381.214 321.35L380.643 323.63C380.608 323.765 380.228 323.873 379.792 323.873Z" fill="#929496"/>
<path d="M390.312 323.881L382.887 323.875C382.45 323.875 382.122 323.766 382.153 323.632L382.675 321.352C382.706 321.218 383.07 321.11 383.488 321.11L390.618 321.115C391.038 321.115 391.366 321.224 391.352 321.358L391.125 323.638C391.113 323.773 390.748 323.881 390.312 323.881Z" fill="#929496"/>
<path d="M400.831 323.89L393.407 323.884C392.971 323.884 392.625 323.775 392.636 323.641L392.814 321.36C392.824 321.226 393.172 321.118 393.591 321.118L400.722 321.123C401.141 321.123 401.486 321.232 401.492 321.366L401.608 323.647C401.615 323.782 401.267 323.89 400.831 323.89Z" fill="#929496"/>
<path d="M411.349 323.898L403.925 323.892C403.488 323.892 403.127 323.783 403.118 323.649L402.952 321.368C402.943 321.234 403.274 321.126 403.694 321.126L410.824 321.131C411.243 321.131 411.604 321.24 411.631 321.374L412.091 323.655C412.118 323.79 411.786 323.898 411.349 323.898Z" fill="#929496"/>
<path d="M421.869 323.906L414.444 323.9C414.009 323.9 413.631 323.791 413.601 323.657L413.092 321.377C413.062 321.243 413.377 321.135 413.796 321.135L420.926 321.14C421.345 321.14 421.723 321.249 421.77 321.383L422.573 323.663C422.619 323.798 422.304 323.906 421.869 323.906Z" fill="#929496"/>
<path d="M432.388 323.915L424.963 323.909C424.527 323.909 424.133 323.8 424.083 323.666L423.231 321.385C423.181 321.251 423.48 321.143 423.899 321.143L431.029 321.148C431.448 321.148 431.842 321.257 431.91 321.391L433.056 323.673C433.123 323.807 432.824 323.915 432.388 323.915Z" fill="#929496"/>
<path d="M442.909 323.922L435.485 323.916C435.049 323.916 434.638 323.807 434.568 323.673L433.372 321.391C433.302 321.257 433.585 321.149 434.004 321.149L441.134 321.154C441.553 321.154 441.963 321.263 442.051 321.397L443.541 323.679C443.629 323.814 443.346 323.922 442.909 323.922Z" fill="#929496"/>
<path d="M453.427 323.93L446.002 323.924C445.566 323.924 445.139 323.815 445.048 323.681L443.509 321.399C443.418 321.265 443.684 321.157 444.103 321.157L451.234 321.162C451.653 321.162 452.079 321.271 452.187 321.405L454.02 323.687C454.129 323.822 453.862 323.93 453.427 323.93Z" fill="#929496"/>
<path d="M463.945 323.938L456.521 323.932C456.085 323.932 455.641 323.823 455.531 323.689L453.649 321.407C453.538 321.273 453.788 321.165 454.207 321.165L461.337 321.17C461.757 321.17 462.199 321.279 462.328 321.413L464.504 323.695C464.632 323.83 464.382 323.938 463.945 323.938Z" fill="#929496"/>
<path d="M474.509 323.944L467.085 323.938C466.649 323.938 466.189 323.829 466.059 323.695L463.831 321.414C463.7 321.28 463.934 321.172 464.352 321.172L471.482 321.176C471.901 321.176 472.361 321.286 472.509 321.42L475.03 323.702C475.179 323.836 474.945 323.944 474.509 323.944Z" fill="#929496"/>
<path d="M341.177 327.071L316.245 327.052C315.789 327.052 315.542 326.943 315.694 326.809L318.273 324.53C318.425 324.396 318.904 324.288 319.343 324.288L343.331 324.306C343.77 324.306 344.043 324.415 343.94 324.549L342.19 326.828C342.087 326.963 341.634 327.071 341.177 327.071Z" fill="#929496"/>
<path d="M352.165 327.079L344.398 327.073C343.942 327.073 343.653 326.964 343.753 326.83L345.453 324.551C345.553 324.417 345.99 324.309 346.429 324.309L353.903 324.315C354.342 324.315 354.631 324.424 354.548 324.558L353.141 326.838C353.058 326.971 352.622 327.08 352.165 327.079Z" fill="#929496"/>
<path d="M363.217 327.088L355.45 327.082C354.993 327.082 354.688 326.973 354.768 326.839L356.124 324.559C356.203 324.425 356.624 324.317 357.063 324.317L364.538 324.323C364.976 324.323 365.282 324.432 365.219 324.566L364.157 326.846C364.094 326.98 363.673 327.088 363.217 327.088Z" fill="#929496"/>
<path d="M374.223 327.096L366.455 327.09C365.999 327.09 365.677 326.981 365.737 326.847L366.75 324.567C366.808 324.433 367.213 324.325 367.652 324.325L375.126 324.331C375.565 324.331 375.887 324.44 375.845 324.574L375.126 326.854C375.084 326.988 374.679 327.096 374.223 327.096Z" fill="#929496"/>
<path d="M385.226 327.104L377.459 327.098C377.003 327.098 376.664 326.989 376.704 326.855L377.374 324.575C377.413 324.441 377.801 324.333 378.24 324.333L385.714 324.339C386.153 324.339 386.491 324.448 386.469 324.582L386.094 326.862C386.071 326.997 385.683 327.105 385.226 327.104Z" fill="#929496"/>
<path d="M396.235 327.112L388.468 327.106C388.011 327.106 387.657 326.997 387.676 326.863L388.001 324.584C388.02 324.45 388.391 324.342 388.83 324.342L396.304 324.348C396.743 324.348 397.097 324.457 397.096 324.591L397.064 326.871C397.062 327.004 396.691 327.112 396.235 327.112Z" fill="#929496"/>
<path d="M407.239 327.122L399.471 327.116C399.015 327.116 398.644 327.007 398.643 326.873L398.626 324.592C398.625 324.458 398.98 324.35 399.419 324.35L406.893 324.356C407.332 324.356 407.702 324.465 407.721 324.599L408.033 326.88C408.049 327.014 407.695 327.122 407.239 327.122Z" fill="#929496"/>
<path d="M418.244 327.13L410.477 327.124C410.021 327.124 409.634 327.015 409.613 326.881L409.252 324.6C409.23 324.466 409.568 324.358 410.008 324.358L417.482 324.364C417.921 324.364 418.308 324.473 418.347 324.607L419.002 326.888C419.039 327.022 418.701 327.13 418.244 327.13Z" fill="#929496"/>
<path d="M429.248 327.138L421.481 327.132C421.025 327.132 420.621 327.023 420.58 326.889L419.875 324.608C419.833 324.474 420.155 324.366 420.594 324.366L428.068 324.372C428.507 324.372 428.911 324.481 428.97 324.615L429.968 326.896C430.027 327.03 429.705 327.138 429.248 327.138Z" fill="#929496"/>
<path d="M440.254 327.146L432.487 327.14C432.031 327.14 431.61 327.031 431.55 326.897L430.502 324.616C430.44 324.482 430.746 324.374 431.185 324.374L438.659 324.38C439.098 324.38 439.518 324.489 439.597 324.623L440.939 326.905C441.016 327.038 440.711 327.147 440.254 327.146Z" fill="#929496"/>
<path d="M451.259 327.155L443.492 327.149C443.036 327.149 442.599 327.04 442.518 326.906L441.126 324.625C441.044 324.491 441.333 324.383 441.773 324.383L449.247 324.389C449.686 324.389 450.123 324.498 450.222 324.632L451.908 326.913C452.006 327.047 451.716 327.155 451.259 327.155Z" fill="#929496"/>
<path d="M462.265 327.164L454.498 327.158C454.042 327.158 453.59 327.049 453.487 326.915L451.752 324.633C451.65 324.499 451.923 324.391 452.362 324.391L459.835 324.397C460.274 324.397 460.727 324.506 460.846 324.64L462.875 326.922C462.995 327.056 462.722 327.164 462.265 327.164Z" fill="#929496"/>
<path d="M478.038 327.174L465.545 327.164C465.089 327.164 464.62 327.055 464.498 326.921L462.417 324.639C462.295 324.505 462.551 324.397 462.991 324.397L475.011 324.406C475.45 324.406 475.926 324.515 476.075 324.649L478.596 326.932C478.745 327.066 478.495 327.174 478.038 327.174Z" fill="#929496"/>
<path d="M512.334 342.201C511.742 342.714 509.868 343.058 507.206 343.056L287.119 342.889C284.466 342.887 282.604 342.543 282.015 342.033C281.12 342.927 283.308 343.633 287.118 343.636L507.205 343.803C511.023 343.805 513.225 343.099 512.334 342.201Z" fill="#F1F2F2"/>
<path opacity="0.03" d="M475.126 217.872C475.128 214.586 472.382 211.921 468.99 211.919L325.424 211.81C324.191 211.809 323.045 212.164 322.081 212.769L475.053 307.544L475.126 217.872Z" fill="#98AAEA"/>
<path d="M151.807 244.849L246.689 249.837L252.62 214.85C252.741 212.666 251.013 210.798 248.758 210.68L188.716 207.524C188.716 207.524 183.198 202.487 182.068 201.423C180.937 200.358 180.198 199.819 178.951 199.754L154.528 198.471C152.273 198.353 150.345 200.027 150.223 202.212L151.807 244.849Z" fill="#F4D85F"/>
<path d="M152.117 246.35L246.214 251.295L252.537 216.329C252.659 214.144 250.931 212.277 248.676 212.159L188.633 209.003C188.633 209.003 183.743 204.439 181.985 202.901C180.806 201.87 180.115 201.298 178.868 201.233L154.445 199.949C152.19 199.831 150.264 201.506 150.141 203.69L152.117 246.35Z" fill="#ECB42A"/>
<path d="M150.45 210.325L152.118 246.352L246.215 251.297L250.772 226.097C227.267 227.645 177.858 223.13 150.45 210.325Z" fill="#D6A32C"/>
<path d="M215.055 177.66L167.735 180.594L172.671 255.323L234.119 251.513L230.112 190.842L215.055 177.66Z" fill="#FDFBE4"/>
<path opacity="0.36" d="M222.917 193.879L215.057 177.66L230.114 190.842L222.917 193.879Z" fill="#E4DDAD"/>
<path d="M220.287 192.513L215.057 177.66L230.114 190.842L220.287 192.513Z" fill="#E4DDAD"/>
<path d="M216.62 187.421L181.625 189.592L181.745 191.402L216.74 189.231L216.62 187.421Z" fill="#B0AE9A"/>
<path d="M222.551 199.547L177.338 202.357L177.457 204.167L222.671 201.357L222.551 199.547Z" fill="#B0AE9A"/>
<path d="M222.994 206.231L177.78 209.035L177.899 210.845L223.114 208.04L222.994 206.231Z" fill="#B0AE9A"/>
<path d="M223.434 212.913L178.22 215.718L178.34 217.528L223.554 214.723L223.434 212.913Z" fill="#B0AE9A"/>
<path d="M223.875 219.594L178.66 222.398L178.78 224.208L223.994 221.404L223.875 219.594Z" fill="#B0AE9A"/>
<path d="M224.319 226.274L179.105 229.079L179.224 230.889L224.439 228.084L224.319 226.274Z" fill="#B0AE9A"/>
<path d="M224.761 232.955L179.547 235.76L179.667 237.569L224.881 234.765L224.761 232.955Z" fill="#B0AE9A"/>
<path d="M225.202 239.635L179.987 242.44L180.107 244.25L225.321 241.445L225.202 239.635Z" fill="#B0AE9A"/>
<path opacity="0.63" d="M170.315 219.657L172.671 255.324L234.119 251.514L232.229 222.911L170.315 219.657Z" fill="#E4DDAD"/>
<path d="M239.49 279.036L156.206 274.658C155.052 274.597 154.073 273.814 153.794 272.726L142.018 228.434C142.028 228.013 142.096 226.848 142.112 226.598C142.193 225.247 143.392 224.129 144.883 224.207L256.379 230.067C257.891 230.146 258.967 231.419 258.863 232.793C258.846 233.024 258.825 234.104 258.753 234.608L242.103 277.367C241.705 278.419 240.644 279.096 239.49 279.036Z" fill="#F4D85F"/>
<path d="M239.398 280.669L156.114 276.292C154.96 276.231 153.981 275.447 153.702 274.36L142.094 229C141.669 227.336 143.025 225.748 144.791 225.841L256.288 231.701C258.054 231.794 259.225 233.515 258.616 235.124L242.011 279.001C241.614 280.053 240.554 280.73 239.398 280.669Z" fill="#ECB42A"/>
<path d="M146.769 225.943L144.793 225.839C143.027 225.746 141.671 227.335 142.096 228.998L153.704 274.358C153.983 275.445 154.961 276.23 156.116 276.291L239.401 280.668C240.555 280.729 241.615 280.052 242.014 279.001L249.149 260.147C211.944 273.178 166.655 254.892 146.769 225.943Z" fill="#D6A32C"/>
<path d="M167.203 242.723C179.388 251.376 193.943 257.494 208.186 259.949C213.082 260.794 217.627 261.287 221.831 261.508C233.929 262.144 243.192 260.524 249.761 258.523L252.065 252.433C244.443 255.414 230.288 258.716 209.083 255.061C195.596 252.735 181.798 246.931 170.233 238.719C164.846 234.894 160.131 230.664 156.467 226.453L149.669 226.095C153.872 231.781 159.918 237.55 167.203 242.723Z" fill="#D6A32C"/>
<path d="M372.078 145.25L327.466 151.244L337.55 221.695L395.481 213.912L387.294 156.713L372.078 145.25Z" fill="#FDFBE4"/>
<path opacity="0.36" d="M327.466 151.244L333.017 190.033L342.136 149.273L327.466 151.244Z" fill="#E4DDAD"/>
<path opacity="0.36" d="M380.698 160.079L372.079 145.25L387.295 156.713L380.698 160.079Z" fill="#E4DDAD"/>
<path d="M378.107 158.963L372.079 145.25L387.295 156.713L378.107 158.963Z" fill="#E4DDAD"/>
<path d="M374.253 154.37L341.263 158.804L341.507 160.51L374.497 156.076L374.253 154.37Z" fill="#B0AE9A"/>
<path d="M380.746 165.449L338.124 171.187L338.368 172.893L380.99 167.155L380.746 165.449Z" fill="#B0AE9A"/>
<path d="M381.649 171.756L339.026 177.484L339.27 179.19L381.894 173.462L381.649 171.756Z" fill="#B0AE9A"/>
<path d="M382.551 178.055L339.927 183.783L340.172 185.489L382.795 179.761L382.551 178.055Z" fill="#B0AE9A"/>
<path d="M383.453 184.352L340.829 190.08L341.073 191.786L383.697 186.058L383.453 184.352Z" fill="#B0AE9A"/>
<path d="M384.354 190.649L341.731 196.377L341.975 198.084L384.598 192.355L384.354 190.649Z" fill="#B0AE9A"/>
<path d="M385.256 196.948L342.632 202.677L342.877 204.383L385.5 198.654L385.256 196.948Z" fill="#B0AE9A"/>
<path d="M386.157 203.245L343.534 208.974L343.778 210.68L386.402 204.952L386.157 203.245Z" fill="#B0AE9A"/>
<path d="M354.769 268.837L435.215 268.738L438.533 238.895C438.531 237.042 436.979 235.543 435.067 235.545L384.16 235.607C384.16 235.607 379.252 231.6 378.245 230.751C377.239 229.903 376.587 229.481 375.53 229.483L354.823 229.508C352.911 229.51 351.363 231.013 351.365 232.866L354.769 268.837Z" fill="#F4D85F"/>
<path d="M355.102 270.091L434.882 269.993L438.533 240.15C438.531 238.297 436.979 236.798 435.067 236.8L384.16 236.862C384.16 236.862 379.805 233.226 378.245 232.006C377.199 231.189 376.587 230.736 375.53 230.738L354.823 230.763C352.91 230.765 351.363 232.268 351.365 234.121L355.102 270.091Z" fill="#ECB42A"/>
<path d="M351.947 239.713L355.102 270.09L434.882 269.992L437.513 248.483C417.719 250.861 375.735 249.291 351.947 239.713Z" fill="#D6A32C"/>
<path d="M404.979 209.167L365.122 213.798L372.914 276.741L424.672 270.726L418.345 219.624L404.979 209.167Z" fill="#FDFBE4"/>
<path opacity="0.36" d="M412.409 222.518L404.979 209.167L418.345 219.624L412.409 222.518Z" fill="#E4DDAD"/>
<path d="M410.12 221.482L404.979 209.167L418.345 219.624L410.12 221.482Z" fill="#E4DDAD"/>
<path d="M406.768 217.345L377.292 220.77L377.48 222.295L406.956 218.869L406.768 217.345Z" fill="#B0AE9A"/>
<path d="M412.37 227.32L374.288 231.753L374.477 233.277L412.559 228.844L412.37 227.32Z" fill="#B0AE9A"/>
<path d="M413.068 232.954L374.985 237.38L375.173 238.904L413.256 234.478L413.068 232.954Z" fill="#B0AE9A"/>
<path d="M413.764 238.582L375.681 243.008L375.87 244.533L413.953 240.107L413.764 238.582Z" fill="#B0AE9A"/>
<path d="M414.46 244.207L376.377 248.633L376.566 250.157L414.649 245.732L414.46 244.207Z" fill="#B0AE9A"/>
<path d="M415.159 249.834L377.076 254.259L377.265 255.784L415.347 251.358L415.159 249.834Z" fill="#B0AE9A"/>
<path d="M415.853 255.462L377.77 259.888L377.959 261.412L416.042 256.987L415.853 255.462Z" fill="#B0AE9A"/>
<path d="M416.551 261.089L378.468 265.515L378.657 267.039L416.74 262.613L416.551 261.089Z" fill="#B0AE9A"/>
<path opacity="0.63" d="M369.194 246.698L372.913 276.74L424.671 270.726L421.688 246.634L369.194 246.698Z" fill="#E4DDAD"/>
<path d="M430.544 293.748L359.931 293.835C358.952 293.836 358.087 293.217 357.799 292.311L345.698 255.407C345.687 255.05 345.688 254.063 345.689 253.851C345.693 252.706 346.651 251.704 347.915 251.703L442.447 251.587C443.728 251.586 444.699 252.613 444.678 253.778C444.675 253.974 444.709 254.887 444.672 255.317L432.67 292.219C432.387 293.126 431.523 293.747 430.544 293.748Z" fill="#F4D85F"/>
<path d="M430.545 295.131L359.932 295.217C358.954 295.218 358.088 294.6 357.8 293.693L345.791 255.878C345.35 254.492 346.419 253.088 347.917 253.086L442.448 252.969C443.947 252.967 445.019 254.369 444.583 255.757L432.672 293.602C432.388 294.509 431.524 295.129 430.545 295.131Z" fill="#ECB42A"/>
<path d="M349.594 253.084L347.919 253.086C346.421 253.088 345.352 254.493 345.793 255.879L357.803 293.694C358.091 294.6 358.956 295.219 359.935 295.218L430.547 295.132C431.526 295.131 432.389 294.51 432.675 293.603L437.793 277.341C406.974 290.048 367.805 276.651 349.594 253.084Z" fill="#D6A32C"/>
<path d="M367.68 266.34C378.399 273.1 390.999 277.609 403.157 279.038C407.336 279.529 411.202 279.739 414.767 279.735C425.024 279.722 432.776 277.932 438.232 275.942L439.885 270.689C433.587 273.555 421.782 276.99 403.679 274.864C392.166 273.511 380.222 269.233 370.047 262.817C365.309 259.829 361.118 256.467 357.816 253.074L352.053 253.081C355.881 257.696 361.271 262.299 367.68 266.34Z" fill="#D6A32C"/>
<path d="M248.009 140.657L205.252 154.366L228.317 221.889L283.841 204.087L265.114 149.265L248.009 140.657Z" fill="#FDFBE4"/>
<path opacity="0.36" d="M259.253 153.732L248.009 140.657L265.114 149.265L259.253 153.732Z" fill="#E4DDAD"/>
<path d="M256.498 153.087L248.009 140.657L265.114 149.265L256.498 153.087Z" fill="#E4DDAD"/>
<path d="M251.862 149.268L220.241 159.407L220.799 161.042L252.42 150.903L251.862 149.268Z" fill="#B0AE9A"/>
<path d="M260.321 159.033L219.466 172.132L220.025 173.768L260.88 160.668L260.321 159.033Z" fill="#B0AE9A"/>
<path d="M262.382 165.07L221.528 178.169L222.086 179.804L262.941 166.705L262.382 165.07Z" fill="#B0AE9A"/>
<path d="M264.446 171.106L223.591 184.206L224.15 185.841L265.005 172.742L264.446 171.106Z" fill="#B0AE9A"/>
<path d="M266.507 177.143L225.653 190.242L226.211 191.878L267.066 178.778L266.507 177.143Z" fill="#B0AE9A"/>
<path d="M268.571 183.18L227.716 196.279L228.275 197.914L269.13 184.815L268.571 183.18Z" fill="#B0AE9A"/>
<path d="M270.632 189.214L229.778 202.314L230.336 203.949L271.191 190.85L270.632 189.214Z" fill="#B0AE9A"/>
<path d="M272.694 195.253L231.839 208.352L232.398 209.988L273.252 196.888L272.694 195.253Z" fill="#B0AE9A"/>
<path opacity="0.36" d="M255.383 198.04L283.818 204.012L265.828 151.348L255.383 198.04Z" fill="#E4DDAD"/>
<path d="M327.105 126.776L278.467 116.563L261.283 193.374L324.444 206.635L338.394 144.274L327.105 126.776Z" fill="#FDFBE4"/>
<path opacity="0.36" d="M330.229 145.337L327.106 126.777L338.395 144.275L330.229 145.337Z" fill="#E4DDAD"/>
<path d="M327.98 143.226L327.106 126.777L338.395 144.275L327.98 143.226Z" fill="#E4DDAD"/>
<path d="M325.773 137.05L289.805 129.498L289.389 131.358L325.357 138.91L325.773 137.05Z" fill="#B0AE9A"/>
<path d="M328.165 150.945L281.693 141.188L281.276 143.048L327.748 152.806L328.165 150.945Z" fill="#B0AE9A"/>
<path d="M326.63 157.813L280.158 148.055L279.742 149.915L326.214 159.673L326.63 157.813Z" fill="#B0AE9A"/>
<path d="M325.094 164.68L278.622 154.922L278.205 156.783L324.677 166.54L325.094 164.68Z" fill="#B0AE9A"/>
<path d="M323.557 171.545L277.085 161.787L276.669 163.648L323.141 173.405L323.557 171.545Z" fill="#B0AE9A"/>
<path d="M322.02 178.412L275.548 168.654L275.132 170.515L321.604 180.272L322.02 178.412Z" fill="#B0AE9A"/>
<path d="M320.484 185.277L274.012 175.52L273.596 177.38L320.068 187.137L320.484 185.277Z" fill="#B0AE9A"/>
<path d="M318.948 192.144L272.477 182.387L272.061 184.247L318.532 194.004L318.948 192.144Z" fill="#B0AE9A"/>
<path d="M151.878 194.615C154.935 170.791 168.429 133.991 232.89 115.299C258.138 107.978 284.885 107.426 310.812 102.843C320.445 101.141 330.232 98.7472 338.207 93.2436C346.183 87.74 352.053 78.5044 350.919 69.0816C350.37 64.5193 348.098 60.053 344.278 57.3332C336.541 51.8256 324.56 55.4317 319.231 63.1689C313.903 70.9062 314.146 81.2122 317.173 90.0397C321.154 101.651 329.681 111.74 340.645 117.812C361.927 129.596 389.941 125.938 410.327 139.127C421.057 146.068 428.494 157.141 432.45 169.039C436.407 180.936 437.099 193.653 436.328 206.129" stroke="#3F5A75" stroke-miterlimit="10" stroke-dasharray="5.14 5.14"/>
<g opacity="0.48">
<path d="M403.735 126.918C417.233 130.923 434.647 146.506 438.927 162.376" stroke="#3F5A75" stroke-miterlimit="10" stroke-dasharray="5.14 5.14"/>
<path d="M308.771 74.8805C308.962 70.2292 310.541 56.7233 322.096 51.3817" stroke="#3F5A75" stroke-miterlimit="10" stroke-dasharray="5.14 5.14"/>
<path d="M357.173 59.0117C363.371 73.4519 357.468 90.4648 347.729 96.4696" stroke="#3F5A75" stroke-miterlimit="10" stroke-dasharray="5.14 5.14"/>
<path d="M201.345 120.891C232.227 105.099 268.662 101.245 282.973 101.296" stroke="#3F5A75" stroke-miterlimit="10" stroke-dasharray="5.14 5.14"/>
<path d="M287.964 112.052C295.789 110.991 301.098 110.48 309.32 108.888" stroke="#3F5A75" stroke-miterlimit="10" stroke-dasharray="5.14 5.14"/>
</g>
</g>
<defs>
<linearGradient id="paint0_linear_2428_6098" x1="410.168" y1="244.215" x2="332.297" y2="363.879" gradientUnits="userSpaceOnUse">
<stop stop-color="#D2E7FA"/>
<stop offset="0.1771" stop-color="#CEE4F9"/>
<stop offset="0.3632" stop-color="#C1DDF6"/>
<stop offset="0.5535" stop-color="#ACD1F1"/>
<stop offset="0.7467" stop-color="#8FBFE9"/>
<stop offset="0.9402" stop-color="#69A9E0"/>
<stop offset="1" stop-color="#5CA1DD"/>
</linearGradient>
<clipPath id="clip0_2428_6098">
<rect width="596" height="379" rx="24" fill="white"/>
</clipPath>
</defs>
</svg>
