<svg width="596" height="379" viewBox="0 0 596 379" fill="none" xmlns="http://www.w3.org/2000/svg">
<g clip-path="url(#clip0_2428_6639)">
<rect width="596" height="379" rx="24" fill="#F1F1F1"/>
<path opacity="0.0526316" d="M-103.096 497.799C-88.7298 516.913 -42.8126 548.897 25.9234 523.926C111.843 492.711 145.074 409.97 221.758 367.067C278.358 335.402 430.442 287.871 517.893 340.393" stroke="#D2D2D5"/>
<path opacity="0.105263" d="M-117.267 457.729C-104.978 478.24 -62.6551 514.848 8.3146 497.198C97.0267 475.136 138.724 396.321 219.473 361.67C279.072 336.094 435.292 304.72 516.773 366.096" stroke="#D2D2D5"/>
<path opacity="0.157895" d="M-127.975 417.119C-117.896 438.802 -79.6319 479.634 -7.2061 469.499C83.3262 456.83 133.033 382.806 216.962 356.785C278.908 337.579 437.551 322.706 512.171 392.263" stroke="#D2D2D5"/>
<path opacity="0.210526" d="M-135.178 376.334C-127.421 398.952 -93.6345 443.56 -20.546 441.051C70.8146 437.915 127.987 369.492 214.176 352.386C277.79 339.761 437.119 341.552 504.059 418.528" stroke="#D2D2D5"/>
<path opacity="0.263158" d="M-138.877 335.74C-133.527 359.044 -104.588 406.94 -31.638 412.084C59.5499 418.515 123.561 356.443 211.066 348.44C275.652 342.534 433.92 360.97 492.448 444.521" stroke="#D2D2D5"/>
<path opacity="0.315789" d="M-139.117 295.702C-136.232 319.438 -112.459 370.096 -40.4459 382.837C49.5703 398.765 119.719 343.724 207.581 344.912C272.43 345.788 427.905 380.667 477.378 469.879" stroke="#D2D2D5"/>
<path opacity="0.368421" d="M-135.97 256.579C-135.582 280.486 -117.234 333.352 -46.9474 353.551C40.9108 378.801 116.429 331.394 203.685 341.759C268.088 349.409 419.065 400.349 458.942 494.243" stroke="#D2D2D5"/>
<path opacity="0.421053" d="M-129.552 218.723C-131.665 242.54 -118.944 297.034 -51.1535 324.47C33.5842 358.764 113.644 319.511 199.339 338.94C262.589 353.281 407.414 419.722 437.258 517.27" stroke="#D2D2D5"/>
<path opacity="0.473684" d="M-120.013 182.465C-124.604 205.931 -117.648 261.456 -53.0971 295.828C27.5915 338.792 111.316 308.122 194.511 336.403C255.915 357.276 393.001 438.492 412.486 538.625" stroke="#D2D2D5"/>
<path opacity="0.526316" d="M-107.536 148.123C-114.554 170.981 -113.441 226.929 -52.8361 267.859C22.9195 319.022 109.391 297.272 189.174 334.094C248.06 361.271 375.906 456.372 384.817 557.993" stroke="#D2D2D5"/>
<path opacity="0.578947" d="M-92.341 115.995C-101.711 137.993 -106.451 193.751 -50.457 240.792C19.5356 299.594 107.807 287.001 183.304 331.961C239.026 365.145 356.232 473.088 354.471 575.084" stroke="#D2D2D5"/>
<path opacity="0.631579" d="M-74.6705 86.3527C-86.2882 107.251 -96.831 162.208 -46.0608 214.845C17.4019 280.64 106.506 277.344 176.89 329.949C228.838 368.775 334.119 488.378 321.706 589.632" stroke="#D2D2D5"/>
<path opacity="0.684211" d="M-54.7992 59.4437C-68.5377 79.0136 -84.7673 132.567 -39.7773 190.222C16.4602 262.291 105.421 268.326 169.92 328.001C217.526 372.044 309.727 501.997 286.799 601.398" stroke="#D2D2D5"/>
<path opacity="0.736842" d="M-33.0239 35.4756C-48.7328 53.5022 -70.4714 105.066 -31.7544 167.108C16.6418 244.661 104.484 259.962 162.393 326.051C205.133 374.83 283.246 513.708 250.053 610.168" stroke="#D2D2D5"/>
<path opacity="0.789474" d="M-9.66447 14.6399C-27.1716 30.9257 -54.1809 79.9347 -22.1612 145.684C17.8634 227.87 103.625 252.27 154.308 324.05C191.716 377.029 254.884 523.312 211.79 615.774" stroke="#D2D2D5"/>
<path opacity="0.842105" d="M14.9447 -2.92057C-4.16889 11.446 -36.1531 57.3632 -11.1815 126.099C20.0331 212.019 102.774 245.249 145.677 321.934C177.342 378.533 224.873 530.618 172.351 618.069" stroke="#D2D2D5"/>
<path opacity="0.894737" d="M40.4507 -17.0917C19.9401 -4.80173 -16.6686 37.5207 0.981414 108.49C23.0439 197.203 101.858 238.899 136.51 319.649C162.086 379.248 193.459 535.467 132.083 616.949" stroke="#D2D2D5"/>
<path opacity="0.947368" d="M66.5023 -27.7968C44.8194 -17.7181 3.98739 20.5458 14.1223 92.9716C26.791 183.504 100.815 233.211 126.837 317.14C146.042 379.086 160.915 537.729 91.3577 612.349" stroke="#D2D2D5"/>
<path d="M92.7245 -35C70.1069 -27.243 25.4989 6.54322 28.0078 79.6317C31.1438 170.992 99.5668 228.164 116.673 314.354C129.298 377.968 127.506 537.297 50.5304 604.237" stroke="#D2D2D5"/>
<path opacity="0.7" d="M415.24 302.311C430.483 302.311 492.065 276.635 468.791 228.767C448.52 187.079 416.912 201.482 430.252 138.774C437.781 103.382 399.84 64.3334 358.609 87.5539C335.328 100.666 289.437 116.755 266.714 84.1356C230.9 32.7251 154.265 31.9243 129.61 89.233C103.206 150.605 171.493 165.8 146.102 195.235C136.732 206.099 125.276 211.226 117.555 249.781C112.106 276.988 143.019 298.906 170.684 299.717L415.24 302.311Z" fill="url(#paint0_linear_2428_6639)"/>
<path opacity="0.2" d="M106.281 142.724C106.281 145.645 103.835 148.014 100.82 148.014C97.8041 148.014 95.36 145.645 95.36 142.724C95.36 139.801 97.8041 137.433 100.82 137.433C103.837 137.433 106.281 139.801 106.281 142.724Z" fill="#CCF2FF"/>
<path d="M483.565 196.831C483.565 198.436 482.222 199.737 480.566 199.737C478.909 199.737 477.566 198.436 477.566 196.831C477.566 195.226 478.909 193.925 480.566 193.925C482.223 193.925 483.565 195.226 483.565 196.831Z" fill="#CCF2FF"/>
<path d="M356.596 46.3823H353.369V43.2588C353.369 42.5775 352.797 42.0232 352.093 42.0232C351.389 42.0232 350.818 42.5764 350.818 43.2588V46.3823H347.594C346.889 46.3823 346.317 46.9366 346.317 47.6179C346.317 48.3003 346.889 48.8546 347.594 48.8546H350.818V51.9792C350.818 52.6615 351.39 53.2148 352.093 53.2148C352.797 53.2148 353.369 52.6605 353.369 51.9792V48.8546H356.596C357.3 48.8546 357.872 48.3003 357.872 47.6179C357.871 46.9366 357.3 46.3823 356.596 46.3823Z" fill="#B1E5F2"/>
<path d="M239.234 74.0684H234.34V69.3293C234.34 68.295 233.473 67.4554 232.404 67.4554C231.336 67.4554 230.469 68.295 230.469 69.3293V74.0684H225.578C224.511 74.0684 223.642 74.909 223.642 75.9433C223.642 76.9787 224.509 77.8193 225.578 77.8193H230.469V82.5595C230.469 83.5938 231.336 84.4344 232.404 84.4344C233.473 84.4344 234.34 83.5938 234.34 82.5595V77.8193H239.234C240.303 77.8193 241.169 76.9787 241.169 75.9433C241.169 74.9079 240.303 74.0684 239.234 74.0684Z" fill="#B1E5F2"/>
<path d="M105.241 222.49C105.241 224.351 103.683 225.86 101.762 225.86C99.8415 225.86 98.2829 224.351 98.2829 222.49C98.2829 220.629 99.8404 219.12 101.762 219.12C103.684 219.12 105.241 220.629 105.241 222.49Z" fill="#CCF2FF"/>
<path opacity="0.2" d="M467.252 87.979C467.252 90.9001 464.808 93.2691 461.792 93.2691C458.776 93.2691 456.332 90.9012 456.332 87.979C456.332 85.0568 458.777 82.6889 461.792 82.6889C464.808 82.6889 467.252 85.0568 467.252 87.979Z" fill="#CCF2FF"/>
<path opacity="0.2" d="M276.199 30.8417H269.691V24.5399C269.691 23.1643 268.537 22.0471 267.116 22.0471C265.696 22.0471 264.543 23.1643 264.543 24.5399V30.8417H258.039C256.619 30.8417 255.465 31.959 255.465 33.3345C255.465 34.7111 256.619 35.8283 258.039 35.8283H264.543V42.1313C264.543 43.5079 265.696 44.6251 267.116 44.6251C268.537 44.6251 269.691 43.5079 269.691 42.1313V35.8283H276.199C277.621 35.8283 278.773 34.7111 278.773 33.3345C278.773 31.96 277.62 30.8417 276.199 30.8417Z" fill="#CCF2FF"/>
<path opacity="0.3" d="M439.888 346.06C439.888 349.148 424.573 351.652 405.682 351.652C386.79 351.652 371.476 349.148 371.476 346.06C371.476 342.972 386.79 340.469 405.682 340.469C424.573 340.47 439.888 342.972 439.888 346.06Z" fill="url(#paint1_linear_2428_6639)"/>
<path opacity="0.3" d="M181.137 356.829C212.715 356.829 238.314 353.081 238.314 348.457C238.314 343.834 212.715 340.085 181.137 340.085C149.559 340.085 123.96 343.834 123.96 348.457C123.96 353.081 149.559 356.829 181.137 356.829Z" fill="url(#paint2_linear_2428_6639)"/>
<path opacity="0.3" d="M293.763 331.55C380.901 331.55 451.541 323.438 451.541 313.431C451.541 303.425 380.901 295.313 293.763 295.313C206.624 295.313 135.984 303.425 135.984 313.431C135.984 323.438 206.624 331.55 293.763 331.55Z" fill="url(#paint3_linear_2428_6639)"/>
<path d="M157.603 166.635L159.234 163.249C160.048 161.559 161.899 160.528 163.804 160.798C166.33 161.156 168.865 161.24 171.366 161.066C173.318 160.931 175.112 162.108 175.782 163.89L177.224 167.731C178.063 169.964 180.612 171.117 182.917 170.304L187.874 168.559C190.179 167.746 191.369 165.277 190.53 163.042L189.004 158.977C188.338 157.206 188.883 155.186 190.426 154.038C192.53 152.471 194.467 150.663 196.185 148.629C197.448 147.134 199.629 146.713 201.436 147.529L204.524 148.925C206.747 149.931 209.391 148.999 210.427 146.845L212.657 142.215C213.694 140.061 212.733 137.5 210.509 136.495L206.532 134.698C204.795 133.912 203.816 132.139 204 130.29C204.21 128.184 204.215 126.078 204.024 124C203.855 122.169 204.825 120.42 206.54 119.634L211.872 117.193C214.091 116.177 215.04 113.612 213.991 111.463L211.737 106.843C210.689 104.694 208.041 103.776 205.822 104.791L201.674 106.69C199.834 107.531 197.627 107.066 196.351 105.53C195.153 104.086 193.825 102.728 192.375 101.474C190.938 100.232 190.561 98.1953 191.375 96.5044L193.006 93.1172C194.044 90.9635 193.082 88.4029 190.859 87.3976L186.08 85.2374C183.857 84.2322 181.214 85.1642 180.176 87.318L178.556 90.6825C177.737 92.3831 175.876 93.4229 173.958 93.1549C172.512 92.9525 171.063 92.8395 169.62 92.8126C167.558 92.7749 165.813 91.3283 165.404 89.3705L164.785 86.4085C164.298 84.0782 161.954 82.5725 159.55 83.0439L154.381 84.0578C151.977 84.5292 150.422 86.8003 150.908 89.1294L151.864 93.7038C152.235 95.4775 151.399 97.2535 149.826 98.2286C147.626 99.5945 145.572 101.201 143.713 103.037C142.371 104.36 140.341 104.775 138.606 103.99L134.624 102.191C132.401 101.185 129.757 102.116 128.72 104.271L126.491 108.901C125.453 111.055 126.415 113.617 128.638 114.621L131.725 116.017C133.533 116.834 134.599 118.726 134.228 120.625C133.726 123.193 133.54 125.778 133.648 128.333C133.728 130.21 132.484 131.905 130.662 132.547L126.394 134.051C124.089 134.863 122.899 137.332 123.738 139.567L125.54 144.369C126.378 146.603 128.927 147.756 131.233 146.943L135.234 145.533C137.075 144.884 139.161 145.462 140.306 147.001C141.782 148.984 143.486 150.825 145.405 152.482C146.842 153.724 147.214 155.76 146.4 157.451L144.77 160.835C143.733 162.989 144.694 165.549 146.918 166.555L151.697 168.715C153.922 169.72 156.565 168.789 157.603 166.635ZM147.665 117.381C153.134 106.023 167.072 101.113 178.795 106.412C190.518 111.712 195.586 125.214 190.117 136.57C184.648 147.928 170.71 152.838 158.987 147.539C147.264 142.24 142.195 128.738 147.665 117.381Z" fill="url(#paint4_linear_2428_6639)"/>
<path d="M423.65 104.747L422.847 102.614C422.446 101.55 422.783 100.337 423.72 99.6578C424.963 98.758 426.088 97.7376 427.084 96.6215C427.862 95.7496 429.154 95.5075 430.233 95.9929L432.557 97.0401C433.909 97.6493 435.513 97.0811 436.142 95.7723L437.494 92.9577C438.122 91.6478 437.536 90.0936 436.185 89.4844L433.725 88.3758C432.653 87.8925 431.991 86.8 432.142 85.6634C432.35 84.1146 432.378 82.5314 432.212 80.9427C432.09 79.7749 432.839 78.6846 433.978 78.2831L435.922 77.5954C437.321 77.1002 438.042 75.5988 437.531 74.2426L436.433 71.3258C435.922 69.9696 434.372 69.2711 432.972 69.7662L430.467 70.652C429.373 71.0395 428.166 70.6864 427.424 69.8157C426.58 68.8244 425.647 67.9192 424.642 67.1066C423.757 66.3919 423.397 65.237 423.785 64.1844L424.989 60.9145C425.49 59.5541 424.758 58.058 423.355 57.5726L420.336 56.5296C418.932 56.0442 417.389 56.7535 416.888 58.1139L415.951 60.6573C415.536 61.7853 414.382 62.5053 413.153 62.3772C411.996 62.2567 410.824 62.2276 409.646 62.2933C408.477 62.3589 407.411 61.6421 407.01 60.5776L406.207 58.4444C405.696 57.0882 404.146 56.3897 402.747 56.8848L399.736 57.9493C398.336 58.4444 397.615 59.9458 398.126 61.302L398.925 63.4202C399.328 64.4911 398.992 65.7128 398.05 66.3973C397.338 66.9129 396.667 67.4682 396.035 68.0581C395.134 68.9008 393.743 69.0074 392.698 68.3379L391.118 67.3251C389.875 66.5286 388.201 66.858 387.378 68.0624L385.609 70.6509C384.787 71.8553 385.127 73.4773 386.37 74.2749L388.811 75.8399C389.757 76.4469 390.187 77.5566 389.945 78.6308C389.607 80.1333 389.44 81.6789 389.456 83.2417C389.469 84.3697 388.782 85.3922 387.688 85.7786L385.18 86.6655C383.78 87.1606 383.059 88.6621 383.571 90.0182L384.669 92.9351C385.18 94.2912 386.73 94.9898 388.13 94.4946L390.074 93.8069C391.213 93.4043 392.509 93.7714 393.194 94.7411C394.118 96.0521 395.187 97.2393 396.368 98.2908C397.235 99.0626 397.454 100.308 396.956 101.343L395.793 103.767C395.164 105.076 395.75 106.631 397.102 107.24L400.007 108.55C401.359 109.16 402.963 108.591 403.592 107.282L404.683 105.01C405.185 103.965 406.337 103.343 407.511 103.526C409.025 103.762 410.573 103.841 412.132 103.754C413.299 103.689 414.364 104.408 414.765 105.472L415.568 107.603C416.079 108.959 417.629 109.658 419.029 109.163L422.039 108.098C423.441 107.604 424.161 106.103 423.65 104.747ZM397.521 87.7526C394.826 80.6004 398.626 72.6852 406.008 70.074C413.391 67.4629 421.56 71.145 424.256 78.2971C426.951 85.4493 423.15 93.3645 415.768 95.9757C408.385 98.5868 400.215 94.9047 397.521 87.7526Z" fill="#6E80DB"/>
<path d="M415.981 221.955L454.076 157.224C447.849 150.6 446.621 142.152 451.916 133.155C456.639 125.129 465.499 120.829 474.416 121.322C476.119 121.417 477.09 123.274 476.244 124.71L466.223 141.736C465.481 142.998 465.935 144.604 467.237 145.323L475.372 149.816C476.749 150.577 478.502 150.112 479.287 148.779L489.187 131.957C490.052 130.486 492.253 130.347 493.223 131.756C498.659 139.662 498.921 150.441 492.511 158.865C487.525 165.415 480.657 168.991 471.585 167.021L433.489 231.752C439.716 238.376 440.945 246.824 435.65 255.821C430.926 263.847 422.067 268.147 413.15 267.654C411.447 267.559 410.476 265.702 411.322 264.266L421.342 247.238C422.084 245.977 421.631 244.371 420.329 243.652L412.194 239.158C410.817 238.397 409.064 238.862 408.279 240.197L398.379 257.019C397.512 258.49 395.313 258.629 394.343 257.22C388.907 249.315 388.645 238.535 395.055 230.111C400.041 223.559 406.909 219.984 415.981 221.955Z" fill="#6E80DB"/>
<path d="M253.396 253.679C253.396 253.679 177.422 258.016 158.916 206.339C146.11 170.581 127.906 162.356 116.654 165.266C99.2189 169.776 94.163 226.997 192.603 274.634C273.664 313.862 253.396 253.679 253.396 253.679Z" fill="#588E4D"/>
<path d="M214.464 268.286C216.246 268.951 218.054 269.592 219.9 270.21C220.127 270.285 220.374 270.169 220.452 269.949C220.53 269.729 220.401 269.513 220.183 269.414C182.713 256.876 158.697 234.072 145.152 217.151C130.479 198.82 124.597 183.273 124.541 183.118C124.46 182.898 124.211 182.786 123.986 182.865C123.761 182.944 123.644 183.185 123.725 183.402C123.784 183.558 129.711 199.231 144.467 217.666C157.417 233.845 179.889 255.374 214.464 268.286Z" fill="white"/>
<path d="M187.094 292.532C187.094 292.532 182.344 283.265 143.166 275.478C109.945 268.873 100.683 262.194 102.639 248.889C106.003 226.003 163.764 237.852 203.076 290.987C217.285 310.193 187.094 292.532 187.094 292.532Z" fill="#588E4D"/>
<path d="M202.397 302.098C202.516 302.107 202.644 302.061 202.751 301.957C202.952 301.763 202.998 301.441 202.854 301.237C169.463 254.126 118.685 251.781 118.183 251.75C117.939 251.741 117.707 251.962 117.664 252.243C117.621 252.525 117.772 252.754 118.028 252.768C118.541 252.78 168.954 255.139 202.125 301.941C202.194 302.037 202.292 302.089 202.397 302.098Z" fill="white"/>
<path d="M115.598 302.508H484.231" stroke="white" stroke-miterlimit="10"/>
<path d="M417.527 317.818H169.997C163.609 317.818 158.431 312.801 158.431 306.612V130.734C158.431 124.545 163.609 119.528 169.997 119.528H417.527C423.915 119.528 429.093 124.545 429.093 130.734V306.612C429.093 312.801 423.915 317.818 417.527 317.818Z" fill="url(#paint5_linear_2428_6639)"/>
<path d="M158.429 158.13H429.092V130.734C429.092 124.545 423.914 119.528 417.526 119.528H169.996C163.608 119.528 158.43 124.545 158.43 130.734L158.429 158.13Z" fill="url(#paint6_linear_2428_6639)"/>
<path d="M412.639 139.465C412.639 141.122 411.252 142.465 409.542 142.465C407.833 142.465 406.446 141.122 406.446 139.465C406.446 137.809 407.833 136.466 409.542 136.466C411.252 136.466 412.639 137.809 412.639 139.465Z" fill="#F7F5FC"/>
<path d="M400.6 139.465C400.6 141.122 399.214 142.465 397.504 142.465C395.794 142.465 394.408 141.122 394.408 139.465C394.408 137.809 395.794 136.466 397.504 136.466C399.214 136.466 400.6 137.809 400.6 139.465Z" fill="#F7F5FC"/>
<path d="M388.619 139.465C388.619 141.122 387.232 142.465 385.522 142.465C383.813 142.465 382.426 141.122 382.426 139.465C382.426 137.809 383.813 136.466 385.522 136.466C387.232 136.466 388.619 137.809 388.619 139.465Z" fill="#F7F5FC"/>
<path opacity="0.2" d="M375.293 199.627C374.86 199.207 374.418 198.799 373.97 198.399C373.911 198.346 373.851 198.293 373.792 198.242C373.645 198.11 373.491 197.985 373.342 197.857C373.101 197.651 372.86 197.443 372.616 197.241C372.492 197.139 372.369 197.038 372.245 196.938C372.075 196.802 371.903 196.668 371.73 196.535C371.566 196.406 371.402 196.278 371.235 196.153C371.042 196.006 370.847 195.861 370.653 195.718C370.481 195.592 370.308 195.465 370.135 195.341C370.036 195.271 369.935 195.205 369.835 195.136C369.566 194.949 369.295 194.763 369.022 194.581C368.727 194.385 368.431 194.193 368.131 194.004C367.893 193.855 367.654 193.707 367.413 193.562C367.357 193.527 367.3 193.493 367.243 193.458C366.959 193.288 366.673 193.119 366.384 192.956C366.213 192.859 366.042 192.764 365.87 192.67C365.85 192.659 365.829 192.648 365.809 192.637C365.798 192.632 365.788 192.625 365.777 192.62C365.742 192.601 365.706 192.582 365.671 192.564C365.318 192.372 364.966 192.181 364.608 191.998C364.408 191.897 364.206 191.802 364.005 191.703C363.606 191.507 363.207 191.31 362.802 191.127C362.801 191.127 362.801 191.127 362.801 191.126C362.462 190.972 362.117 190.83 361.774 190.685C361.687 190.648 361.601 190.609 361.514 190.573C361.134 190.416 360.752 190.265 360.366 190.118C360.176 190.044 359.987 189.974 359.795 189.904C359.432 189.771 359.069 189.639 358.701 189.515C358.467 189.435 358.228 189.363 357.992 189.288C357.434 189.109 356.871 188.941 356.304 188.785C355.999 188.701 355.695 188.618 355.389 188.54C355.095 188.465 354.798 188.393 354.502 188.325C354.143 188.243 353.783 188.165 353.421 188.091C353.173 188.04 352.926 187.985 352.678 187.938C352.099 187.829 351.517 187.732 350.932 187.645C350.707 187.612 350.481 187.585 350.255 187.555C349.83 187.499 349.406 187.447 348.978 187.403C348.744 187.378 348.509 187.355 348.274 187.334C347.808 187.293 347.342 187.261 346.873 187.233C346.806 187.229 346.74 187.223 346.672 187.22C346.5 187.211 346.329 187.203 346.156 187.195C346.101 187.193 346.044 187.193 345.989 187.191C345.398 187.166 344.807 187.15 344.211 187.15C343.481 187.15 342.755 187.167 342.031 187.202C341.707 187.217 341.387 187.248 341.064 187.27C340.666 187.297 340.267 187.317 339.872 187.355C339.461 187.393 339.053 187.449 338.645 187.499C338.343 187.535 338.039 187.563 337.738 187.607C337.26 187.674 336.788 187.76 336.313 187.843C336.087 187.883 335.857 187.914 335.631 187.957C335.1 188.059 334.575 188.178 334.049 188.298C333.885 188.335 333.719 188.365 333.555 188.405C332.979 188.543 332.408 188.699 331.84 188.86C331.731 188.892 331.62 188.916 331.511 188.949C330.906 189.124 330.309 189.317 329.714 189.518C329.712 189.519 329.709 189.519 329.705 189.52C329.638 189.543 329.569 189.562 329.501 189.586C328.869 189.802 328.245 190.036 327.625 190.28C327.594 190.293 327.561 190.303 327.53 190.316C326.887 190.572 326.249 190.843 325.619 191.128C325.612 191.131 325.605 191.135 325.597 191.138C324.896 191.455 324.202 191.788 323.517 192.143C323.253 192.28 322.995 192.432 322.734 192.574C322.734 192.574 322.733 192.574 322.733 192.575C322.639 192.626 322.544 192.679 322.45 192.731C321.867 193.054 321.291 193.391 320.722 193.74C320.632 193.795 320.543 193.85 320.453 193.905C320.049 194.158 319.649 194.417 319.253 194.683C319.121 194.772 318.991 194.861 318.862 194.95L318.86 194.951C318.382 195.28 317.909 195.618 317.443 195.966C317.429 195.976 317.416 195.987 317.402 195.998C316.765 196.474 316.142 196.968 315.53 197.482C315.438 197.559 315.344 197.636 315.252 197.714C314.962 197.961 314.673 198.209 314.389 198.464C314.05 198.767 313.716 199.076 313.386 199.39C313.301 199.47 313.213 199.545 313.13 199.626L294.301 217.868L293.799 218.355L274.467 199.626C266.165 191.582 255.128 187.153 243.387 187.153C231.647 187.153 220.609 191.582 212.306 199.626C212.276 199.655 212.25 199.685 212.22 199.714C212.218 199.715 212.218 199.715 212.217 199.716C203.695 208.021 199.44 218.909 199.455 229.794C199.455 229.806 199.456 229.819 199.456 229.831C199.457 230.498 199.474 231.166 199.508 231.833C199.51 231.868 199.514 231.904 199.516 231.94C199.55 232.584 199.597 233.226 199.66 233.868C199.666 233.922 199.675 233.975 199.68 234.03C199.745 234.652 199.82 235.275 199.912 235.895C199.926 235.986 199.946 236.076 199.96 236.167C200.051 236.749 200.149 237.331 200.266 237.911C200.289 238.026 200.319 238.139 200.342 238.253C200.458 238.807 200.579 239.36 200.718 239.911C200.755 240.058 200.801 240.203 200.839 240.349C200.976 240.866 201.113 241.382 201.27 241.894C201.322 242.064 201.384 242.233 201.439 242.403C201.594 242.889 201.749 243.374 201.922 243.854C201.994 244.054 202.079 244.25 202.153 244.449C202.322 244.897 202.49 245.345 202.674 245.788C202.769 246.013 202.875 246.234 202.974 246.458C203.155 246.87 203.332 247.284 203.527 247.691C203.646 247.939 203.78 248.182 203.903 248.428C204.093 248.806 204.278 249.187 204.481 249.561C204.626 249.829 204.786 250.091 204.938 250.357C205.136 250.703 205.326 251.051 205.534 251.392C205.71 251.681 205.903 251.964 206.086 252.249C206.286 252.56 206.478 252.875 206.688 253.182C206.894 253.484 207.116 253.779 207.33 254.076C207.535 254.36 207.73 254.647 207.942 254.927C208.175 255.234 208.425 255.532 208.667 255.834C208.877 256.097 209.079 256.364 209.297 256.622C209.575 256.954 209.873 257.276 210.164 257.602C210.361 257.822 210.549 258.047 210.752 258.265C211.253 258.803 211.772 259.331 212.306 259.85C212.822 260.35 213.347 260.832 213.881 261.301C214.121 261.512 214.37 261.711 214.615 261.916C214.907 262.161 215.197 262.41 215.493 262.646L215.495 262.648C215.827 262.912 216.166 263.162 216.503 263.416C216.714 263.574 216.923 263.737 217.137 263.891C217.138 263.892 217.138 263.892 217.139 263.893C217.374 264.063 217.611 264.227 217.849 264.391L217.85 264.392C218.016 264.507 218.185 264.619 218.354 264.732C218.505 264.834 218.655 264.939 218.807 265.038C219.267 265.339 219.734 265.627 220.203 265.909C220.304 265.969 220.404 266.032 220.505 266.092C220.506 266.093 220.508 266.094 220.509 266.095C220.987 266.377 221.471 266.648 221.958 266.911C222.117 266.997 222.275 267.084 222.434 267.167C222.791 267.354 223.151 267.537 223.513 267.715C223.603 267.759 223.693 267.805 223.784 267.848C223.797 267.854 223.809 267.859 223.821 267.866C223.903 267.905 223.988 267.942 224.071 267.982C224.479 268.174 224.887 268.364 225.299 268.544C225.382 268.58 225.466 268.614 225.551 268.649C226.224 268.938 226.904 269.21 227.588 269.464C227.833 269.555 228.077 269.646 228.324 269.733C228.393 269.757 228.46 269.784 228.529 269.807C228.786 269.897 229.043 269.981 229.3 270.064C229.491 270.127 229.682 270.187 229.875 270.247C230.04 270.299 230.206 270.35 230.372 270.399C230.599 270.467 230.825 270.538 231.052 270.602C231.181 270.638 231.311 270.668 231.44 270.704C231.659 270.763 231.878 270.82 232.097 270.877C232.292 270.928 232.487 270.98 232.682 271.027C232.859 271.07 233.035 271.11 233.212 271.151C233.372 271.187 233.533 271.222 233.694 271.256C233.984 271.319 234.274 271.379 234.565 271.437C234.813 271.485 235.059 271.534 235.308 271.579C235.614 271.634 235.92 271.684 236.227 271.733C236.439 271.766 236.65 271.802 236.864 271.833C236.958 271.847 237.053 271.863 237.147 271.876C237.382 271.908 237.619 271.933 237.855 271.962C238.078 271.99 238.301 272.019 238.526 272.043C238.673 272.059 238.821 272.073 238.97 272.087C239.159 272.105 239.347 272.119 239.535 272.135C239.739 272.153 239.941 272.173 240.144 272.187C240.406 272.205 240.669 272.217 240.931 272.232C241.109 272.242 241.287 272.253 241.465 272.26C241.565 272.265 241.665 272.271 241.764 272.274C242.305 272.294 242.846 272.304 243.387 272.304C246.201 272.304 249.015 272.045 251.787 271.526C253.172 271.267 254.549 270.943 255.909 270.553C256.589 270.358 257.264 270.147 257.936 269.92C260.621 269.012 263.233 267.845 265.729 266.418C266.354 266.062 266.97 265.688 267.579 265.3C270.015 263.743 272.325 261.928 274.468 259.851L293.8 241.122L299.935 247.067L305.571 252.528L305.607 252.561L313.131 259.851C313.667 260.37 314.213 260.873 314.769 261.359C316.436 262.819 318.193 264.132 320.02 265.3C321.238 266.078 322.488 266.791 323.763 267.439C325.038 268.088 326.34 268.672 327.664 269.191C332.955 271.266 338.583 272.303 344.211 272.303C344.914 272.303 345.619 272.287 346.321 272.255C350.291 272.072 354.238 271.359 358.049 270.142C358.286 270.067 358.525 270 358.759 269.92C359.653 269.618 360.536 269.276 361.413 268.916C361.432 268.909 361.45 268.901 361.469 268.893C361.569 268.853 361.667 268.81 361.767 268.768C362.087 268.633 362.411 268.507 362.727 268.364C362.986 268.248 363.239 268.117 363.497 267.996C363.587 267.954 363.677 267.913 363.767 267.871C363.861 267.826 363.956 267.778 364.049 267.732C364.416 267.553 364.78 267.369 365.141 267.18C365.319 267.087 365.496 266.992 365.671 266.896C365.785 266.834 365.898 266.776 366.01 266.714C366.069 266.682 366.126 266.648 366.184 266.616C366.307 266.548 366.431 266.487 366.552 266.418C366.676 266.347 366.796 266.268 366.919 266.196C366.983 266.159 367.048 266.123 367.111 266.085C367.357 265.941 367.599 265.79 367.841 265.641C367.959 265.568 368.079 265.498 368.196 265.423C368.205 265.418 368.215 265.413 368.224 265.406C368.403 265.293 368.579 265.176 368.756 265.06C368.807 265.026 368.859 264.994 368.909 264.961C369.027 264.882 369.147 264.808 369.265 264.728C369.482 264.582 369.696 264.431 369.912 264.28C370.039 264.191 370.169 264.105 370.297 264.013C370.304 264.008 370.311 264.004 370.317 263.998C370.541 263.839 370.759 263.673 370.98 263.51C371.104 263.418 371.229 263.329 371.351 263.235C371.484 263.134 371.615 263.03 371.746 262.926C371.869 262.831 371.991 262.735 372.114 262.638C372.197 262.571 372.282 262.507 372.366 262.44C372.581 262.265 372.792 262.086 373.006 261.907C373.125 261.808 373.245 261.711 373.362 261.61C373.425 261.556 373.486 261.5 373.548 261.446C373.638 261.368 373.727 261.288 373.816 261.209C373.888 261.145 373.96 261.082 374.031 261.018C374.132 260.928 374.236 260.839 374.337 260.748C374.658 260.455 374.977 260.156 375.29 259.851C375.729 259.426 376.154 258.991 376.57 258.55C376.967 258.131 377.352 257.704 377.729 257.272C377.731 257.271 377.731 257.27 377.732 257.27C378.835 256.013 379.867 254.71 380.803 253.354C381.601 252.198 382.338 251.008 383.011 249.789C383.347 249.18 383.669 248.562 383.973 247.938C386.412 242.944 387.826 237.505 388.11 231.864C388.146 231.159 388.163 230.451 388.163 229.739C388.167 218.363 383.594 207.669 375.293 199.627ZM255.078 253.71C253.876 254.261 252.632 254.726 251.357 255.099C248.807 255.847 246.129 256.236 243.389 256.236C242.983 256.236 242.578 256.224 242.174 256.207C242.104 256.204 242.033 256.199 241.963 256.196C241.888 256.193 241.815 256.187 241.741 256.183C241.464 256.167 241.187 256.148 240.913 256.124C240.886 256.122 240.861 256.12 240.834 256.118C240.701 256.106 240.569 256.093 240.436 256.079C240.16 256.05 239.885 256.017 239.611 255.981C239.499 255.966 239.387 255.952 239.274 255.936C239.196 255.924 239.117 255.911 239.039 255.899C238.783 255.859 238.528 255.817 238.275 255.771C238.103 255.74 237.932 255.707 237.762 255.673C237.547 255.63 237.332 255.582 237.119 255.533C236.964 255.498 236.808 255.465 236.654 255.427C236.613 255.417 236.573 255.405 236.533 255.395C236.426 255.368 236.322 255.339 236.215 255.311C236.129 255.289 236.044 255.266 235.959 255.242C235.807 255.201 235.657 255.152 235.505 255.108C235.144 255.004 234.785 254.892 234.428 254.773C234.25 254.713 234.072 254.652 233.895 254.588C233.577 254.474 233.262 254.353 232.949 254.229C232.789 254.164 232.628 254.104 232.469 254.036C232.455 254.031 232.441 254.024 232.428 254.019C231.998 253.837 231.572 253.644 231.152 253.441C231.078 253.404 231.003 253.365 230.929 253.328C230.647 253.188 230.369 253.037 230.091 252.888C229.994 252.835 229.895 252.785 229.798 252.731C229.661 252.655 229.526 252.58 229.39 252.501C229.128 252.349 228.871 252.189 228.615 252.029C228.445 251.923 228.272 251.825 228.104 251.715C228.101 251.713 228.098 251.711 228.095 251.71C227.777 251.501 227.469 251.278 227.161 251.056C227.052 250.978 226.941 250.905 226.833 250.825C226.724 250.745 226.615 250.662 226.507 250.579C226.25 250.382 225.997 250.177 225.746 249.971C225.686 249.921 225.625 249.875 225.565 249.825C225.453 249.732 225.339 249.639 225.229 249.543C224.829 249.198 224.434 248.844 224.052 248.475C218.886 243.47 216.041 236.816 216.041 229.738C216.041 229.309 216.052 228.881 216.073 228.455C216.08 228.31 216.094 228.166 216.104 228.02C216.123 227.74 216.14 227.46 216.168 227.183C216.184 227.011 216.209 226.841 216.229 226.669C216.259 226.421 216.287 226.172 216.323 225.925C216.35 225.742 216.384 225.56 216.416 225.377C216.456 225.144 216.494 224.912 216.54 224.68C216.578 224.492 216.621 224.305 216.662 224.117C216.711 223.896 216.761 223.674 216.816 223.453C216.863 223.262 216.917 223.071 216.969 222.881C217.028 222.668 217.087 222.456 217.15 222.245C217.209 222.051 217.271 221.859 217.333 221.668C217.401 221.463 217.47 221.259 217.542 221.055C217.611 220.862 217.683 220.67 217.756 220.478C217.832 220.28 217.911 220.083 217.992 219.888C218.072 219.695 218.153 219.503 218.238 219.313C218.322 219.121 218.41 218.932 218.499 218.741C218.589 218.551 218.68 218.36 218.775 218.171C218.867 217.987 218.964 217.804 219.061 217.622C219.162 217.432 219.263 217.243 219.368 217.055C219.468 216.878 219.573 216.703 219.676 216.528C219.788 216.341 219.899 216.153 220.017 215.968C220.124 215.798 220.236 215.631 220.347 215.463C220.471 215.278 220.592 215.091 220.72 214.908C220.834 214.747 220.953 214.588 221.07 214.428C221.205 214.245 221.338 214.06 221.477 213.881C221.596 213.728 221.72 213.578 221.843 213.427C221.99 213.246 222.135 213.063 222.287 212.884C222.406 212.745 222.53 212.611 222.652 212.474C222.817 212.289 222.979 212.101 223.149 211.921C223.442 211.608 223.743 211.301 224.053 211C229.219 205.995 236.087 203.239 243.393 203.239C250.698 203.239 257.566 205.995 262.732 211L265.744 213.918H265.743L282.057 229.73L268.779 242.588L268.781 242.611L262.729 248.475C262.083 249.1 261.411 249.691 260.715 250.245C260.367 250.522 260.012 250.791 259.652 251.049C258.212 252.085 256.681 252.975 255.078 253.71ZM342.9 256.193C336.34 255.89 329.872 253.317 324.874 248.475L316.276 240.145L314.467 238.392L312.832 236.808L310.909 234.945L305.535 229.738L324.874 211.001C325.519 210.376 326.192 209.785 326.888 209.231C327.236 208.954 327.59 208.685 327.95 208.427C332.629 205.06 338.276 203.241 344.212 203.241C344.213 203.241 344.216 203.241 344.217 203.241C344.731 203.241 345.242 203.258 345.751 203.287C345.802 203.291 345.852 203.294 345.903 203.297C346.402 203.328 346.9 203.37 347.393 203.425C347.613 203.45 347.832 203.474 348.05 203.504C348.246 203.531 348.442 203.561 348.637 203.591C348.857 203.625 349.076 203.662 349.295 203.701C349.502 203.738 349.709 203.778 349.916 203.821C350.116 203.862 350.315 203.905 350.513 203.95C350.733 204.001 350.952 204.052 351.17 204.106C351.347 204.152 351.521 204.199 351.697 204.248C351.932 204.312 352.167 204.377 352.4 204.448C352.541 204.491 352.681 204.537 352.821 204.582C353.084 204.666 353.346 204.75 353.606 204.843C353.659 204.861 353.711 204.883 353.763 204.901C353.949 204.968 354.131 205.04 354.314 205.11C354.668 205.246 355.018 205.391 355.366 205.541C355.435 205.571 355.505 205.6 355.574 205.631C355.925 205.786 356.273 205.95 356.617 206.12C356.675 206.148 356.734 206.175 356.79 206.204C357.176 206.398 357.557 206.601 357.933 206.812C357.937 206.813 357.939 206.816 357.942 206.818C358.08 206.896 358.215 206.98 358.352 207.061C358.573 207.19 358.793 207.319 359.011 207.455C359.228 207.591 359.44 207.732 359.652 207.874C359.782 207.96 359.913 208.046 360.041 208.135C360.279 208.299 360.513 208.468 360.745 208.64C360.84 208.71 360.933 208.78 361.027 208.85C361.279 209.04 361.527 209.235 361.773 209.434C361.94 209.57 362.105 209.707 362.27 209.845C362.373 209.934 362.478 210.02 362.581 210.11C362.901 210.392 363.216 210.681 363.525 210.979C363.533 210.986 363.542 210.994 363.549 211.001C365.81 213.191 367.625 215.696 368.953 218.414C369.143 218.803 369.322 219.195 369.492 219.592C370.848 222.766 371.56 226.198 371.56 229.737C371.56 233.276 370.849 236.709 369.492 239.882C369.322 240.279 369.143 240.671 368.953 241.06C368.275 242.447 367.464 243.774 366.538 245.037C366.326 245.326 366.107 245.612 365.881 245.895C365.853 245.93 365.825 245.965 365.797 245.999C365.595 246.251 365.388 246.5 365.177 246.745C365.148 246.778 365.118 246.811 365.088 246.844C364.848 247.117 364.604 247.388 364.354 247.654C364.091 247.931 363.825 248.206 363.548 248.474C363.163 248.847 362.766 249.202 362.364 249.548C362.353 249.557 362.342 249.567 362.331 249.577C362.223 249.669 362.114 249.758 362.005 249.847C361.695 250.104 361.382 250.355 361.062 250.597C360.946 250.685 360.83 250.774 360.713 250.859C360.339 251.133 359.96 251.398 359.574 251.652C359.521 251.686 359.47 251.724 359.417 251.758C358.987 252.037 358.549 252.301 358.106 252.553C358.019 252.602 357.933 252.652 357.847 252.7C357.684 252.792 357.519 252.879 357.354 252.966C357.342 252.973 357.331 252.978 357.319 252.984C357.137 253.081 356.955 253.178 356.77 253.271C356.693 253.309 356.613 253.345 356.534 253.384C356.473 253.414 356.411 253.442 356.35 253.472C355.946 253.666 355.538 253.85 355.126 254.023C355.043 254.059 354.958 254.094 354.875 254.128C354.849 254.139 354.824 254.15 354.798 254.161C354.554 254.26 354.307 254.355 354.06 254.446C353.961 254.483 353.863 254.518 353.764 254.554C353.499 254.649 353.232 254.743 352.964 254.83C352.951 254.835 352.939 254.838 352.925 254.842C351.989 255.146 351.038 255.397 350.079 255.6C350.04 255.608 350.002 255.616 349.964 255.625C349.649 255.689 349.334 255.751 349.017 255.804C348.292 255.929 347.563 256.031 346.832 256.099C345.96 256.18 345.084 256.221 344.209 256.221C343.774 256.223 343.337 256.213 342.9 256.193Z" fill="black"/>
<path d="M379.832 254.455C371.062 262.951 359.403 267.63 347.001 267.63C334.598 267.63 322.938 262.951 314.169 254.455L293.748 234.671L273.328 254.455C264.558 262.951 252.899 267.63 240.496 267.63C228.094 267.63 216.434 262.951 207.664 254.455C189.562 236.916 189.562 208.377 207.664 190.839C216.716 182.069 228.606 177.685 240.495 177.685C252.385 177.685 264.275 182.07 273.327 190.839L293.747 210.622L314.169 190.839C323.221 182.069 335.11 177.685 346.999 177.685C358.889 177.685 370.779 182.07 379.831 190.839C388.601 199.335 393.43 210.631 393.43 222.647C393.431 234.662 388.602 245.958 379.832 254.455ZM260.927 202.855C255.47 197.568 248.215 194.656 240.497 194.656C232.781 194.656 225.525 197.568 220.068 202.855C214.611 208.142 211.606 215.17 211.606 222.646C211.606 230.122 214.611 237.152 220.068 242.439C225.525 247.725 232.78 250.637 240.496 250.637C248.214 250.637 255.468 247.725 260.925 242.439L281.355 222.646L260.927 202.855ZM281.355 222.646L260.925 202.854L281.355 222.646ZM367.43 202.855C356.166 191.941 337.836 191.941 326.572 202.855L306.143 222.647L326.572 242.44C332.029 247.726 339.284 250.638 347.002 250.638C354.718 250.638 361.974 247.726 367.43 242.44C372.887 237.153 375.892 230.123 375.892 222.647C375.892 215.17 372.887 208.14 367.43 202.855Z" fill="url(#paint7_linear_2428_6639)"/>
<path d="M240.497 177.683C228.607 177.683 216.717 182.068 207.666 190.837C199.564 198.686 195.1 208.739 194.25 219.022L202.825 227.482L211.746 219.863C212.396 213.437 215.294 207.479 220.068 202.854C225.525 197.567 232.781 194.655 240.498 194.655C248.214 194.655 255.47 197.567 260.927 202.854L268.056 209.761L278.27 195.624L273.329 190.838C264.276 182.068 252.386 177.683 240.497 177.683Z" fill="url(#paint8_linear_2428_6639)"/>
<path d="M306.142 222.645L311.153 217.791L297.919 206.58L293.748 210.62L275.372 192.817L261.423 191.998L262.154 204.043L281.354 222.644L279.313 224.621L292.079 236.285L293.748 234.667L314.169 254.451C314.333 254.611 314.505 254.758 314.671 254.914L323.064 239.037L306.142 222.645Z" fill="#6E80DB"/>
<path d="M393.242 218.656L375.89 222.62C375.89 222.629 375.89 222.638 375.89 222.646C375.89 230.122 372.885 237.152 367.428 242.439C361.971 247.726 354.717 250.637 347 250.637C339.282 250.637 332.028 247.726 326.571 242.439L320.801 236.848L309.581 238.07L311.08 251.463L314.168 254.455C322.938 262.951 334.599 267.63 347 267.63C359.402 267.63 371.062 262.951 379.832 254.455C388.602 245.958 393.431 234.662 393.431 222.646C393.43 221.305 393.361 219.976 393.242 218.656Z" fill="url(#paint9_linear_2428_6639)"/>
<path opacity="0.15" d="M308.252 224.693L295.581 236.403L278.918 220.22L291.519 208.459L308.252 224.693Z" fill="black"/>
<path d="M385.697 229.267L393.345 219.986C392.686 208.972 387.952 198.703 379.833 190.837C370.781 182.068 358.892 177.683 347.001 177.683C335.111 177.683 323.222 182.068 314.171 190.837L301.327 203.28L316.843 212.279L326.573 202.852C337.837 191.938 356.167 191.938 367.431 202.852C372.888 208.139 375.893 215.167 375.893 222.644C375.893 222.674 375.891 222.704 375.891 222.734L385.697 229.267Z" fill="#6E80DB"/>
<path d="M322.131 207.259L323.117 194.512L308.89 195.954L266.996 236.558L278.613 238.091L277.876 249.901L322.131 207.259Z" fill="url(#paint10_linear_2428_6639)"/>
<path opacity="0.5" d="M256.266 299.287H218.425C214.798 299.287 211.857 296.438 211.857 292.924C211.857 289.41 214.798 286.561 218.425 286.561H256.266C259.894 286.561 262.834 289.41 262.834 292.924C262.834 296.438 259.894 299.287 256.266 299.287Z" fill="url(#paint11_linear_2428_6639)"/>
<path opacity="0.5" d="M313.035 299.287H275.194C271.566 299.287 268.626 296.438 268.626 292.924C268.626 289.41 271.566 286.561 275.194 286.561H313.035C316.662 286.561 319.603 289.41 319.603 292.924C319.603 296.438 316.662 299.287 313.035 299.287Z" fill="url(#paint12_linear_2428_6639)"/>
<path opacity="0.5" d="M369.098 299.287H331.257C327.63 299.287 324.689 296.438 324.689 292.924C324.689 289.41 327.63 286.561 331.257 286.561H369.098C372.725 286.561 375.666 289.41 375.666 292.924C375.666 296.438 372.725 299.287 369.098 299.287Z" fill="url(#paint13_linear_2428_6639)"/>
<path d="M393.577 312.8L387.713 318.836L375.031 307.272L380.895 301.236L393.577 312.8Z" fill="url(#paint14_linear_2428_6639)"/>
<path d="M423.926 341.2L418.809 346.468C417.3 348.021 414.778 348.094 413.176 346.634L383.536 319.606C381.933 318.144 381.858 315.701 383.365 314.149L388.482 308.882C389.991 307.329 392.513 307.255 394.115 308.716L423.755 335.743C425.358 337.204 425.433 339.647 423.926 341.2Z" fill="url(#paint15_linear_2428_6639)"/>
<path d="M379.4 264.235C367.238 253.144 348.099 253.706 336.653 265.49C325.206 277.272 325.786 295.815 337.948 306.904C350.11 317.994 369.249 317.433 380.695 305.649C392.141 293.867 391.561 275.324 379.4 264.235ZM375.836 301.219C366.915 310.402 351.998 310.84 342.521 302.197C333.042 293.555 332.59 279.103 341.511 269.92C350.432 260.737 365.349 260.298 374.827 268.941C384.306 277.585 384.757 292.036 375.836 301.219Z" fill="#6E80DB"/>
<path d="M180.077 276.847C180.077 275.494 178.945 274.397 177.548 274.397H140.762C139.366 274.397 138.233 275.494 138.233 276.847V279.297V284.94V343.118C138.233 344.471 139.366 345.568 140.762 345.568H222.317C223.713 345.568 224.845 344.471 224.845 343.118V281.746C224.845 280.393 223.713 279.297 222.317 279.297H182.606C181.209 279.297 180.077 278.2 180.077 276.847Z" fill="url(#paint16_linear_2428_6639)"/>
<path d="M220.946 283.914H141.895V345.57H220.946V283.914Z" fill="url(#paint17_linear_2428_6639)"/>
<path d="M179.176 291.893C179.176 293.981 177.429 295.673 175.275 295.673H142.135C139.98 295.673 138.233 297.366 138.233 299.453V341.788C138.233 343.876 139.98 345.568 142.135 345.568H220.943C223.099 345.568 224.845 343.876 224.845 341.788V299.201V295.673V291.893C224.845 289.805 223.099 288.113 220.943 288.113H183.078C180.924 288.112 179.176 289.805 179.176 291.893Z" fill="url(#paint18_linear_2428_6639)"/>
<path d="M419.203 219.081H496.195C498.649 219.081 500.64 221.008 500.64 223.386V278.324C500.64 280.702 498.65 282.631 496.195 282.631H419.203C416.749 282.631 414.76 280.703 414.76 278.324V223.386C414.758 221.008 416.748 219.081 419.203 219.081Z" fill="#6E80DB"/>
<path d="M455.025 257.129C454.983 257.129 454.941 257.123 454.899 257.107C454.713 257.039 454.619 256.839 454.689 256.659L458.709 246.26C458.779 246.079 458.983 245.985 459.173 246.056C459.358 246.124 459.453 246.324 459.383 246.504L455.362 256.903C455.308 257.043 455.171 257.129 455.025 257.129Z" fill="url(#paint19_linear_2428_6639)"/>
<path d="M453.057 254.474C453.01 254.474 452.965 254.465 452.919 254.447L446.738 251.959C446.572 251.893 446.57 251.666 446.736 251.596L452.832 249.043C453.014 248.966 453.226 249.047 453.305 249.225C453.383 249.401 453.3 249.606 453.117 249.682L448.578 251.584C448.413 251.653 448.414 251.88 448.581 251.947L453.195 253.803C453.378 253.877 453.465 254.081 453.389 254.258C453.331 254.393 453.198 254.474 453.057 254.474Z" fill="url(#paint20_linear_2428_6639)"/>
<path d="M460.645 254.474C460.692 254.474 460.738 254.465 460.783 254.447L466.965 251.959C467.13 251.893 467.132 251.666 466.967 251.596L460.87 249.043C460.689 248.966 460.477 249.047 460.398 249.225C460.319 249.401 460.402 249.606 460.585 249.682L465.125 251.584C465.289 251.653 465.288 251.88 465.123 251.947L460.509 253.803C460.326 253.877 460.239 254.081 460.314 254.258C460.371 254.393 460.504 254.474 460.645 254.474Z" fill="url(#paint21_linear_2428_6639)"/>
<path d="M476.759 256.204L474.827 255.333C473.984 254.954 473.465 254.095 473.583 253.203C473.747 251.986 473.769 250.742 473.639 249.495C473.543 248.578 474.131 247.721 475.024 247.406L476.552 246.866C477.652 246.477 478.217 245.297 477.816 244.232L476.953 241.941C476.552 240.876 475.334 240.328 474.234 240.716L472.267 241.412C471.407 241.715 470.459 241.439 469.877 240.755C469.214 239.977 468.481 239.266 467.692 238.628C466.997 238.067 466.713 237.159 467.018 236.334L467.963 233.766C468.356 232.698 467.782 231.523 466.679 231.142L464.308 230.322C463.206 229.941 461.993 230.498 461.6 231.567L460.864 233.564C460.538 234.45 459.632 235.016 458.667 234.915C457.759 234.82 456.838 234.798 455.913 234.849C454.995 234.901 454.159 234.338 453.843 233.502L453.212 231.827C452.81 230.762 451.593 230.214 450.494 230.602L448.129 231.439C447.03 231.827 446.464 233.007 446.865 234.072L447.492 235.736C447.808 236.578 447.544 237.537 446.804 238.074C446.246 238.479 445.719 238.916 445.222 239.379C444.514 240.041 443.421 240.124 442.601 239.598L441.36 238.803C440.384 238.177 439.069 238.436 438.423 239.382L437.034 241.415C436.388 242.361 436.656 243.635 437.632 244.261L439.55 245.49C440.293 245.967 440.631 246.839 440.441 247.681C440.175 248.861 440.044 250.075 440.057 251.303C440.066 252.189 439.527 252.992 438.669 253.297L436.7 253.993C435.6 254.381 435.034 255.561 435.436 256.627L436.299 258.917C436.7 259.983 437.918 260.53 439.017 260.142L440.545 259.602C441.439 259.285 442.458 259.574 442.995 260.336C443.721 261.366 444.56 262.298 445.486 263.123C446.167 263.729 446.34 264.708 445.95 265.521L445.035 267.425C444.541 268.453 445.002 269.675 446.063 270.154L448.345 271.183C449.406 271.661 450.667 271.215 451.161 270.187L452.018 268.403C452.412 267.581 453.316 267.094 454.24 267.237C455.428 267.422 456.645 267.485 457.869 267.416C458.787 267.364 459.622 267.928 459.938 268.764L460.569 270.438C460.97 271.504 462.187 272.051 463.287 271.663L465.651 270.827C466.751 270.438 467.317 269.258 466.916 268.193L466.284 266.518C465.969 265.682 466.235 264.729 466.97 264.196C467.946 263.489 468.83 262.688 469.612 261.812C470.223 261.128 471.238 260.937 472.084 261.318L473.909 262.141C474.97 262.619 476.231 262.173 476.725 261.145L477.787 258.934C478.279 257.903 477.819 256.683 476.759 256.204ZM461.88 263.816C454.755 266.336 446.871 262.783 444.27 255.881C441.669 248.978 445.336 241.34 452.461 238.82C459.586 236.3 467.47 239.853 470.07 246.756C472.671 253.659 469.004 261.297 461.88 263.816Z" fill="url(#paint22_linear_2428_6639)"/>
<path d="M267.72 71.8005H344.713C347.167 71.8005 349.157 73.7282 349.157 76.1069V131.046C349.157 133.423 347.167 135.352 344.713 135.352H267.72C265.266 135.352 263.275 133.424 263.275 131.046V76.1069C263.275 73.7282 265.265 71.8005 267.72 71.8005Z" fill="#6E80DB"/>
<path d="M321.27 90.9335L309.326 87.0297L298.441 97.3021L287.346 94.3153" stroke="url(#paint23_linear_2428_6639)" stroke-miterlimit="10"/>
<path d="M300.021 97.208C299.919 98.1412 299.057 98.8171 298.094 98.7191C297.131 98.6212 296.433 97.786 296.534 96.8528C296.635 95.9196 297.498 95.2437 298.46 95.3416C299.423 95.4407 300.122 96.2759 300.021 97.208Z" fill="url(#paint24_linear_2428_6639)"/>
<path d="M288.896 94.3145C288.795 95.2477 287.933 95.9236 286.97 95.8257C286.007 95.7278 285.309 94.8925 285.41 93.9594C285.511 93.0273 286.373 92.3503 287.337 92.4482C288.3 92.5461 288.997 93.3824 288.896 94.3145Z" fill="url(#paint25_linear_2428_6639)"/>
<path d="M320.643 92.6329C321.611 92.6329 322.396 91.8725 322.396 90.9345C322.396 89.9964 321.611 89.236 320.643 89.236C319.674 89.236 318.889 89.9964 318.889 90.9345C318.889 91.8725 319.674 92.6329 320.643 92.6329Z" fill="url(#paint26_linear_2428_6639)"/>
<path d="M311.069 87.2065C310.967 88.1397 310.105 88.8156 309.142 88.7188C308.179 88.6208 307.481 87.7856 307.582 86.8524C307.684 85.9193 308.546 85.2433 309.509 85.3413C310.471 85.4381 311.17 86.2734 311.069 87.2065Z" fill="url(#paint27_linear_2428_6639)"/>
<path d="M321.111 123.142C319.687 123.142 318.532 122.023 318.532 120.642V100.653C318.532 99.2731 319.686 98.1537 321.111 98.1537C322.536 98.1537 323.691 99.272 323.691 100.653V120.642C323.691 122.023 322.536 123.142 321.111 123.142Z" fill="url(#paint28_linear_2428_6639)"/>
<path d="M310.07 123.14C308.646 123.14 307.49 122.022 307.49 120.641V96.317C307.49 94.9372 308.644 93.8189 310.07 93.8189C311.494 93.8189 312.648 94.9372 312.648 96.317V120.641C312.649 122.022 311.494 123.14 310.07 123.14Z" fill="url(#paint29_linear_2428_6639)"/>
<path d="M298.486 123.14C297.062 123.14 295.907 122.022 295.907 120.641V105.691C295.907 104.311 297.061 103.192 298.486 103.192C299.911 103.192 301.065 104.31 301.065 105.691V120.641C301.066 122.022 299.911 123.14 298.486 123.14Z" fill="url(#paint30_linear_2428_6639)"/>
<path d="M287.222 123.141C285.798 123.141 284.643 122.023 284.643 120.642V102.863C284.643 101.483 285.797 100.364 287.222 100.364C288.647 100.364 289.802 101.482 289.802 102.863V120.642C289.802 122.023 288.648 123.141 287.222 123.141Z" fill="url(#paint31_linear_2428_6639)"/>
</g>
<defs>
<linearGradient id="paint0_linear_2428_6639" x1="294.826" y1="348.146" x2="297.051" y2="-11.4752" gradientUnits="userSpaceOnUse">
<stop stop-color="#3E51C9" stop-opacity="0.67"/>
<stop offset="0.2493" stop-color="#4153CA" stop-opacity="0.67"/>
<stop offset="0.3982" stop-color="#495BCC" stop-opacity="0.67"/>
<stop offset="0.5209" stop-color="#5768D0" stop-opacity="0.67"/>
<stop offset="0.6292" stop-color="#6B7AD6" stop-opacity="0.67"/>
<stop offset="0.7281" stop-color="#8692DD" stop-opacity="0.67"/>
<stop offset="0.8201" stop-color="#A6AFE6" stop-opacity="0.67"/>
<stop offset="0.9068" stop-color="#CCD1F1" stop-opacity="0.67"/>
<stop offset="0.9872" stop-color="#F7F8FD" stop-opacity="0.67"/>
<stop offset="1" stop-color="white" stop-opacity="0.67"/>
</linearGradient>
<linearGradient id="paint1_linear_2428_6639" x1="371.475" y1="346.061" x2="439.888" y2="346.061" gradientUnits="userSpaceOnUse">
<stop offset="0.0308" stop-color="#00006A"/>
<stop offset="1" stop-color="#00006A"/>
</linearGradient>
<linearGradient id="paint2_linear_2428_6639" x1="123.96" y1="348.457" x2="238.313" y2="348.457" gradientUnits="userSpaceOnUse">
<stop offset="0.0308" stop-color="#00006A"/>
<stop offset="1" stop-color="#00006A"/>
</linearGradient>
<linearGradient id="paint3_linear_2428_6639" x1="135.983" y1="313.431" x2="451.541" y2="313.431" gradientUnits="userSpaceOnUse">
<stop offset="0.0308" stop-color="#00006A"/>
<stop offset="1" stop-color="#00006A"/>
</linearGradient>
<linearGradient id="paint4_linear_2428_6639" x1="137.152" y1="95.751" x2="198.319" y2="159.029" gradientUnits="userSpaceOnUse">
<stop stop-color="#D6E5FF"/>
<stop offset="0.306" stop-color="#DEEAFF"/>
<stop offset="1" stop-color="#ECF3FF"/>
</linearGradient>
<linearGradient id="paint5_linear_2428_6639" x1="228.767" y1="284.971" x2="408.374" y2="89.7831" gradientUnits="userSpaceOnUse">
<stop stop-color="#D6E5FF"/>
<stop offset="0.2471" stop-color="#DEEAFF"/>
<stop offset="0.8074" stop-color="#ECF3FF"/>
</linearGradient>
<linearGradient id="paint6_linear_2428_6639" x1="450.569" y1="152.343" x2="227.93" y2="132.597" gradientUnits="userSpaceOnUse">
<stop stop-color="#3A49C7"/>
<stop offset="1" stop-color="#25287B"/>
</linearGradient>
<linearGradient id="paint7_linear_2428_6639" x1="194.088" y1="222.657" x2="393.432" y2="222.657" gradientUnits="userSpaceOnUse">
<stop stop-color="#6E80DB"/>
<stop offset="1" stop-color="#5587F6"/>
</linearGradient>
<linearGradient id="paint8_linear_2428_6639" x1="194.249" y1="202.583" x2="278.268" y2="202.583" gradientUnits="userSpaceOnUse">
<stop stop-color="#E4A64B"/>
<stop offset="0.857" stop-color="#F0DB70"/>
</linearGradient>
<linearGradient id="paint9_linear_2428_6639" x1="309.581" y1="243.143" x2="393.43" y2="243.143" gradientUnits="userSpaceOnUse">
<stop stop-color="#E4A64B"/>
<stop offset="0.857" stop-color="#F0DB70"/>
</linearGradient>
<linearGradient id="paint10_linear_2428_6639" x1="266.996" y1="222.207" x2="323.118" y2="222.207" gradientUnits="userSpaceOnUse">
<stop stop-color="#E4A64B"/>
<stop offset="0.857" stop-color="#F0DB70"/>
</linearGradient>
<linearGradient id="paint11_linear_2428_6639" x1="211.857" y1="292.924" x2="262.834" y2="292.924" gradientUnits="userSpaceOnUse">
<stop stop-color="#8093F9"/>
<stop offset="1" stop-color="#8CDCFD"/>
</linearGradient>
<linearGradient id="paint12_linear_2428_6639" x1="268.626" y1="292.924" x2="319.603" y2="292.924" gradientUnits="userSpaceOnUse">
<stop stop-color="#8093F9"/>
<stop offset="1" stop-color="#8CDCFD"/>
</linearGradient>
<linearGradient id="paint13_linear_2428_6639" x1="324.689" y1="292.924" x2="375.666" y2="292.924" gradientUnits="userSpaceOnUse">
<stop stop-color="#8093F9"/>
<stop offset="1" stop-color="#8CDCFD"/>
</linearGradient>
<linearGradient id="paint14_linear_2428_6639" x1="375.126" y1="310.306" x2="393.481" y2="309.732" gradientUnits="userSpaceOnUse">
<stop stop-color="#3A49C7"/>
<stop offset="1" stop-color="#25287B"/>
</linearGradient>
<linearGradient id="paint15_linear_2428_6639" x1="374.511" y1="339.753" x2="412.764" y2="322.856" gradientUnits="userSpaceOnUse">
<stop stop-color="#065BFE"/>
<stop offset="0.0885" stop-color="#1A6BFE"/>
<stop offset="0.4031" stop-color="#5EA2FD"/>
<stop offset="0.6311" stop-color="#88C5FC"/>
<stop offset="0.7474" stop-color="#98D2FC"/>
</linearGradient>
<linearGradient id="paint16_linear_2428_6639" x1="184.779" y1="309.983" x2="271.391" y2="309.983" gradientUnits="userSpaceOnUse">
<stop stop-color="#D39544"/>
<stop offset="0.857" stop-color="#F0DB70"/>
</linearGradient>
<linearGradient id="paint17_linear_2428_6639" x1="141.895" y1="314.742" x2="220.945" y2="314.742" gradientUnits="userSpaceOnUse">
<stop offset="0.0617" stop-color="white"/>
<stop offset="1" stop-color="#E0E7EB"/>
</linearGradient>
<linearGradient id="paint18_linear_2428_6639" x1="138.233" y1="316.84" x2="224.845" y2="316.84" gradientUnits="userSpaceOnUse">
<stop stop-color="#E4A64B"/>
<stop offset="0.857" stop-color="#F0DB70"/>
</linearGradient>
<linearGradient id="paint19_linear_2428_6639" x1="454.666" y1="251.581" x2="459.405" y2="251.581" gradientUnits="userSpaceOnUse">
<stop stop-color="#D6E5FF"/>
<stop offset="0.2471" stop-color="#DEEAFF"/>
<stop offset="0.8074" stop-color="#ECF3FF"/>
</linearGradient>
<linearGradient id="paint20_linear_2428_6639" x1="446.613" y1="251.744" x2="453.416" y2="251.744" gradientUnits="userSpaceOnUse">
<stop stop-color="#D6E5FF"/>
<stop offset="0.2471" stop-color="#DEEAFF"/>
<stop offset="0.8074" stop-color="#ECF3FF"/>
</linearGradient>
<linearGradient id="paint21_linear_2428_6639" x1="467.09" y1="251.744" x2="460.286" y2="251.744" gradientUnits="userSpaceOnUse">
<stop stop-color="#D6E5FF"/>
<stop offset="0.2471" stop-color="#DEEAFF"/>
<stop offset="0.8074" stop-color="#ECF3FF"/>
</linearGradient>
<linearGradient id="paint22_linear_2428_6639" x1="435.307" y1="250.994" x2="477.984" y2="250.994" gradientUnits="userSpaceOnUse">
<stop stop-color="#D6E5FF"/>
<stop offset="0.306" stop-color="#DEEAFF"/>
<stop offset="1" stop-color="#ECF3FF"/>
</linearGradient>
<linearGradient id="paint23_linear_2428_6639" x1="287.197" y1="92.1589" x2="321.448" y2="92.1589" gradientUnits="userSpaceOnUse">
<stop stop-color="#E4A64B"/>
<stop offset="0.857" stop-color="#F0DB70"/>
</linearGradient>
<linearGradient id="paint24_linear_2428_6639" x1="296.525" y1="97.0315" x2="300.03" y2="97.0315" gradientUnits="userSpaceOnUse">
<stop stop-color="#E4A64B"/>
<stop offset="0.857" stop-color="#F0DB70"/>
</linearGradient>
<linearGradient id="paint25_linear_2428_6639" x1="285.401" y1="94.1375" x2="288.906" y2="94.1375" gradientUnits="userSpaceOnUse">
<stop stop-color="#E4A64B"/>
<stop offset="0.857" stop-color="#F0DB70"/>
</linearGradient>
<linearGradient id="paint26_linear_2428_6639" x1="318.89" y1="90.9345" x2="322.396" y2="90.9345" gradientUnits="userSpaceOnUse">
<stop stop-color="#E4A64B"/>
<stop offset="0.857" stop-color="#F0DB70"/>
</linearGradient>
<linearGradient id="paint27_linear_2428_6639" x1="307.573" y1="87.0291" x2="311.078" y2="87.0291" gradientUnits="userSpaceOnUse">
<stop stop-color="#E4A64B"/>
<stop offset="0.857" stop-color="#F0DB70"/>
</linearGradient>
<linearGradient id="paint28_linear_2428_6639" x1="318.532" y1="110.648" x2="323.691" y2="110.648" gradientUnits="userSpaceOnUse">
<stop stop-color="#D6E5FF"/>
<stop offset="0.2471" stop-color="#DEEAFF"/>
<stop offset="0.8074" stop-color="#ECF3FF"/>
</linearGradient>
<linearGradient id="paint29_linear_2428_6639" x1="307.491" y1="108.479" x2="312.649" y2="108.479" gradientUnits="userSpaceOnUse">
<stop stop-color="#D6E5FF"/>
<stop offset="0.2471" stop-color="#DEEAFF"/>
<stop offset="0.8074" stop-color="#ECF3FF"/>
</linearGradient>
<linearGradient id="paint30_linear_2428_6639" x1="295.907" y1="113.166" x2="301.065" y2="113.166" gradientUnits="userSpaceOnUse">
<stop stop-color="#D6E5FF"/>
<stop offset="0.2471" stop-color="#DEEAFF"/>
<stop offset="0.8074" stop-color="#ECF3FF"/>
</linearGradient>
<linearGradient id="paint31_linear_2428_6639" x1="284.644" y1="111.753" x2="289.802" y2="111.753" gradientUnits="userSpaceOnUse">
<stop stop-color="#D6E5FF"/>
<stop offset="0.2471" stop-color="#DEEAFF"/>
<stop offset="0.8074" stop-color="#ECF3FF"/>
</linearGradient>
<clipPath id="clip0_2428_6639">
<rect width="596" height="379" rx="24" fill="white"/>
</clipPath>
</defs>
</svg>
