<svg width="596" height="379" viewBox="0 0 596 379" fill="none" xmlns="http://www.w3.org/2000/svg">
<g clip-path="url(#clip0_2428_6496)">
<rect width="596" height="379" rx="24" fill="#F0F0F0"/>
<path opacity="0.0526316" d="M-102.096 499.799C-87.7298 518.913 -41.8126 550.897 26.9234 525.926C112.843 494.711 146.074 411.97 222.758 369.067C279.358 337.402 431.442 289.871 518.893 342.393" stroke="#D2D2D5"/>
<path opacity="0.105263" d="M-116.267 459.729C-103.978 480.24 -61.6551 516.848 9.3146 499.198C98.0267 477.136 139.724 398.321 220.473 363.67C280.072 338.094 436.292 306.72 517.773 368.096" stroke="#D2D2D5"/>
<path opacity="0.157895" d="M-126.975 419.119C-116.896 440.802 -78.6319 481.634 -6.2061 471.499C84.3262 458.83 134.033 384.806 217.962 358.785C279.908 339.579 438.551 324.706 513.171 394.263" stroke="#D2D2D5"/>
<path opacity="0.210526" d="M-134.178 378.334C-126.421 400.952 -92.6345 445.56 -19.546 443.051C71.8146 439.915 128.987 371.492 215.176 354.386C278.79 341.761 438.119 343.552 505.059 420.528" stroke="#D2D2D5"/>
<path opacity="0.263158" d="M-137.877 337.74C-132.527 361.044 -103.588 408.94 -30.638 414.084C60.5499 420.515 124.561 358.443 212.066 350.44C276.652 344.534 434.92 362.97 493.448 446.521" stroke="#D2D2D5"/>
<path opacity="0.315789" d="M-138.117 297.702C-135.232 321.438 -111.459 372.096 -39.4459 384.837C50.5703 400.765 120.719 345.724 208.581 346.912C273.43 347.788 428.905 382.667 478.378 471.879" stroke="#D2D2D5"/>
<path opacity="0.368421" d="M-134.97 258.579C-134.582 282.486 -116.234 335.352 -45.9474 355.551C41.9108 380.801 117.429 333.394 204.685 343.759C269.088 351.409 420.065 402.349 459.942 496.243" stroke="#D2D2D5"/>
<path opacity="0.421053" d="M-128.552 220.723C-130.665 244.54 -117.944 299.034 -50.1535 326.47C34.5842 360.764 114.644 321.511 200.339 340.94C263.589 355.281 408.414 421.722 438.258 519.27" stroke="#D2D2D5"/>
<path opacity="0.473684" d="M-119.013 184.465C-123.604 207.931 -116.648 263.456 -52.0971 297.828C28.5915 340.792 112.316 310.122 195.511 338.403C256.915 359.276 394.001 440.492 413.486 540.625" stroke="#D2D2D5"/>
<path opacity="0.526316" d="M-106.536 150.123C-113.554 172.981 -112.441 228.929 -51.8361 269.859C23.9195 321.022 110.391 299.272 190.174 336.094C249.06 363.271 376.906 458.372 385.817 559.993" stroke="#D2D2D5"/>
<path opacity="0.578947" d="M-91.341 117.995C-100.711 139.993 -105.451 195.751 -49.457 242.792C20.5356 301.594 108.807 289.001 184.304 333.961C240.026 367.145 357.232 475.088 355.471 577.084" stroke="#D2D2D5"/>
<path opacity="0.631579" d="M-73.6705 88.3527C-85.2882 109.251 -95.831 164.208 -45.0608 216.845C18.4019 282.64 107.506 279.344 177.89 331.949C229.838 370.775 335.119 490.378 322.706 591.632" stroke="#D2D2D5"/>
<path opacity="0.684211" d="M-53.7992 61.4437C-67.5377 81.0136 -83.7673 134.567 -38.7773 192.222C17.4602 264.291 106.421 270.326 170.92 330.001C218.526 374.044 310.727 503.997 287.799 603.398" stroke="#D2D2D5"/>
<path opacity="0.736842" d="M-32.0239 37.4756C-47.7328 55.5022 -69.4714 107.066 -30.7544 169.108C17.6418 246.661 105.484 261.962 163.393 328.051C206.133 376.83 284.246 515.708 251.053 612.168" stroke="#D2D2D5"/>
<path opacity="0.789474" d="M-8.66447 16.6399C-26.1716 32.9257 -53.1809 81.9347 -21.1612 147.684C18.8634 229.87 104.625 254.27 155.308 326.05C192.716 379.029 255.884 525.312 212.79 617.774" stroke="#D2D2D5"/>
<path opacity="0.842105" d="M15.9447 -0.920574C-3.16889 13.446 -35.1531 59.3632 -10.1815 128.099C21.0331 214.019 103.774 247.249 146.677 323.934C178.342 380.533 225.873 532.618 173.351 620.069" stroke="#D2D2D5"/>
<path opacity="0.894737" d="M41.4507 -15.0917C20.9401 -2.80173 -15.6686 39.5207 1.98141 110.49C24.0439 199.203 102.858 240.899 137.51 321.649C163.086 381.248 194.459 537.467 133.083 618.949" stroke="#D2D2D5"/>
<path opacity="0.947368" d="M67.5023 -25.7968C45.8194 -15.7181 4.98739 22.5458 15.1223 94.9716C27.791 185.504 101.815 235.211 127.837 319.14C147.042 381.086 161.915 539.729 92.3577 614.349" stroke="#D2D2D5"/>
<path d="M93.7245 -33C71.1069 -25.243 26.4989 8.54322 29.0078 81.6317C32.1438 172.992 100.567 230.164 117.673 316.354C130.298 379.968 128.506 539.297 51.5304 606.237" stroke="#D2D2D5"/>
<g clip-path="url(#clip1_2428_6496)">
<path d="M151.993 279.85C152.556 274.293 154.903 270.859 163.99 261.003C173.076 251.148 164.329 250.122 159.527 255.25C154.725 260.379 151.065 272.973 151.065 272.973C151.065 272.973 148.004 260.335 153.796 250.675C159.589 241.015 158.331 231.498 152.368 233.817C146.406 236.136 145.442 253.101 146.361 260.575C142.324 254.229 139.719 247.079 138.73 239.624C137.302 227.672 130.509 223.827 126.894 224.808C121.878 226.173 127.947 231.685 132.767 240.328C137.079 248.079 140.47 256.508 142.095 259.309C142.095 259.309 129.233 241.871 119.12 241.666C109.007 241.461 111.533 248.044 116.746 249.756C121.958 251.469 135.436 257.266 142.559 264.437C142.559 264.437 124.02 255.955 118.977 263.965C113.934 271.974 121.771 272.831 128.545 269.432C131.438 267.87 134.762 267.292 138.013 267.788C141.263 268.284 144.263 269.826 146.558 272.18C142.69 270.856 138.506 270.772 134.588 271.939C128.242 273.669 126.859 279.565 129.054 281.099C131.67 282.927 135.115 279.6 141.068 276.818C147.022 274.035 148.209 281.411 149.102 284.622C149.994 287.833 151.226 287.378 151.993 279.85Z" fill="#588E4D"/>
<path d="M117.861 245.421C118.12 245.483 118.513 245.554 118.995 245.688C119.477 245.822 120.066 245.983 120.717 246.232C121.369 246.482 122.119 246.75 122.913 247.08L124.127 247.633L125.412 248.275L126.742 249.006L128.108 249.809C129.001 250.371 129.965 250.969 130.884 251.593C131.803 252.217 132.749 252.913 133.66 253.609C136.988 256.181 140.148 258.964 143.121 261.939C144.264 263.072 145.192 264.053 145.861 264.785L145.46 263.982C145.245 263.563 145.022 263.152 144.799 262.733C144.576 262.314 144.326 261.904 144.085 261.485C143.597 260.618 143.159 259.725 142.773 258.809C142.38 257.917 142.023 257.025 141.675 256.079C140.309 252.387 139.113 248.658 137.9 245.189C137.293 243.458 136.721 241.782 136.114 240.212C135.507 238.642 134.954 237.152 134.383 235.805C133.812 234.459 133.249 233.237 132.714 232.175C132.259 231.259 131.758 230.366 131.214 229.499C130.75 228.786 130.322 228.233 130.072 227.876L129.634 227.332L130.107 227.849C130.549 228.347 130.96 228.872 131.339 229.419C131.821 230.133 132.392 231.007 132.964 232.095C133.535 233.183 134.169 234.343 134.749 235.663C135.963 238.339 137.248 241.532 138.48 245.001C139.711 248.471 140.961 252.182 142.336 255.839C142.684 256.73 143.032 257.622 143.407 258.514C143.772 259.399 144.192 260.26 144.665 261.092C144.897 261.52 145.129 261.939 145.361 262.35L146.031 263.634C146.236 264.062 146.45 264.481 146.656 264.91L147.227 266.176C147.504 266.792 147.745 267.407 147.986 268.014C147.923 267.122 147.861 265.882 147.825 264.446C147.72 260.526 147.896 256.603 148.352 252.708C148.477 251.646 148.646 250.594 148.825 249.559C148.914 249.042 149.021 248.525 149.119 248.025C149.217 247.526 149.342 247.026 149.449 246.536C149.557 246.045 149.699 245.572 149.824 245.108C149.949 244.645 150.092 244.217 150.226 243.753C150.36 243.289 150.512 242.861 150.654 242.486L151.101 241.318C151.413 240.577 151.699 239.908 151.993 239.329C152.288 238.749 152.573 238.258 152.797 237.848C153.02 237.438 153.243 237.143 153.368 236.956L153.582 236.635L153.377 236.956C153.243 237.17 153.038 237.473 152.806 237.848C152.573 238.223 152.288 238.74 152.02 239.338C151.752 239.935 151.449 240.595 151.128 241.336C150.994 241.71 150.842 242.103 150.699 242.513L150.333 243.824C150.208 244.261 150.083 244.716 149.949 245.18L149.592 246.607C149.494 247.097 149.387 247.588 149.28 248.096C149.173 248.605 149.084 249.113 149.003 249.631C148.834 250.665 148.682 251.718 148.575 252.779C148.159 256.665 148.025 260.576 148.173 264.481C148.253 266.809 148.405 268.558 148.485 269.343C148.709 269.976 148.932 270.6 149.128 271.216C149.646 272.83 150.021 274.382 150.333 275.827C150.337 275.88 150.337 275.934 150.333 275.988L150.449 275.631C150.565 275.283 150.726 274.864 150.895 274.382C151.065 273.9 151.279 273.356 151.52 272.777C151.761 272.197 152.029 271.563 152.332 270.912C152.636 270.261 152.957 269.566 153.305 268.861C153.653 268.156 154.046 267.443 154.439 266.72L155.073 265.641C155.278 265.275 155.492 264.918 155.724 264.571C156.179 263.866 156.617 263.152 157.117 262.492L157.84 261.493C158.081 261.172 158.34 260.86 158.581 260.557L159.304 259.665C159.553 259.371 159.812 259.103 160.053 258.835C160.496 258.325 160.963 257.837 161.455 257.373L162.695 256.186L163.713 255.348L164.605 254.625L163.713 255.366L162.695 256.213L161.472 257.417C161.008 257.836 160.58 258.363 160.098 258.898C159.866 259.165 159.607 259.442 159.366 259.727L158.661 260.619C158.42 260.932 158.161 261.235 157.929 261.565L157.233 262.573C156.742 263.233 156.34 263.955 155.867 264.66C155.644 265.008 155.439 265.373 155.233 265.739L154.617 266.818C154.234 267.55 153.859 268.263 153.52 268.968C153.18 269.673 152.85 270.359 152.573 271.019C152.297 271.679 152.029 272.304 151.806 272.884C151.583 273.463 151.386 274.007 151.199 274.489C151.011 274.971 150.887 275.381 150.779 275.738C150.601 276.291 150.503 276.63 150.467 276.772C150.574 277.406 150.672 278.012 150.753 278.601L150.806 278.815C150.806 279.154 150.878 279.475 150.904 279.796L150.985 280.688C150.985 280.965 150.985 281.232 150.985 281.491C150.985 282.008 151.029 282.49 150.985 282.918C150.94 283.346 150.985 283.73 150.985 284.06L150.913 284.907C150.913 285.362 150.86 285.612 150.86 285.612C150.86 285.612 150.86 285.362 150.86 284.907C150.86 284.675 150.86 284.39 150.86 284.06C150.86 283.73 150.86 283.346 150.86 282.918C150.86 282.49 150.86 282.026 150.762 281.509L150.699 280.706C150.654 280.429 150.619 280.144 150.583 279.814C150.547 279.484 150.494 279.198 150.44 278.922C150.44 278.922 150.44 278.833 150.378 278.681C150.309 278.456 150.226 278.235 150.128 278.021L149.914 277.557L149.61 277.04C149.494 276.862 149.369 276.674 149.217 276.478C149.066 276.282 148.905 276.095 148.718 275.907C148.314 275.506 147.868 275.15 147.388 274.846C146.83 274.506 146.23 274.243 145.602 274.061L145.12 273.918C144.959 273.861 144.791 273.822 144.621 273.802C144.281 273.749 143.942 273.686 143.594 273.642H142.532C142.175 273.642 141.818 273.642 141.461 273.642C141.104 273.642 140.747 273.642 140.39 273.731L139.328 273.874C138.631 274.007 137.944 274.114 137.293 274.293L136.811 274.418L136.338 274.569C136.034 274.667 135.731 274.757 135.445 274.881C135.159 275.006 134.874 275.105 134.615 275.238C134.361 275.352 134.113 275.48 133.874 275.622C133.649 275.745 133.431 275.882 133.222 276.032C133.028 276.162 132.843 276.305 132.669 276.46C132.377 276.703 132.111 276.975 131.875 277.272C131.658 277.538 131.488 277.84 131.375 278.164C131.488 277.843 131.65 277.542 131.857 277.272C132.089 276.969 132.352 276.691 132.642 276.442C132.803 276.3 132.99 276.148 133.187 276.005C133.396 275.851 133.614 275.709 133.838 275.577C134.07 275.435 134.32 275.31 134.588 275.176C134.856 275.042 135.124 274.926 135.409 274.81C135.701 274.684 135.999 274.574 136.302 274.48L136.766 274.32L137.257 274.186C137.908 273.998 138.596 273.874 139.301 273.731L140.515 273.544C140.872 273.486 141.233 273.45 141.595 273.437C141.961 273.437 142.327 273.365 142.684 273.374H143.764C144.121 273.374 144.478 273.472 144.826 273.517C144.999 273.538 145.169 273.577 145.335 273.633L145.835 273.767C146.46 273.954 147.059 274.217 147.62 274.551C148.13 274.859 148.603 275.224 149.03 275.64C149.226 275.827 149.396 276.041 149.565 276.228C149.735 276.416 149.851 276.621 149.985 276.808L150.226 277.209C150.137 276.781 150.047 276.318 149.949 275.88C149.61 274.525 149.208 273.062 148.691 271.546L147.941 270.877C147.105 270.171 146.232 269.51 145.326 268.897C144.763 268.513 144.13 268.121 143.46 267.728C142.791 267.336 142.059 266.943 141.291 266.586C140.524 266.23 139.711 265.882 138.872 265.57C138.453 265.427 137.98 265.275 137.587 265.15C137.194 265.026 136.695 264.892 136.284 264.785C135.873 264.678 135.391 264.588 134.954 264.49C134.517 264.392 134.061 264.348 133.615 264.285C133.169 264.223 132.723 264.178 132.294 264.151C131.866 264.125 131.402 264.098 131 264.107C130.18 264.102 129.36 264.144 128.545 264.232L127.412 264.374L126.367 264.58C126.028 264.633 125.716 264.731 125.412 264.803C125.109 264.874 124.823 264.945 124.52 265.043C123.993 265.222 123.52 265.347 123.154 265.498L121.994 265.962L123.145 265.48C123.52 265.329 123.984 265.195 124.511 265.008C124.77 264.91 125.055 264.847 125.403 264.758C125.752 264.669 126.019 264.58 126.359 264.517L127.403 264.303L128.536 264.143C129.354 264.045 130.177 263.994 131 263.991C131.428 263.991 131.892 263.991 132.303 263.991C132.714 263.991 133.196 264.062 133.633 264.098L134.981 264.294C135.427 264.392 135.873 264.455 136.329 264.571C136.784 264.687 137.221 264.785 137.65 264.919C138.078 265.052 138.542 265.186 138.944 265.338C139.784 265.643 140.606 265.994 141.407 266.39C142.193 266.738 142.925 267.131 143.612 267.505C144.299 267.88 144.942 268.281 145.513 268.665C146.532 269.33 147.507 270.06 148.432 270.85C147.926 269.435 147.331 267.984 146.647 266.497L146.406 265.971C145.835 265.311 144.621 263.928 142.835 262.18C139.905 259.181 136.783 256.374 133.49 253.778C132.598 253.074 131.705 252.396 130.75 251.744C129.795 251.093 128.902 250.478 127.992 249.907L126.644 249.095L125.341 248.355L124.065 247.695L122.851 247.133C122.065 246.794 121.333 246.482 120.673 246.241C120.012 246 119.432 245.84 118.95 245.688C118.468 245.537 118.058 245.474 117.825 245.403L117.424 245.314L117.861 245.421Z" fill="white"/>
<path d="M150.655 284.56C150.655 284.676 150.771 284.828 150.824 285.042C150.896 285.296 150.95 285.555 150.985 285.818C150.995 285.978 150.995 286.139 150.985 286.299C150.985 286.469 150.985 286.647 150.985 286.834C150.971 287.237 150.92 287.637 150.833 288.03C150.792 288.247 150.739 288.461 150.672 288.672C150.61 288.886 150.539 289.109 150.458 289.323C150.288 289.774 150.091 290.215 149.869 290.643C149.646 291.08 149.396 291.535 149.128 291.936C148.128 293.471 146.97 294.897 145.674 296.191C144.987 296.878 144.433 297.386 144.121 297.654C143.416 297.395 142.684 297.145 141.916 296.922C140.496 296.524 139.045 296.244 137.578 296.084C137.043 296.03 136.507 295.986 135.963 295.959C136.061 295.433 136.186 294.719 136.311 293.863C136.436 293.007 136.579 291.883 136.668 290.741C136.767 289.54 136.803 288.334 136.775 287.129C136.775 286.513 136.721 285.898 136.659 285.345C136.594 284.746 136.499 284.15 136.373 283.561C136.373 283.418 136.311 283.284 136.275 283.142C136.239 282.999 136.195 282.874 136.159 282.74C136.088 282.464 135.99 282.214 135.9 281.964C135.811 281.715 135.686 281.492 135.588 281.26C135.49 281.028 135.347 280.832 135.231 280.635C135.115 280.439 134.963 280.27 134.829 280.109L134.41 279.672L133.999 279.351L133.615 279.119C133.435 279.02 133.247 278.937 133.053 278.869L132.848 278.789L133.044 278.878C133.24 278.946 133.426 279.039 133.597 279.155L133.972 279.387L134.365 279.726L134.758 280.163C134.883 280.332 134.999 280.511 135.124 280.698C135.249 280.885 135.347 281.099 135.454 281.322C135.561 281.545 135.659 281.777 135.731 282.027C135.802 282.277 135.9 282.526 135.963 282.794C136.025 283.061 136.025 283.061 136.061 283.195L136.132 283.606C136.237 284.181 136.308 284.761 136.347 285.345C136.347 285.942 136.4 286.549 136.391 287.129C136.372 288.321 136.291 289.512 136.15 290.697C136.016 291.829 135.847 292.873 135.677 293.765C135.508 294.657 135.356 295.406 135.231 295.923C134.445 295.923 133.66 295.923 132.866 295.923C131.268 295.923 129.661 296.057 128.055 296.128C126.448 296.2 124.859 296.28 123.288 296.28H122.726C122.726 296.137 122.726 295.986 122.726 295.816C122.726 295.647 122.726 295.174 122.726 294.799V294.238C122.726 294.041 122.726 293.836 122.726 293.622C122.726 293.194 122.637 292.73 122.583 292.284C122.53 291.838 122.44 291.348 122.324 290.875C122.208 290.402 122.11 289.912 121.949 289.439L121.726 288.734L121.458 288.047C121.36 287.824 121.289 287.593 121.182 287.378C121.075 287.164 120.968 286.959 120.869 286.754C120.771 286.549 120.673 286.335 120.548 286.148L120.209 285.595L119.879 285.068L119.53 284.605C119.307 284.319 119.111 284.043 118.915 283.811L118.379 283.249L117.924 282.758L118.361 283.267C118.495 283.436 118.665 283.632 118.861 283.855C119.057 284.078 119.227 284.373 119.432 284.676C119.539 284.828 119.647 284.979 119.754 285.149L120.057 285.684L120.369 286.246C120.477 286.433 120.548 286.647 120.646 286.852C120.744 287.057 120.834 287.271 120.932 287.486C121.03 287.7 121.084 287.931 121.164 288.154L121.396 288.841L121.583 289.546C121.717 290.01 121.789 290.491 121.887 290.955C121.985 291.419 122.012 291.892 122.065 292.347C122.119 292.801 122.146 293.239 122.146 293.649C122.146 293.854 122.146 294.059 122.146 294.255C122.146 294.452 122.146 294.639 122.146 294.817C122.146 295.183 122.146 295.513 122.092 295.807C122.039 296.102 122.092 296.146 122.092 296.298C120.959 296.298 119.852 296.218 118.772 296.137C118.022 296.075 117.29 296.004 116.576 295.914C115.862 295.825 115.166 295.736 114.487 295.638C113.809 295.54 113.149 295.406 112.515 295.299C111.881 295.192 111.265 295.049 110.676 294.924L109.784 294.746L108.962 294.55L107.445 294.175C106.508 293.916 105.66 293.711 104.999 293.515L102.875 292.9L104.928 293.729C105.588 293.988 106.392 294.264 107.329 294.621C107.793 294.782 108.293 294.933 108.82 295.103L109.632 295.352L110.524 295.593C111.694 295.914 112.97 296.235 114.336 296.485C115.023 296.619 115.728 296.753 116.451 296.86C117.174 296.967 117.915 297.056 118.674 297.145C120.191 297.297 121.762 297.422 123.36 297.422C124.333 297.422 125.314 297.422 126.296 297.422C126.011 297.752 125.627 298.198 125.154 298.706C124.681 299.215 124.002 299.919 123.297 300.579L122.753 301.079L122.19 301.578C121.807 301.917 121.405 302.229 120.994 302.55C120.584 302.872 120.164 303.157 119.754 303.442C119.343 303.728 118.861 303.978 118.504 304.236L117.272 304.896L116.121 305.387L115.112 305.708C114.854 305.794 114.588 305.853 114.318 305.886L113.613 306.02L114.318 305.922C114.592 305.894 114.863 305.846 115.13 305.779L116.157 305.503L117.344 305.057L118.62 304.45C119.04 304.209 119.513 303.969 119.923 303.701C120.334 303.433 120.816 303.148 121.226 302.809C121.637 302.47 122.074 302.203 122.476 301.917L123.074 301.444L123.645 300.954C124.395 300.321 125.056 299.696 125.618 299.17C126.457 298.34 127.055 297.671 127.296 297.386L128.188 297.341L132.107 297.127C131.746 297.613 131.418 298.123 131.125 298.653C130.646 299.518 130.22 300.412 129.849 301.328C129.643 301.828 129.447 302.345 129.251 302.872C129.054 303.398 128.876 303.942 128.706 304.486C128.367 305.565 128.072 306.662 127.769 307.679C127.526 308.608 127.175 309.506 126.725 310.355C126.383 310.915 125.908 311.381 125.341 311.711C125.177 311.81 125.007 311.899 124.832 311.978L124.645 312.059L124.832 311.987C125.013 311.914 125.189 311.831 125.359 311.737C125.622 311.59 125.868 311.414 126.091 311.211C126.375 310.946 126.623 310.647 126.832 310.319C127.322 309.474 127.714 308.577 128.001 307.643C128.34 306.636 128.679 305.556 129.063 304.495C129.26 303.96 129.456 303.433 129.67 302.916C129.884 302.399 130.099 301.908 130.322 301.427C130.725 300.56 131.178 299.717 131.678 298.902C132.023 298.33 132.414 297.787 132.848 297.279L133.098 297.011C134.586 296.953 136.076 296.979 137.561 297.092C138.141 297.145 138.703 297.217 139.265 297.297L139.203 297.395C139.145 297.543 139.097 297.695 139.06 297.85C138.997 298.191 138.967 298.538 138.971 298.885C139.069 300.619 139.286 302.345 139.622 304.049C139.774 304.985 139.917 305.913 139.997 306.796C139.997 307.233 140.069 307.688 140.086 308.063C140.109 308.443 140.109 308.824 140.086 309.204C140.063 309.523 140.013 309.84 139.935 310.15C139.873 310.387 139.786 310.617 139.676 310.837L139.533 311.077L139.408 311.229L139.292 311.363L139.408 311.238L139.551 311.086L139.703 310.854C139.829 310.638 139.931 310.407 140.006 310.168C140.101 309.856 140.167 309.537 140.203 309.213C140.257 308.832 140.286 308.448 140.292 308.063C140.292 307.652 140.292 307.224 140.292 306.778C140.292 305.886 140.158 304.941 140.051 303.995C139.801 302.297 139.67 300.583 139.658 298.867C139.666 298.566 139.708 298.266 139.783 297.975C139.819 297.786 139.905 297.61 140.033 297.466L140.095 297.404C140.676 297.502 141.238 297.609 141.791 297.743C142.345 297.877 143.094 298.073 143.701 298.278C144.005 298.376 144.308 298.456 144.594 298.563L145.487 298.876C145.879 299.001 146.236 299.161 146.593 299.304C146.781 299.446 146.995 299.607 147.245 299.812C148.097 300.494 148.849 301.292 149.476 302.185C149.811 302.66 150.084 303.175 150.289 303.719C150.461 304.199 150.567 304.7 150.601 305.208C150.619 305.413 150.619 305.619 150.601 305.824C150.601 306.002 150.601 306.154 150.539 306.288L150.333 306.725C150.333 306.725 150.333 306.582 150.44 306.323C150.476 306.17 150.503 306.016 150.521 305.86C150.521 305.672 150.521 305.467 150.521 305.244C150.531 304.721 150.468 304.198 150.333 303.692C150.142 303.129 149.884 302.59 149.566 302.087C149.011 301.232 148.348 300.453 147.593 299.768L148.432 300.151L149.075 300.445L149.664 300.749L150.699 301.275L152.645 302.327L152.172 301.997C151.86 301.783 151.404 301.462 150.815 301.105C150.226 300.749 149.503 300.214 148.628 299.785C147.667 299.24 146.678 298.746 145.665 298.305C145.308 298.135 144.933 297.984 144.549 297.832C144.871 297.529 145.371 297.056 145.951 296.441C147.23 295.102 148.366 293.634 149.343 292.061C149.601 291.633 149.842 291.169 150.057 290.741C150.27 290.305 150.455 289.855 150.61 289.394C150.691 289.175 150.759 288.952 150.815 288.725C150.878 288.502 150.922 288.288 150.967 288.074C151.041 287.674 151.083 287.268 151.092 286.861C151.092 286.674 151.092 286.495 151.092 286.317C151.088 286.155 151.07 285.994 151.038 285.835C150.997 285.573 150.938 285.314 150.86 285.059C150.797 284.854 150.717 284.694 150.681 284.587L150.61 284.417L150.655 284.56Z" fill="white"/>
<path d="M169.72 308.99C169.72 308.99 162.775 301.302 147.316 305.565C142.535 306.888 138.108 309.255 134.353 312.494C130.598 315.733 127.608 319.763 125.6 324.296C125.6 324.296 135.159 322.369 143.576 323.672C161.794 326.446 174.04 316.616 169.72 308.99Z" fill="#588E4D"/>
<path d="M167.916 308.562L166.532 308.33L166.345 308.196C165.934 307.928 165.515 307.67 165.086 307.438C164.658 307.206 164.194 307.001 163.765 306.814C163.337 306.626 162.873 306.466 162.408 306.314C161.949 306.163 161.481 306.038 161.007 305.939C161.9 306.368 162.721 306.831 163.551 307.268C163.962 307.5 164.372 307.741 164.765 307.991L165.042 308.169C164.417 308.116 163.747 308.062 163.024 308.044C162.516 308.044 161.98 308.044 161.436 308.044C160.891 308.044 160.311 308.044 159.731 308.089C158.776 308.134 157.767 308.223 156.741 308.339L156.642 308.267C156.509 308.169 156.366 308.098 156.232 308.018C155.955 307.848 155.661 307.723 155.339 307.581L154.902 307.402L154.465 307.233C154.17 307.117 153.867 307.028 153.572 306.938C152.985 306.765 152.389 306.623 151.787 306.51L150.894 306.368C150.582 306.323 150.269 306.305 150.002 306.278C151.213 306.575 152.405 306.945 153.572 307.384C153.849 307.5 154.134 307.607 154.411 307.741C154.545 307.804 154.688 307.857 154.822 307.928L155.232 308.134L155.83 308.473C154.679 308.651 153.492 308.829 152.26 309.115C151.028 309.4 149.645 309.775 148.333 310.167C147.717 310.363 147.11 310.586 146.503 310.792L145.976 310.702L145.45 310.64H144.923C144.23 310.604 143.536 310.604 142.843 310.64C142.156 310.685 141.469 310.738 140.79 310.827C140.112 310.917 139.425 311.024 138.755 311.166H140.808C141.487 311.166 142.174 311.166 142.852 311.166C143.531 311.166 144.209 311.22 144.869 311.291L145.253 311.336L144.566 311.603C143.941 311.862 143.334 312.121 142.781 312.397L140.996 313.236L139.326 314.127C138.791 314.422 138.282 314.734 137.773 315.019C137.265 315.305 136.792 315.617 136.327 315.911C135.863 316.206 135.435 316.491 135.006 316.803C134.167 317.383 133.409 317.918 132.757 318.427C132.106 318.935 131.534 319.319 131.088 319.756L129.678 320.969L131.222 319.943C131.704 319.604 132.32 319.229 133.007 318.792C133.694 318.355 134.498 317.9 135.355 317.356C135.783 317.098 136.247 316.857 136.72 316.589C137.193 316.322 137.675 316.036 138.193 315.787C138.711 315.537 139.228 315.242 139.764 314.975L141.433 314.172L143.218 313.405L145.003 312.665L145.896 312.344L144.878 313.851L143.986 315.171C143.673 315.608 143.361 316.063 143.031 316.482L142.04 317.767L141.522 318.382C141.362 318.596 141.183 318.801 141.005 319.006C140.826 319.212 140.647 319.408 140.46 319.604C140.273 319.8 140.094 319.996 139.898 320.184L139.309 320.737L138.666 321.245L139.389 320.853L140.058 320.371C140.282 320.211 140.487 320.032 140.701 319.854C140.915 319.675 141.112 319.488 141.317 319.301C141.719 318.935 142.093 318.534 142.468 318.132L143.022 317.517L143.548 316.893C143.896 316.473 144.236 316.001 144.575 315.608L145.539 314.279C146.083 313.512 146.592 312.718 147.092 311.915L148.832 311.345C150.109 310.943 151.385 310.578 152.662 310.283C153.938 309.989 155.205 309.721 156.437 309.498H156.66C156.66 309.579 156.66 309.668 156.66 309.748C156.567 310.301 156.433 310.847 156.259 311.38L155.687 312.076L155.366 312.861L154.991 313.628C154.866 313.878 154.714 314.127 154.581 314.377C154.452 314.632 154.309 314.879 154.152 315.118C154 315.358 153.858 315.608 153.697 315.849L153.206 316.554C153.054 316.794 152.876 317.026 152.706 317.258L152.189 317.945C152.01 318.177 151.823 318.391 151.635 318.623L151.091 319.292C150.707 319.729 150.323 320.184 149.948 320.612C150.394 320.246 150.841 319.863 151.278 319.479C151.715 319.096 152.171 318.667 152.528 318.239C152.885 317.811 153.322 317.347 153.679 316.91L154.224 316.215C154.402 315.974 154.554 315.724 154.723 315.483C154.893 315.242 155.054 314.993 155.205 314.734C155.357 314.475 155.509 314.235 155.643 313.967L156.044 313.173L156.401 312.353L156.696 311.505C156.776 311.211 156.866 310.934 156.928 310.613C156.991 310.292 157.053 310.016 157.098 309.721C157.098 309.561 157.098 309.409 157.098 309.249C157.99 309.115 158.883 308.999 159.722 308.919C160.864 308.812 161.944 308.74 162.953 308.704C163.962 308.669 164.827 308.704 165.631 308.704C165.55 308.981 165.479 309.266 165.39 309.543L165.051 310.667C164.926 311.032 164.81 311.407 164.676 311.773C164.542 312.138 164.426 312.513 164.292 312.879C164.158 313.244 164.024 313.61 163.881 313.976L163.658 314.52C163.587 314.698 163.524 314.886 163.444 315.064L163.212 315.599C163.14 315.778 163.051 315.956 162.971 316.134C162.81 316.5 162.632 316.848 162.462 317.205C162.721 316.903 162.962 316.588 163.185 316.259C163.418 315.935 163.632 315.599 163.828 315.251C164.035 314.913 164.226 314.565 164.399 314.208C164.577 313.851 164.756 313.494 164.908 313.129C164.997 312.941 165.068 312.754 165.14 312.576C165.211 312.397 165.3 312.21 165.363 312.023C165.506 311.648 165.631 311.273 165.765 310.899C165.898 310.524 166.006 310.141 166.113 309.757C166.22 309.373 166.3 309.07 166.38 308.722C166.916 308.722 167.398 308.776 167.809 308.812L169.174 308.945L169.647 309.017C169.078 308.835 168.5 308.683 167.916 308.562Z" fill="white"/>
<path d="M275.909 180.684C271.446 177.5 267.447 177 254.353 177.277C241.259 177.553 246.15 170.489 253.023 170.293C259.896 170.096 271.464 175.555 271.464 175.555C271.464 175.555 264.189 165.146 253.353 163.13C242.517 161.115 236.394 154.059 241.928 151.187C247.462 148.315 260.538 158.581 265.43 164.111C263.382 157.058 259.822 150.536 254.996 144.997C247.159 136.229 248.748 128.773 251.791 126.766C256.031 123.974 256.147 131.975 259.369 141.09C262.252 149.252 266.242 157.145 267.233 160.178C267.233 160.178 262.77 139.503 269.17 131.975C275.569 124.447 278.738 130.539 276.632 135.462C274.525 140.386 270.044 153.988 270.696 163.835C270.696 163.835 276.462 144.792 285.593 146.273C294.724 147.753 290.27 154.05 283.433 156.798C280.418 157.9 277.846 159.955 276.108 162.652C274.37 165.349 273.56 168.539 273.802 171.738C275.325 168.052 277.962 164.933 281.344 162.818C286.7 159.295 291.93 162.096 291.636 164.691C291.279 167.786 286.62 168.161 280.729 170.712C274.838 173.263 279.47 178.927 281.246 181.647C283.022 184.367 281.916 184.992 275.909 180.684Z" fill="#588E4D"/>
<path d="M272.74 133.454C272.624 133.686 272.419 134.016 272.213 134.462C272.008 134.908 271.731 135.435 271.49 136.068C271.249 136.701 270.964 137.424 270.696 138.217L270.312 139.475L269.937 140.822C269.83 141.286 269.723 141.767 269.607 142.258C269.491 142.748 269.42 143.266 269.312 143.783C269.134 144.809 268.973 145.888 268.848 146.976C268.723 148.064 268.607 149.188 268.527 150.303C268.263 154.402 268.263 158.513 268.527 162.612C268.625 164.182 268.741 165.493 268.839 166.456L268.5 165.645C268.348 165.216 268.179 164.753 268.018 164.351L267.563 163.022C267.255 162.109 266.891 161.215 266.474 160.346C266.072 159.455 265.635 158.616 265.189 157.769C263.359 154.397 261.404 151.106 259.646 147.957C258.753 146.388 257.914 144.889 257.138 143.444C256.361 141.999 255.656 140.617 255.031 139.323C254.406 138.03 253.889 136.835 253.451 135.756C253.069 134.828 252.735 133.882 252.452 132.919C252.228 132.116 252.077 131.483 251.996 131.037C251.916 130.591 251.88 130.359 251.88 130.359C251.88 130.359 251.88 130.6 251.961 131.046C252.039 131.689 252.158 132.327 252.318 132.955C252.563 133.937 252.861 134.904 253.21 135.854C253.594 136.96 254.103 138.191 254.674 139.502C255.852 142.124 257.352 145.13 259.137 148.27C260.922 151.409 262.797 154.718 264.582 158.081C265.037 158.973 265.474 159.767 265.876 160.623C266.293 161.462 266.656 162.326 266.965 163.21C267.117 163.647 267.277 164.102 267.429 164.539L267.938 165.85L268.464 167.125L269.027 168.365C269.303 168.963 269.589 169.542 269.919 170.149C269.295 169.516 268.438 168.677 267.402 167.714C264.601 165.107 261.618 162.701 258.477 160.516C257.584 159.927 256.745 159.365 255.861 158.821C255.433 158.554 254.969 158.304 254.549 158.045L253.246 157.332L251.961 156.681L250.711 156.101L249.506 155.592L248.355 155.164C247.614 154.915 246.936 154.692 246.32 154.54C245.704 154.388 245.159 154.263 244.713 154.165C244.267 154.067 243.91 154.032 243.669 153.996C243.91 154.04 244.267 154.085 244.713 154.183C245.159 154.281 245.704 154.379 246.311 154.567C246.918 154.754 247.605 154.959 248.337 155.218L249.479 155.655L250.675 156.172L251.916 156.77L253.192 157.43L254.487 158.161C254.915 158.429 255.379 158.679 255.79 158.955C256.682 159.499 257.521 160.07 258.369 160.677C261.487 162.882 264.441 165.312 267.206 167.946C268.857 169.507 270.044 170.755 270.562 171.308C270.877 171.903 271.199 172.465 271.526 172.994C272.419 174.412 273.311 175.67 274.114 176.865L274.222 176.99L273.873 176.847C273.543 176.696 273.142 176.544 272.677 176.357C272.213 176.17 271.678 175.973 271.098 175.786C270.517 175.599 269.884 175.367 269.205 175.162C268.527 174.957 267.813 174.76 267.072 174.555C266.331 174.35 265.555 174.181 264.769 174.002L263.573 173.77C263.174 173.681 262.773 173.61 262.368 173.556C261.556 173.431 260.744 173.298 259.94 173.226L258.744 173.11C258.352 173.11 257.959 173.066 257.575 173.048L256.45 172.994C256.075 172.994 255.718 172.994 255.37 172.994C254.665 172.994 253.996 172.994 253.389 173.075L251.711 173.217L250.443 173.422L249.328 173.61L250.443 173.44L251.72 173.253L253.389 173.128C253.996 173.066 254.665 173.128 255.37 173.083C255.718 173.083 256.075 173.083 256.45 173.083L257.575 173.146C257.959 173.146 258.343 173.146 258.735 173.226L259.922 173.36C260.726 173.44 261.529 173.592 262.332 173.717C262.734 173.779 263.136 173.859 263.537 173.949L264.725 174.198C265.501 174.386 266.269 174.582 267.01 174.787C267.75 174.992 268.456 175.197 269.116 175.42C269.777 175.643 270.41 175.848 270.99 176.063C271.571 176.277 272.088 176.482 272.552 176.651L273.731 177.151C274.257 177.383 274.623 177.534 274.704 177.597C275.096 178.087 275.48 178.551 275.855 178.979L275.98 179.166L276.632 179.871L277.221 180.487L277.783 181.04C278.149 181.387 278.479 181.709 278.809 181.931C279.14 182.154 279.407 182.449 279.702 182.654L280.362 183.153L280.916 183.564L280.389 183.118L279.756 182.592L278.863 181.851C278.551 181.575 278.229 181.236 277.89 180.87L277.346 180.308L276.792 179.666C276.596 179.443 276.399 179.211 276.203 178.961C276.203 178.961 276.15 178.89 276.069 178.756C275.945 178.562 275.834 178.36 275.739 178.15L275.543 177.695C275.48 177.525 275.418 177.338 275.355 177.142C275.293 176.946 275.239 176.723 275.194 176.491C275.15 176.259 275.114 176.018 275.105 175.759C275.062 175.205 275.089 174.648 275.186 174.1C275.289 173.484 275.472 172.885 275.73 172.316L275.944 171.87C276.004 171.716 276.082 171.569 276.176 171.433C276.364 171.148 276.533 170.854 276.73 170.541L277.372 169.73C277.596 169.453 277.854 169.23 278.095 168.972C278.336 168.713 278.586 168.472 278.854 168.249L279.648 167.562C280.193 167.134 280.72 166.67 281.264 166.349L281.675 166.073L282.085 165.823C282.353 165.662 282.621 165.502 282.897 165.368C283.155 165.229 283.42 165.104 283.692 164.994C283.939 164.881 284.192 164.783 284.45 164.699C284.69 164.613 284.934 164.541 285.182 164.485C285.4 164.429 285.62 164.387 285.843 164.36C286.209 164.303 286.58 164.282 286.95 164.298C287.273 164.312 287.592 164.375 287.896 164.485C287.594 164.366 287.274 164.297 286.95 164.28C286.582 164.247 286.211 164.247 285.843 164.28C285.629 164.28 285.406 164.342 285.165 164.396C284.924 164.449 284.691 164.521 284.433 164.601C284.174 164.681 283.924 164.779 283.656 164.886C283.388 164.994 283.129 165.118 282.853 165.252C282.572 165.384 282.298 165.53 282.032 165.689L281.612 165.93L281.202 166.207C280.639 166.554 280.104 166.983 279.55 167.402L278.747 168.08C278.473 168.301 278.214 168.539 277.97 168.793C277.72 169.052 277.444 169.275 277.221 169.551L276.551 170.363C276.346 170.648 276.167 170.943 275.971 171.255C275.876 171.397 275.792 171.546 275.721 171.701L275.498 172.156C275.223 172.741 275.022 173.358 274.9 173.993C274.795 174.564 274.759 175.145 274.793 175.724C274.793 175.991 274.846 176.25 274.873 176.491C274.9 176.731 274.98 176.963 275.025 177.177L275.168 177.615L274.373 176.553C273.597 175.429 272.785 174.189 272.008 172.825C272.008 172.629 272.008 172.299 272.008 171.853C272.023 170.781 272.104 169.712 272.249 168.65C272.329 167.99 272.445 167.286 272.588 166.537C272.731 165.787 272.918 165.011 273.159 164.209C273.392 163.389 273.666 162.583 273.981 161.791C274.141 161.381 274.302 160.971 274.498 160.578C274.695 160.186 274.873 159.776 275.078 159.383C275.284 158.991 275.507 158.607 275.721 158.224C275.935 157.84 276.194 157.474 276.426 157.109C276.658 156.743 276.926 156.395 277.194 156.056C277.462 155.717 277.712 155.387 277.997 155.084C278.522 154.48 279.079 153.906 279.666 153.363L280.505 152.631L281.335 151.998C281.585 151.784 281.871 151.623 282.112 151.445C282.353 151.267 282.603 151.106 282.835 150.972C283.308 150.705 283.728 150.446 284.058 150.276L285.147 149.723L284.049 150.259C283.692 150.428 283.29 150.678 282.817 150.945C282.576 151.07 282.344 151.249 282.094 151.409C281.819 151.575 281.554 151.757 281.3 151.953L280.461 152.578L279.568 153.3C278.967 153.834 278.398 154.403 277.863 155.004C277.578 155.307 277.319 155.646 277.042 155.976C276.765 156.306 276.524 156.672 276.257 157.02C275.989 157.367 275.766 157.76 275.534 158.134C275.302 158.509 275.07 158.893 274.864 159.294C274.659 159.695 274.454 160.088 274.266 160.489C274.079 160.891 273.9 161.301 273.731 161.702C273.392 162.498 273.094 163.311 272.838 164.137C272.588 164.94 272.401 165.734 272.231 166.483C272.062 167.232 271.945 167.946 271.856 168.615C271.68 169.796 271.581 170.988 271.562 172.183C270.857 170.898 270.169 169.507 269.509 168.089L269.277 167.562C269.17 166.724 268.955 164.886 268.786 162.541C268.482 158.456 268.443 154.357 268.67 150.268C268.732 149.153 268.83 148.038 268.955 146.941C269.08 145.843 269.223 144.782 269.384 143.747C269.482 143.23 269.571 142.722 269.661 142.231C269.75 141.741 269.875 141.25 269.973 140.786C270.071 140.322 270.214 139.894 270.321 139.43L270.687 138.173C270.955 137.379 271.196 136.648 271.455 136.023C271.713 135.399 271.963 134.855 272.16 134.409C272.356 133.963 272.57 133.633 272.686 133.401L272.874 133.044L272.74 133.454Z" fill="#0ECCC6"/>
<path d="M274.4 183.333C274.508 183.386 274.641 183.484 274.838 183.574C275.068 183.688 275.307 183.783 275.552 183.859C275.699 183.915 275.852 183.957 276.007 183.984C276.177 184.03 276.35 184.063 276.525 184.082C276.915 184.14 277.309 184.161 277.703 184.144C277.917 184.158 278.132 184.158 278.346 184.144C278.569 184.144 278.792 184.091 279.015 184.055C279.476 183.97 279.932 183.859 280.381 183.725C280.845 183.582 281.273 183.422 281.755 183.235C283.406 182.541 284.979 181.677 286.45 180.657C287.227 180.122 287.816 179.676 288.128 179.417C288.003 178.704 287.887 177.954 287.807 177.178C287.672 175.743 287.654 174.299 287.753 172.861C287.753 172.344 287.852 171.827 287.914 171.3C287.396 171.3 286.691 171.3 285.843 171.3C284.995 171.3 283.897 171.211 282.773 171.095C281.604 170.981 280.442 170.806 279.292 170.569C278.703 170.444 278.114 170.301 277.551 170.141C276.994 169.976 276.446 169.782 275.909 169.561L275.525 169.392L275.15 169.213C274.909 169.097 274.677 168.955 274.454 168.83C274.231 168.705 274.035 168.535 273.829 168.402C273.624 168.268 273.463 168.098 273.294 167.947C273.124 167.795 272.99 167.635 272.856 167.474C272.722 167.313 272.615 167.153 272.517 167.001L272.276 166.546C272.217 166.413 272.166 166.276 272.124 166.136C272.053 165.949 272.002 165.754 271.973 165.556V165.342V165.547C272.013 165.745 272.07 165.939 272.142 166.127C272.196 166.252 272.24 166.386 272.312 166.529L272.562 166.966L272.919 167.412C273.053 167.563 273.204 167.706 273.365 167.866C273.526 168.027 273.713 168.152 273.91 168.286C274.106 168.419 274.311 168.562 274.534 168.678C274.757 168.794 274.99 168.928 275.231 169.026L275.605 169.195L275.989 169.338C276.524 169.538 277.069 169.708 277.623 169.847C278.185 169.989 278.765 170.105 279.345 170.203C280.492 170.394 281.648 170.522 282.809 170.587C283.915 170.658 284.951 170.676 285.843 170.676C286.736 170.676 287.477 170.676 287.994 170.623C288.102 169.867 288.235 169.109 288.396 168.348C288.708 166.823 289.083 165.289 289.44 163.763C289.797 162.238 290.137 160.722 290.413 159.215C290.413 159.036 290.476 158.849 290.503 158.67L290.056 158.617C289.762 158.563 289.431 158.528 289.074 158.448L288.521 158.332L287.932 158.18C287.521 158.091 287.102 157.939 286.664 157.814C286.227 157.689 285.772 157.502 285.352 157.315C284.933 157.127 284.46 156.949 284.049 156.708L283.407 156.369L282.791 155.995C282.594 155.861 282.389 155.745 282.202 155.611L281.648 155.192C281.47 155.058 281.282 154.933 281.122 154.791L280.648 154.362L280.202 153.961L279.818 153.542C279.577 153.274 279.345 153.033 279.167 152.81L278.712 152.204L278.319 151.669L278.738 152.186L279.211 152.766C279.408 152.98 279.649 153.203 279.899 153.462L280.3 153.854L280.765 154.229L281.247 154.63C281.416 154.764 281.604 154.88 281.782 155.005L282.344 155.388C282.541 155.513 282.746 155.611 282.951 155.727L283.567 156.075L284.21 156.369C284.629 156.583 285.102 156.735 285.513 156.904C285.924 157.074 286.406 157.199 286.816 157.324C287.227 157.449 287.655 157.556 288.057 157.627L288.637 157.743L289.182 157.823C289.53 157.886 289.86 157.903 290.137 157.948H290.627C290.797 156.86 290.94 155.781 291.047 154.728C291.118 154.006 291.181 153.292 291.217 152.587C291.252 151.883 291.297 151.205 291.315 150.536C291.333 149.867 291.315 149.207 291.315 148.583C291.315 147.958 291.315 147.343 291.315 146.754V145.862L291.261 145.042C291.261 144.515 291.261 144.007 291.181 143.525C291.083 142.58 291.038 141.741 290.967 141.064C290.824 139.699 290.744 138.914 290.744 138.914C290.744 138.914 290.904 139.681 291.181 141.028C291.315 141.706 291.449 142.535 291.6 143.481C291.672 143.953 291.725 144.462 291.797 144.997L291.904 145.818C291.904 146.103 291.949 146.388 291.975 146.71C292.091 147.887 292.172 149.171 292.189 150.527C292.189 151.205 292.189 151.91 292.189 152.623C292.189 153.337 292.127 154.068 292.082 154.808C291.957 156.289 291.806 157.823 291.529 159.357C291.368 160.249 291.181 161.23 290.976 162.167C291.35 161.953 291.868 161.659 292.422 161.275C292.975 160.891 293.787 160.383 294.537 159.812L295.117 159.384L295.688 158.929C296.081 158.626 296.456 158.287 296.84 157.957C297.224 157.627 297.563 157.261 297.929 156.922C298.295 156.583 298.589 156.2 298.911 155.852C299.232 155.504 299.5 155.129 299.759 154.782L300.437 153.765C300.606 153.435 300.776 153.132 300.919 152.873C301.042 152.638 301.146 152.393 301.231 152.141L301.481 151.49L301.258 152.15C301.183 152.406 301.091 152.657 300.981 152.9L300.535 153.845L299.901 154.898C299.651 155.263 299.375 155.629 299.098 156.021C298.821 156.414 298.482 156.771 298.143 157.145C297.804 157.52 297.465 157.895 297.09 158.242C296.715 158.59 296.358 158.956 295.974 159.277L295.421 159.777L294.849 160.24C294.109 160.847 293.394 161.373 292.77 161.819C291.815 162.479 291.074 162.943 290.77 163.121C290.708 163.407 290.645 163.692 290.574 164.013C290.279 165.262 289.967 166.502 289.681 167.733C290.211 167.475 290.757 167.251 291.315 167.064C292.224 166.755 293.151 166.498 294.091 166.297C294.599 166.19 295.126 166.091 295.671 165.993C296.215 165.895 296.759 165.824 297.313 165.753C298.42 165.61 299.526 165.521 300.553 165.405C301.493 165.337 302.422 165.157 303.32 164.87C303.952 164.659 304.518 164.287 304.962 163.79C305.091 163.652 305.207 163.503 305.31 163.344L305.417 163.184L305.31 163.353C305.215 163.512 305.107 163.665 304.989 163.808C304.8 164.035 304.588 164.241 304.355 164.424C304.048 164.651 303.712 164.837 303.356 164.977C302.459 165.302 301.527 165.521 300.58 165.628C299.553 165.788 298.455 165.922 297.366 166.109C296.822 166.199 296.286 166.297 295.751 166.413C295.215 166.529 294.698 166.644 294.198 166.778C293.289 167.026 292.395 167.324 291.52 167.67C290.904 167.903 290.307 168.184 289.735 168.509L289.44 168.696C289.123 170.117 288.887 171.556 288.735 173.004C288.682 173.566 288.655 174.119 288.628 174.672H288.744C288.894 174.641 289.046 174.62 289.199 174.61C289.538 174.606 289.876 174.636 290.208 174.699C291.872 175.1 293.506 175.616 295.099 176.242C295.992 176.554 296.84 176.848 297.67 177.089C298.089 177.205 298.491 177.303 298.875 177.392C299.259 177.482 299.634 177.526 299.973 177.562C300.27 177.59 300.568 177.59 300.865 177.562C301.107 177.545 301.346 177.503 301.579 177.437L301.829 177.339L301.999 177.241L302.142 177.16L302.008 177.25C301.953 177.288 301.897 177.324 301.838 177.357L301.588 177.464C301.358 177.548 301.118 177.605 300.874 177.633C300.557 177.661 300.237 177.661 299.919 177.633C299.571 177.633 299.196 177.571 298.803 177.517C298.411 177.464 297.991 177.366 297.572 177.268C296.724 177.071 295.787 176.813 294.939 176.554C293.346 176.015 291.718 175.589 290.065 175.278C289.769 175.242 289.469 175.242 289.173 175.278C288.985 175.287 288.801 175.338 288.637 175.43L288.566 175.475C288.566 176.046 288.566 176.607 288.566 177.16C288.566 177.713 288.655 178.472 288.753 179.087C288.753 179.399 288.816 179.703 288.869 179.979C288.923 180.256 288.967 180.568 289.021 180.871C289.074 181.174 289.164 181.638 289.244 182.004C289.342 182.2 289.458 182.441 289.61 182.717C290.121 183.65 290.757 184.509 291.502 185.268C291.902 185.674 292.352 186.028 292.841 186.321C293.271 186.571 293.734 186.76 294.216 186.883C294.41 186.925 294.607 186.958 294.805 186.981C294.959 186.989 295.114 186.989 295.269 186.981H294.93C294.729 186.965 294.529 186.938 294.332 186.9C293.834 186.803 293.356 186.629 292.912 186.383C292.401 186.105 291.927 185.764 291.502 185.366C290.774 184.691 290.14 183.92 289.619 183.074C289.69 183.377 289.771 183.663 289.842 183.966C289.913 184.269 289.958 184.412 290.012 184.635C290.065 184.858 290.137 185.054 290.199 185.25L290.467 186.312L291.136 188.363L290.904 187.846C290.761 187.507 290.52 187.025 290.253 186.383C289.985 185.741 289.664 184.974 289.36 184.064C289.008 183.043 288.71 182.004 288.467 180.951C288.378 180.586 288.289 180.193 288.218 179.801C287.869 180.059 287.325 180.452 286.629 180.898C285.121 181.897 283.511 182.734 281.827 183.395C281.371 183.565 280.934 183.716 280.434 183.85C279.976 183.975 279.511 184.076 279.042 184.153L278.364 184.234H277.712C277.314 184.237 276.917 184.207 276.525 184.144C276.349 184.121 276.176 184.083 276.007 184.028C275.851 183.999 275.699 183.954 275.552 183.895C275.307 183.81 275.069 183.708 274.838 183.591C274.65 183.493 274.508 183.386 274.409 183.333L274.258 183.244L274.4 183.333Z" fill="#60DCE2"/>
<path d="M289.816 185.67C289.816 185.67 285.862 176.358 296.001 164.433C299.139 160.748 303.055 157.804 307.468 155.811C311.88 153.819 316.679 152.828 321.52 152.909C321.52 152.909 315.888 160.615 313.576 168.571C308.551 185.839 294.796 192.627 289.816 185.67Z" fill="#60DCE2"/>
<path d="M290.181 183.886C290.279 183.512 290.395 183.066 290.547 182.575V182.352C290.476 181.87 290.422 181.398 290.395 180.925C290.369 180.452 290.395 179.979 290.395 179.507C290.395 179.034 290.449 178.561 290.511 178.088C290.566 177.621 290.646 177.156 290.752 176.697C290.752 177.643 290.815 178.57 290.886 179.498C290.886 179.953 290.967 180.39 291.029 180.871C291.029 180.978 291.029 181.085 291.074 181.192C291.279 180.613 291.511 179.997 291.788 179.346C291.975 178.891 292.198 178.454 292.413 177.928C292.627 177.402 292.895 176.947 293.162 176.447C293.591 175.609 294.055 174.762 294.608 173.905V173.78C294.608 173.629 294.608 173.468 294.555 173.317C294.555 173.004 294.555 172.692 294.555 172.38V171.925C294.555 171.765 294.555 171.613 294.555 171.461C294.555 171.149 294.626 170.846 294.662 170.569C294.763 169.975 294.888 169.38 295.037 168.786C295.108 168.491 295.197 168.197 295.296 167.894C295.378 167.591 295.476 167.294 295.59 167.002C295.367 168.181 295.209 169.372 295.117 170.569C295.117 170.864 295.117 171.167 295.117 171.461C295.117 171.613 295.117 171.756 295.117 171.907V172.344L295.171 173.022C295.804 172.068 296.456 171.096 297.197 170.168C297.938 169.24 298.857 168.117 299.741 167.127C300.169 166.663 300.633 166.235 301.053 165.762V165.717C301.053 165.548 301.142 165.378 301.187 165.209C301.231 165.039 301.303 164.888 301.356 164.727C301.41 164.567 301.472 164.397 301.535 164.246C301.794 163.612 302.088 163.006 302.427 162.408C302.767 161.811 303.079 161.231 303.445 160.669C303.811 160.107 304.177 159.545 304.578 159.001C304.275 159.607 303.989 160.205 303.686 160.785C303.382 161.365 303.115 161.998 302.856 162.569C302.597 163.14 302.338 163.791 302.133 164.415C302.133 164.531 302.052 164.647 302.017 164.772L302.543 164.263C303.025 163.826 303.507 163.371 303.989 162.97C304.471 162.569 304.971 162.158 305.453 161.766L306.917 160.66C307.399 160.303 307.881 159.973 308.354 159.652C308.827 159.331 309.247 159.028 309.738 158.76C310.228 158.493 310.63 158.198 311.059 157.948C311.951 157.449 312.701 156.994 313.415 156.637C314.129 156.28 314.754 155.933 315.28 155.745L316.932 154.996L315.307 155.986C314.807 156.272 314.227 156.664 313.522 157.092C312.817 157.52 312.103 158.038 311.282 158.582C310.871 158.849 310.469 159.161 310.041 159.474C309.613 159.786 309.148 160.089 308.72 160.446L307.426 161.463L306.033 162.604L304.632 163.835L303.231 165.129L302.597 165.753L304.382 165.476L305.944 165.191C306.462 165.093 306.979 165.004 307.497 164.888L309.041 164.54L309.8 164.344C310.059 164.281 310.309 164.201 310.568 164.13C310.826 164.058 311.067 163.987 311.317 163.898C311.567 163.808 311.817 163.737 312.067 163.639L312.799 163.345L313.513 162.988L312.862 163.461L312.165 163.862C311.933 163.987 311.683 164.094 311.442 164.219C311.201 164.344 310.951 164.424 310.702 164.531C310.202 164.736 309.693 164.906 309.184 165.066L308.417 165.307C308.167 165.387 307.899 165.441 307.64 165.512C307.122 165.655 306.605 165.771 306.087 165.887C305.569 166.003 305.034 166.101 304.507 166.199C303.614 166.368 302.722 166.493 301.776 166.609C301.365 167.037 300.955 167.501 300.553 167.903C299.66 168.866 298.821 169.847 298.036 170.855C297.25 171.863 296.483 172.88 295.787 173.879L295.671 174.057L295.912 174.137C296.17 174.209 296.438 174.271 296.706 174.324C296.974 174.378 297.25 174.414 297.518 174.449L298.348 174.53H299.178H300.008C300.285 174.53 300.562 174.53 300.839 174.485C301.115 174.44 301.401 174.485 301.678 174.405L302.508 174.298L303.338 174.164L304.168 174.003L304.998 173.825C305.266 173.771 305.542 173.682 305.81 173.62L306.64 173.415L308.274 172.942C307.765 173.192 307.247 173.424 306.721 173.656C306.194 173.887 305.658 174.066 305.114 174.253C304.57 174.44 304.016 174.601 303.454 174.726L302.615 174.922L301.767 175.065C301.481 175.109 301.196 175.154 300.874 175.172C300.553 175.19 300.303 175.243 299.982 175.252H299.089H298.197L297.304 175.163C297.009 175.118 296.724 175.083 296.411 175.011C296.099 174.94 295.84 174.877 295.519 174.797L295.081 174.646C294.591 175.386 294.126 176.108 293.707 176.831C293.145 177.794 292.627 178.722 292.19 179.605C291.752 180.488 291.386 181.246 291.074 181.968C291.35 181.968 291.636 182.067 291.922 182.102L293.055 182.254C293.43 182.307 293.805 182.352 294.189 182.388L295.322 182.504C295.706 182.504 296.081 182.566 296.465 182.584H297.036H297.607H298.179H298.759C299.143 182.584 299.526 182.584 299.919 182.584C299.544 182.673 299.161 182.78 298.777 182.834C298.393 182.887 298.009 182.959 297.625 182.994C297.241 183.03 296.849 183.057 296.456 183.066C296.063 183.074 295.679 183.066 295.287 183.066H294.707H294.126C293.734 183.066 293.35 183.003 292.966 182.959C292.582 182.914 292.19 182.86 291.806 182.798L290.788 182.611C290.583 183.092 290.413 183.503 290.27 183.913C290.074 184.448 289.931 184.876 289.833 185.171L289.699 185.625C289.827 185.037 289.988 184.456 290.181 183.886Z" fill="#0ECCC6"/>
<path d="M436.519 102.871C436.519 102.871 423.933 105.591 415.713 110.105L407.68 97.7691C407.68 97.7691 416.695 89.0905 425.246 87.7793L436.519 102.871Z" fill="#FFE668"/>
<path d="M360.981 119.121C360.981 119.121 440.42 128.932 468.358 139.636L467.197 146.504C467.197 146.504 401.78 129.717 360.195 126.613L360.981 119.121Z" fill="#60DCE2"/>
<path d="M359.142 135.766L353.242 171.693C353.242 171.693 377.092 174.298 386.428 177.339L392.783 141.777C392.783 141.777 373.031 136.488 359.142 135.766Z" fill="#6E80DB"/>
<path d="M399.762 145.719L399.164 151.177C399.164 151.177 440.267 157.644 450.657 162.666L451.112 157.055C451.112 157.055 413.847 146.174 399.762 145.719Z" fill="#60DCE2"/>
<path d="M398.264 159.295C398.264 159.295 431.486 164.709 442.143 168.535L441.67 172.799C441.67 172.799 408.314 164.95 397.791 163.594L398.264 159.295Z" fill="#60DCE2"/>
<path d="M397.202 168.938L396.604 174.289C396.604 174.289 439.01 181.96 447.944 185.742L448.355 181.996C448.355 181.996 406.35 169.553 397.202 168.938Z" fill="#60DCE2"/>
<path d="M352.055 182.156C352.055 182.156 398.549 188.141 427.486 197.159L426.96 201.966C426.96 201.966 363.703 189.212 351.43 187.856L352.055 182.156Z" fill="#60DCE2"/>
<path d="M349.654 195.57C349.654 195.57 420.98 205.649 450.069 216.709L449.426 222.534C449.426 222.534 383.643 205.801 348.904 202.42L349.654 195.57Z" fill="#60DCE2"/>
<path d="M347.538 210.59C347.538 210.59 418.864 220.669 447.944 231.729L447.301 237.553C447.301 237.553 381.509 220.82 346.779 217.44L347.538 210.59Z" fill="#60DCE2"/>
<path d="M343.29 226.047C343.29 226.047 414.616 236.117 443.705 247.186L443.062 253.001C443.062 253.001 377.279 236.26 342.531 232.897L343.29 226.047Z" fill="#60DCE2"/>
<path d="M341.29 244.102C341.29 244.102 412.616 254.181 441.705 265.25L441.062 271.065C441.062 271.065 375.261 254.332 340.531 250.961L341.29 244.102Z" fill="#60DCE2"/>
<path d="M339.602 259.451C339.602 259.451 410.928 269.53 440.008 280.59L439.366 286.406C439.366 286.406 373.583 269.682 338.844 266.301L339.602 259.451Z" fill="#60DCE2"/>
<path d="M275.4 188.88H258.771C258.227 188.875 257.698 188.7 257.258 188.381C256.818 188.061 256.489 187.612 256.316 187.096L255.138 183.35C254.984 182.871 254.684 182.451 254.278 182.152C253.873 181.853 253.384 181.688 252.88 181.682H231.94C231.464 181.669 231.001 181.832 230.638 182.14C230.276 182.448 230.04 182.879 229.976 183.35L229.468 187.096C229.393 187.602 229.136 188.063 228.745 188.392C228.353 188.721 227.854 188.894 227.343 188.88H146.413C145.235 188.851 144.064 189.073 142.978 189.532C141.893 189.991 140.917 190.676 140.118 191.541C139.318 192.406 138.712 193.432 138.34 194.549C137.968 195.667 137.839 196.851 137.961 198.023L148.547 315.857C148.821 318.348 149.999 320.652 151.857 322.335C153.715 324.018 156.125 324.962 158.633 324.991H287.574C288.752 325.021 289.923 324.8 291.009 324.343C292.094 323.885 293.07 323.201 293.87 322.336C294.67 321.472 295.276 320.447 295.648 319.329C296.02 318.212 296.149 317.028 296.027 315.857L285.486 198.023C285.209 195.532 284.032 193.228 282.174 191.544C280.317 189.86 277.907 188.913 275.4 188.88Z" fill="#6E80DB"/>
<path d="M379.634 174.716C378.545 173.44 374.582 174.627 374.582 174.627C373.768 175.042 373.05 175.623 372.475 176.333C371.9 177.043 371.481 177.865 371.244 178.748L377.974 180.531L379.634 174.716Z" fill="#F9AF92"/>
<path d="M339.228 164.904C344.503 167.428 359.998 188.095 359.998 188.095L356.642 194.338L338.041 179.086L339.228 164.904Z" fill="#6E80DB"/>
<path d="M317.494 324.992V323.208C317.494 321.201 319.369 317.553 319.369 316.215C319.369 314.877 324.554 317.303 324.554 317.303C324.686 318.768 325.316 320.144 326.34 321.201C326.797 321.705 327.145 322.298 327.361 322.942C327.578 323.587 327.659 324.27 327.598 324.947L317.494 324.992Z" fill="#3E2D51"/>
<path d="M352.866 324.991L351.974 324.572L351.554 324.991H348.135C347.796 324.01 346.636 320.273 347.68 317.677C348.894 314.672 352.643 315.474 352.643 315.474C352.643 315.474 355.187 319.042 356.66 319.657C358.132 320.273 363.756 322.565 364.425 324.037C364.63 324.483 364.291 324.777 364.425 324.991H352.866Z" fill="#3E2D51"/>
<path d="M341.344 212.918C343.29 241.059 348.592 277.941 354.349 316.731C354.349 316.731 353.216 318.569 346.816 317.623L327.108 235.252C327.059 235.133 326.971 235.034 326.858 234.972C326.746 234.909 326.615 234.886 326.488 234.907C326.361 234.927 326.245 234.99 326.158 235.085C326.071 235.181 326.019 235.302 326.01 235.431C325.787 241.674 323.796 260.637 324.867 317.891C323.786 318.422 322.596 318.698 321.391 318.698C320.185 318.698 318.996 318.422 317.914 317.891C317.914 317.891 305.204 233.201 308.096 216.994L341.344 212.918Z" fill="#4677BC"/>
<path d="M307.73 222.551C307.73 222.551 313.085 228.215 328.893 225.718C337.819 224.3 341.916 219.929 341.916 219.929C341.916 219.929 344.799 171.095 341.63 166.983C339.327 163.995 334.802 162.711 328.893 162.399C326.661 162.283 324.243 162.301 321.672 162.399C319.859 162.493 318.062 162.792 316.317 163.291C309.703 165.137 305.07 169.463 304.374 172.861C303.446 177.125 307.73 222.551 307.73 222.551Z" fill="#6E80DB"/>
<path d="M305.686 170.015C309.89 168.936 312.291 182.137 313.318 189.21C314.344 196.283 315.379 201.644 315.379 201.644C315.379 201.644 316.834 206.692 312.175 206.291C307.516 205.889 304.508 200.787 302.839 189.21C300.563 173.432 305.686 170.015 305.686 170.015Z" fill="#6E80DB"/>
<path d="M335.364 151.16C335.364 151.329 335.275 151.508 335.23 151.668C335.15 151.971 335.07 152.266 334.972 152.56L334.757 153.211C334.173 155.106 333.251 156.88 332.035 158.447C329.107 161.676 318.941 158.92 320.432 149.26C321.922 139.6 328.045 138.94 334.507 143.284C336.284 144.443 336.212 147.824 335.364 151.16Z" fill="#F8C6A3"/>
<path d="M328.25 148.923C328.187 149.458 328.384 149.931 328.678 149.957C328.973 149.984 329.276 149.583 329.339 149.065C329.401 148.548 329.205 148.057 328.901 148.022C328.598 147.986 328.312 148.379 328.25 148.923Z" fill="#231B30"/>
<path d="M333.141 149.893C333.078 150.437 333.274 150.901 333.569 150.937C333.864 150.972 334.167 150.562 334.229 150.045C334.292 149.527 334.096 149.046 333.801 149.01C333.506 148.974 333.203 149.358 333.141 149.893Z" fill="#231B30"/>
<path d="M332.142 150.635C332.142 150.635 333.035 152.829 334.043 152.615C335.052 152.401 334.043 154.613 331.473 153.507C331.332 153.011 331.32 152.487 331.437 151.985C331.554 151.482 331.797 151.018 332.142 150.635Z" fill="#F09988"/>
<path d="M325.956 150.367C325.888 150.599 325.912 150.848 326.023 151.063C326.135 151.277 326.325 151.44 326.554 151.518C326.654 151.591 326.769 151.641 326.891 151.665C327.013 151.688 327.138 151.683 327.258 151.651C327.378 151.62 327.489 151.562 327.583 151.481C327.678 151.401 327.753 151.3 327.804 151.187C327.854 151.074 327.879 150.951 327.875 150.827C327.872 150.703 327.841 150.582 327.784 150.472C327.728 150.361 327.647 150.265 327.549 150.19C327.45 150.115 327.336 150.063 327.214 150.037C327.003 149.919 326.753 149.887 326.519 149.949C326.284 150.01 326.082 150.16 325.956 150.367Z" fill="#F6B190"/>
<path d="M335.363 151.16C335.363 151.33 335.273 151.508 335.229 151.669C335.148 151.972 335.068 152.266 334.97 152.561C334.878 152.574 334.785 152.574 334.693 152.561C334.571 152.589 334.444 152.59 334.322 152.563C334.2 152.536 334.085 152.482 333.987 152.404C333.889 152.326 333.809 152.227 333.755 152.115C333.7 152.002 333.672 151.879 333.672 151.753C333.672 151.628 333.7 151.505 333.755 151.392C333.809 151.279 333.889 151.18 333.987 151.103C334.085 151.025 334.2 150.971 334.322 150.944C334.444 150.916 334.571 150.917 334.693 150.946C334.932 150.951 335.165 151.025 335.363 151.16Z" fill="#F6B190"/>
<path d="M327.955 146.174C327.917 146.173 327.88 146.163 327.848 146.144C327.815 146.126 327.787 146.099 327.768 146.067C327.753 146.043 327.743 146.016 327.739 145.988C327.735 145.96 327.736 145.932 327.742 145.905C327.749 145.877 327.761 145.852 327.778 145.829C327.794 145.806 327.815 145.787 327.839 145.772C328.495 145.426 329.258 145.343 329.972 145.54C330 145.548 330.026 145.561 330.048 145.578C330.071 145.596 330.09 145.618 330.104 145.643C330.118 145.668 330.127 145.695 330.13 145.723C330.134 145.752 330.132 145.78 330.124 145.808C330.116 145.835 330.103 145.861 330.086 145.884C330.068 145.906 330.046 145.925 330.022 145.939C329.997 145.953 329.969 145.962 329.941 145.966C329.913 145.969 329.884 145.967 329.856 145.96C329.259 145.802 328.625 145.865 328.071 146.138C328.038 146.163 327.997 146.176 327.955 146.174Z" fill="#3E2D51"/>
<path d="M335.096 147.717C335.056 147.718 335.016 147.708 334.981 147.688C334.946 147.667 334.918 147.637 334.9 147.601C334.821 147.422 334.698 147.265 334.542 147.146C334.385 147.028 334.201 146.951 334.007 146.923C333.95 146.921 333.895 146.897 333.855 146.855C333.815 146.813 333.793 146.758 333.793 146.7C333.793 146.672 333.798 146.644 333.809 146.618C333.82 146.592 333.836 146.569 333.856 146.549C333.876 146.529 333.899 146.513 333.925 146.503C333.951 146.492 333.979 146.486 334.007 146.486C334.286 146.506 334.555 146.599 334.787 146.756C335.019 146.912 335.205 147.127 335.328 147.378C335.342 147.403 335.351 147.431 335.354 147.459C335.357 147.488 335.354 147.517 335.346 147.544C335.338 147.572 335.324 147.597 335.305 147.619C335.287 147.641 335.264 147.659 335.239 147.673C335.197 147.702 335.147 147.718 335.096 147.717Z" fill="#3E2D51"/>
<path d="M331.525 155.094C331.525 155.094 328.41 155.05 328.133 155.335C327.856 155.621 328.544 156.227 329.829 156.281C330.2 156.283 330.563 156.171 330.866 155.958C331.17 155.746 331.4 155.444 331.525 155.094Z" fill="#231B30"/>
<path d="M333.31 138.708C331.948 138.2 330.506 137.934 329.052 137.924C324.036 137.781 319.403 138.254 319.002 145.568C318.547 153.987 321.198 155.129 321.198 155.129C319.993 149.777 322.536 149.492 322.536 149.492C324.911 148.77 325.214 142.981 325.214 142.981C325.214 142.981 330.57 146.085 335.622 144.667C340.674 143.248 336.951 139.476 333.31 138.708Z" fill="#3E2D51"/>
<path d="M322.492 149.484C322.492 149.484 321.386 147.299 319.69 148.066C317.994 148.833 319.6 152.739 321.171 152.98C322.742 153.221 322.492 149.484 322.492 149.484Z" fill="#F8C6A3"/>
<path d="M328.597 159.723C328.597 159.723 327.526 161.453 328.472 165.717C328.472 165.717 323.179 168.812 319.645 164.977C319.645 164.977 321.189 156.396 320.287 154.425C320.279 153.855 320.434 153.295 320.733 152.811C320.733 152.811 323.661 158.572 328.597 159.723Z" fill="#F9AF92"/>
<path d="M320.289 160.57C320.289 160.57 320.985 164.299 326.385 165.628C327.387 164.389 327.971 162.865 328.054 161.275C328.054 161.275 328.947 161.65 330.089 164.111C330.767 165.694 330.962 167.44 330.651 169.133C329.487 167.944 328.072 167.03 326.51 166.457C326.51 166.457 324.519 167.973 324.127 169.588C324.127 169.588 318.138 167.028 317.191 163.995C317.443 163.242 317.848 162.548 318.381 161.959C318.914 161.369 319.564 160.897 320.289 160.57Z" fill="#6E80DB"/>
<path d="M326.17 166.289C326.17 166.289 328.919 179.463 329.303 185.626C328.962 179.039 328.067 172.493 326.625 166.057L326.17 166.289Z" fill="white"/>
<path d="M332.186 176.669C332.186 176.669 336.39 176.901 339.049 175.84C339.049 175.84 339.897 182.538 339.755 183.395C339.612 184.251 334.301 185.054 333.64 184.625C332.98 184.197 332.998 179.648 332.186 176.669Z" fill="#6E80DB" fill-opacity="0.2"/>
<path d="M332.31 178.552C331.221 177.276 327.258 178.463 327.258 178.463C326.444 178.875 325.726 179.455 325.151 180.163C324.575 180.872 324.156 181.693 323.92 182.575L330.65 184.358L332.31 178.552Z" fill="#F9AF92"/>
<path d="M146.932 198.229L155.438 319.051L292.439 321.424L287.896 191.932L146.932 198.229Z" fill="#EBA22F"/>
<path d="M158.695 313.093V201.939L300.82 198.604L287.744 317.071L158.695 313.093Z" fill="#FFD249"/>
<path d="M251.765 289.42L247.623 182.485C319.815 182.922 391.81 174.172 391.81 174.172C391.81 174.172 396.273 261.689 400.566 282.766C400.575 282.766 283.522 294.352 251.765 289.42Z" fill="#FFE668"/>
<path d="M158.59 324.991H287.576C292.69 324.991 298.144 321.423 299.75 317.106L337.301 215.425C338.908 211.072 336.06 207.549 330.946 207.549H201.96C196.845 207.549 191.392 211.072 189.785 215.425L152.234 317.106C150.628 321.459 153.466 324.991 158.59 324.991Z" fill="#6E80DB"/>
<path d="M374.584 174.352C374.937 174.238 375.322 174.267 375.655 174.432C375.635 174.358 375.632 174.28 375.649 174.205C375.665 174.13 375.699 174.059 375.748 174C375.797 173.941 375.859 173.894 375.93 173.863C376.001 173.833 376.078 173.82 376.155 173.826C376.533 173.818 376.9 173.955 377.181 174.209C377.206 174.097 377.273 173.998 377.368 173.933C378.011 173.442 378.6 173.808 379.011 174.37C379.118 174.138 379.502 174.058 379.761 174.084C380.359 174.156 380.555 174.682 380.769 175.155C380.838 175.268 380.874 175.397 380.874 175.529C380.874 175.661 380.838 175.791 380.769 175.904C380.725 175.96 380.669 176.005 380.604 176.036C380.54 176.067 380.47 176.083 380.399 176.083C380.328 176.083 380.257 176.067 380.193 176.036C380.129 176.005 380.073 175.96 380.028 175.904C379.894 175.752 379.662 175.262 379.573 175.199L379.395 175.083C379.477 175.268 379.546 175.459 379.6 175.654C379.761 176.314 379.743 176.662 379.323 176.733C379.073 176.733 378.779 176.733 378.547 176.136C378.415 175.849 378.254 175.577 378.065 175.324L377.993 175.244L378.216 175.61C378.216 175.61 378.457 176.769 378.216 177.081C378.118 177.224 377.574 177.411 377.217 176.733C377.047 176.421 377.047 175.842 376.869 175.565C376.629 175.349 376.369 175.158 376.092 174.994C376.092 174.994 376.458 176.207 376.467 176.412C376.512 177.09 376.422 177.429 376.003 177.429C375.744 177.429 375.476 177.286 375.342 176.698C375.075 175.458 374.45 175.708 374.182 175.262C374.166 175.089 374.195 174.914 374.265 174.755C374.335 174.596 374.445 174.457 374.584 174.352Z" fill="#F8C6A3"/>
<path d="M330.078 179.908C329.82 179.681 329.539 179.48 329.239 179.31C329.239 179.31 329.65 180.603 329.668 180.826C329.73 181.549 329.668 181.914 329.195 181.923C328.918 181.923 328.632 181.789 328.472 181.156C328.318 180.683 328.118 180.225 327.874 179.792C327.874 179.792 327.874 180.559 327.874 180.835C327.891 180.977 327.87 181.121 327.812 181.251C327.754 181.382 327.661 181.494 327.544 181.575C327.475 181.607 327.4 181.623 327.325 181.623C327.25 181.623 327.175 181.606 327.107 181.575C327.038 181.544 326.977 181.498 326.928 181.441C326.878 181.384 326.842 181.318 326.821 181.245C326.767 181.031 326.758 180.443 326.696 180.353C326.633 180.264 326.196 179.515 326.517 179.283C326.838 179.051 327.356 179.283 327.356 179.283C327.315 179.231 327.287 179.169 327.273 179.104C327.259 179.039 327.261 178.972 327.277 178.907C327.294 178.843 327.324 178.783 327.367 178.732C327.411 178.681 327.465 178.641 327.526 178.614C327.712 178.547 327.91 178.518 328.108 178.529C328.306 178.54 328.499 178.59 328.677 178.677C328.661 178.601 328.663 178.522 328.681 178.447C328.699 178.371 328.733 178.301 328.782 178.24C328.831 178.18 328.892 178.131 328.962 178.097C329.032 178.063 329.108 178.044 329.186 178.043C329.607 178.052 330.016 178.182 330.364 178.418C330.364 178.418 330.248 178.043 330.784 177.838C330.975 177.763 331.181 177.733 331.385 177.751C331.59 177.77 331.788 177.836 331.962 177.945C332.475 178.343 332.845 178.897 333.015 179.524C333.104 180.027 333.088 180.543 332.97 181.04C332.97 181.299 332.024 181.192 331.774 180.148C331.738 179.849 331.627 179.563 331.451 179.318C331.274 179.073 331.039 178.877 330.766 178.748L331.462 179.872C331.462 179.872 331.748 181.103 331.516 181.451C331.417 181.602 330.837 181.816 330.436 181.094C330.293 180.817 330.275 180.157 330.078 179.908Z" fill="#F8C6A3"/>
<path d="M473.561 165.797C475.034 171.942 476.471 174.261 480.898 176.661C480.898 176.661 477.989 189.041 481.148 194.607C484.308 200.172 493.082 201.76 493.082 201.76C493.082 201.76 497.25 183.44 488.53 173.967C488.53 173.967 495.108 165.627 492.323 158.804C489.538 151.981 469.268 147.806 473.561 165.797Z" fill="#624889"/>
<path d="M472.803 175.163C466.171 174.788 450.614 196.775 450.614 196.775L430.316 207.576L433.548 208.522C433.548 208.522 452.131 202.082 454.594 200.94C457.058 199.798 471.661 184.261 471.661 184.261L472.803 175.163Z" fill="#D45232"/>
<path d="M445.016 324.341C445.527 323.798 445.976 323.199 446.355 322.557C446.701 322.053 447.184 321.658 447.747 321.42C448.31 321.181 448.93 321.108 449.533 321.21C450.184 321.781 450.282 324.35 450.3 324.956H451.13C451.416 324.234 452.398 320.916 452.103 319.667C451.853 318.668 451.104 316.358 450.782 315.252C450.688 314.963 450.629 314.663 450.604 314.36C451.496 310.578 454.611 297.672 460.012 287.272C464.296 279.003 465.679 275.676 466.527 268.309C467.375 260.942 474.132 242.389 474.132 242.389C474.132 242.389 464.626 216.639 460.717 232.694C456.807 248.749 456.254 268.371 455.629 272.278C455.004 276.185 449.095 303.683 445.596 315.198C444.936 317.402 441.687 321.772 440.428 322.789C439.816 322.973 439.245 323.276 438.75 323.681C438.522 323.876 438.321 324.101 438.152 324.35L445.016 324.341Z" fill="#F9AF92"/>
<path d="M445.016 324.991C445.704 324.991 447.051 323.546 447.989 322.815C448.367 322.448 448.857 322.219 449.381 322.164C450.033 322.726 450.274 324.385 450.274 324.991H451.131C451.416 324.269 452.398 320.951 452.103 319.702C451.631 318.314 451.296 316.883 451.104 315.429C448.56 313.985 446.382 318.872 443.071 321.628C441.428 323.011 440.393 322.77 440.393 322.77C439.699 322.905 439.022 323.117 438.376 323.403C437.683 323.73 437.128 324.289 436.805 324.982L445.016 324.991Z" fill="#624889"/>
<path d="M463.751 211.82L461.171 229.811C461.171 229.811 454.281 256.159 450.041 296.849C450.041 296.849 451.558 298.803 455.611 297.545C455.611 297.545 465.973 280.107 467.75 266.96C469.526 253.813 478.113 243.458 478.113 236.634C478.113 229.811 463.751 211.82 463.751 211.82Z" fill="#4677BC"/>
<path d="M490.493 237.84C491.537 254.162 488.44 258.212 487.235 264.928C486.342 270.012 488.913 277.371 486.342 285.55C484.557 291 480.737 314.092 480.737 314.092V323.672H474.248C474.248 323.672 476.792 313.057 476.792 309.07C476.792 291.865 479.166 271.341 478.809 263.537C478.47 255.911 475.908 240.881 475.908 240.881L490.493 237.84Z" fill="#F8C6A3"/>
<path d="M481.763 324.992C481.785 323.355 481.722 321.717 481.575 320.086C481.403 318.387 481.105 316.702 480.683 315.047C480.419 316.909 479.982 318.742 479.38 320.523C479.049 321.826 476.541 321.505 476.041 320.523C475.542 319.542 476.041 315.047 476.041 315.047C474.881 316.831 475.229 319.435 474.256 320.318C473.542 320.943 473.471 323.77 473.489 324.992H481.763Z" fill="#624889"/>
<path d="M463.751 211.82C463.751 211.82 462.939 229.561 474.319 243.716C474.319 243.716 473.819 293.495 476.854 301.835C476.854 301.835 480.674 303.325 482.95 302.058C482.95 302.058 490.983 279.091 489.243 256.854C489.243 256.854 498.936 231.443 482.459 212.685L463.751 211.82Z" fill="#5A9BDB"/>
<path d="M472.801 175.163C475.546 175.112 478.29 175.219 481.022 175.484C486.779 175.921 491.099 174.868 494.063 178.597C498.526 184.198 491.269 194.509 487.466 199.861C486.056 201.85 483.057 207.38 482.459 212.687C482.459 212.687 472.418 215.603 463.715 211.795L463.072 199.477C463.072 199.477 457.378 185.991 472.801 175.163Z" fill="#EF744B"/>
<path d="M430.244 210.118H430.066C429.021 210.003 425.067 212.892 424.46 212.357C424.432 212.33 424.41 212.296 424.396 212.259C424.382 212.222 424.377 212.183 424.38 212.143C424.38 210.877 427.531 207.969 430.315 207.594C433.1 207.22 433.547 208.54 433.547 208.54C434.082 209.664 431.494 210.172 430.244 210.118Z" fill="#F8C6A3"/>
<path d="M431.709 208.958C431.195 209.311 430.706 209.699 430.245 210.117H430.066C429.022 210.001 425.068 212.891 424.461 212.356C425.898 211.669 426.719 210.09 427.531 209.359C428.674 208.333 431.709 208.958 431.709 208.958Z" fill="#F9AF92"/>
<path d="M487.789 176.5C487.789 176.5 477.354 192.787 477.908 216.861C478.461 240.934 493.465 249.461 493.465 249.461C494.651 237.84 492.889 226.107 488.342 215.345C488.342 215.345 496.875 188.051 495.358 181.04C493.84 174.03 487.789 176.5 487.789 176.5Z" fill="#4677BC"/>
<path d="M476.22 175.1C476.22 175.1 463.894 185.018 464.84 197.148C465.786 209.279 459.342 237.518 459.342 237.518C459.342 237.518 463.894 206.817 462.02 198.094C460.145 189.371 463.349 179.711 472.829 175.162L476.22 175.1Z" fill="#4677BC"/>
<path d="M487.861 152.141C487.861 152.141 476.775 148.431 474.543 156.235C472.312 164.04 474.543 171.978 480.533 171.978C486.174 171.987 496.465 156.53 487.861 152.141Z" fill="#F8C6A3"/>
<path d="M480.496 161.051C480.496 161.55 480.183 161.943 479.862 161.943C479.541 161.943 479.318 161.497 479.353 160.997C479.389 160.498 479.666 160.105 479.987 160.105C480.308 160.105 480.532 160.551 480.496 161.051Z" fill="#231B30"/>
<path d="M482.281 163.121C482.276 163.375 482.171 163.618 481.99 163.797C481.808 163.975 481.563 164.075 481.308 164.075C481.138 164.059 480.977 163.995 480.843 163.891C480.708 163.787 480.607 163.646 480.55 163.486C480.493 163.325 480.483 163.152 480.521 162.987C480.559 162.821 480.644 162.669 480.765 162.55C480.887 162.431 481.04 162.349 481.206 162.314C481.373 162.279 481.546 162.292 481.705 162.352C481.864 162.412 482.003 162.516 482.105 162.652C482.207 162.789 482.268 162.951 482.281 163.121Z" fill="#F6B190"/>
<path d="M480.8 160.927C480.8 160.927 480.532 159.776 480.131 159.749C479.729 159.722 479.033 160.49 479.033 160.49L478.283 159.937L479.006 160.222C479.006 160.222 479.631 159.33 480.202 159.526C480.773 159.722 480.8 160.927 480.8 160.927Z" fill="#231B30"/>
<path d="M475.865 160.338C475.865 160.838 475.552 161.23 475.231 161.23C474.909 161.23 474.686 160.793 474.713 160.285C474.74 159.776 475.034 159.393 475.347 159.393C475.659 159.393 475.9 159.839 475.865 160.338Z" fill="#231B30"/>
<path d="M476.167 160.205C476.167 160.205 475.9 159.055 475.489 159.028C475.079 159.001 474.4 159.768 474.4 159.768L473.65 159.224L474.373 159.51C474.373 159.51 474.998 158.618 475.56 158.805C476.123 158.992 476.167 160.205 476.167 160.205Z" fill="#231B30"/>
<path d="M481.416 158.314C481.38 158.312 481.344 158.301 481.313 158.282C481.282 158.264 481.256 158.238 481.237 158.207C481.084 157.992 480.877 157.821 480.638 157.71C480.399 157.599 480.135 157.552 479.872 157.574C479.839 157.583 479.805 157.584 479.772 157.579C479.738 157.573 479.707 157.56 479.679 157.541C479.651 157.522 479.628 157.497 479.61 157.468C479.593 157.439 479.583 157.406 479.579 157.373C479.576 157.339 479.58 157.305 479.591 157.273C479.602 157.241 479.62 157.212 479.644 157.188C479.668 157.164 479.696 157.145 479.728 157.133C479.76 157.121 479.793 157.116 479.827 157.119C480.172 157.089 480.519 157.15 480.833 157.298C481.146 157.445 481.415 157.672 481.612 157.957C481.646 158.008 481.659 158.07 481.647 158.131C481.636 158.191 481.601 158.244 481.55 158.278C481.509 158.301 481.463 158.313 481.416 158.314Z" fill="#624889"/>
<path d="M476.311 157.127C476.261 157.126 476.213 157.107 476.177 157.073C475.965 156.918 475.717 156.819 475.456 156.786C475.195 156.753 474.93 156.788 474.686 156.886C474.659 156.899 474.629 156.907 474.598 156.908C474.568 156.909 474.538 156.904 474.509 156.893C474.481 156.882 474.455 156.866 474.433 156.845C474.411 156.823 474.394 156.798 474.383 156.77C474.358 156.714 474.357 156.651 474.379 156.595C474.4 156.538 474.443 156.492 474.499 156.467C474.821 156.331 475.173 156.284 475.52 156.329C475.867 156.375 476.195 156.511 476.471 156.725C476.493 156.746 476.51 156.771 476.522 156.799C476.533 156.826 476.539 156.856 476.539 156.886C476.539 156.916 476.533 156.945 476.522 156.973C476.51 157.001 476.493 157.026 476.471 157.046C476.453 157.072 476.428 157.092 476.401 157.106C476.373 157.12 476.342 157.127 476.311 157.127Z" fill="#624889"/>
<path d="M476.123 161.766C476.123 161.766 474.142 161.766 474.338 162.479C474.653 163.106 475.108 163.653 475.668 164.076C475.668 164.076 476.578 162.631 476.123 161.766Z" fill="#F09988"/>
<path d="M475.561 165.932C476.582 166.193 477.568 166.576 478.497 167.073C478.756 167.296 479.283 168.34 477.417 167.903C476.929 167.835 476.479 167.603 476.141 167.244C475.803 166.886 475.599 166.423 475.561 165.932Z" fill="#231B30"/>
<path d="M483.441 156.146C485.011 158.306 485.854 160.907 485.851 163.576C485.851 163.576 487.708 161.293 488.681 163.273C489.654 165.253 485.762 168.143 485.762 168.143C485.762 168.143 485.646 170.043 487.342 169.731C490.127 169.222 493.786 163.665 492.769 160.392C491.751 157.119 488.618 153.854 483.441 156.146Z" fill="#624889"/>
<path d="M485.629 166.395C484.737 168.687 481.515 172.638 478.06 171.514C478.06 171.514 478.355 174.743 476.918 175.974C476.918 175.974 477.739 180.434 485.897 176.545C485.42 175.11 485.247 173.591 485.389 172.085C485.621 168.669 486.861 167.224 486.861 167.224C485.942 167.822 485.629 166.395 485.629 166.395Z" fill="#F9AF92"/>
<path d="M477.908 152.669C477.908 152.669 481.255 159.429 487.325 163.095C493.395 166.761 487.075 175.583 487.075 175.583C487.075 175.583 491.877 172.104 492.957 166.61C494.037 161.115 496.304 158.011 492.636 151.634C490.806 148.441 484.683 147.174 481.264 147.665C477.846 148.155 477.15 150.341 477.15 150.341C473.008 150.599 470.196 157.36 473.579 165.762C472.949 163.396 473.022 160.896 473.791 158.571C474.56 156.245 475.991 154.194 477.908 152.669Z" fill="#624889"/>
<path d="M341.664 261.45C345.271 268.48 350.883 274.283 357.79 278.125C364.698 281.967 372.59 283.675 380.47 283.033C388.349 282.392 395.861 279.429 402.055 274.521C408.249 269.612 412.847 262.977 415.267 255.457C417.687 247.936 417.82 239.867 415.65 232.271C413.48 224.675 409.103 217.892 403.075 212.782C397.046 207.671 389.637 204.463 381.783 203.561C373.929 202.66 365.984 204.107 358.953 207.719C349.535 212.558 342.424 220.935 339.182 231.009C335.94 241.084 336.833 252.033 341.664 261.45ZM408.027 227.387C411.16 233.478 412.414 240.361 411.632 247.165C410.85 253.969 408.066 260.388 403.632 265.611C399.199 270.834 393.315 274.625 386.725 276.506C380.135 278.387 373.135 278.273 366.61 276.178C360.085 274.084 354.328 270.102 350.067 264.737C345.807 259.373 343.234 252.866 342.674 246.04C342.115 239.215 343.593 232.376 346.923 226.39C350.253 220.404 355.284 215.539 361.381 212.411C369.554 208.217 379.06 207.439 387.807 210.247C396.555 213.055 403.828 219.221 408.027 227.387Z" fill="#3E2D51"/>
<path opacity="0.25" d="M411.673 254.117C417.713 235.091 407.175 214.775 388.135 208.74C369.095 202.704 348.765 213.235 342.725 232.261C336.685 251.287 347.224 271.604 366.263 277.639C385.303 283.674 405.634 273.143 411.673 254.117Z" fill="white"/>
<path d="M411.759 232.291L483.745 195.338C485.176 194.603 486.255 193.331 486.747 191.8C487.239 190.27 487.103 188.607 486.369 187.177C485.633 185.746 484.359 184.665 482.826 184.171C481.293 183.678 479.627 183.813 478.193 184.546L406.207 221.499L411.759 232.291ZM483.263 188.791C483.515 189.281 483.616 189.834 483.553 190.381C483.49 190.928 483.266 191.444 482.91 191.864C482.553 192.283 482.08 192.588 481.551 192.739C481.021 192.89 480.458 192.881 479.934 192.712C479.41 192.544 478.947 192.224 478.605 191.793C478.262 191.362 478.056 190.839 478.011 190.29C477.966 189.741 478.085 189.192 478.352 188.711C478.62 188.23 479.024 187.839 479.514 187.587C479.839 187.419 480.195 187.317 480.559 187.287C480.924 187.256 481.291 187.298 481.64 187.41C481.988 187.522 482.311 187.702 482.589 187.939C482.868 188.176 483.097 188.466 483.263 188.791Z" fill="#3E2D51"/>
<path opacity="0.25" d="M392.774 221.49C396.505 219.581 402.022 222.89 405.11 228.884C408.198 234.878 407.663 241.3 403.941 243.217C400.219 245.135 394.685 241.817 391.596 235.823C388.508 229.829 389.044 223.407 392.774 221.49Z" fill="white"/>
<path d="M493.288 177.883C489.342 177.276 488.486 205.676 488.486 205.676C488.486 205.676 470.152 204.293 461.806 205.426C461.352 205.712 460.976 206.107 460.712 206.573C460.447 207.04 460.302 207.565 460.289 208.102C460.289 208.102 489.878 214.417 492.529 213.15C495.18 211.883 497.34 187.123 496.992 183.966C496.644 180.808 494.93 178.132 493.288 177.883Z" fill="#D45232"/>
<path d="M461.841 205.426C461.841 205.426 458.619 205.114 457.003 206.06C455.388 207.005 455.772 207.478 454.727 208.905C454.727 208.905 455.2 209.28 455.772 208.521C456.282 208.007 456.947 207.675 457.664 207.576C457.664 207.576 456.905 209.19 453.781 210.707C453.781 210.707 453.871 211.367 454.826 210.983C455.781 210.6 457.289 210.894 458.521 210.894C459.753 210.894 461.93 208.334 461.93 208.334C461.93 208.334 460.574 206.827 461.841 205.426Z" fill="#F9AF92"/>
<path d="M440.554 254.671C442.34 248.731 441.777 239.82 439.501 229.581C437.225 219.341 439.501 218.637 439.501 218.637L434.574 221.366C434.574 221.366 436.315 240.159 436.109 245.957C436.07 247.664 436.455 249.354 437.231 250.875C438.007 252.396 439.149 253.701 440.554 254.671Z" fill="#F9AF92"/>
<path d="M417.213 227.003C417.213 227.003 424.541 224.158 428.022 227.003C431.503 229.848 437.207 245.493 440 248.811C442.794 252.129 440 255.688 440 255.688C440 255.688 435.448 257.24 429.289 245.707C423.131 234.174 422.559 235.699 422.559 235.699L417.213 227.003Z" fill="#F8C6A3"/>
<path d="M432.869 324.34C432.262 324.246 431.68 324.034 431.155 323.716C431.155 323.716 431.262 324.18 431.253 324.18C426.898 323.386 416.972 324.367 414.071 324.26L412.027 319.943C412.027 319.943 418.275 320.407 419.061 320.148C420.114 319.791 420.917 318.177 421.471 317.365C422.167 316.348 425.166 314.93 425.862 314.689L426.389 315.269C425.969 315.671 424.193 317.392 424.211 318.213C424.523 318.708 424.97 319.103 425.5 319.352C426.03 319.6 426.621 319.691 427.201 319.613C427.895 319.482 428.602 319.428 429.308 319.452L433.77 324.367C433.47 324.397 433.167 324.388 432.869 324.34Z" fill="#F8C6A3"/>
<path d="M429.771 319.006C429.334 318.515 427.442 318.48 426.308 318.283C425.806 318.243 425.331 318.043 424.952 317.713C424.952 316.883 425.969 315.643 426.389 315.242L425.862 314.662C425.166 314.93 422.167 316.348 421.47 317.338C420.713 318.202 419.909 319.024 419.061 319.8C419.659 322.538 424.55 321.94 428.602 322.476C430.646 322.761 430.914 323.367 430.914 323.367C430.914 323.367 431.021 324.054 431.039 324.063C431.191 324.108 431.985 324.331 432.904 324.67C433.581 324.952 434.336 324.99 435.038 324.777L429.771 319.006Z" fill="#624889"/>
<path d="M421.988 268.246C421.988 268.246 433.154 282.321 427.522 291.187C425.612 294.193 420.765 295.905 420.765 295.905C411.447 305.351 391.31 315.573 391.31 315.573C396.166 314.45 401.241 314.722 405.948 316.358C411.134 318.142 416.775 319.827 416.775 319.827L417.579 324.367C417.579 324.367 384.402 324.465 379.314 322.173C374.226 319.881 391.81 295.37 398.058 290.286C404.306 285.202 408.769 267.033 408.769 267.033L421.988 268.246Z" fill="#6E80DB"/>
<path d="M365.507 323.725C365.978 323.336 366.525 323.047 367.113 322.878C368.327 321.906 371.433 317.713 372.067 315.608C372.183 315.243 372.29 314.859 372.406 314.467H376.94C376.94 314.601 376.878 314.725 376.851 314.85C376.865 315.154 376.922 315.455 377.021 315.742C377.333 316.804 378.047 319.016 378.288 319.979C378.574 321.165 377.628 324.35 377.351 325.045H376.574C376.574 324.465 376.458 321.995 375.843 321.477C375.264 321.378 374.669 321.445 374.128 321.673C373.587 321.901 373.123 322.279 372.79 322.762C372.431 323.371 371.999 323.934 371.505 324.439H364.891C365.067 324.178 365.274 323.938 365.507 323.725Z" fill="#F8C6A3"/>
<path d="M371.539 324.991C372.208 324.991 373.493 323.609 374.395 322.904C374.761 322.557 375.231 322.337 375.734 322.28C376.35 322.815 376.626 324.412 376.626 324.956H377.403C377.679 324.26 378.626 321.076 378.34 319.89C377.888 318.559 377.566 317.188 377.376 315.796C374.939 314.404 372.851 319.096 369.718 321.727C368.138 323.056 367.165 322.824 367.165 322.824C366.498 322.945 365.847 323.145 365.228 323.422C364.566 323.736 364.035 324.272 363.729 324.938L371.539 324.991Z" fill="#624889"/>
<path d="M418.104 268.996C418.104 268.996 427.03 288.226 416.426 295.37C406.412 302.104 376.457 279.137 376.457 279.137C376.457 279.137 379.054 284.828 377.912 293.56C376.823 301.917 377.537 305.476 378.394 314.449H371.039C371.569 305.561 370.945 296.642 369.182 287.914C366.273 274.303 363.372 265.009 369.182 264.384C374.993 263.76 403.77 274.258 403.77 274.258L404.073 267.417L418.104 268.996Z" fill="#6E80DB"/>
<path d="M415.275 210.288C415.275 210.288 404.654 206.72 402.512 214.203C400.369 221.687 402.512 229.491 408.26 229.304C415.311 229.063 423.532 214.489 415.275 210.288Z" fill="#F8C6A3"/>
<path d="M407.242 229.125C407.242 229.125 411.598 230.749 410.223 231.935C410.257 232.474 410.406 233 410.66 233.477C410.914 233.954 411.267 234.371 411.696 234.7C416.114 237.706 421.39 232.782 421.39 232.782C418.654 230.748 416.647 227.886 415.668 224.621C414.776 225.183 411.973 224.148 407.242 229.125Z" fill="#F9AF92"/>
<path d="M411.009 231.274C413.361 231.488 415.725 231.56 418.087 231.488C420.639 231.149 425.477 229.285 428.307 232.862C432.564 238.214 429.958 246.535 427.584 252.36C425.441 257.622 422.558 263.161 421.987 268.245C421.987 268.245 412.356 271.046 404.055 267.416L403.439 255.615C403.439 255.615 396.236 241.656 411.009 231.274Z" fill="#4677BC"/>
<path d="M440.062 217.7C440.111 217.452 440.147 217.202 440.169 216.951C440.202 216.526 440.385 216.128 440.686 215.827C440.686 215.827 440.178 215.256 439.419 216.647C438.937 217.539 439.232 218.039 437.205 218.547C436.877 218.61 436.569 218.751 436.307 218.957C436.044 219.163 435.835 219.43 435.697 219.734C435.344 219.824 435.035 220.039 434.829 220.339C434.622 220.639 434.531 221.004 434.572 221.366L435.947 223.034C436.278 222.348 436.55 221.634 436.759 220.902C437.545 220.822 438.384 221.187 438.598 220.902C439.498 219.688 440.508 218.559 441.615 217.531L442.507 216.558L440.062 217.7Z" fill="#F9AF92"/>
<path d="M411.009 231.275C407.45 233.34 404.634 236.474 402.959 240.23C401.285 243.987 400.838 248.175 401.682 252.2C401.682 252.2 410.161 282.446 414.267 286.799C414.267 286.799 425.156 281.384 433.618 283.142C433.618 283.142 427.138 268.523 424.46 267.425C424.46 267.425 426.522 266.097 425.96 265.838C425.397 265.579 424.38 262.208 424.38 262.208C424.38 262.208 432.716 241.746 431.708 237.84C430.699 233.933 425.763 227.957 425.763 227.957L411.009 231.275Z" fill="#624889"/>
<path d="M401.708 207.505C395.755 211.073 397.504 226.031 403.77 223.034C403.77 223.034 403.199 220.465 404.716 220.652C406.234 220.84 407.144 226.102 406.207 226.004C406.207 226.004 406.403 242.166 417.177 246.786C427.95 251.406 435.43 241.684 431.708 234.299C427.986 226.914 426.656 224.068 424.38 216.817C422.104 209.565 416.498 198.657 401.708 207.505Z" fill="#D45232"/>
<path d="M406.206 235.645C409.777 236.108 409.286 244.386 406.206 250.808C403.127 257.23 401.244 267.094 398.048 270.894C394.853 274.694 373.797 245.875 373.797 245.875L376.475 243.199C376.475 243.199 391.648 257.791 394.683 259.495C396.056 256.414 397.19 253.232 398.075 249.978C402.243 235.645 406.206 235.645 406.206 235.645Z" fill="#F8C6A3"/>
<path d="M377.761 244.457C377.777 243.193 377.59 241.934 377.208 240.729C376.645 239.418 376.164 236.831 375.601 236.653C375.039 236.474 375.316 238.187 375.601 239.329C375.601 239.329 371.236 234.494 370.29 233.932C369.344 233.37 369.719 234.12 370.29 235.163C370.862 236.207 372.183 238.285 372.183 238.285C371.896 238.526 371.641 238.801 371.424 239.106C370.853 239.801 371.236 240.47 370.576 241.318C369.915 242.165 370.478 243.316 370.29 244.074C370.103 244.832 374.334 247.41 375.396 248.016C376.458 248.623 377.761 244.457 377.761 244.457Z" fill="#F8C6A3"/>
<path d="M174.727 117.633C174.727 117.633 186.027 110.649 203.387 110.961L215.366 125.545C215.366 125.545 198.505 126.57 190.373 133.572L174.727 117.633Z" fill="#FFD249"/>
<path d="M252.532 60.1815L248.247 61.6889C248.11 61.735 247.962 61.7337 247.826 61.6851C247.69 61.6366 247.574 61.5437 247.497 61.4213L246.935 60.5294C246.865 60.4146 246.758 60.3272 246.631 60.2817C246.504 60.2363 246.366 60.2355 246.239 60.2796L240.883 62.1706C240.758 62.2157 240.65 62.3018 240.579 62.415C240.508 62.5282 240.477 62.662 240.491 62.7949L240.616 63.8474C240.636 63.9916 240.605 64.1382 240.528 64.262C240.452 64.3857 240.334 64.4789 240.196 64.5253L219.363 71.8303C219.05 71.9404 218.762 72.1109 218.515 72.3323C218.268 72.5537 218.067 72.8216 217.924 73.1206C217.78 73.4196 217.697 73.7439 217.679 74.075C217.662 74.4061 217.709 74.7375 217.819 75.0502L225.192 96.0644C225.415 96.6963 225.879 97.2143 226.482 97.5052C227.086 97.796 227.781 97.836 228.414 97.6164L261.618 85.9765C261.931 85.8665 262.219 85.6959 262.466 85.4745C262.713 85.2531 262.914 84.9853 263.058 84.6863C263.201 84.3872 263.284 84.0629 263.302 83.7318C263.32 83.4007 263.272 83.0693 263.162 82.7566L255.79 61.7424C255.68 61.4246 255.509 61.1316 255.286 60.8806C255.062 60.6296 254.791 60.4255 254.488 60.2802C254.184 60.135 253.855 60.0514 253.52 60.0345C253.184 60.0175 252.848 60.0675 252.532 60.1815Z" fill="#6E80DB" fill-opacity="0.5"/>
<path d="M258.139 68.0408C258.139 68.0408 261.129 61.2977 273.544 59.4336C282.327 58.1046 275.669 61.8061 270.804 63.2333C270.804 63.2333 277.141 64.1876 276.079 66.0518C275.017 67.916 268.501 65.9091 268.501 65.9091C268.501 65.9091 274.08 68.8882 271.411 70.458C268.742 72.0278 266.636 67.8446 266.636 67.8446C266.636 67.8446 268.519 73.8206 266.047 74.6947C263.574 75.5688 264.056 70.235 264.056 70.235C264.056 70.235 263.539 77.0405 260.932 76.4786C258.326 75.9167 256.309 70.5829 258.139 68.0408Z" fill="#FFE668"/>
<path d="M257.441 61.8941L224.247 73.4894C223.616 73.6983 223.075 74.1145 222.712 74.6701C222.349 75.2258 222.185 75.888 222.247 76.5487L225.639 96.1715C225.697 96.4642 225.821 96.7399 226.002 96.9775C226.183 97.2151 226.416 97.4083 226.682 97.5425C226.949 97.6766 227.243 97.7482 227.542 97.7518C227.841 97.7553 228.136 97.6907 228.406 97.5629L261.61 85.923C262.24 85.7142 262.781 85.2979 263.144 84.7423C263.507 84.1866 263.671 83.5244 263.609 82.8637L260.217 63.2409C260.152 62.9518 260.023 62.681 259.839 62.4487C259.655 62.2164 259.421 62.0286 259.154 61.8991C258.887 61.7697 258.595 61.702 258.298 61.7012C258.002 61.7003 257.709 61.7663 257.441 61.8941Z" fill="#6E80DB"/>
<path d="M186.865 99.1875C186.865 99.1875 203.396 101.212 215.365 99.1875L219.953 117.633C219.953 117.633 205.261 124.421 194.318 122.396L186.865 99.1875Z" fill="#FFE668"/>
<path d="M295.1 63.3926C295.1 63.3926 308.229 64.9981 317.735 63.3926L321.306 78.065C321.306 78.065 309.64 83.4167 300.946 81.8558L295.1 63.3926Z" fill="#FFD249"/>
<path d="M156.16 145.541C156.16 145.541 168.862 143.453 177.296 139.359L184.687 152.087C184.687 152.087 175.252 160.311 166.693 161.185L156.16 145.541Z" fill="#FFE668"/>
<path d="M396.291 58.1942L392.962 57.7839C392.855 57.7708 392.756 57.7224 392.68 57.6465C392.604 57.5705 392.555 57.4714 392.542 57.3647L392.471 56.5798C392.461 56.4804 392.418 56.3873 392.348 56.3159C392.279 56.2445 392.186 56.1991 392.087 56.1874L387.892 55.67C387.794 55.6581 387.694 55.6798 387.61 55.7317C387.526 55.7835 387.462 55.8624 387.428 55.9555L387.16 56.6958C387.126 56.7976 387.057 56.8844 386.966 56.9413C386.875 56.9983 386.767 57.0218 386.66 57.008L370.442 55.01C370.198 54.9801 369.95 54.9986 369.713 55.0644C369.475 55.1302 369.253 55.2421 369.059 55.3937C368.866 55.5453 368.703 55.7336 368.582 55.9478C368.461 56.162 368.383 56.398 368.354 56.6423L366.336 73.0362C366.276 73.528 366.413 74.0239 366.717 74.4151C367.022 74.8063 367.469 75.0609 367.961 75.1233L393.846 78.3076C394.338 78.3681 394.834 78.2313 395.225 77.927C395.617 77.6228 395.872 77.1759 395.934 76.6842L397.951 60.3171C397.988 60.0679 397.973 59.814 397.908 59.5707C397.844 59.3273 397.73 59.0996 397.575 58.9012C397.42 58.7028 397.226 58.5379 397.006 58.4164C396.785 58.2949 396.542 58.2193 396.291 58.1942Z" fill="#6E80DB" fill-opacity="0.5"/>
<path d="M398.969 60.9411L373.084 57.7569C372.596 57.6861 372.098 57.7836 371.673 58.0333C371.248 58.283 370.921 58.67 370.745 59.1305L366.55 73.2588C366.499 73.4688 366.496 73.6874 366.541 73.8987C366.586 74.11 366.678 74.3085 366.81 74.4796C366.942 74.6508 367.111 74.7902 367.303 74.8877C367.496 74.9851 367.709 75.0381 367.925 75.0427L393.809 78.2269C394.297 78.2944 394.793 78.1955 395.218 77.9463C395.642 77.697 395.97 77.3119 396.148 76.8534L400.352 62.725C400.401 62.5144 400.403 62.2956 400.357 62.0844C400.31 61.8731 400.218 61.6749 400.085 61.504C399.953 61.3331 399.784 61.1939 399.59 61.0965C399.397 60.9991 399.185 60.9461 398.969 60.9411Z" fill="#6E80DB"/>
<path d="M314.139 71.4919C314.139 71.4919 323.109 65.944 336.899 66.1937L346.414 77.789C346.414 77.789 333.026 78.6096 326.59 84.1842L314.139 71.4919Z" fill="#FFE668"/>
</g>
</g>
<defs>
<clipPath id="clip0_2428_6496">
<rect width="596" height="379" rx="24" fill="white"/>
</clipPath>
<clipPath id="clip1_2428_6496">
<rect width="397" height="270" fill="white" transform="translate(100 55)"/>
</clipPath>
</defs>
</svg>
