<svg width="32" height="37" viewBox="0 0 32 37" fill="none" xmlns="http://www.w3.org/2000/svg">
<path fill-rule="evenodd" clip-rule="evenodd" d="M2.86892 21.1168C2.86911 20.9508 2.84027 20.786 2.78372 20.6299L4.28116 19.1634H7.92218V20.359C7.92218 20.3739 7.92218 20.3881 7.92277 20.4026L5.07908 21.319C4.93656 21.3646 4.81668 21.4626 4.74369 21.5932L2.78231 25.0839C2.74281 25.0806 2.70319 25.0789 2.66356 25.0789C2.34261 25.0789 2.03101 25.187 1.77904 25.3858C1.52706 25.5846 1.34939 25.8624 1.27468 26.1746C1.19997 26.4867 1.23258 26.8149 1.36725 27.1062C1.50192 27.3976 1.7308 27.635 2.01697 27.7804C2.30314 27.9257 2.62992 27.9704 2.94459 27.9072C3.25927 27.844 3.54349 27.6767 3.75143 27.4322C3.95937 27.1878 4.07889 26.8804 4.09071 26.5596C4.10254 26.2389 4.00599 25.9235 3.81662 25.6644L5.66393 22.3741L8.36712 21.503C8.52618 21.6783 8.72016 21.8186 8.9366 21.9146C9.15304 22.0106 9.38716 22.0602 9.62394 22.0604H13.4186V17.0396C13.4186 16.6936 13.4898 16.3513 13.6278 16.0341C13.7658 15.7168 13.9676 15.4313 14.2207 15.1954C14.0164 14.8836 13.9002 14.5224 13.8845 14.15C13.8688 13.7776 13.9542 13.4079 14.1315 13.08C14.3088 12.7522 14.5716 12.4784 14.8919 12.2877C15.2121 12.0971 15.578 11.9966 15.9508 11.997C16.3235 11.9973 16.6892 12.0985 17.0091 12.2898C17.329 12.4811 17.5912 12.7554 17.7679 13.0836C17.9446 13.4118 18.0292 13.7817 18.0127 14.1541C17.9963 14.5265 17.8794 14.8875 17.6745 15.1988C17.9266 15.4346 18.1275 15.7196 18.2648 16.0362C18.4022 16.3529 18.4731 16.6943 18.473 17.0394V21.6253C18.5234 21.6223 18.5741 21.6208 18.6253 21.6207C19.1327 21.6203 19.6284 21.7735 20.047 22.0603H22.2736C22.5162 22.06 22.7559 22.0079 22.9767 21.9072C23.1975 21.8066 23.3941 21.6598 23.5534 21.4768L26.3372 22.3739L28.1846 25.6642C27.9953 25.9234 27.8988 26.2388 27.9106 26.5595C27.9225 26.8802 28.0421 27.1876 28.25 27.432C28.458 27.6764 28.7423 27.8437 29.0569 27.9068C29.3716 27.9699 29.6984 27.9252 29.9845 27.7798C30.2706 27.6344 30.4994 27.3969 30.6341 27.1056C30.7687 26.8143 30.8012 26.4861 30.7264 26.174C30.6517 25.8619 30.474 25.584 30.222 25.3853C29.9699 25.1866 29.6583 25.0785 29.3374 25.0786C29.2973 25.0786 29.2576 25.0804 29.2187 25.0836L27.2575 21.5927C27.1845 21.4621 27.0646 21.364 26.9221 21.3184L23.9751 20.3684V19.1634H27.7194L29.2167 20.6301C29.1056 20.9366 29.1029 21.2718 29.2088 21.5801C29.3147 21.8883 29.5229 22.1511 29.7988 22.3246C30.0748 22.4981 30.4018 22.572 30.7255 22.5339C31.0492 22.4958 31.3501 22.3481 31.5782 22.1152C31.8064 21.8824 31.9479 21.5785 31.9794 21.2541C32.0109 20.9297 31.9304 20.6043 31.7513 20.3319C31.5722 20.0596 31.3052 19.8568 30.9949 19.7572C30.6845 19.6576 30.3494 19.6672 30.0453 19.7844L28.4051 18.1777C28.3494 18.1142 28.2808 18.0634 28.2039 18.0286C28.127 17.9937 28.0435 17.9758 27.9591 17.9759H23.9749V15.8059H29.2607C29.3962 16.1024 29.6291 16.3436 29.9206 16.4894C30.2122 16.6352 30.5448 16.6769 30.8633 16.6076C31.1819 16.5382 31.4671 16.362 31.6716 16.1082C31.8761 15.8543 31.9876 15.5382 31.9876 15.2122C31.9876 14.8862 31.8761 14.57 31.6716 14.3162C31.4671 14.0623 31.1819 13.8861 30.8633 13.8167C30.5448 13.7474 30.2122 13.7891 29.9206 13.9349C29.6291 14.0808 29.3962 14.3219 29.2607 14.6184H23.9749V12.4486H27.9596C28.044 12.4487 28.1275 12.4308 28.2044 12.396C28.2813 12.3612 28.3499 12.3103 28.4056 12.2468L30.0458 10.6401C30.3498 10.7573 30.6848 10.7669 30.995 10.6674C31.3053 10.5678 31.5721 10.3651 31.7511 10.0929C31.9302 9.8207 32.0107 9.49542 31.9793 9.17112C31.9479 8.84682 31.8064 8.54304 31.5785 8.31027C31.3505 8.0775 31.0497 7.92975 30.7261 7.89159C30.4026 7.85343 30.0757 7.92715 29.7998 8.1005C29.5239 8.27385 29.3157 8.5364 29.2097 8.84449C29.1037 9.15258 29.1063 9.48767 29.2172 9.79405L27.7194 11.2611H23.9749V10.1977L26.9449 9.09892C27.0779 9.05038 27.189 8.9557 27.258 8.83211L29.2187 5.34041C29.2579 5.34368 29.2975 5.34533 29.3374 5.34538C29.6584 5.34538 29.9699 5.23727 30.2219 5.03848C30.4739 4.83969 30.6516 4.56183 30.7263 4.24969C30.801 3.93756 30.7684 3.60936 30.6337 3.31803C30.499 3.0267 30.2702 2.78922 29.984 2.64391C29.6978 2.4986 29.371 2.45391 29.0564 2.51707C28.7417 2.58023 28.4575 2.74754 28.2495 2.99202C28.0416 3.23651 27.9221 3.54391 27.9103 3.86464C27.8984 4.18537 27.995 4.50074 28.1843 4.75987L26.3306 8.06157L23.6411 9.05654C23.4832 8.84214 23.2772 8.66779 23.0396 8.5475C22.802 8.42721 22.5396 8.36433 22.2733 8.36393H21.4285V5.48009C21.4285 4.02668 20.8511 2.6328 19.8234 1.60508C18.7957 0.577365 17.4018 0 15.9484 0C14.495 0 13.1011 0.577365 12.0734 1.60508C11.0457 2.6328 10.4683 4.02668 10.4683 5.48009V8.36393H9.62364C9.36371 8.36427 9.10731 8.42418 8.87413 8.53904C8.64095 8.65391 8.43719 8.82068 8.2785 9.02656L5.67009 8.06172L3.81632 4.75987C4.00569 4.50074 4.10224 4.18538 4.09042 3.86465C4.07859 3.54392 3.95908 3.23652 3.75115 2.99204C3.54321 2.74756 3.25899 2.58024 2.94432 2.51708C2.62965 2.45391 2.30288 2.49859 2.01671 2.64389C1.73054 2.7892 1.50165 3.02666 1.36697 3.31798C1.2323 3.60931 1.19967 3.9375 1.27437 4.24964C1.34906 4.56177 1.52672 4.83965 1.77869 5.03844C2.03065 5.23724 2.34224 5.34536 2.66319 5.34538C2.70327 5.34538 2.74285 5.34373 2.78194 5.34041L4.74265 8.83211C4.81162 8.95572 4.92273 9.05041 5.0557 9.09892L7.92196 10.1594V11.2615H4.28116L2.78372 9.79435C2.89456 9.48795 2.89719 9.15284 2.7912 8.84473C2.6852 8.53661 2.47696 8.27405 2.20107 8.10069C1.92518 7.92732 1.59828 7.85359 1.27468 7.89176C0.951091 7.92992 0.650302 8.07767 0.422314 8.31046C0.194326 8.54324 0.0528685 8.84704 0.0214548 9.17136C-0.00995886 9.49568 0.0705631 9.82098 0.249636 10.0932C0.42871 10.3654 0.695549 10.5681 1.0058 10.6677C1.31606 10.7673 1.65104 10.7576 1.95507 10.6404L3.5953 12.2471C3.65096 12.3106 3.71955 12.3615 3.79646 12.3963C3.87338 12.4311 3.95685 12.449 4.04128 12.4489H7.92225V14.6187H2.73993C2.6044 14.3223 2.37153 14.0811 2.08001 13.9353C1.78848 13.7895 1.45584 13.7478 1.13734 13.8171C0.818843 13.8865 0.533656 14.0627 0.32915 14.3165C0.124645 14.5704 0.0131302 14.8865 0.0131302 15.2125C0.0131302 15.5384 0.124645 15.8546 0.32915 16.1084C0.533656 16.3622 0.818843 16.5385 1.13734 16.6078C1.45584 16.6772 1.78848 16.6355 2.08001 16.4897C2.37153 16.3438 2.6044 16.1027 2.73993 15.8062H7.92196V17.9759H4.04098C3.95655 17.9758 3.87308 17.9937 3.79616 18.0286C3.71924 18.0634 3.65066 18.1142 3.595 18.1777L1.95477 19.7844C1.67028 19.6747 1.35814 19.6588 1.06401 19.7392C0.769874 19.8197 0.509197 19.9921 0.320121 20.2313C0.131044 20.4705 0.0234926 20.764 0.0132038 21.0688C0.00291496 21.3735 0.0904289 21.6736 0.26294 21.925C0.435451 22.1764 0.683904 22.366 0.971942 22.4661C1.25998 22.5662 1.57248 22.5714 1.86373 22.4811C2.15497 22.3908 2.40966 22.2096 2.59053 21.9641C2.7714 21.7187 2.86895 21.4217 2.86892 21.1168ZM24.1482 34.3976H14.3007C13.7971 31.8865 11.9958 30.3613 9.88764 25.6476C9.06107 23.7996 10.9638 22.7203 12.2082 24.3078L14.6054 27.3673V17.0396C14.6028 16.862 14.6355 16.6856 14.7016 16.5208C14.7678 16.3559 14.866 16.2059 14.9907 16.0793C15.1153 15.9528 15.2639 15.8523 15.4278 15.7837C15.5916 15.7152 15.7675 15.6798 15.9451 15.6798C16.1227 15.6798 16.2986 15.7152 16.4624 15.7837C16.6262 15.8523 16.7748 15.9528 16.8995 16.0793C17.0241 16.2059 17.1224 16.3559 17.1885 16.5208C17.2547 16.6856 17.2874 16.862 17.2847 17.0396V24.1482C17.29 23.7963 17.4334 23.4607 17.6841 23.2137C17.9347 22.9668 18.2725 22.8283 18.6244 22.8283C18.9763 22.8283 19.314 22.9668 19.5647 23.2137C19.8153 23.4607 19.9588 23.7963 19.964 24.1482V25.3772C19.9614 25.1996 19.9941 25.0233 20.0602 24.8584C20.1264 24.6936 20.2246 24.5435 20.3493 24.417C20.4739 24.2905 20.6225 24.19 20.7864 24.1214C20.9502 24.0528 21.126 24.0175 21.3037 24.0175C21.4813 24.0175 21.6571 24.0528 21.821 24.1214C21.9848 24.19 22.1334 24.2905 22.2581 24.417C22.3827 24.5435 22.481 24.6936 22.5471 24.8584C22.6133 25.0233 22.646 25.1996 22.6433 25.3772V26.5686C22.6407 26.391 22.6734 26.2146 22.7395 26.0498C22.8056 25.8849 22.9039 25.7349 23.0286 25.6084C23.1532 25.4818 23.3018 25.3814 23.4656 25.3128C23.6295 25.2442 23.8053 25.2089 23.983 25.2089C24.1606 25.2089 24.3364 25.2442 24.5003 25.3128C24.6641 25.3814 24.8127 25.4818 24.9374 25.6084C25.062 25.7349 25.1603 25.8849 25.2264 26.0498C25.2926 26.2146 25.3253 26.391 25.3226 26.5686V28.3876C25.3226 29.8117 25.1584 32.4893 24.1471 34.3976H24.1482ZM14.3932 35.5851V36.6641H23.7868V35.5851H14.3932ZM13.073 8.36393V5.48009C13.0769 4.72001 13.3815 3.99238 13.9204 3.45628C14.4592 2.92019 15.1884 2.61924 15.9485 2.61924C16.7085 2.61924 17.4377 2.92019 17.9765 3.45628C18.5154 3.99238 18.82 4.72001 18.8239 5.48009V8.36393H13.073Z" fill="#E9E9EA"/>
</svg>
