<svg width="124" height="22" viewBox="0 0 124 22" fill="none" xmlns="http://www.w3.org/2000/svg">
<path d="M57.1811 7.51667C57.1811 3.48333 54.4369 0.427778 48.7571 0.427778H37.3336V21.5111H42.6943V5.01111H48.7571C50.9907 5.01111 51.8203 6.23333 51.8203 7.63889C51.8203 9.10556 50.9907 10.2667 48.7571 10.2667H43.5878L50.9907 21.5111H57.1172C57.1172 21.5111 52.0756 13.9333 52.1394 13.9333C55.2027 13.2611 57.1811 11.1833 57.1811 7.51667ZM28.3991 0.427778H33.7598V21.5111H28.3991V0.427778ZM11.232 0.427778L0 21.5722H6.06272L7.84963 18.0278H16.9118L14.6782 13.5667H10.1471L13.4656 7.08889H13.5294L21.06 21.5722H27.2504L16.0184 0.427778H11.232ZM76.7732 10.5722C78.4963 9.65555 79.3898 8.25 79.3898 6.11111C79.3898 2.68889 76.7094 0.427778 72.306 0.427778H59.7338V21.5111H72.7527C77.2838 21.5111 80.2832 19.1889 80.2832 15.5833C80.3471 13.1389 78.8792 11.3056 76.7732 10.5722ZM65.0945 4.88889H72.2421C73.3271 4.88889 74.1567 5.68333 74.1567 6.72222C74.1567 7.76111 73.3271 8.55556 72.2421 8.55556H65.0945V4.88889ZM72.4336 17.1111H65.0945V12.8333H72.4336C73.71 12.8333 74.7311 13.75 74.7311 14.9722C74.7311 16.1944 73.71 17.1111 72.4336 17.1111ZM97.2589 12.2222C97.2589 15.4 95.7272 17.1722 92.664 17.1722C89.6645 17.1722 88.1329 15.4 88.1329 12.2222V0.427778H82.6445V11.8556C82.6445 18.3944 86.2183 22 92.7278 22C99.2372 22 102.811 18.3944 102.811 11.8556V0.427778H97.3227V12.2222H97.2589ZM117.106 8.86111C112.001 7.7 110.916 7.57778 110.916 6.17222C110.916 5.07222 112.192 4.58333 114.362 4.58333C117.234 4.58333 120.233 5.25556 121.956 6.29444L123.68 2.01667C121.382 0.794444 118.191 0 114.362 0C108.682 0 105.491 2.68889 105.491 6.35556C105.491 10.2667 107.853 11.8556 113.341 12.9556C117.617 13.8722 118.51 14.4222 118.51 15.5833C118.51 16.8056 117.362 17.3556 115 17.3556C111.618 17.3556 108.618 16.5611 106.193 15.2778L104.534 19.8C107.214 21.1444 111.171 22 115.128 22C120.68 22 123.999 19.5556 123.999 15.4C124.062 12.0389 121.829 9.9 117.106 8.86111Z" fill="white"/>
</svg>
