<svg width="95" height="26" viewBox="0 0 95 26" fill="none" xmlns="http://www.w3.org/2000/svg">
<g clip-path="url(#clip0_2428_8145)">
<path fill-rule="evenodd" clip-rule="evenodd" d="M25.4235 0.923828H27.9785H30.5334H32.8116C34.7705 0.923828 35.2602 0.987387 36.1757 1.41112C36.7506 1.68654 37.6022 2.32213 38.0493 2.80942C38.4965 3.3179 39.05 4.10179 39.263 4.58908C39.5397 5.20349 39.6675 5.9662 39.6675 7.08908C39.6675 8.4662 39.5823 8.88993 39.0713 9.86451L38.4539 11.0509L39.2417 11.8137C39.6888 12.2586 40.3275 13.1484 40.6682 13.8052C41.2218 14.8857 41.2857 15.2035 41.2857 17.1315C41.2857 18.9747 41.2005 19.3772 40.7108 20.4154C40.4127 21.0509 39.8165 21.962 39.3694 22.4493C38.901 23.0001 37.9855 23.6569 37.0912 24.1018L35.5795 24.8645H32.4071C30.6612 24.8645 29.1921 24.8645 29.1495 24.8645H29.043H28.0849C27.5526 24.8645 27.0629 24.8645 27.0203 24.8645C26.9565 24.8645 26.5732 24.8645 26.1687 24.8645H25.4235H25.317C25.2532 24.8645 23.997 24.8645 22.5491 24.8645H19.8877V12.8942V0.923828H22.6556H25.4235ZM24.0395 21.1357C23.7627 21.0298 23.7202 19.9069 23.7202 12.873V4.73739H29.0856C34.8982 4.73739 35.0047 4.75857 35.6008 5.92383C36.0905 6.85603 35.8989 7.89417 35.1324 8.65688L34.4085 9.3984H30.3418H26.2751V11.284V13.1696L30.6186 13.2331L34.9621 13.3179L35.8563 13.9535C37.0274 14.7798 37.5596 15.7543 37.5596 17.195C37.5383 18.4238 37.3467 18.9323 36.5164 19.8433C35.4518 20.9874 35.175 21.0298 29.5753 21.1569C26.701 21.1993 24.2099 21.1993 24.0395 21.1357Z" fill="#005CB3"/>
<path fill-rule="evenodd" clip-rule="evenodd" d="M50.2706 14.7374L50.228 4.63146L45.9059 4.5679L41.605 4.50434V2.70349V0.923828H52.2507H62.8965V2.72468V4.52552H58.5317H54.167V14.695V24.8645H52.2507H50.3345L50.2706 14.7374Z" fill="#005CB3"/>
<path fill-rule="evenodd" clip-rule="evenodd" d="M5.89906 18.8684L-0.190308 12.8939L4.0467 8.74133C6.36747 6.47438 9.13537 3.7837 10.1999 2.76675L12.1375 0.902344L14.8202 0.92353H17.5029L11.4987 6.7498C8.19854 9.94895 5.47323 12.6608 5.43065 12.7668C5.40936 12.8727 7.45334 14.9913 10.0083 17.4913C12.5633 19.9701 15.3099 22.6396 16.0977 23.4235L17.5455 24.8642H14.7776H12.0097L5.89906 18.8684Z" fill="#627588"/>
<path fill-rule="evenodd" clip-rule="evenodd" d="M63.1094 24.6312C63.1094 24.4193 63.8546 22.0676 68.3258 8.55065C69.3052 5.56336 70.2633 2.63963 70.4549 2.02523L70.8169 0.902344H72.0731C72.7544 0.902344 73.3293 0.965903 73.3293 1.05065C73.3293 1.11421 71.9241 5.43624 70.1994 10.6269C68.4961 15.8388 66.7715 21.1566 66.367 22.4701L65.6644 24.8642H64.3869C63.6204 24.8642 63.1094 24.7583 63.1094 24.6312Z" fill="#627588"/>
<path fill-rule="evenodd" clip-rule="evenodd" d="M76.0972 24.7795C76.0972 24.6736 84.0815 16.8346 86.4661 14.5888C87.3178 13.7838 88.0204 13.021 88.0204 12.8727C88.0204 12.7456 87.5094 12.1524 86.892 11.6016C86.2745 11.0295 83.5492 8.4024 80.8026 5.73291L75.8417 0.923584H78.567H81.3136L87.4668 6.89816L93.6201 12.8939L87.5094 18.8685L81.42 24.8643H78.7586C77.2895 24.8643 76.0972 24.8219 76.0972 24.7795Z" fill="#627588"/>
<path fill-rule="evenodd" clip-rule="evenodd" d="M25.4233 24.8645H26.1685C26.5731 24.8645 26.9563 24.8645 27.0202 24.8645C27.0628 24.8645 27.5525 24.8645 28.0848 24.8645H29.0429V24.9704C29.0429 25.0128 28.2125 25.0764 27.2331 25.0764C26.2324 25.0764 25.4233 25.0128 25.4233 24.9704V24.8645Z" fill="#627588"/>
<path fill-rule="evenodd" clip-rule="evenodd" d="M25.4233 0.923778V0.817846C25.4233 0.754287 26.5731 0.711914 27.9783 0.711914C29.3836 0.711914 30.5333 0.754287 30.5333 0.817846V0.923778H27.9783H25.4233Z" fill="#627588"/>
</g>
<defs>
<clipPath id="clip0_2428_8145">
<rect width="95" height="25" fill="white" transform="translate(0 0.5)"/>
</clipPath>
</defs>
</svg>
