<svg width="39" height="38" viewBox="0 0 39 38" fill="none" xmlns="http://www.w3.org/2000/svg">
<path d="M36.5992 24.8746V21.8497C36.5992 21.325 36.1739 20.8996 35.6492 20.8996H30.8995V17.0996H35.6492C36.1739 17.0996 36.5992 16.6743 36.5992 16.1498V13.1248C38.0833 12.6003 38.8608 10.9718 38.3361 9.48796C37.8114 8.00385 36.1832 7.22625 34.6994 7.75106C33.2153 8.2758 32.4377 9.90397 32.9625 11.3879C33.1041 11.7886 33.3335 12.1527 33.6341 12.4532C33.9346 12.7538 34.2986 12.9832 34.6994 13.1248V15.1997H30.8994V12.3498C30.8994 11.8251 30.4741 11.4 29.9494 11.4H27.0996V7.59972C27.0996 3.40256 23.697 0 19.5 0C15.3029 0 11.9004 3.40256 11.9004 7.5998V11.3998H9.05057C8.52585 11.3998 8.10057 11.8251 8.10057 12.3498V15.1998H4.30082V13.1248C5.78459 12.6001 6.56218 10.9719 6.03767 9.48774C5.51295 8.00393 3.88452 7.22632 2.40068 7.75084C0.916605 8.27557 0.139093 9.90375 0.663817 11.3879C0.805547 11.7886 1.03507 12.1525 1.33559 12.4531C1.6361 12.7536 2.00001 12.9831 2.40068 13.1248V16.1496C2.40068 16.6744 2.82595 17.0996 3.35075 17.0996H8.10043V20.8994H3.35082C2.8261 20.8994 2.40082 21.3247 2.40082 21.8494V24.8743C0.916679 25.399 0.139168 27.0275 0.663892 28.5114C1.18862 29.9955 2.81682 30.773 4.30089 30.2483C5.78466 29.7236 6.56225 28.0953 6.03775 26.6112C5.89602 26.2105 5.6665 25.8466 5.36598 25.5461C5.06546 25.2456 4.70156 25.016 4.30089 24.8743V22.7995H8.1005V27.5494C8.1005 28.0742 8.52577 28.4991 9.05057 28.4991H15.7004V34.1993H13.6255C13.1007 32.7152 11.4725 31.9377 9.98847 32.4624C8.50469 32.9869 7.72681 34.6154 8.25153 36.0992C8.77626 37.5834 10.4045 38.361 11.8885 37.8361C12.2893 37.6945 12.6532 37.465 12.9538 37.1645C13.2543 36.8639 13.4838 36.5 13.6255 36.0992H16.6502C17.1749 36.0992 17.6002 35.674 17.6002 35.1494V28.4994H21.3998V35.1494C21.3998 35.6739 21.8251 36.0992 22.3498 36.0992H25.3745C25.8993 37.5834 27.5278 38.361 29.0115 37.8361C30.4956 37.3114 31.2732 35.6832 30.7485 34.1993C30.2237 32.7152 28.5955 31.9377 27.1115 32.4624C26.7107 32.6041 26.3468 32.8336 26.0462 33.1341C25.7457 33.4346 25.5162 33.7986 25.3745 34.1993H23.3V28.4992H29.9495C30.4742 28.4992 30.8995 28.0739 30.8995 27.5494V22.7995H34.6995V24.8743C33.2154 25.399 32.4378 27.0275 32.9626 28.5114C33.487 29.9955 35.1155 30.773 36.5993 30.2483C38.0834 29.7236 38.8609 28.0953 38.3362 26.6112C38.1945 26.2105 37.965 25.8466 37.6645 25.5462C37.3639 25.2457 37 25.0162 36.5993 24.8746H36.5992ZM13.8002 7.5998C13.8002 4.45211 16.3521 1.89989 19.5 1.89989C22.6482 1.89989 25.2 4.45174 25.2 7.5998V11.3998H13.8003L13.8002 7.5998ZM20.4501 21.8495C20.4501 22.3743 20.0248 22.7995 19.5 22.7995C18.9756 22.7995 18.55 22.3743 18.55 21.8495V18.0497C18.55 17.5249 18.9756 17.0996 19.5 17.0996C20.0247 17.0996 20.45 17.5249 20.45 18.0497L20.4501 21.8495Z" fill="#E9E9EA"/>
</svg>
