<svg width="90" height="44" viewBox="0 0 90 44" fill="none" xmlns="http://www.w3.org/2000/svg">
  <path fill-rule="evenodd" clip-rule="evenodd"
    d="M0.5 2.30713C0.5 1.06449 1.50736 0.0571289 2.75 0.0571289H21.2283C25.2323 0.0571289 28.4783 3.30307 28.4783 7.30713V8.17669C28.4783 9.41933 27.4709 10.4267 26.2283 10.4267C24.9856 10.4267 23.9783 9.41933 23.9783 8.17669V7.30713C23.9783 5.78834 22.747 4.55713 21.2283 4.55713H9.8913V15.7093H18.1087V14.8071C18.1087 13.5645 19.1161 12.5571 20.3587 12.5571C21.6013 12.5571 22.6087 13.5645 22.6087 14.8071V21.0571C22.6087 22.2998 21.6013 23.3071 20.3587 23.3071C19.1161 23.3071 18.1087 22.2998 18.1087 21.0571V20.2093H9.8913V31.3615H21.2283C22.7466 31.3615 23.9783 30.13 23.9783 28.6108V28.558C23.9783 27.3153 24.9856 26.3071 26.2283 26.3071C27.4709 26.3071 28.4783 27.3145 28.4783 28.5571V28.61C28.4783 32.6137 25.2327 35.8615 21.2283 35.8615H2.75C1.50736 35.8615 0.5 34.8541 0.5 33.6115C0.5 32.3688 1.50736 31.3615 2.75 31.3615H5.3913V4.55713H2.75C1.50736 4.55713 0.5 3.54977 0.5 2.30713ZM35.739 4.94843C36.9816 4.94843 37.989 5.95579 37.989 7.19843V11.7963H42.7499C43.9925 11.7963 44.9999 12.8036 44.9999 14.0463C44.9999 15.2889 43.9925 16.2963 42.7499 16.2963H37.989V28.9404C37.989 29.2006 38.0309 29.4592 38.1132 29.706C38.3542 30.429 38.9215 30.9963 39.6444 31.2372C39.8913 31.3195 40.1498 31.3615 40.41 31.3615H40.5158C41.2451 31.3615 41.9446 31.0717 42.4603 30.556L42.9524 30.064C43.831 29.1853 45.2557 29.1853 46.1343 30.064C47.013 30.9426 47.013 32.3673 46.1343 33.2459L45.6423 33.738C44.2826 35.0976 42.4386 35.8615 40.5158 35.8615H40.41C39.6662 35.8615 38.9271 35.7415 38.2214 35.5063C36.1548 34.8174 34.533 33.1957 33.8442 31.1291C33.6089 30.4233 33.489 29.6843 33.489 28.9404V16.2963H31.4999C30.2572 16.2963 29.2499 15.2889 29.2499 14.0463C29.2499 12.8036 30.2572 11.7963 31.4999 11.7963H33.489V7.19843C33.489 5.95579 34.4964 4.94843 35.739 4.94843ZM58.9555 11.3827C60.5332 12.0654 61.6972 13.3695 62.375 15.318C62.7832 16.4916 62.1627 17.774 60.989 18.1822C59.8154 18.5905 58.533 17.97 58.1247 16.7963C57.7959 15.851 57.4207 15.6218 57.1684 15.5126C56.7585 15.3352 56.1533 15.2755 55.0765 15.3112C54.5109 15.33 53.9683 15.5999 53.612 16.04C52.9632 16.8412 53.1238 18.0235 53.9627 18.6227L60.6634 23.4089C63.6168 25.5184 64.1936 29.6749 61.9264 32.5089C60.745 33.9856 58.9682 34.8818 57.0847 34.9625C55.9769 35.0099 54.4209 35.0326 52.9632 34.4651C51.3374 33.8321 50.0455 32.5591 49.3653 30.5186C48.9724 29.3398 49.6095 28.0655 50.7884 27.6726C51.9672 27.2796 53.2414 27.9167 53.6344 29.0956C53.9075 29.9148 54.2638 30.1424 54.5958 30.2717C55.0961 30.4665 55.8077 30.5131 56.8921 30.4666C57.4829 30.4413 58.0466 30.1551 58.4125 29.6978C59.067 28.8796 58.9005 27.6797 58.0479 27.0707L51.3471 22.2845C48.399 20.1787 47.8348 16.024 50.1146 13.2083C51.2923 11.7538 53.0565 10.8757 54.9273 10.8137C56.0198 10.7775 57.5354 10.7682 58.9555 11.3827ZM71.8352 15.3765H72.7499C73.9925 15.3765 74.9999 14.3691 74.9999 13.1265C74.9999 11.8838 73.9925 10.8765 72.7499 10.8765H68.5066C68.4726 10.8757 68.4385 10.8757 68.4043 10.8765H66.4999C65.2572 10.8765 64.2499 11.8838 64.2499 13.1265C64.2499 14.3691 65.2572 15.3765 66.4999 15.3765H66.9581L74.1333 32.5465C71.8161 36.9825 69.594 38.658 68.0979 39.1997C66.5437 39.7624 65.5087 39.2209 65.1561 38.8683C64.2774 37.9896 62.8528 37.9896 61.9741 38.8683C61.0954 39.747 61.0954 41.1716 61.9741 42.0503C63.578 43.6542 66.456 44.5801 69.6299 43.4309C72.7653 42.2956 75.893 39.266 78.6327 33.6148L87.4747 15.3765H87.7499C88.9925 15.3765 89.9999 14.3691 89.9999 13.1265C89.9999 11.8838 88.9925 10.8765 87.7499 10.8765H86.1147C86.0827 10.8758 86.0507 10.8758 86.0188 10.8765H81.4999C80.2572 10.8765 79.2499 11.8838 79.2499 13.1265C79.2499 14.3691 80.2572 15.3765 81.4999 15.3765H82.4738L76.7602 27.1618L71.8352 15.3765Z"
    fill="white" />
</svg>