<svg width="32" height="38" viewBox="0 0 32 38" fill="none" xmlns="http://www.w3.org/2000/svg">
<path d="M29.4564 4.30157H28.3452V31.5992C28.3452 33.4127 26.8691 34.8888 25.0556 34.8888H4.84525V35.9007C4.84525 37.0595 5.78572 37.9999 6.94445 37.9999H29.4524C30.6111 37.9999 31.5516 37.0595 31.5516 35.9007V6.40078C31.5516 5.24205 30.6151 4.30157 29.4564 4.30157Z" fill="#E9E9EA"/>
<path d="M13.7976 33.6984H25.0516C26.2103 33.6984 27.1508 32.7579 27.1508 31.5992V2.09921C27.1508 0.940476 26.2103 0 25.0516 0H10.0556V0.694444C10.0635 0.765873 10.0675 0.84127 10.0675 0.916667V6.66667C10.0675 8.29762 8.74208 9.62301 7.11112 9.62301H1.36112C1.3016 9.62301 1.23811 9.61905 1.17858 9.61508H0.448425V31.5992C0.448425 32.7579 1.3889 33.6984 2.54763 33.6984H13.7976ZM14.2222 26.5635H6.88493C6.33732 26.5635 5.89287 26.119 5.89287 25.5714C5.89287 25.0238 6.33732 24.5794 6.88493 24.5794H14.2262C14.7738 24.5794 15.2183 25.0238 15.2183 25.5714C15.2183 26.119 14.7699 26.5635 14.2222 26.5635ZM21.5635 21.5H6.88493C6.33732 21.5 5.89287 21.0556 5.89287 20.508C5.89287 19.9603 6.33732 19.5159 6.88493 19.5159H21.5635C22.1111 19.5159 22.5556 19.9603 22.5556 20.508C22.5556 21.0556 22.1111 21.5 21.5635 21.5ZM6.88493 14.1389H21.5635C22.1111 14.1389 22.5556 14.5833 22.5556 15.1309C22.5556 15.6786 22.1111 16.123 21.5635 16.123H6.88493C6.33732 16.123 5.89287 15.6786 5.89287 15.1309C5.89287 14.5833 6.33732 14.1389 6.88493 14.1389Z" fill="#E9E9EA"/>
<path d="M1.36112 8.43253H7.127C8.08732 8.42459 8.86509 7.64682 8.87303 6.6865V0.916659C8.87303 0.384913 8.43652 0.0317383 7.98418 0.0317383C7.76593 0.0317383 7.54767 0.111103 7.36513 0.293643L0.73414 6.92459C0.178585 7.48015 0.571442 8.43253 1.36112 8.43253Z" fill="#E9E9EA"/>
</svg>
