<svg width="146" height="44" viewBox="0 0 146 44" fill="none" xmlns="http://www.w3.org/2000/svg">
<g clip-path="url(#clip0_2428_5786)">
<path d="M23.9424 11.5057L27.0717 8.3764L27.2803 7.05875C21.5778 1.87348 12.513 2.46143 7.37244 8.28556C5.94453 9.90317 4.8852 11.9199 4.32031 14.0024L5.44109 13.8445L11.6996 12.8124L12.1828 12.3183C14.9668 9.26079 19.6739 8.84947 22.8883 11.4509L23.9424 11.5057Z" fill="#EA4335"/>
<path d="M31.5291 13.9101C30.8098 11.2613 29.3331 8.88011 27.2798 7.05859L22.8878 11.4506C24.7424 12.966 25.7989 15.2489 25.7536 17.6433V18.4229C27.9124 18.4229 29.6626 20.173 29.6626 22.3317C29.6626 24.4906 27.9124 26.1968 25.7536 26.1968H17.9249L17.1562 27.0313V31.7197L17.9249 32.4553H25.7536C31.3688 32.4991 35.9563 28.0265 36 22.4113C36.0264 19.0078 34.3484 15.817 31.5291 13.9101Z" fill="#4285F4"/>
<path d="M10.1067 32.4556H17.9244V26.197H10.1067C9.54965 26.1968 9.01022 26.0772 8.50369 25.8457L7.39458 26.186L4.24331 29.3153L3.96881 30.3804C5.73605 31.7148 7.89225 32.4652 10.1067 32.4556Z" fill="#34A853"/>
<path d="M10.1068 12.1536C4.49148 12.1871 -0.033269 16.7664 0.000199739 22.3816C0.0189029 25.5172 1.48337 28.4689 3.96892 30.3805L8.50379 25.8457C6.53631 24.9568 5.66204 22.6414 6.55093 20.6741C7.43968 18.7068 9.75521 17.8325 11.7224 18.7212C12.5894 19.1129 13.2836 19.8073 13.6753 20.6741L18.2102 16.1394C16.2806 13.617 13.2825 12.1422 10.1068 12.1536Z" fill="#FBBC05"/>
</g>
<path d="M54.5938 12.5078V11.1641L59.4453 11.1562V15.4062C58.7005 16 57.9323 16.4479 57.1406 16.75C56.349 17.0469 55.5365 17.1953 54.7031 17.1953C53.5781 17.1953 52.5547 16.9557 51.6328 16.4766C50.7161 15.9922 50.0234 15.2943 49.5547 14.3828C49.0859 13.4714 48.8516 12.4531 48.8516 11.3281C48.8516 10.2135 49.0833 9.17448 49.5469 8.21094C50.0156 7.24219 50.6875 6.52344 51.5625 6.05469C52.4375 5.58594 53.4453 5.35156 54.5859 5.35156C55.4141 5.35156 56.1615 5.48698 56.8281 5.75781C57.5 6.02344 58.026 6.39583 58.4062 6.875C58.7865 7.35417 59.0755 7.97917 59.2734 8.75L57.9062 9.125C57.7344 8.54167 57.5208 8.08333 57.2656 7.75C57.0104 7.41667 56.6458 7.15104 56.1719 6.95312C55.6979 6.75 55.1719 6.64844 54.5938 6.64844C53.901 6.64844 53.3021 6.75521 52.7969 6.96875C52.2917 7.17708 51.8828 7.45312 51.5703 7.79688C51.263 8.14062 51.0234 8.51823 50.8516 8.92969C50.5599 9.63802 50.4141 10.4062 50.4141 11.2344C50.4141 12.2552 50.5885 13.1094 50.9375 13.7969C51.2917 14.4844 51.8047 14.9948 52.4766 15.3281C53.1484 15.6615 53.862 15.8281 54.6172 15.8281C55.2734 15.8281 55.9141 15.7031 56.5391 15.4531C57.1641 15.1979 57.638 14.9271 57.9609 14.6406V12.5078H54.5938ZM61.0644 12.8516C61.0644 11.3151 61.4915 10.1771 62.3456 9.4375C63.0592 8.82292 63.929 8.51562 64.955 8.51562C66.0956 8.51562 67.0279 8.89062 67.7519 9.64062C68.4758 10.3854 68.8378 11.4167 68.8378 12.7344C68.8378 13.8021 68.6764 14.6432 68.3534 15.2578C68.0357 15.8672 67.5696 16.3411 66.955 16.6797C66.3456 17.0182 65.679 17.1875 64.955 17.1875C63.7935 17.1875 62.8534 16.8151 62.1347 16.0703C61.4211 15.3255 61.0644 14.2526 61.0644 12.8516ZM62.5097 12.8516C62.5097 13.9141 62.7415 14.7109 63.205 15.2422C63.6685 15.7682 64.2519 16.0312 64.955 16.0312C65.6529 16.0312 66.2336 15.7656 66.6972 15.2344C67.1607 14.7031 67.3925 13.8932 67.3925 12.8047C67.3925 11.7786 67.1581 11.0026 66.6894 10.4766C66.2258 9.94531 65.6477 9.67969 64.955 9.67969C64.2519 9.67969 63.6685 9.94271 63.205 10.4688C62.7415 10.9948 62.5097 11.7891 62.5097 12.8516ZM70.0506 12.8516C70.0506 11.3151 70.4777 10.1771 71.3319 9.4375C72.0454 8.82292 72.9152 8.51562 73.9412 8.51562C75.0819 8.51562 76.0142 8.89062 76.7381 9.64062C77.4621 10.3854 77.8241 11.4167 77.8241 12.7344C77.8241 13.8021 77.6626 14.6432 77.3397 15.2578C77.022 15.8672 76.5558 16.3411 75.9412 16.6797C75.3319 17.0182 74.6652 17.1875 73.9412 17.1875C72.7798 17.1875 71.8397 16.8151 71.1209 16.0703C70.4074 15.3255 70.0506 14.2526 70.0506 12.8516ZM71.4959 12.8516C71.4959 13.9141 71.7277 14.7109 72.1912 15.2422C72.6548 15.7682 73.2381 16.0312 73.9412 16.0312C74.6392 16.0312 75.2199 15.7656 75.6834 15.2344C76.147 14.7031 76.3787 13.8932 76.3787 12.8047C76.3787 11.7786 76.1444 11.0026 75.6756 10.4766C75.2121 9.94531 74.634 9.67969 73.9412 9.67969C73.2381 9.67969 72.6548 9.94271 72.1912 10.4688C71.7277 10.9948 71.4959 11.7891 71.4959 12.8516ZM79.3025 17.6875L80.6697 17.8906C80.727 18.3125 80.8858 18.6198 81.1462 18.8125C81.4952 19.0729 81.9718 19.2031 82.5759 19.2031C83.227 19.2031 83.7296 19.0729 84.0837 18.8125C84.4379 18.5521 84.6775 18.1875 84.8025 17.7188C84.8754 17.4323 84.9093 16.8307 84.9041 15.9141C84.2895 16.638 83.5239 17 82.6072 17C81.4666 17 80.5837 16.5885 79.9587 15.7656C79.3337 14.9427 79.0212 13.9557 79.0212 12.8047C79.0212 12.013 79.1645 11.2839 79.4509 10.6172C79.7374 9.94531 80.1515 9.42708 80.6931 9.0625C81.24 8.69792 81.8806 8.51562 82.615 8.51562C83.5942 8.51562 84.4015 8.91146 85.0369 9.70312V8.70312H86.3337V15.875C86.3337 17.1667 86.2009 18.0807 85.9353 18.6172C85.6749 19.1589 85.2582 19.5859 84.6853 19.8984C84.1176 20.2109 83.4171 20.3672 82.5837 20.3672C81.5942 20.3672 80.7947 20.1432 80.1853 19.6953C79.5759 19.2526 79.2817 18.5833 79.3025 17.6875ZM80.4666 12.7031C80.4666 13.7917 80.6827 14.5859 81.115 15.0859C81.5473 15.5859 82.089 15.8359 82.74 15.8359C83.3858 15.8359 83.9275 15.5885 84.365 15.0938C84.8025 14.5938 85.0212 13.8125 85.0212 12.75C85.0212 11.7344 84.7947 10.9688 84.3416 10.4531C83.8936 9.9375 83.352 9.67969 82.7166 9.67969C82.0916 9.67969 81.5603 9.9349 81.1228 10.4453C80.6853 10.9505 80.4666 11.7031 80.4666 12.7031ZM88.5153 17V5.54688H89.9216V17H88.5153ZM97.8688 14.3281L99.3219 14.5078C99.0927 15.3568 98.6682 16.0156 98.0484 16.4844C97.4286 16.9531 96.637 17.1875 95.6734 17.1875C94.4599 17.1875 93.4964 16.8151 92.7828 16.0703C92.0745 15.3203 91.7203 14.2708 91.7203 12.9219C91.7203 11.526 92.0797 10.4427 92.7984 9.67188C93.5172 8.90104 94.4495 8.51562 95.5953 8.51562C96.7047 8.51562 97.6109 8.89323 98.3141 9.64844C99.0172 10.4036 99.3688 11.4661 99.3688 12.8359C99.3688 12.9193 99.3661 13.0443 99.3609 13.2109H93.1734C93.2255 14.1224 93.4833 14.8203 93.9469 15.3047C94.4104 15.7891 94.9885 16.0312 95.6813 16.0312C96.1969 16.0312 96.637 15.8958 97.0016 15.625C97.3661 15.3542 97.6552 14.9219 97.8688 14.3281ZM93.2516 12.0547H97.8844C97.8219 11.3568 97.6448 10.8333 97.3531 10.4844C96.9052 9.94271 96.3245 9.67188 95.6109 9.67188C94.9651 9.67188 94.4208 9.88802 93.9781 10.3203C93.5406 10.7526 93.2984 11.3307 93.2516 12.0547ZM114.06 12.9844L115.576 13.3672C115.258 14.612 114.685 15.5625 113.857 16.2188C113.034 16.8698 112.026 17.1953 110.833 17.1953C109.599 17.1953 108.594 16.9453 107.818 16.4453C107.047 15.9401 106.458 15.2109 106.052 14.2578C105.651 13.3047 105.451 12.2812 105.451 11.1875C105.451 9.99479 105.677 8.95573 106.13 8.07031C106.589 7.17969 107.237 6.50521 108.076 6.04688C108.919 5.58333 109.846 5.35156 110.857 5.35156C112.003 5.35156 112.966 5.64323 113.748 6.22656C114.529 6.8099 115.073 7.63021 115.38 8.6875L113.888 9.03906C113.623 8.20573 113.237 7.59896 112.732 7.21875C112.227 6.83854 111.591 6.64844 110.826 6.64844C109.945 6.64844 109.208 6.85938 108.615 7.28125C108.026 7.70312 107.612 8.27083 107.373 8.98438C107.133 9.69271 107.013 10.4245 107.013 11.1797C107.013 12.1536 107.154 13.0052 107.435 13.7344C107.721 14.4583 108.164 15 108.763 15.3594C109.362 15.7188 110.011 15.8984 110.708 15.8984C111.557 15.8984 112.276 15.6536 112.865 15.1641C113.453 14.6745 113.852 13.9479 114.06 12.9844ZM117.32 17V5.54688H118.726V17H117.32ZM120.47 12.8516C120.47 11.3151 120.897 10.1771 121.751 9.4375C122.465 8.82292 123.335 8.51562 124.361 8.51562C125.501 8.51562 126.434 8.89062 127.158 9.64062C127.881 10.3854 128.243 11.4167 128.243 12.7344C128.243 13.8021 128.082 14.6432 127.759 15.2578C127.441 15.8672 126.975 16.3411 126.361 16.6797C125.751 17.0182 125.085 17.1875 124.361 17.1875C123.199 17.1875 122.259 16.8151 121.54 16.0703C120.827 15.3255 120.47 14.2526 120.47 12.8516ZM121.915 12.8516C121.915 13.9141 122.147 14.7109 122.611 15.2422C123.074 15.7682 123.658 16.0312 124.361 16.0312C125.059 16.0312 125.639 15.7656 126.103 15.2344C126.566 14.7031 126.798 13.8932 126.798 12.8047C126.798 11.7786 126.564 11.0026 126.095 10.4766C125.631 9.94531 125.053 9.67969 124.361 9.67969C123.658 9.67969 123.074 9.94271 122.611 10.4688C122.147 10.9948 121.915 11.7891 121.915 12.8516ZM135.417 17V15.7812C134.771 16.7188 133.894 17.1875 132.784 17.1875C132.295 17.1875 131.836 17.0938 131.409 16.9062C130.988 16.7188 130.672 16.4844 130.464 16.2031C130.261 15.9167 130.118 15.5677 130.034 15.1562C129.977 14.8802 129.948 14.4427 129.948 13.8438V8.70312H131.355V13.3047C131.355 14.0391 131.383 14.5339 131.441 14.7891C131.529 15.1589 131.717 15.4505 132.003 15.6641C132.29 15.8724 132.644 15.9766 133.066 15.9766C133.488 15.9766 133.883 15.8698 134.253 15.6562C134.623 15.4375 134.883 15.1432 135.034 14.7734C135.191 14.3984 135.269 13.8568 135.269 13.1484V8.70312H136.675V17H135.417ZM144.349 17V15.9531C143.823 16.776 143.049 17.1875 142.028 17.1875C141.367 17.1875 140.758 17.0052 140.2 16.6406C139.648 16.276 139.219 15.7682 138.911 15.1172C138.609 14.4609 138.458 13.7083 138.458 12.8594C138.458 12.0312 138.596 11.2812 138.872 10.6094C139.148 9.93229 139.562 9.41406 140.114 9.05469C140.666 8.69531 141.284 8.51562 141.966 8.51562C142.466 8.51562 142.911 8.6224 143.302 8.83594C143.692 9.04427 144.01 9.31771 144.255 9.65625V5.54688H145.653V17H144.349ZM139.903 12.8594C139.903 13.9219 140.127 14.7161 140.575 15.2422C141.023 15.7682 141.552 16.0312 142.161 16.0312C142.776 16.0312 143.297 15.7812 143.724 15.2812C144.156 14.776 144.372 14.0078 144.372 12.9766C144.372 11.8411 144.153 11.0078 143.716 10.4766C143.278 9.94531 142.739 9.67969 142.099 9.67969C141.474 9.67969 140.95 9.9349 140.528 10.4453C140.112 10.9557 139.903 11.7604 139.903 12.8594ZM49.3887 43V30.1152H54.249C55.1045 30.1152 55.7578 30.1562 56.209 30.2383C56.8418 30.3438 57.3721 30.5459 57.7998 30.8447C58.2275 31.1377 58.5703 31.5508 58.8281 32.084C59.0918 32.6172 59.2236 33.2031 59.2236 33.8418C59.2236 34.9375 58.875 35.8662 58.1777 36.6279C57.4805 37.3838 56.2207 37.7617 54.3984 37.7617H51.0938V43H49.3887ZM51.0938 36.2412H54.4248C55.5264 36.2412 56.3086 36.0361 56.7715 35.626C57.2344 35.2158 57.4658 34.6387 57.4658 33.8945C57.4658 33.3555 57.3281 32.8955 57.0527 32.5146C56.7832 32.1279 56.4258 31.873 55.9805 31.75C55.6934 31.6738 55.1631 31.6357 54.3896 31.6357H51.0938V36.2412ZM67.2832 41.8486C66.6973 42.3467 66.1318 42.6982 65.5869 42.9033C65.0479 43.1084 64.4678 43.2109 63.8467 43.2109C62.8213 43.2109 62.0332 42.9619 61.4824 42.4639C60.9316 41.96 60.6562 41.3184 60.6562 40.5391C60.6562 40.082 60.7588 39.666 60.9639 39.291C61.1748 38.9102 61.4473 38.6055 61.7812 38.377C62.1211 38.1484 62.502 37.9756 62.9238 37.8584C63.2344 37.7764 63.7031 37.6973 64.3301 37.6211C65.6074 37.4688 66.5479 37.2871 67.1514 37.0762C67.1572 36.8594 67.1602 36.7217 67.1602 36.6631C67.1602 36.0186 67.0107 35.5645 66.7119 35.3008C66.3076 34.9434 65.707 34.7646 64.9102 34.7646C64.166 34.7646 63.6152 34.8965 63.2578 35.1602C62.9062 35.418 62.6455 35.8779 62.4756 36.54L60.9287 36.3291C61.0693 35.667 61.3008 35.1338 61.623 34.7295C61.9453 34.3193 62.4111 34.0059 63.0205 33.7891C63.6299 33.5664 64.3359 33.4551 65.1387 33.4551C65.9355 33.4551 66.583 33.5488 67.0811 33.7363C67.5791 33.9238 67.9453 34.1611 68.1797 34.4482C68.4141 34.7295 68.5781 35.0869 68.6719 35.5205C68.7246 35.79 68.751 36.2764 68.751 36.9795V39.0889C68.751 40.5596 68.7832 41.4912 68.8477 41.8838C68.918 42.2705 69.0527 42.6426 69.252 43H67.5996C67.4355 42.6719 67.3301 42.2881 67.2832 41.8486ZM67.1514 38.3154C66.5771 38.5498 65.7158 38.749 64.5674 38.9131C63.917 39.0068 63.457 39.1123 63.1875 39.2295C62.918 39.3467 62.71 39.5195 62.5635 39.748C62.417 39.9707 62.3438 40.2197 62.3438 40.4951C62.3438 40.917 62.502 41.2686 62.8184 41.5498C63.1406 41.8311 63.6094 41.9717 64.2246 41.9717C64.834 41.9717 65.376 41.8398 65.8506 41.5762C66.3252 41.3066 66.6738 40.9404 66.8965 40.4775C67.0664 40.1201 67.1514 39.5928 67.1514 38.8955V38.3154ZM71.1943 43V33.666H72.6182V35.0811C72.9814 34.4189 73.3154 33.9824 73.6201 33.7715C73.9307 33.5605 74.2705 33.4551 74.6396 33.4551C75.1729 33.4551 75.7148 33.625 76.2656 33.9648L75.7207 35.4326C75.334 35.2041 74.9473 35.0898 74.5605 35.0898C74.2148 35.0898 73.9043 35.1953 73.6289 35.4062C73.3535 35.6113 73.1572 35.8984 73.04 36.2676C72.8643 36.8301 72.7764 37.4453 72.7764 38.1133V43H71.1943ZM80.6602 41.585L80.8887 42.9824C80.4434 43.0762 80.0449 43.123 79.6934 43.123C79.1191 43.123 78.6738 43.0322 78.3574 42.8506C78.041 42.6689 77.8184 42.4316 77.6895 42.1387C77.5605 41.8398 77.4961 41.2158 77.4961 40.2666V34.8965H76.3359V33.666H77.4961V31.3545L79.0693 30.4053V33.666H80.6602V34.8965H79.0693V40.3545C79.0693 40.8057 79.0957 41.0957 79.1484 41.2246C79.207 41.3535 79.2979 41.4561 79.4209 41.5322C79.5498 41.6084 79.7314 41.6465 79.9658 41.6465C80.1416 41.6465 80.373 41.626 80.6602 41.585ZM82.2158 43V33.666H83.6396V34.9932C84.3252 33.9678 85.3154 33.4551 86.6104 33.4551C87.1729 33.4551 87.6885 33.5576 88.1572 33.7627C88.6318 33.9619 88.9863 34.2256 89.2207 34.5537C89.4551 34.8818 89.6191 35.2715 89.7129 35.7227C89.7715 36.0156 89.8008 36.5283 89.8008 37.2607V43H88.2188V37.3223C88.2188 36.6777 88.1572 36.1973 88.0342 35.8809C87.9111 35.5586 87.6914 35.3037 87.375 35.1162C87.0645 34.9229 86.6982 34.8262 86.2764 34.8262C85.6025 34.8262 85.0195 35.04 84.5273 35.4678C84.041 35.8955 83.7979 36.707 83.7979 37.9023V43H82.2158ZM98.625 39.9941L100.26 40.1963C100.002 41.1514 99.5244 41.8926 98.8271 42.4199C98.1299 42.9473 97.2393 43.2109 96.1553 43.2109C94.79 43.2109 93.7061 42.792 92.9033 41.9541C92.1064 41.1104 91.708 39.9297 91.708 38.4121C91.708 36.8418 92.1123 35.623 92.9209 34.7559C93.7295 33.8887 94.7783 33.4551 96.0674 33.4551C97.3154 33.4551 98.335 33.8799 99.126 34.7295C99.917 35.5791 100.312 36.7744 100.312 38.3154C100.312 38.4092 100.31 38.5498 100.304 38.7373H93.3428C93.4014 39.7627 93.6914 40.5479 94.2129 41.0928C94.7344 41.6377 95.3848 41.9102 96.1641 41.9102C96.7441 41.9102 97.2393 41.7578 97.6494 41.4531C98.0596 41.1484 98.3848 40.6621 98.625 39.9941ZM93.4307 37.4365H98.6426C98.5723 36.6514 98.373 36.0625 98.0449 35.6699C97.541 35.0605 96.8877 34.7559 96.085 34.7559C95.3584 34.7559 94.7461 34.999 94.248 35.4854C93.7559 35.9717 93.4834 36.6221 93.4307 37.4365ZM102.237 43V33.666H103.661V35.0811C104.024 34.4189 104.358 33.9824 104.663 33.7715C104.974 33.5605 105.313 33.4551 105.683 33.4551C106.216 33.4551 106.758 33.625 107.309 33.9648L106.764 35.4326C106.377 35.2041 105.99 35.0898 105.604 35.0898C105.258 35.0898 104.947 35.1953 104.672 35.4062C104.396 35.6113 104.2 35.8984 104.083 36.2676C103.907 36.8301 103.819 37.4453 103.819 38.1133V43H102.237Z" fill="#D2D2D5"/>
<defs>
<clipPath id="clip0_2428_5786">
<rect width="36" height="36" fill="white"/>
</clipPath>
</defs>
</svg>
