<svg width="136" height="34" viewBox="0 0 136 34" fill="none" xmlns="http://www.w3.org/2000/svg">
<g clip-path="url(#clip0_2428_6882)">
<path d="M27.0835 22.147C24.9782 22.147 23.3512 20.5471 23.3512 18.3823C23.3512 16.3118 24.9782 14.7118 27.0835 14.7118C29.1889 14.7118 30.8159 16.3118 30.8159 18.3823C30.9116 20.5471 29.1889 22.147 27.0835 22.147ZM33.9741 14.6176V12.0765H29.3804C28.6148 11.7941 27.8492 11.7 27.0835 11.7C23.1597 11.7 20.0974 14.6176 20.0974 18.4765C20.0974 22.3353 23.1597 25.2529 27.0835 25.2529C31.0073 25.2529 34.0698 22.3353 34.0698 18.4765C34.0698 17.1588 33.6869 15.9353 33.017 14.9941L33.9741 14.6176ZM11.9628 22.147C9.8574 22.147 8.23046 20.5471 8.23046 18.3823C8.23046 16.3118 9.8574 14.7118 11.9628 14.7118C14.0682 14.7118 15.6951 16.3118 15.6951 18.3823C15.6951 20.5471 14.0682 22.147 11.9628 22.147ZM11.9628 11.7C8.03907 11.7 4.97664 14.6176 4.97664 18.4765C4.97664 22.3353 8.03907 25.2529 11.9628 25.2529C15.8865 25.2529 18.949 22.3353 18.949 18.4765C18.949 14.6176 15.8865 11.7 11.9628 11.7ZM0.382996 24.8765H3.63682V6.71178H0.382996V24.8765ZM35.4096 24.8765H38.6633V12.0765H35.4096V24.8765ZM27.0835 29.3942C24.9782 29.3942 23.3512 27.7941 23.3512 25.7236H20.0974C20.0974 29.5823 23.1597 32.5001 27.0835 32.5001C31.0073 32.5001 34.0698 29.5823 34.0698 25.7236H30.8159C30.8159 27.8881 29.1889 29.3942 27.0835 29.3942ZM50.6259 17.1588C51.1045 15.4647 52.3486 14.5235 54.0713 14.5235C55.7937 14.5235 57.038 15.4647 57.4207 17.1588H50.6259ZM54.167 11.7C50.2432 11.7 47.2765 14.6176 47.2765 18.5706C47.2765 22.4293 49.956 25.2529 54.167 25.2529C56.4638 25.2529 58.5692 24.4058 60.1004 22.8059L57.8993 20.6412C56.8465 21.6765 55.6982 22.3353 54.2627 22.3353C52.4443 22.3353 51.1045 21.2999 50.7216 19.7H60.8661V18.9471C60.8661 14.6176 58.0906 11.7 54.167 11.7ZM82.9729 11.7C81.346 11.7 80.0062 12.2647 79.0491 13.3V6.61764H75.7954V24.8765H79.0491V17.9118C79.0491 16.0294 80.1976 14.8059 82.2073 14.8059C84.0255 14.8059 85.0783 15.9353 85.0783 17.9118V24.8765H88.3322V17.3471C88.3322 13.7706 86.0354 11.7 82.9729 11.7ZM68.9049 14.8059C70.2447 14.8059 71.393 15.4647 72.2543 16.5L74.5512 14.3353C73.3071 12.7353 71.2975 11.7941 69.0006 11.7941C65.0768 11.7941 62.0144 14.7118 62.0144 18.5706C62.0144 22.4293 65.0768 25.3471 69.0006 25.3471C71.2975 25.3471 73.3071 24.3118 74.5512 22.8059L72.2543 20.5471C71.393 21.4882 70.2447 22.2412 68.9049 22.2412C66.7995 22.2412 65.2683 20.6412 65.2683 18.5706C65.1726 16.4059 66.7995 14.8059 68.9049 14.8059ZM45.0754 8.12354H41.8214V12.0765H40.099V14.9H41.8214V24.8765H45.0754V14.9H46.8936V12.0765H45.0754V8.12354ZM37.0365 6.33529C35.888 6.33529 34.9311 7.27647 34.9311 8.5C34.9311 9.62941 35.888 10.5706 37.0365 10.5706C38.2806 10.5706 39.2376 9.62941 39.2376 8.5C39.2376 7.27647 38.2806 6.33529 37.0365 6.33529ZM113.023 0.5V6.99411C107.855 6.99411 103.74 11.0412 103.74 16.1235C103.74 21.1118 107.855 25.2529 113.023 25.2529V31.7471C104.218 31.7471 97.0409 24.7824 97.0409 16.1235C97.0409 7.46471 104.218 0.5 113.023 0.5ZM113.214 13.3V19.7H120.87V27.2294H127.378V13.3H113.214Z" fill="white"/>
<path d="M127.693 29.3572H129.783V29.7858H128.947V32.5714H128.528V29.7858H127.693V29.3572Z" fill="#878787"/>
<path d="M131.871 31.9285H131.558L130.617 30.4284V32.5714H130.199V29.3572H130.513L131.767 31.2856L132.916 29.3572H133.23V32.5714H132.812V30.4284L131.871 31.9285Z" fill="#878787"/>
</g>
<defs>
<clipPath id="clip0_2428_6882">
<rect width="135" height="33" fill="white" transform="translate(0.382996 0.5)"/>
</clipPath>
</defs>
</svg>
