<svg width="180" height="33" viewBox="0 0 180 33" fill="none" xmlns="http://www.w3.org/2000/svg">
<path d="M3.73005 24.9054C2.41938 24.9115 1.20989 24.1808 0.575614 22.9997C-0.0586573 21.8186 -0.0166497 20.3752 0.685172 19.2353L7.15961 8.59014C8.21378 6.85475 10.4345 6.32795 12.1198 7.41349C13.805 8.49904 14.3166 10.7858 13.2624 12.5212L6.78796 23.1664C6.12759 24.2498 4.97219 24.9068 3.73005 24.9054Z" fill="#FF3D57"/>
<path d="M15.5469 24.9053C14.2368 24.9127 13.0273 24.1826 12.3927 23.0015C11.7582 21.8204 11.7999 20.3766 12.5014 19.2365L18.9735 8.59355C19.6549 7.46939 20.8665 6.80518 22.1519 6.85111C23.4374 6.89705 24.6015 7.64615 25.2056 8.81625C25.8097 9.98634 25.7621 11.3997 25.0808 12.5238L18.5924 23.1668C17.9345 24.2469 16.7845 24.9033 15.5469 24.9053Z" fill="#FFCC00"/>
<path d="M26.8724 24.9053C28.9334 24.9053 30.6041 23.2327 30.6041 21.1694C30.6041 19.1062 28.9334 17.4336 26.8724 17.4336C24.8115 17.4336 23.1407 19.1062 23.1407 21.1694C23.1407 23.2327 24.8115 24.9053 26.8724 24.9053Z" fill="#00CA72"/>
<path fill-rule="evenodd" clip-rule="evenodd" d="M152.419 24.3647C151.67 23.5962 151.258 22.5437 151.279 21.4523L151.262 21.4594C151.262 19.0036 153.091 17.4344 155.242 17.4344C156.331 17.4119 157.379 17.8638 158.131 18.6799L157.023 19.6439C156.546 19.1666 155.906 18.9036 155.242 18.9121C154.577 18.884 153.931 19.1403 153.454 19.6209C152.978 20.1014 152.714 20.7638 152.724 21.4523C152.727 22.5052 153.341 23.453 154.28 23.856C155.22 24.2589 156.301 24.0381 157.023 23.2959L158.148 24.2564C157.393 25.081 156.339 25.5394 155.242 25.5195C154.188 25.5505 153.168 25.1332 152.419 24.3647ZM162.712 25.5194C161.662 25.5489 160.648 25.1294 159.907 24.3598C159.166 23.5901 158.764 22.5383 158.796 21.4522C158.796 18.9893 160.577 17.4342 162.712 17.4342C164.846 17.4342 166.644 18.9964 166.644 21.4522C166.669 22.5418 166.262 23.5946 165.517 24.3647C164.772 25.1347 163.754 25.5547 162.701 25.5264L162.712 25.5194ZM178.411 20.9808C178.411 19.7001 177.785 18.9226 176.712 18.9226C175.454 18.905 174.696 19.8831 174.703 21.1778V25.3611H173.248V20.9632C173.248 19.686 172.606 18.9226 171.627 18.9226C170.587 18.9226 169.544 19.5523 169.544 21.1778V25.3541H168.082V17.6137H169.544V18.7748C169.945 17.9128 171.012 17.5293 171.614 17.48C171.882 17.4629 172.151 17.4783 172.416 17.5258C173.288 17.6183 174.04 18.1996 174.373 19.0387C174.861 18.0188 175.885 17.3936 176.983 17.4449C178.853 17.4449 179.872 18.7044 179.872 20.8787V25.3611H178.411V20.9808ZM164.491 23.3155C164.024 23.809 163.38 24.0808 162.712 24.0667H162.702C162.036 24.0779 161.395 23.8048 160.93 23.3116C160.464 22.8184 160.215 22.1486 160.241 21.4596C160.241 20.047 161.348 18.9018 162.712 18.9018C164.077 18.9018 165.183 20.047 165.183 21.4596C165.209 22.1505 164.959 22.822 164.491 23.3155Z" fill="#070707"/>
<path fill-rule="evenodd" clip-rule="evenodd" d="M150.641 8.83467H145.602L142.07 18.0426L138.555 8.83467H133.513L139.642 23.3813L135.828 32.9999H140.833L150.641 8.83467ZM120.376 16.9225C120.376 19.2508 122.371 20.7781 124.367 20.7781C126.362 20.7781 128.221 19.356 128.221 16.9225C128.221 14.489 126.315 13.0669 124.377 13.0669C122.438 13.0669 120.379 14.5976 120.379 16.9225H120.376ZM128.221 25.0479V23.2084C127.204 24.773 124.816 25.3636 123.592 25.3636C121.413 25.3631 119.327 24.4681 117.802 22.8803C116.278 21.2925 115.443 19.1453 115.487 16.9227C115.444 14.7054 116.275 12.5633 117.794 10.977C119.313 9.39069 121.392 8.49298 123.565 8.48522C124.586 8.48522 126.971 8.82462 128.195 10.6404V8.8382H132.894V25.0513L128.221 25.0479ZM114.154 25.0477H109.441V23.0351C108.656 24.5284 106.751 25.4109 104.785 25.4109C100.698 25.4109 97.0892 22.1119 97.0892 17.0039C97.0892 11.8009 100.698 8.49858 104.785 8.49858C106.76 8.49858 108.666 9.33011 109.441 10.8235V0H114.14L114.154 25.0477ZM109.351 16.9022C109.351 14.4721 107.615 13.0466 105.673 13.0466C104.675 13.0272 103.714 13.4282 103.015 14.1553C102.317 14.8824 101.943 15.8711 101.981 16.8886C101.981 19.2916 103.644 20.8121 105.66 20.8121C107.675 20.8121 109.338 19.2033 109.338 16.8886L109.351 16.9022ZM85.4616 16.4883C85.4616 14.0208 86.7221 13.1893 88.3883 13.1893C89.988 13.1893 91.1453 14.2652 91.1453 16.417V25.0479H95.8779V15.3581C95.8779 10.7422 93.6297 8.48522 90.0545 8.48522C88.1577 8.48963 86.4067 9.52407 85.4583 11.2004V8.8348H80.7291V25.0479H85.4616V16.4883ZM71.1184 25.3123C66.622 25.3123 62.8738 21.9794 62.8738 16.8715C62.8738 11.7635 66.6186 8.4781 71.1184 8.4781C75.6181 8.4781 79.3928 11.7771 79.3928 16.885C79.3928 21.993 75.6115 25.3123 71.1184 25.3123ZM71.1181 20.5879C72.0882 20.6147 73.026 20.2311 73.7094 19.528C74.3928 18.8248 74.7609 17.8646 74.7266 16.8749C74.7664 15.5381 74.0903 14.2851 72.9621 13.6047C71.8339 12.9243 70.4323 12.9243 69.304 13.6047C68.1758 14.2851 67.4997 15.5381 67.5396 16.8749C67.5 17.8623 67.8617 18.8227 68.5392 19.5289C69.2167 20.2351 70.1499 20.6244 71.1181 20.6049V20.5879ZM54.3895 13.172C55.7863 13.172 57.0135 14.2852 57.0135 16.4031V25.0476H61.7062V15.8397C61.7062 10.9455 59.3482 8.4781 55.5768 8.4781C54.4527 8.4781 52.3408 8.8175 50.8077 11.363C49.923 9.48612 48.2202 8.51544 45.706 8.51544C43.9285 8.49982 42.3054 9.54352 41.5521 11.1865V8.83447H36.8229V25.0476H41.5554V16.4879C41.5554 14.0205 42.8857 13.189 44.3125 13.189C45.6727 13.189 46.8999 14.2649 46.9332 16.3115V25.0476H51.6657V16.4879C51.6657 14.1121 52.8929 13.172 54.3895 13.172Z" fill="#070707"/>
<path d="M147.53 23.9683C147.529 24.3463 147.755 24.6878 148.104 24.8333C148.452 24.9788 148.854 24.8996 149.122 24.6328C149.389 24.3659 149.469 23.964 149.325 23.6146C149.181 23.2652 148.841 23.0374 148.463 23.0374C147.949 23.0374 147.532 23.4537 147.53 23.9683Z" fill="#070707"/>
</svg>
