<svg width="366" height="67" viewBox="0 0 366 67" fill="none" xmlns="http://www.w3.org/2000/svg">
<path d="M7.84639 50.5653C5.18536 50.5777 2.72972 49.0942 1.44196 46.6962C0.154199 44.2982 0.239486 41.3677 1.66439 39.0534L14.8094 17.4405C16.9497 13.9172 21.4585 12.8476 24.88 15.0516C28.3015 17.2556 29.3402 21.8985 27.1999 25.4218L14.0549 47.0347C12.7141 49.2343 10.3683 50.5682 7.84639 50.5653Z" fill="#FF3D57"/>
<path d="M31.8381 50.5653C29.1782 50.5802 26.7224 49.098 25.4341 46.7C24.1459 44.302 24.2305 41.3707 25.6548 39.0558L38.7951 17.4475C40.1784 15.1651 42.6383 13.8166 45.2482 13.9098C47.8581 14.0031 50.2215 15.524 51.448 17.8996C52.6746 20.2753 52.578 23.1447 51.1947 25.4271L38.0213 47.0354C36.6855 49.2284 34.3507 50.5612 31.8381 50.5653Z" fill="#FFCC00"/>
<path d="M54.8323 50.5645C59.0166 50.5645 62.4088 47.1686 62.4088 42.9796C62.4088 38.7906 59.0166 35.3948 54.8323 35.3948C50.6479 35.3948 47.2558 38.7906 47.2558 42.9796C47.2558 47.1686 50.6479 50.5645 54.8323 50.5645Z" fill="#00CA72"/>
<path fill-rule="evenodd" clip-rule="evenodd" d="M309.729 49.4669C308.209 47.9066 307.372 45.7697 307.415 43.554L307.38 43.5683C307.38 38.5823 311.092 35.3964 315.46 35.3964C317.671 35.3508 319.799 36.2682 321.326 37.9251L319.076 39.8824C318.107 38.9133 316.808 38.3793 315.46 38.3966C314.111 38.3395 312.798 38.8599 311.831 39.8356C310.864 40.8112 310.327 42.1561 310.347 43.554C310.354 45.6917 311.6 47.616 313.508 48.4341C315.416 49.2522 317.611 48.8038 319.076 47.2971L321.36 49.2472C319.828 50.9213 317.687 51.8519 315.46 51.8116C313.32 51.8746 311.249 51.0272 309.729 49.4669ZM330.626 51.811C328.496 51.8711 326.436 51.0194 324.932 49.4567C323.427 47.894 322.612 45.7585 322.677 43.5534C322.677 38.5532 326.293 35.3958 330.626 35.3958C334.959 35.3958 338.61 38.5674 338.61 43.5534C338.661 45.7658 337.834 47.9032 336.321 49.4667C334.809 51.0301 332.742 51.8827 330.605 51.8253L330.626 51.811ZM362.5 42.5979C362.5 39.9978 361.231 38.4191 359.05 38.4191C356.497 38.3834 354.958 40.3692 354.972 42.9979V51.4913H352.019V42.5622C352.019 39.9692 350.715 38.4191 348.727 38.4191C346.616 38.4191 344.497 39.6977 344.497 42.9979V51.477H341.53V35.7618H344.497V38.1191C345.312 36.369 347.478 35.5904 348.7 35.4904C349.244 35.4556 349.791 35.4868 350.328 35.5832C352.098 35.771 353.626 36.9512 354.303 38.6548C355.293 36.5841 357.372 35.3148 359.602 35.4189C363.397 35.4189 365.467 37.9762 365.467 42.3907V51.4913H362.5V42.5979ZM334.24 47.3371C333.29 48.3391 331.983 48.891 330.628 48.8623H330.607C329.255 48.885 327.953 48.3305 327.008 47.3292C326.063 46.3279 325.558 44.968 325.611 43.5691C325.611 40.701 327.857 38.376 330.628 38.376C333.398 38.376 335.644 40.701 335.644 43.5691C335.698 44.9718 335.19 46.3351 334.24 47.3371Z" fill="white"/>
<path fill-rule="evenodd" clip-rule="evenodd" d="M306.118 17.9373H295.889L288.718 36.6321L281.581 17.9373H271.344L283.789 47.4714L276.044 67H286.206L306.118 17.9373ZM244.671 34.3578C244.671 39.085 248.723 42.1858 252.774 42.1858C256.825 42.1858 260.6 39.2986 260.6 34.3578C260.6 29.4171 256.731 26.5299 252.794 26.5299C248.858 26.5299 244.678 29.6376 244.678 34.3578H244.671ZM260.601 50.8547V47.1199C258.534 50.2965 253.686 51.4955 251.201 51.4955C246.779 51.4946 242.542 49.6775 239.447 46.4537C236.351 43.23 234.657 38.8707 234.746 34.358C234.659 29.8562 236.347 25.5071 239.43 22.2865C242.514 19.0658 246.735 17.2432 251.147 17.2274C253.22 17.2274 258.062 17.9165 260.547 21.6031V17.9441H270.087V50.8616L260.601 50.8547ZM232.039 50.8543H222.471V46.768C220.878 49.8 217.008 51.5916 213.018 51.5916C204.719 51.5916 197.393 44.8937 197.393 34.523C197.393 23.9594 204.719 17.2546 213.018 17.2546C217.029 17.2546 220.898 18.9429 222.471 21.9748V0H232.012L232.039 50.8543ZM222.288 34.3166C222.288 29.3828 218.764 26.4887 214.82 26.4887C212.795 26.4492 210.843 27.2634 209.425 28.7396C208.006 30.2157 207.247 32.2232 207.325 34.2891C207.325 39.1678 210.702 42.2549 214.793 42.2549C218.885 42.2549 222.261 38.9886 222.261 34.2891L222.288 34.3166ZM173.786 33.476C173.786 28.4664 176.345 26.7781 179.728 26.7781C182.976 26.7781 185.326 28.9625 185.326 33.3313V50.8547H194.934V31.1814C194.934 21.8098 190.369 17.2274 183.111 17.2274C179.26 17.2364 175.705 19.3366 173.779 22.7401V17.9372H164.177V50.8547H173.786V33.476ZM144.665 51.3917C135.536 51.3917 127.926 44.6249 127.926 34.2542C127.926 23.8835 135.529 17.2132 144.665 17.2132C153.8 17.2132 161.464 23.9111 161.464 34.2817C161.464 44.6524 153.787 51.3917 144.665 51.3917ZM144.664 41.7995C146.634 41.854 148.538 41.0752 149.925 39.6476C151.313 38.2199 152.06 36.2704 151.99 34.2609C152.071 31.5469 150.699 29.0029 148.408 27.6215C146.117 26.2401 143.272 26.2401 140.981 27.6215C138.69 29.0029 137.318 31.5469 137.399 34.2609C137.318 36.2658 138.053 38.2156 139.428 39.6494C140.804 41.0832 142.698 41.8736 144.664 41.834V41.7995ZM110.7 26.7432C113.536 26.7432 116.028 29.0034 116.028 33.3032V50.8542H125.555V32.1594C125.555 22.2228 120.768 17.2132 113.111 17.2132C110.828 17.2132 106.541 17.9023 103.428 23.0704C101.632 19.2597 98.1745 17.289 93.0698 17.289C89.4611 17.2573 86.1658 19.3763 84.6363 22.712V17.9367H75.0345V50.8542H84.643V33.4755C84.643 28.4659 87.3439 26.7776 90.2406 26.7776C93.0023 26.7776 95.4939 28.962 95.5614 33.1172V50.8542H105.17V33.4755C105.17 28.6519 107.661 26.7432 110.7 26.7432Z" fill="white"/>
<path d="M299.803 48.6625C299.8 49.43 300.26 50.1233 300.968 50.4187C301.676 50.7142 302.491 50.5534 303.034 50.0116C303.577 49.4698 303.74 48.6537 303.448 47.9444C303.155 47.2351 302.464 46.7725 301.697 46.7725C300.653 46.7725 299.806 47.6177 299.803 48.6625Z" fill="white"/>
</svg>
