<svg width="128" height="40" viewBox="0 0 128 40" fill="none" xmlns="http://www.w3.org/2000/svg">
<g clip-path="url(#clip0_2428_6895)">
<path d="M100.932 30.1391C101.011 30.0366 101.051 29.9095 101.045 29.7806C101.038 29.6516 100.985 29.5291 100.896 29.435C100.763 29.3458 100.603 29.304 100.442 29.3167H99.7552V31.0622H100.024V30.3344H100.329L100.795 31.0918H101.093L100.592 30.3226C100.724 30.3055 100.845 30.2401 100.932 30.1391ZM100.024 30.08V29.5356H100.394C100.645 29.5356 100.771 29.6244 100.771 29.796C100.773 29.8339 100.767 29.872 100.754 29.9077C100.741 29.9433 100.72 29.9758 100.693 30.0031C100.604 30.0679 100.492 30.0955 100.382 30.08H100.024Z" fill="white"/>
<path d="M101.117 28.8727C100.763 28.6749 100.345 28.6205 99.9506 28.7208C99.5566 28.8212 99.2169 29.0685 99.0026 29.4112C98.8992 29.5844 98.8316 29.7762 98.8039 29.9756C98.7762 30.1749 98.7888 30.3778 98.8411 30.5722C98.8933 30.7667 98.9842 30.9489 99.1084 31.1082C99.2325 31.2674 99.3874 31.4006 99.5641 31.4999C99.8024 31.6345 100.072 31.7039 100.347 31.7011C100.617 31.7033 100.883 31.6338 101.117 31.4999C101.353 31.3685 101.549 31.1767 101.685 30.9446C101.82 30.7125 101.89 30.4486 101.888 30.1804C101.889 29.91 101.817 29.6442 101.679 29.4112C101.542 29.1865 101.348 29.001 101.117 28.8727ZM101.422 30.8195C101.318 31.0094 101.166 31.1686 100.98 31.281C100.799 31.3874 100.593 31.4445 100.382 31.4467C100.156 31.451 99.933 31.3937 99.7374 31.281C99.5473 31.1745 99.3918 31.0164 99.2894 30.8254C99.1762 30.6291 99.1185 30.4064 99.1221 30.1804C99.1214 29.9586 99.1791 29.7404 99.2894 29.5473C99.3975 29.3584 99.5541 29.2012 99.7433 29.0916C99.9242 28.9853 100.13 28.9281 100.341 28.926C100.563 28.9217 100.782 28.9791 100.974 29.0916C101.157 29.2093 101.308 29.3705 101.412 29.5607C101.517 29.7509 101.571 29.9639 101.571 30.1804C101.584 30.4011 101.539 30.6213 101.44 30.8195H101.422Z" fill="white"/>
<path d="M0.14917 18.5002L18.3381 36.5416L36.5211 18.5002L18.3381 0.506104L0.14917 18.5002ZM32.0888 18.5002L25.5778 25.0091L22.9615 22.4173C22.2271 23.1757 21.3436 23.777 20.3656 24.1841C19.3875 24.5912 18.3357 24.7954 17.2748 24.7842C8.10571 24.7428 7.87872 12.583 15.883 12.3996C18.3739 12.3523 20.6976 13.7842 20.6618 16.7665C20.5722 21.1392 14.8317 20.9085 14.7899 18.2398C14.7977 17.9488 14.9135 17.6708 15.1151 17.459C15.3168 17.2473 15.5902 17.1165 15.883 17.0919C16.7432 17.0919 16.7432 17.8552 17.5018 17.8552C17.7785 17.8336 18.0389 17.7172 18.2384 17.5261C18.4378 17.335 18.5639 17.081 18.595 16.8079C18.7622 13.8493 12.5619 13.3523 12.3886 18.2517C12.1975 23.6363 22.4657 24.8375 23.075 16.731C23.3976 12.4706 18.0215 8.28717 12.2094 10.9972L18.3381 4.89072L26.665 13.1747L32.0888 18.5002Z" fill="white"/>
<path d="M46.9625 0.553223H41.933V10.8905H45.3557V7.67157H47.082C50.0687 7.67157 51.4187 6.2692 51.4187 4.03843C51.4127 1.93192 49.9612 0.553223 46.9625 0.553223ZM46.7774 5.28695H45.3557V2.96742H46.3234C47.0521 2.96742 48.1512 3.09168 48.1512 4.05618C48.1512 5.02068 47.5718 5.26328 46.7774 5.26328V5.28695Z" fill="white"/>
<path d="M56.1496 11.1568C58.5808 11.1568 60.4683 9.86682 60.4683 7.10943C60.4683 4.74256 58.8137 3.2041 56.1317 3.2041C53.5691 3.2041 51.8607 4.65381 51.8607 7.25736C51.8607 9.86091 53.7125 11.1568 56.1496 11.1568ZM56.1496 5.2396C56.9321 5.19227 57.4219 6.02659 57.4219 7.1331C57.4219 8.55321 56.9321 9.17452 56.1197 9.17452C55.3073 9.17452 54.8474 8.52954 54.8474 7.10943C54.8474 6.26327 55.152 5.21594 56.1795 5.21594L56.1496 5.2396Z" fill="white"/>
<path d="M64.4944 8.34611C64.4944 6.71889 65.0917 6.14492 66.3461 6.14492C66.5552 6.14492 67.4632 6.14492 67.6663 6.14492H68.3114V8.29877C68.3114 10.8964 68.7893 11.1686 72.7496 10.9556V8.80173H72.2717C71.4295 8.80173 71.3279 8.55912 71.3279 7.87273V6.13901H72.7675V3.41711H71.316V1.07983H68.3293V3.4467H67.6902C67.5587 3.4467 66.7045 3.4467 66.5731 3.4467C65.3785 3.4467 64.8229 3.90824 64.2256 4.97333V3.41711H61.4778V10.9437H64.4944V8.34611Z" fill="white"/>
<path d="M76.9848 0.5H73.9682V10.8373H76.9848V0.5Z" fill="white"/>
<path d="M77.9345 8.89049C77.9345 10.4585 79.2068 11.1568 80.6404 11.1568C81.1655 11.1961 81.6931 11.1258 82.1891 10.9505C82.685 10.7752 83.1383 10.4988 83.5196 10.139V10.9437H86.3809V6.32244C86.3809 4.5473 86.1658 3.2041 82.5699 3.2041C79.5832 3.2041 78.4243 4.13901 78.4243 5.73073H81.3274C81.3991 5.08576 81.9606 4.997 82.3847 4.997C82.7013 4.997 83.3703 5.07392 83.3703 5.6183C83.3404 7.02659 77.9345 5.48221 77.9345 8.89049ZM82.0024 9.48221C81.405 9.48221 81.0466 9.22185 81.0466 8.84907C81.0466 7.87274 82.3548 8.10351 83.3404 7.63014C83.4121 8.64789 83.0656 9.46446 82.0024 9.46446V9.48221Z" fill="white"/>
<path d="M90.6877 7.10939C90.6877 6.1449 90.9326 5.5591 91.8824 5.5591C92.8321 5.5591 92.9396 6.22182 92.9396 6.96738V10.9437H95.9263V6.43484C95.9263 4.36383 94.9825 3.20407 92.9874 3.20407C92.4748 3.198 91.9693 3.32273 91.5194 3.56627C91.0695 3.8098 90.6905 4.16394 90.4189 4.5946V3.41117H87.701V10.9437H90.6877V7.10939Z" fill="white"/>
<path d="M100.448 11.1567C100.911 11.1751 101.371 11.072 101.781 10.858C102.191 10.644 102.537 10.3266 102.784 9.93781V10.9437H105.496V0.606445H102.509V4.15674C102.238 3.82748 101.891 3.5686 101.496 3.40259C101.102 3.23658 100.672 3.16843 100.245 3.20408C98.4531 3.20408 97.0314 4.82538 97.0314 7.34609C97.0015 9.4526 98.1604 11.1567 100.448 11.1567ZM101.29 5.51769C102.288 5.51769 102.581 6.4171 102.581 7.25141C102.581 8.08573 102.246 9.02656 101.201 9.02656C100.155 9.02656 100.006 8.1094 100.006 7.3165C100.006 6.5236 100.293 5.51769 101.29 5.51769Z" fill="white"/>
<path d="M46.0187 21.3995C44.2805 21.3995 43.9579 20.0326 43.9579 18.5829C43.9579 16.5889 44.6926 15.5415 45.8873 15.5415C46.1236 15.5245 46.361 15.5557 46.5846 15.6332C46.8083 15.7107 47.0135 15.8328 47.1876 15.9919C47.3617 16.1511 47.501 16.344 47.5969 16.5586C47.6928 16.7732 47.7432 17.005 47.745 17.2397H50.9886C50.7138 14.5829 48.9337 13.0149 45.744 13.0149C42.829 13.0149 40.5412 15.0977 40.5412 18.4468C40.5412 21.796 42.6259 23.9025 46.0785 23.9025C48.8322 23.9025 50.7616 22.293 51.0603 19.6244H47.7749C47.6435 20.6362 47.1178 21.3995 46.0187 21.3995Z" fill="white"/>
<path d="M71.7162 19.8196V23.6539H74.7328V19.1983C74.7328 17.145 74.0399 15.9142 71.8178 15.9142C71.2943 15.9056 70.7774 16.03 70.3162 16.2755C69.8551 16.521 69.4651 16.8794 69.1835 17.3166C68.8251 16.506 68.0665 15.9379 66.7046 15.9379C66.2301 15.9644 65.7681 16.0982 65.3539 16.3289C64.9397 16.5597 64.5844 16.8814 64.3152 17.2693V16.1332H61.5495V23.6539H64.5362V19.932C64.5362 19.0267 64.7154 18.2693 65.5995 18.2693C66.3939 18.2693 66.615 18.7131 66.615 19.8196V23.6539H69.6016V19.932C69.6016 19.0267 69.7808 18.2693 70.6649 18.2693C71.5012 18.2693 71.7162 18.7131 71.7162 19.8196Z" fill="white"/>
<path d="M86.3331 15.9141C85.8115 15.907 85.2968 16.032 84.8378 16.2775C84.3789 16.523 83.9909 16.8806 83.7108 17.3165C83.3464 16.5058 82.5937 15.9378 81.2318 15.9378C80.7574 15.9643 80.2953 16.098 79.8812 16.3288C79.467 16.5596 79.1117 16.8812 78.8425 17.2691V16.133H76.0768V23.6538H79.0635V19.9319C79.0635 19.0265 79.2427 18.2691 80.1208 18.2691C80.9988 18.2691 81.1362 18.7129 81.1362 19.8194V23.6538H84.1229V19.9319C84.1229 19.0265 84.2962 18.2691 85.1802 18.2691C86.0643 18.2691 86.1957 18.7129 86.1957 19.8194V23.6538H89.2122V19.1981C89.2481 17.1449 88.5492 15.9141 86.3331 15.9141Z" fill="white"/>
<path d="M98.7995 23.6538V16.1331H95.783V19.7544C95.783 20.9378 95.5082 21.5295 94.6361 21.5295C93.9133 21.5295 93.5489 21.2041 93.5489 20.1686V16.1331H90.5622V20.7129C90.5622 22.8668 91.6374 23.8727 93.2861 23.8727C93.8217 23.9262 94.3617 23.8311 94.8459 23.5981C95.33 23.3651 95.7393 23.0033 96.0279 22.5532V23.6597L98.7995 23.6538Z" fill="white"/>
<path d="M105.46 15.9143C104.947 15.9082 104.442 16.0329 103.992 16.2765C103.542 16.52 103.163 16.8741 102.891 17.3048V16.1332H100.138V23.6539H103.154V19.8196C103.154 18.8551 103.399 18.2693 104.349 18.2693C105.299 18.2693 105.406 18.9261 105.406 19.6717V23.6539H108.393V19.1391C108.405 17.074 107.461 15.9143 105.46 15.9143Z" fill="white"/>
<path d="M46.0187 34.1568C44.2805 34.1568 43.9579 32.7958 43.9579 31.3461C43.9579 29.3461 44.6867 28.3284 45.8873 28.3284C46.1233 28.3105 46.3605 28.3409 46.5842 28.4177C46.8078 28.4945 47.0131 28.616 47.1873 28.7747C47.3616 28.9335 47.501 29.126 47.5969 29.3403C47.6929 29.5546 47.7433 29.7862 47.745 30.0207H50.9886C50.7138 27.3639 48.9337 25.8018 45.744 25.8018C42.829 25.8018 40.5412 27.8846 40.5412 31.2278C40.5412 34.571 42.6259 36.6834 46.0785 36.6834C48.8322 36.6834 50.7616 35.0799 51.0603 32.4053H47.7749C47.6435 33.3994 47.1178 34.1568 46.0187 34.1568Z" fill="white"/>
<path d="M64.5661 26.074H61.5495V36.4172H64.5661V26.074Z" fill="white"/>
<path d="M69.3508 26.074H66.3342V36.4172H69.3508V26.074Z" fill="white"/>
<path d="M74.8164 28.6716C72.3852 28.6716 70.5156 30.2515 70.5156 32.7249C70.5156 35.1983 72.3972 36.6302 74.8343 36.6302C76.6263 36.6302 78.5199 36.0385 79.0157 34.145H76.1305C76.0273 34.3515 75.8655 34.5236 75.665 34.6402C75.4644 34.7569 75.2339 34.8131 75.0016 34.8018C74.8046 34.8066 74.6088 34.7719 74.4258 34.6996C74.2428 34.6274 74.0764 34.5191 73.9369 34.3814C73.7973 34.2437 73.6873 34.0794 73.6137 33.8984C73.54 33.7174 73.5041 33.5235 73.5082 33.3284H79.2606C79.3382 30.5947 77.6358 28.6716 74.8164 28.6716ZM73.5321 31.8018C73.5201 31.6198 73.5488 31.4373 73.6163 31.2676C73.6838 31.0978 73.7884 30.945 73.9226 30.82C74.0568 30.695 74.2172 30.6009 74.3924 30.5446C74.5676 30.4883 74.7532 30.471 74.9359 30.4941C75.2843 30.503 75.6162 30.6432 75.8637 30.8862C76.1113 31.1293 76.2559 31.4568 76.2679 31.8018H73.5321Z" fill="white"/>
<path d="M85.8313 30.3343C85.5665 29.9715 85.2193 29.6753 84.8178 29.4698C84.4163 29.2642 83.9716 29.155 83.5196 29.1509C81.0227 29.1509 80.1267 31.1213 80.1267 32.9734C80.1267 34.8254 81.3214 36.5237 83.43 36.5237C83.8302 36.5437 84.2302 36.4808 84.6046 36.3392C84.979 36.1976 85.3194 35.9803 85.6043 35.7012V36.2929C85.6043 37.3698 85.2459 37.4763 84.3798 37.4763H82.7729V39.4586H83.7765C84.6784 39.4586 86.2256 39.6065 86.9603 39.1272C88.0892 38.3876 88.4775 36.9852 88.4775 35.3994V29.3698H85.8253L85.8313 30.3343ZM84.338 34.4763C83.5256 34.4763 83.1433 33.7603 83.1433 33.0089C83.1433 32.0385 83.4181 31.287 84.338 31.3047C85.2579 31.3225 85.6103 32.0917 85.6103 32.926C85.6103 33.7603 85.2638 34.5059 84.338 34.4763Z" fill="white"/>
<path d="M93.6744 28.6716C91.2372 28.6716 89.3676 30.2515 89.3676 32.7249C89.3676 35.1983 91.2551 36.6302 93.6863 36.6302C95.4783 36.6302 97.3719 36.0385 97.8677 34.145H94.9825C94.8793 34.3515 94.7175 34.5236 94.517 34.6402C94.3164 34.7569 94.0859 34.8131 93.8536 34.8018C93.6566 34.8066 93.4607 34.7719 93.2777 34.6996C93.0948 34.6274 92.9284 34.5191 92.7889 34.3814C92.6493 34.2437 92.5393 34.0794 92.4657 33.8984C92.392 33.7174 92.3561 33.5235 92.3602 33.3284H98.1126C98.1902 30.5947 96.4938 28.6716 93.6744 28.6716ZM92.3841 31.8018C92.3731 31.62 92.4026 31.4381 92.4705 31.2688C92.5384 31.0996 92.643 30.9472 92.7769 30.8224C92.9109 30.6977 93.0708 30.6036 93.2455 30.5468C93.4202 30.4901 93.6054 30.4721 93.7879 30.4941C94.1363 30.503 94.4682 30.6432 94.7157 30.8862C94.9633 31.1293 95.1079 31.4568 95.1199 31.8018H92.3841Z" fill="white"/>
<path d="M112.538 11.9851H109.48V15.0147H112.538V11.9851Z" fill="white"/>
<path d="M124.246 16.1331L122.944 20.7663L121.6 16.1331H117.192V14.2751H114.205V16.1331H109.486V23.6538H112.473V18.9201H114.133V21.0207C114.133 23.6183 114.611 23.8905 118.571 23.6775V21.5118H118.088C117.251 21.5118 117.15 21.2692 117.15 20.5769V18.8964H119.539L121.02 22.9852C121.325 23.8136 121.11 24.0858 120.166 24.0858C119.963 24.0858 119.76 24.0858 119.569 24.0858V26.1746C119.802 26.1746 120.351 26.2278 120.901 26.2278C123.583 26.2278 123.888 25.4941 124.7 23.1686L127.125 16.1331H124.246Z" fill="white"/>
<path d="M56.2093 15.9792C53.6408 15.9792 51.9025 17.429 51.9025 20.0384C51.9025 22.6479 53.7841 23.9319 56.2213 23.9319C58.6584 23.9319 60.546 22.642 60.546 19.8846C60.546 17.5414 58.8914 15.9792 56.2093 15.9792ZM56.2093 21.8964C55.4447 21.8964 54.9071 21.3047 54.9071 19.8609C54.9071 19.0148 55.2118 17.9615 56.2392 17.9615C57.0217 17.9201 57.5175 18.7544 57.5175 19.8609C57.5295 21.3047 57.0337 21.9201 56.2213 21.9201L56.2093 21.8964Z" fill="white"/>
<path d="M56.1615 28.6775C53.599 28.6775 51.8607 30.1272 51.8607 32.7426C51.8607 35.358 53.7423 36.6302 56.1795 36.6302C58.6166 36.6302 60.4982 35.3402 60.4982 32.5828C60.4982 30.2396 58.8436 28.6775 56.1615 28.6775ZM56.1615 34.5946C55.391 34.5946 54.8534 34.0029 54.8534 32.5532C54.8534 31.7071 55.158 30.6597 56.1914 30.6597C56.9739 30.6124 57.4637 31.4467 57.4637 32.5532C57.4816 34.0029 56.9918 34.6242 56.1795 34.6242L56.1615 34.5946Z" fill="white"/>
</g>
<defs>
<clipPath id="clip0_2428_6895">
<rect width="127" height="39" fill="white" transform="translate(0.14917 0.5)"/>
</clipPath>
</defs>
</svg>
