<svg width="49" height="48" viewBox="0 0 49 48" fill="none" xmlns="http://www.w3.org/2000/svg">
<g clip-path="url(#clip0_2428_6951)">
<path d="M18.2462 0C13.5184 0 9.672 3.78821 9.672 8.44451C9.672 13.1008 13.5184 16.889 18.2462 16.889C22.9739 16.889 26.8202 13.1008 26.8202 8.44451C26.8202 3.78821 22.9739 0 18.2462 0ZM23.6126 19.9899L18.9868 25.7674C18.493 26.2413 17.9992 26.2413 17.5054 25.7674L12.8797 19.9901C7.88 20.2244 3.88461 24.3627 3.88461 29.4159V39.3439C3.88461 40.1351 4.54226 40.7788 5.35077 40.7788H9.64441V35.4387C9.64441 34.9163 10.0688 34.4928 10.5924 34.4928C11.116 34.4928 11.5404 34.9163 11.5404 35.4387V40.7788H21.3177L29.8546 25.5357C30.1534 25.0019 30.5792 24.5727 31.0878 24.2775C29.4361 21.7258 26.6783 20.1318 23.6126 19.9899ZM44.937 45.8743L34.0634 26.4585C33.5169 25.483 32.0559 25.483 31.5094 26.4585L20.6358 45.8743C20.1026 46.8263 20.8333 48 21.9127 48H43.6601C44.7395 48 45.4699 46.8263 44.937 45.8743ZM33.7344 45.0834H31.8385V42.5605H33.7344V45.0834ZM33.7344 40.272H31.8385V32.7914H33.7344V40.272Z" fill="#1D1F2C"/>
</g>
<defs>
<clipPath id="clip0_2428_6951">
<rect width="48" height="48" fill="white" transform="translate(0.5)"/>
</clipPath>
</defs>
</svg>
