<svg width="39" height="38" viewBox="0 0 39 38" fill="none" xmlns="http://www.w3.org/2000/svg">
<path d="M30.9808 24.2479C32.6596 22.891 33.7352 20.8041 33.7352 18.4631C33.7352 14.3734 30.4535 11.0581 26.4053 11.0581C22.3571 11.0581 19.0753 14.3734 19.0753 18.4631C19.0753 22.5528 22.357 25.8681 26.4053 25.8681C27.3482 25.8681 28.2495 25.6881 29.0775 25.3605L30.2867 27.4764C30.5518 27.2144 30.8485 26.9872 31.1697 26.8C31.4911 26.6128 31.8345 26.4673 32.192 26.3671L30.9808 24.2479ZM29.773 17.9657L26.3176 21.4565C25.8882 21.8902 25.1921 21.8902 24.7627 21.4565L23.035 19.7111C22.6056 19.2773 22.6056 18.5741 23.035 18.1403C23.4644 17.7065 24.1605 17.7065 24.5899 18.1403L25.5402 19.1003L28.2181 16.3949C28.6475 15.9611 29.3436 15.9611 29.773 16.3949C30.2024 16.8287 30.2024 17.5319 29.773 17.9657ZM38.205 34.6673L35.273 29.537C34.6658 28.4744 33.3209 28.1104 32.2691 28.7238C31.2174 29.3372 30.857 30.6959 31.4642 31.7585L34.3962 36.8888C35.0034 37.9514 36.3483 38.3154 37.4001 37.702C38.4519 37.0885 38.8123 35.7299 38.205 34.6673Z" fill="#E9E9EA"/>
<path d="M17.2617 22.2151H6.02854C5.4365 22.2151 4.92707 21.7554 4.89921 21.158C4.86953 20.5201 5.37258 19.9936 5.99746 19.9936H16.5666C16.4594 19.4115 16.4055 18.8208 16.4056 18.2288C16.4056 18.0757 16.4096 17.9235 16.4166 17.772H6.02854C5.4365 17.772 4.92707 17.3124 4.89921 16.715C4.86953 16.0771 5.37258 15.5505 5.99746 15.5505H16.7812C17.0049 14.7722 17.3256 14.0258 17.7354 13.329H6.02854C5.4365 13.329 4.92707 12.8694 4.89921 12.272C4.86953 11.6341 5.37258 11.1075 5.99746 11.1075H19.5299C21.2231 9.55196 23.471 8.60226 25.9345 8.60226V1.11075C25.9345 0.497321 25.4423 0 24.835 0H1.59949C0.992279 0 0.5 0.497247 0.5 1.11075V36.6548C0.5 37.2683 0.992279 37.7656 1.59949 37.7656H24.835C25.4423 37.7656 25.9345 37.2683 25.9345 36.6548V27.8553C22.0868 27.8553 18.7648 25.5394 17.2617 22.2151ZM5.99746 6.66452H16.2594C16.8666 6.66452 17.3589 7.16184 17.3589 7.77527C17.3589 8.3887 16.8666 8.88602 16.2594 8.88602H5.99746C5.39024 8.88602 4.89797 8.3887 4.89797 7.77527C4.89797 7.16184 5.39024 6.66452 5.99746 6.66452ZM4.89797 25.5473C4.89797 24.9339 5.39024 24.4366 5.99746 24.4366H16.2594C16.8666 24.4366 17.3589 24.9339 17.3589 25.5473C17.3589 26.1607 16.8666 26.6581 16.2594 26.6581H5.99746C5.39024 26.6581 4.89797 26.1607 4.89797 25.5473ZM21.7568 29.9903C21.7568 30.6038 21.2646 31.1011 20.6573 31.1011H13.3274C12.7202 31.1011 12.2279 30.6038 12.2279 29.9903C12.2279 29.3769 12.7202 28.8796 13.3274 28.8796H20.6573C21.2646 28.8796 21.7568 29.3769 21.7568 29.9903ZM25.9345 8.60226V8.603C25.9529 8.60256 25.9714 8.60226 25.9345 8.60226Z" fill="#E9E9EA"/>
<path d="M25.9346 8.6051V8.60303C25.9163 8.60355 25.898 8.60429 25.9346 8.6051ZM25.9346 27.8553C25.9715 27.8553 25.953 27.855 25.9346 27.8545V27.8553ZM25.9346 27.8545V27.8525C25.898 27.8533 25.9163 27.854 25.9346 27.8545Z" fill="white"/>
</svg>
