<svg width="49" height="48" viewBox="0 0 49 48" fill="none" xmlns="http://www.w3.org/2000/svg">
<path fill-rule="evenodd" clip-rule="evenodd" d="M29.1134 10.1137L35.8597 3.36653V5.25935C35.8597 5.56966 36.1119 5.82185 36.4222 5.82185C36.7325 5.82185 36.9847 5.56966 36.9847 5.25935V2.00903C36.9847 1.69872 36.7325 1.44653 36.4222 1.44653H33.1719C32.8606 1.44653 32.6094 1.69872 32.6094 2.00903C32.6094 2.31935 32.8606 2.57153 33.1719 2.57153H35.0647L28.654 8.98216L23.1837 5.09528C23.0859 5.02588 22.9685 4.98954 22.8486 4.99157C22.7287 4.99359 22.6126 5.03387 22.5172 5.10653L12.1897 12.9675C12.0712 13.058 11.9935 13.1919 11.9734 13.3396C11.9534 13.4874 11.9927 13.6371 12.0828 13.7559C12.1353 13.8249 12.2031 13.8808 12.2809 13.9192C12.3586 13.9575 12.4442 13.9774 12.5309 13.9772C12.65 13.9772 12.77 13.9397 12.8712 13.8618L22.8697 6.25122L28.3897 10.1728C28.6119 10.334 28.9194 10.3078 29.1134 10.1137ZM16.6906 30.7772H9.51218V32.3297C9.51218 32.6043 9.7353 32.8284 10.01 32.8284H12.5853C13.2987 32.8284 13.9044 33.2662 14.1275 33.945C14.2972 34.4615 14.5081 34.9697 14.7547 35.4562C15.0772 36.0937 14.96 36.8325 14.4547 37.3378L12.6331 39.1603C12.5394 39.254 12.4878 39.3787 12.4878 39.5128C12.4878 39.6459 12.5394 39.7715 12.6331 39.8643L15.1578 42.389C15.2506 42.4828 15.3762 42.5343 15.5094 42.5343C15.6434 42.5343 15.7681 42.4828 15.8619 42.389L17.6834 40.5675C18.1887 40.0622 18.9275 39.944 19.565 40.2675C20.0506 40.514 20.5597 40.725 21.0762 40.8947C21.755 41.1178 22.1928 41.7225 22.1928 42.4368V45.0112C22.1928 45.2868 22.4169 45.51 22.6916 45.51H26.2616C26.5362 45.51 26.7603 45.2868 26.7603 45.0112V42.4368C26.7603 41.7234 27.1981 41.1187 27.8769 40.8947C28.3925 40.725 28.9016 40.514 29.3881 40.2675C30.0256 39.945 30.7644 40.0622 31.2697 40.5675L33.0912 42.389C33.185 42.4828 33.3097 42.5343 33.4437 42.5343C33.5769 42.5343 33.7025 42.4828 33.7953 42.389L36.32 39.8653C36.4137 39.7715 36.4653 39.6459 36.4653 39.5128C36.4653 39.3787 36.4137 39.254 36.32 39.1603L34.4984 37.3378C33.9931 36.8325 33.8759 36.0947 34.1984 35.4562C34.445 34.9697 34.6559 34.4606 34.8256 33.945C35.0487 33.2662 35.6534 32.8284 36.3678 32.8284H38.9431C39.2178 32.8284 39.4409 32.6053 39.4409 32.3297V30.7772H32.2625C32.1387 34.9659 28.6953 38.3372 24.4766 38.3372C20.2578 38.3362 16.8144 34.9659 16.6906 30.7772ZM17.5456 28.0781C17.5456 26.6897 18.0959 25.4278 18.9894 24.4968C18.4091 24.1875 17.7659 24.0262 17.0956 24.0262H13.5884C11.3534 24.0262 9.53561 25.844 9.53561 28.0781V29.6512H17.5456V28.0781ZM30.2816 28.0781V29.6512H18.6706V28.0781C18.6706 25.844 20.4884 24.0262 22.7225 24.0262H26.2306C28.4637 24.0262 30.2816 25.844 30.2816 28.0781ZM35.3647 24.0262H31.8575C31.1872 24.0262 30.5441 24.1875 29.9637 24.4968C30.8572 25.4278 31.4075 26.6897 31.4075 28.0781V29.6512H39.4175V28.0781C39.4165 25.844 37.5987 24.0262 35.3647 24.0262ZM33.6115 16.0031C32.1059 16.0031 30.8806 17.2275 30.8806 18.7331C30.8806 20.2387 32.1059 21.464 33.6115 21.464C35.1172 21.464 36.3415 20.2397 36.3415 18.7331C36.3415 17.2284 35.1162 16.0031 33.6115 16.0031ZM15.3416 21.464C16.8472 21.464 18.0725 20.2397 18.0725 18.7331C18.0725 17.2275 16.8472 16.0031 15.3416 16.0031C13.8359 16.0031 12.6116 17.2275 12.6116 18.7331C12.6106 20.2397 13.835 21.464 15.3416 21.464ZM27.2075 18.734C27.2075 17.2284 25.9822 16.004 24.4766 16.004C22.9709 16.004 21.7456 17.2284 21.7456 18.734C21.7456 20.2397 22.9709 21.465 24.4766 21.465C25.9812 21.464 27.2075 20.2397 27.2075 18.734Z" fill="#1D1F2C"/>
</svg>
