<svg width="49" height="48" viewBox="0 0 49 48" fill="none" xmlns="http://www.w3.org/2000/svg">
<path d="M8.46381 24.1279H3.77631C3.57758 24.1285 3.38716 24.2077 3.24663 24.3483C3.10611 24.4888 3.0269 24.6792 3.02631 24.8779V39.9064C3.0269 40.1052 3.10611 40.2956 3.24663 40.4361C3.38716 40.5766 3.57758 40.6558 3.77631 40.6564H8.46381C9.05702 40.6576 9.62662 40.4241 10.0482 40.0067C10.4698 39.5893 10.7091 39.0221 10.7138 38.4289V26.3779C10.7103 25.7823 10.4721 25.212 10.0509 24.7909C9.62969 24.3697 9.05945 24.1315 8.46381 24.1279ZM6.86631 29.3779C6.66739 29.3779 6.47663 29.2989 6.33598 29.1583C6.19532 29.0176 6.11631 28.8268 6.11631 28.6279C6.11631 28.429 6.19532 28.2383 6.33598 28.0976C6.47663 27.9569 6.66739 27.8779 6.86631 27.8779C7.06522 27.8779 7.25598 27.9569 7.39664 28.0976C7.53729 28.2383 7.61631 28.429 7.61631 28.6279C7.61631 28.8268 7.53729 29.0176 7.39664 29.1583C7.25598 29.2989 7.06522 29.3779 6.86631 29.3779ZM44.8576 32.6622C44.6059 31.9516 44.0922 31.364 43.4216 31.0197C42.751 30.6753 41.9742 30.6002 41.2501 30.8097L34.8983 32.6547C34.8685 33.9179 34.3458 35.1194 33.4418 36.0024C32.5379 36.8853 31.3244 37.3796 30.0608 37.3797H23.0498C22.8509 37.3797 22.6601 37.3007 22.5195 37.16C22.3788 37.0194 22.2998 36.8286 22.2998 36.6297C22.2998 36.4308 22.3788 36.24 22.5195 36.0993C22.6601 35.9587 22.8509 35.8797 23.0498 35.8797H30.0616C34.4746 35.7462 34.4866 29.3239 30.0616 29.1822H24.6391C24.19 29.184 23.75 29.0564 23.3716 28.8147C21.5551 27.6679 19.2203 25.8649 16.9448 26.0254H12.1973C12.2048 26.1304 12.2123 26.2504 12.2123 26.3779V38.4289C12.2108 38.6836 12.1832 38.9374 12.1298 39.1864C12.3706 39.2022 12.6043 39.2741 12.8123 39.3964L18.6023 42.7714C20.1319 43.6643 21.8561 44.1706 23.6256 44.2464C25.395 44.3222 27.1563 43.9652 28.7566 43.2064L43.3351 36.3064C43.9953 35.9956 44.5166 35.4507 44.7979 34.7774C45.0792 34.1041 45.1005 33.3503 44.8576 32.6622ZM22.5248 15.7587H21.0548C21.2368 18.4754 22.3983 21.0338 24.3236 22.9591C26.2489 24.8845 28.8073 26.0459 31.5241 26.2279V24.7579C31.5241 24.559 31.6031 24.3682 31.7437 24.2276C31.8844 24.0869 32.0751 24.0079 32.2741 24.0079C32.473 24.0079 32.6637 24.0869 32.8044 24.2276C32.945 24.3682 33.0241 24.559 33.0241 24.7579V26.2279C35.7406 26.0455 38.2988 24.8838 40.2238 22.9584C42.1488 21.033 43.31 18.4745 43.4918 15.7579H42.0218C41.8229 15.7579 41.6321 15.6789 41.4915 15.5383C41.3508 15.3976 41.2718 15.2068 41.2718 15.0079C41.2718 14.809 41.3508 14.6183 41.4915 14.4776C41.6321 14.3369 41.8229 14.2579 42.0218 14.2579H43.4918C43.3096 11.5415 42.1482 8.98332 40.2231 7.05817C38.2979 5.13303 35.7398 3.97161 33.0233 3.78943V5.25943C33.0233 5.45834 32.9443 5.64911 32.8036 5.78976C32.663 5.93041 32.4722 6.00943 32.2733 6.00943C32.0744 6.00943 31.8836 5.93041 31.743 5.78976C31.6023 5.64911 31.5233 5.45834 31.5233 5.25943V3.78943C28.8066 3.97165 26.2483 5.13328 24.3231 7.05874C22.3979 8.98419 21.2366 11.5427 21.0548 14.2594H22.5248C22.7195 14.2656 22.9042 14.3473 23.0397 14.4872C23.1753 14.6271 23.2511 14.8142 23.2511 15.0091C23.2511 15.2039 23.1753 15.391 23.0397 15.5309C22.9042 15.6708 22.7195 15.7525 22.5248 15.7587ZM29.6191 16.5987L31.5241 14.6937V9.75868C31.5241 9.55977 31.6031 9.369 31.7437 9.22835C31.8844 9.0877 32.0751 9.00868 32.2741 9.00868C32.473 9.00868 32.6637 9.0877 32.8044 9.22835C32.945 9.369 33.0241 9.55977 33.0241 9.75868V15.0087C33.0216 15.2073 32.9439 15.3976 32.8066 15.5412L30.6841 17.6637C30.5428 17.8049 30.3513 17.8842 30.1516 17.8842C29.9518 17.8842 29.7603 17.8049 29.6191 17.6637C29.4778 17.5225 29.3985 17.3309 29.3985 17.1312C29.3985 16.9315 29.4778 16.7399 29.6191 16.5987Z" fill="#1D1F2C"/>
</svg>
