<svg width="35" height="34" viewBox="0 0 35 34" fill="none" xmlns="http://www.w3.org/2000/svg">
<path d="M17.5 27.6875C19.6138 27.6875 21.6801 27.0607 23.4377 25.8863C25.1952 24.712 26.5651 23.0428 27.374 21.0899C28.1829 19.137 28.3945 16.9881 27.9821 14.915C27.5698 12.8418 26.5519 10.9375 25.0572 9.4428C23.5625 7.94813 21.6582 6.93024 19.585 6.51786C17.5119 6.10548 15.363 6.31713 13.4101 7.12604C11.4572 7.93495 9.78803 9.3048 8.61367 11.0623C7.43931 12.8199 6.8125 14.8862 6.8125 17C6.8169 19.8332 7.94431 22.549 9.94765 24.5524C11.951 26.5557 14.6668 27.6831 17.5 27.6875ZM16.3125 13.4375C16.3125 13.1226 16.4376 12.8205 16.6603 12.5978C16.883 12.3751 17.1851 12.25 17.5 12.25C17.8149 12.25 18.117 12.3751 18.3397 12.5978C18.5624 12.8205 18.6875 13.1226 18.6875 13.4375V16.5013L20.8606 18.6744C21.0842 18.898 21.2099 19.2013 21.2099 19.5175C21.2099 19.8337 21.0842 20.137 20.8606 20.3606C20.637 20.5842 20.3337 20.7099 20.0175 20.7099C19.7013 20.7099 19.398 20.5842 19.1744 20.3606L16.6569 17.8431C16.439 17.6162 16.3158 17.3146 16.3125 17V13.4375Z" fill="#E9E9EA"/>
<path d="M17.5 0.374996C17.1851 0.374996 16.883 0.500107 16.6603 0.722806C16.4376 0.945506 16.3125 1.24755 16.3125 1.5625C16.3125 1.87744 16.4376 2.17949 16.6603 2.40219C16.883 2.62488 17.1851 2.75 17.5 2.75C20.8243 2.73634 24.0497 3.88058 26.6222 5.98621C29.1947 8.09184 30.9538 11.0275 31.5974 14.2889C32.241 17.5504 31.729 20.9342 30.1492 23.8592C28.5694 26.7842 26.0205 29.068 22.9402 30.3182C19.8598 31.5684 16.4403 31.7071 13.2689 30.7104C10.0974 29.7138 7.37192 27.644 5.56044 24.8566C3.74896 22.0691 2.96453 18.7379 3.34188 15.435C3.71923 12.1321 5.23479 9.06368 7.62831 6.75662L7.54756 7.37175C7.5084 7.68315 7.59411 7.9974 7.78597 8.2458C7.97782 8.4942 8.26021 8.65654 8.5714 8.69734C8.8826 8.73814 9.1973 8.65409 9.4467 8.46355C9.69611 8.273 9.85993 7.99148 9.90238 7.6805L10.3655 4.14768C10.3938 3.8375 10.304 3.52806 10.114 3.28126C9.92396 3.03445 9.64779 2.86847 9.34069 2.8165L5.80906 2.35456C5.65186 2.32857 5.49104 2.33448 5.33618 2.37194C5.18131 2.4094 5.03557 2.47765 4.90762 2.57261C4.77968 2.66757 4.67216 2.78731 4.59146 2.92469C4.51076 3.06208 4.45853 3.2143 4.43788 3.37229C4.41724 3.53028 4.4286 3.6908 4.47129 3.84431C4.51397 3.99782 4.58712 4.14117 4.68636 4.26582C4.78561 4.39047 4.90892 4.49387 5.04896 4.56987C5.189 4.64587 5.3429 4.6929 5.5015 4.70818L6.24131 4.80556C3.4065 7.43611 1.57941 10.9741 1.07563 14.8085C0.571848 18.6428 1.42301 22.5327 3.4821 25.8062C5.54119 29.0798 8.6789 31.5314 12.3533 32.7377C16.0276 33.9439 20.0079 33.8291 23.6066 32.4129C27.2052 30.9967 30.1963 28.3682 32.0632 24.9813C33.9301 21.5945 34.5554 17.662 33.8314 13.8631C33.1073 10.0642 31.0792 6.63744 28.0974 4.17476C25.1156 1.71208 21.3673 0.368114 17.5 0.374996Z" fill="#E9E9EA"/>
</svg>
