<svg width="103" height="42" viewBox="0 0 103 42" fill="none" xmlns="http://www.w3.org/2000/svg">
<g clip-path="url(#clip0_2428_6924)">
<path d="M75.519 22.5348H79.9544V14.4159C79.9544 12.5588 81.0287 11.2543 82.6249 11.2543C84.1596 11.2543 84.9577 12.344 84.9577 13.8787V22.5348H89.3932V13.0193C89.3932 9.79628 87.4594 7.52484 84.3285 7.52484C82.3333 7.52484 80.9367 8.3843 79.893 9.94976H79.8009V7.95457H75.5036V22.5348H75.519ZM66.8015 7.55553C62.1666 7.55553 59.051 10.886 59.051 15.2754C59.051 19.6341 62.1512 22.9952 66.8015 22.9952C71.4519 22.9952 74.5521 19.6341 74.5521 15.2754C74.5521 10.886 71.4519 7.55553 66.8015 7.55553ZM66.7862 19.7108C64.6836 19.7108 63.5632 17.9458 63.5632 15.2754C63.5632 12.5742 64.6682 10.8399 66.7862 10.8399C68.9042 10.8399 70.0552 12.5742 70.0552 15.2754C70.0552 17.9458 68.8888 19.7108 66.7862 19.7108ZM46.42 22.5348H58.8822V19.0355H51.8223V18.9434L58.5752 11.3771V7.95457H46.42V11.4538H53.2496V11.5459L46.42 19.1737V22.5348ZM40.726 22.5348H45.1921V7.95457H40.726V22.5348ZM30.3664 22.5348H34.8018V15.8432C34.8018 12.7891 36.6282 11.4538 39.4061 11.8222H39.4982V7.98527C39.268 7.89318 39.0224 7.87783 38.5927 7.87783C36.8584 7.87783 35.692 8.67591 34.6944 10.3795H34.6023V7.95457H30.3664V22.5348ZM22.2015 19.7415C20.237 19.7415 19.0399 18.4523 18.8097 16.5032H29.3074C29.3381 13.3723 28.5093 10.8706 26.7751 9.30516C25.5472 8.16944 23.9204 7.54019 21.8792 7.54019C17.4898 7.54019 14.4509 10.8706 14.4509 15.2293C14.4509 19.6187 17.3516 22.9799 22.1708 22.9799C23.9971 22.9799 25.4398 22.5041 26.6369 21.6753C27.9261 20.7851 28.8316 19.5113 29.0925 18.2374H24.8259C24.3808 19.1736 23.506 19.7415 22.2015 19.7415ZM21.9713 10.7171C23.5367 10.7171 24.611 11.8836 24.7952 13.5871H18.8404C19.178 11.8529 20.1142 10.7171 21.9713 10.7171ZM5.5647 22.5348H10.2304L15.2951 7.95457H10.8289L7.97427 17.3166H7.91288L5.05823 7.95457H0.5L5.5647 22.5348ZM40.726 2.76709H45.1921V6.72677H40.726V2.76709ZM8.55748 41.3662C7.37571 41.3662 6.31673 41.1667 5.36518 40.783C4.41363 40.3994 3.60021 39.8468 2.92492 39.1562C2.24962 38.4656 1.72781 37.6521 1.35946 36.7006C0.991122 35.7797 0.806952 34.7514 0.806952 33.6618C0.806952 32.5721 0.991122 31.5438 1.34412 30.6076C1.69711 29.6714 2.21893 28.858 2.87887 28.152C3.53882 27.446 4.35224 26.9242 5.28844 26.5251C6.22465 26.1261 7.26828 25.9419 8.4347 25.9419C9.41694 25.9419 10.3224 26.0801 11.1205 26.3563C11.9186 26.6326 12.6246 27.0163 13.2078 27.5074C13.791 27.9985 14.2668 28.5817 14.6351 29.2724C15.0035 29.963 15.2337 30.6997 15.3411 31.5131H10.8903C10.7368 30.8532 10.4606 30.316 10.0769 29.9323C9.6932 29.5486 9.15603 29.3491 8.49609 29.3491C7.48315 29.3491 6.74646 29.7328 6.25534 30.5002C5.76422 31.2675 5.51866 32.3112 5.51866 33.6464C5.51866 34.951 5.76422 35.9946 6.25534 36.7466C6.74646 37.4987 7.4985 37.8823 8.49609 37.8823C9.96945 37.8823 10.8136 37.0536 11.0284 35.3807H15.4639C15.4332 36.2095 15.2337 36.9922 14.9114 37.7289C14.5737 38.4656 14.1133 39.0948 13.5147 39.632C12.9162 40.1691 12.1949 40.5989 11.3507 40.8905C10.5066 41.2128 9.57042 41.3662 8.55748 41.3662ZM23.6748 41.3662C22.4931 41.3662 21.4341 41.1667 20.4672 40.783C19.5003 40.3994 18.6869 39.8468 18.0116 39.1562C17.3363 38.4656 16.7991 37.6521 16.4308 36.7006C16.0624 35.7644 15.8783 34.7361 15.8783 33.6464C15.8783 32.5567 16.0624 31.5285 16.4308 30.5922C16.7991 29.656 17.3209 28.8426 18.0116 28.1366C18.6869 27.446 19.5156 26.9088 20.4672 26.5098C21.4187 26.1108 22.4931 25.9266 23.6748 25.9266C24.8566 25.9266 25.9156 26.1261 26.8825 26.5098C27.834 26.8935 28.6628 27.446 29.3381 28.1366C30.0134 28.8273 30.5352 29.6407 30.9036 30.5922C31.2719 31.5438 31.4561 32.5567 31.4561 33.6464C31.4561 34.7361 31.2719 35.7644 30.9036 36.7006C30.5352 37.6368 30.0134 38.4502 29.3381 39.1562C28.6628 39.8468 27.8494 40.384 26.8825 40.783C25.9156 41.1667 24.8413 41.3662 23.6748 41.3662ZM23.6441 38.0665C24.6724 38.0665 25.4398 37.6675 25.9616 36.8541C26.4834 36.056 26.7444 34.9817 26.7444 33.6464C26.7444 32.3265 26.4834 31.2522 25.9616 30.4234C25.4398 29.61 24.6724 29.1956 23.6441 29.1956C22.6159 29.1956 21.8485 29.61 21.342 30.4234C20.8355 31.2368 20.5746 32.3112 20.5746 33.6464C20.5746 34.9817 20.8355 36.0406 21.342 36.8541C21.8485 37.6675 22.6159 38.0665 23.6441 38.0665ZM32.4383 26.341H36.9045V28.3362H36.9965C37.5491 27.5381 38.1783 26.9395 38.8843 26.5251C39.5903 26.1108 40.4651 25.9112 41.4934 25.9112C42.2915 25.9112 42.9974 26.0494 43.6267 26.3256C44.2559 26.6019 44.7778 26.9856 45.2228 27.4613C45.6526 27.9371 45.9902 28.5203 46.2204 29.1956C46.4506 29.8709 46.5581 30.6076 46.5581 31.4364V40.9212H41.9231V32.3879C41.9231 31.6052 41.7389 30.9913 41.3553 30.5155C40.9716 30.0397 40.4037 29.8095 39.6517 29.8095C38.8689 29.8095 38.255 30.1011 37.7946 30.669C37.3342 31.2368 37.104 31.9735 37.104 32.8944V40.9519H32.469V26.341H32.4383ZM48.0928 26.341H52.559V28.3362H52.6511C53.2036 27.5381 53.8328 26.9395 54.5388 26.5251C55.2448 26.1108 56.1196 25.9112 57.1479 25.9112C57.946 25.9112 58.652 26.0494 59.2812 26.3256C59.9105 26.6019 60.4323 26.9856 60.8774 27.4613C61.3071 27.9371 61.6447 28.5203 61.875 29.1956C62.1052 29.8709 62.2126 30.6076 62.2126 31.4364V40.9212H57.5776V32.3879C57.5776 31.6052 57.3935 30.9913 57.0098 30.5155C56.6261 30.0397 56.0582 29.8095 55.3062 29.8095C54.5235 29.8095 53.9096 30.1011 53.4491 30.669C52.9887 31.2368 52.7585 31.9735 52.7585 32.8944V40.9519H48.1235L48.0928 26.341ZM70.8686 41.3356C69.6715 41.3356 68.5972 41.136 67.615 40.7523C66.6327 40.3687 65.8346 39.8161 65.1593 39.1255C64.4994 38.4349 63.9776 37.6061 63.6246 36.6699C63.2562 35.7183 63.0874 34.6901 63.0874 33.6004C63.0874 32.526 63.2716 31.5131 63.6246 30.5616C63.9929 29.6254 64.4994 28.8119 65.1593 28.1059C65.8193 27.4 66.6174 26.8781 67.5229 26.4791C68.4284 26.0801 69.4413 25.8959 70.5617 25.8959C71.6053 25.8959 72.5415 26.0494 73.3703 26.3717C74.1991 26.694 74.9204 27.139 75.5497 27.7069C76.4245 28.505 77.0691 29.5179 77.4988 30.7457C77.9285 31.9735 78.1281 33.3241 78.1127 34.7975H67.6303C67.7838 35.7797 68.1214 36.5625 68.6586 37.1303C69.1958 37.6982 69.9324 37.9898 70.9147 37.9898C71.5286 37.9898 72.0197 37.867 72.4187 37.6061C72.8178 37.3452 73.1247 36.9922 73.3243 36.5318H77.8518C77.6983 37.1917 77.4221 37.821 76.9923 38.4195C76.5779 39.0181 76.0408 39.5399 75.3962 39.9696C74.7823 40.4147 74.107 40.737 73.3549 40.9672C72.6336 41.2281 71.8048 41.3356 70.8686 41.3356ZM73.4317 32.0656C73.3396 31.1908 73.048 30.5002 72.5415 29.9937C72.0504 29.4872 71.4212 29.2263 70.6691 29.2263C69.779 29.2263 69.0883 29.4872 68.6125 29.9937C68.1368 30.5002 67.8298 31.2062 67.6763 32.0656H73.4317ZM86.3544 41.3662C85.1726 41.3662 84.1136 41.1667 83.162 40.783C82.2105 40.3994 81.3971 39.8468 80.7218 39.1562C80.0465 38.4656 79.5247 37.6521 79.1563 36.7006C78.788 35.7644 78.6038 34.7361 78.6038 33.6464C78.6038 32.5567 78.788 31.5285 79.141 30.5922C79.494 29.656 80.0158 28.8426 80.6758 28.1366C81.3357 27.4306 82.1338 26.9088 83.0853 26.5098C84.0369 26.1108 85.0805 25.9266 86.2316 25.9266C87.2138 25.9266 88.1193 26.0647 88.9174 26.341C89.7155 26.6172 90.4215 27.0009 91.0047 27.492C91.5879 27.9832 92.0636 28.5664 92.432 29.257C92.785 29.9477 93.0305 30.6843 93.138 31.4978H88.6718C88.5184 30.8378 88.2421 30.3006 87.8584 29.917C87.4747 29.5333 86.9376 29.3337 86.2776 29.3337C85.2647 29.3337 84.528 29.7174 84.0215 30.4848C83.5304 31.2522 83.2848 32.2958 83.2848 33.6311C83.2848 34.9356 83.5304 35.9792 84.0215 36.7313C84.5126 37.4833 85.2647 37.867 86.2776 37.867C87.7663 37.867 88.6105 37.0382 88.81 35.3653H93.2454C93.2147 36.1941 93.0152 36.9768 92.6929 37.7135C92.3553 38.4502 91.8948 39.0795 91.2963 39.6166C90.6977 40.1538 89.9764 40.5835 89.1323 40.8751C88.3188 41.2128 87.3826 41.3662 86.3544 41.3662ZM99.9676 41.09C99.277 41.09 98.6631 41.0286 98.0953 40.9058C97.5274 40.783 97.0516 40.5682 96.6372 40.2612C96.2228 39.9543 95.9005 39.5399 95.6703 39.0181C95.4401 38.4963 95.3327 37.8517 95.3327 37.0689V29.2417H93.3989V26.341H95.3327V22.5348H99.8602V26.341H102.5V29.2417H99.8602V36.0713C99.8602 36.6392 100.014 37.0229 100.305 37.2071C100.597 37.3912 100.996 37.4987 101.487 37.4987C101.702 37.4987 101.901 37.4987 102.086 37.4833C102.27 37.468 102.423 37.468 102.515 37.468V40.8598C102.3 40.9212 101.994 40.9672 101.564 41.0133C101.119 41.0593 100.597 41.09 99.9676 41.09Z" fill="white"/>
<path d="M89.3164 7.95458H91.5878L93.8593 12.8198L99.5379 0.633789H101.825L94.995 15.26H92.7236L89.3164 7.95458Z" fill="white"/>
</g>
<defs>
<clipPath id="clip0_2428_6924">
<rect width="102" height="41" fill="white" transform="translate(0.5 0.5)"/>
</clipPath>
</defs>
</svg>
