<svg width="21" height="21" viewBox="0 0 21 21" fill="none" xmlns="http://www.w3.org/2000/svg">
<path d="M11.4992 1.00098L11.4971 1.00099L9.44108 0.999986L9.44012 0.999986C8.7154 0.998235 7.9907 1.00651 7.26621 1.02482C7.26617 1.02482 7.26614 1.02482 7.26611 1.02482C7.26606 1.02482 7.26601 1.02483 7.26596 1.02483L7.07629 1.02972L6.37078 1.05944C6.37038 1.05945 6.36999 1.05947 6.36959 1.05949C5.35209 1.10736 4.68128 1.26616 4.09984 1.49126L4.09578 1.49284L4.09577 1.49282C3.49684 1.71871 2.95445 2.07264 2.50649 2.52989L2.49888 2.53766L2.49879 2.53758C2.04102 2.98496 1.68685 3.52723 1.46124 4.12623L1.45962 4.13051L1.4596 4.1305C1.23445 4.71208 1.07562 5.38308 1.0278 6.401C1.01579 6.66724 1.00591 6.88672 0.998008 7.10783L0.998002 7.10802L0.991112 7.29898C0.973817 8.02254 0.966554 8.74631 0.969323 9.47008L0.969331 9.47199L0.969327 11.528V11.5292C0.967566 12.2543 0.975846 12.9793 0.994161 13.7041C0.994162 13.7041 0.994163 13.7042 0.994164 13.7042C0.994165 13.7043 0.994166 13.7043 0.994168 13.7044L0.999086 13.8952C1.00786 14.13 1.01776 14.3648 1.02878 14.5995L11.4992 1.00098ZM11.4992 1.00098C12.2233 0.998204 12.9474 1.00547 13.6713 1.02277L13.8623 1.02966L13.8625 1.02967M11.4992 1.00098L13.8625 1.02967M13.8625 1.02967C14.0772 1.03734 14.2894 1.04688 14.5464 1.05843L14.5689 1.05944C14.569 1.05944 14.5692 1.05945 14.5694 1.05946C15.5864 1.10729 16.2582 1.26614 16.8386 1.49117L16.8397 1.49162M13.8625 1.02967L16.8397 1.49162M16.8397 1.49162C17.4375 1.72165 17.9334 2.02818 18.4378 2.53254L18.4378 2.53255M16.8397 1.49162L18.4378 2.53255M18.4378 2.53255L18.4409 2.5356M18.4378 2.53255L18.4409 2.5356M18.4409 2.5356C18.8974 2.98431 19.2508 3.52708 19.4764 4.12618L19.4764 4.12619M18.4409 2.5356L19.4764 4.12619M19.4764 4.12619L19.4781 4.13075M19.4764 4.12619L19.4781 4.13075M19.4781 4.13075C19.7031 4.71095 19.862 5.38372 19.9098 6.40064C19.9218 6.66652 19.9317 6.88576 19.9396 7.10652C19.9396 7.10696 19.9396 7.1074 19.9396 7.10783L19.9455 7.29617C19.9455 7.29676 19.9455 7.29736 19.9455 7.29796C19.9631 8.02194 19.9707 8.74613 19.9683 9.47032L19.9683 9.47266M19.4781 4.13075L19.9683 9.47266M19.9683 9.47266L19.9693 10.218V10.2187L19.9693 11.528L19.9693 11.5297M19.9683 9.47266L19.9693 11.5297M19.9693 11.5297C19.9718 12.2542 19.9642 12.9788 19.9465 13.7031C19.9465 13.7037 19.9465 13.7042 19.9465 13.7048L19.9406 13.8931C19.9406 13.8936 19.9406 13.894 19.9406 13.8944C19.933 14.1084 19.9234 14.32 19.9119 14.5759L19.9109 14.5995C19.9109 14.5998 19.9109 14.6001 19.9108 14.6004C19.863 15.6163 19.7024 16.2885 19.4779 16.8699L19.4762 16.8745M19.9693 11.5297L19.4762 16.8745M19.4762 16.8745C19.2514 17.4739 18.8982 18.0168 18.4412 18.4651L18.4411 18.465M19.4762 16.8745L18.4411 18.465M18.4411 18.465L18.4349 18.4714M18.4411 18.465L18.4349 18.4714M18.4349 18.4714C17.9857 18.928 17.4426 19.2814 16.8431 19.5071L16.8431 19.507M18.4349 18.4714L16.8431 19.507M16.8431 19.507L16.8386 19.5088M16.8431 19.507L16.8386 19.5088M16.8386 19.5088C16.2581 19.7339 15.5861 19.8927 14.5689 19.9405L14.5474 19.9415C14.2905 19.9531 14.0784 19.9626 13.8638 19.9703C13.8634 19.9703 13.8629 19.9703 13.8625 19.9703L13.6741 19.9761C13.6736 19.9762 13.673 19.9762 13.6724 19.9762C12.948 19.9938 12.2235 20.0014 11.499 19.999L11.4967 19.999M16.8386 19.5088L11.4967 19.999M11.4967 19.999L10.7513 20H10.7507L9.44233 20L9.44064 20M11.4967 19.999L9.44064 20M9.44064 20C8.71609 20.0024 7.99155 19.9948 7.26722 19.9772C7.26665 19.9772 7.26609 19.9772 7.26552 19.9771L7.07744 19.9713C7.07697 19.9713 7.0765 19.9713 7.07604 19.9713C6.84108 19.9627 6.60616 19.9528 6.37131 19.9416L6.3708 19.9415M9.44064 20L6.3708 19.9415M6.3708 19.9415C5.35447 19.8938 4.68196 19.7332 4.09922 19.5085L4.09514 19.5069M6.3708 19.9415L4.09514 19.5069M4.09514 19.5069C3.49606 19.2819 2.95342 18.9286 2.50523 18.4718L2.50529 18.4718M4.09514 19.5069L2.50529 18.4718M2.50529 18.4718L2.49863 18.4652M2.50529 18.4718L2.49863 18.4652M2.49863 18.4652C2.04156 18.0164 1.6879 17.4734 1.46229 16.8739L1.46231 16.8739M2.49863 18.4652L1.46231 16.8739M1.46231 16.8739L1.46051 16.8692M1.46231 16.8739L1.46051 16.8692M1.46051 16.8692C1.23545 16.2888 1.07658 15.6168 1.02878 14.5995L1.46051 16.8692ZM10.3379 8.0035L10.4785 8.0009C10.8106 7.99478 11.1406 8.0549 11.4492 8.17774C11.7578 8.30058 12.0388 8.48369 12.2759 8.71636C12.5129 8.94903 12.7012 9.2266 12.8297 9.53286C12.9583 9.83911 13.0245 10.1679 13.0246 10.5001C13.0246 10.8322 12.9585 11.161 12.8301 11.4673C12.7016 11.7736 12.5134 12.0513 12.2764 12.284C12.0395 12.5168 11.7585 12.7 11.45 12.8229C11.1414 12.9459 10.8115 13.0061 10.4794 13.0001L10.4794 13H10.4703C9.80729 13 9.1714 12.7366 8.70256 12.2678C8.23372 11.7989 7.97033 11.163 7.97033 10.5C7.97033 9.83695 8.23372 9.20106 8.70256 8.73222C9.14009 8.29469 9.72309 8.03609 10.3379 8.0035ZM15.6993 6.99859L15.7093 6.99899H15.7193C16.1835 6.99899 16.6286 6.81461 16.9568 6.48642C17.285 6.15823 17.4693 5.71312 17.4693 5.24899C17.4693 4.78486 17.285 4.33974 16.9568 4.01155C16.6286 3.68336 16.1835 3.49899 15.7193 3.49899H15.2193V3.58866C14.9513 3.6774 14.7063 3.83046 14.5074 4.03755C14.1942 4.3635 14.0193 4.79798 14.0193 5.24999C14.0193 5.702 14.1942 6.13648 14.5074 6.46243C14.8205 6.78838 15.2477 6.98051 15.6993 6.99859ZM10.4729 5.00099C9.74531 4.99117 9.02304 5.1258 8.34787 5.39711C7.67161 5.66886 7.05611 6.0723 6.53713 6.584C6.01815 7.09569 5.60604 7.70543 5.32475 8.37778C5.04347 9.05013 4.89862 9.77167 4.89862 10.5005C4.89862 11.2293 5.04347 11.9509 5.32475 12.6232C5.60604 13.2955 6.01815 13.9053 6.53713 14.417C7.05611 14.9287 7.67161 15.3321 8.34787 15.6039C9.02305 15.8752 9.74534 16.0098 10.4729 16C11.9303 15.999 13.3278 15.4197 14.3584 14.3891C15.3899 13.3576 15.9693 11.9587 15.9693 10.5C15.9693 9.0413 15.3899 7.64235 14.3584 6.6109C13.3276 5.5801 11.93 5.00192 10.4729 5.00099Z" fill="white" stroke="white"/>
</svg>
