<svg width="24" height="24" viewBox="0 0 24 24" fill="none" xmlns="http://www.w3.org/2000/svg">
<path d="M9.19718 23.1605C10.0908 23.3818 11.0215 23.5 11.9901 23.5C18.3473 23.5 23.4999 18.3547 23.4999 12.0099V12.0084C23.5189 5.64476 18.3668 0.5 12.0099 0.5C5.65262 0.5 0.5 5.64534 0.5 11.9901C0.5 16.5675 3.17775 20.5196 7.05658 22.3679C6.99729 21.4904 6.99281 20.4367 7.1831 19.6055L7.18342 19.6041C7.29242 19.1342 7.6436 17.6429 7.9672 16.2705L8.39875 14.4412L8.5361 13.8594L8.54972 13.8017C8.51149 13.7045 8.46317 13.5692 8.41535 13.4015C8.31646 13.0546 8.21827 12.5638 8.21827 11.9803C8.21827 10.1747 9.29033 8.56908 10.8929 8.56908C11.5443 8.56908 12.0715 8.81944 12.426 9.25148C12.7696 9.67013 12.9151 10.2142 12.9151 10.7566C12.9151 11.3525 12.7295 12.0599 12.5248 12.7461C12.4621 12.9565 12.3971 13.1665 12.3322 13.3759C12.1766 13.8783 12.0221 14.3772 11.9029 14.8703C11.7007 15.713 12.3043 16.4243 13.196 16.4243C14.0698 16.4243 14.8724 15.9687 15.4751 15.108C16.0813 14.242 16.472 12.9764 16.472 11.4375C16.472 10.1258 16.0026 9.0401 15.2213 8.28191C14.439 7.52265 13.3134 7.0625 11.9505 7.0625C8.82645 7.0625 7.02387 9.37429 7.02387 11.7632C7.02387 12.6881 7.38756 13.6763 7.79892 14.1782C7.8924 14.2907 7.96224 14.422 7.99189 14.5732C8.02086 14.7211 8.00469 14.8539 7.97845 14.9601C7.93312 15.1511 7.8586 15.4511 7.79115 15.7217C7.77942 15.7688 7.76793 15.8148 7.75684 15.8592C7.70296 16.0752 7.65874 16.2525 7.64316 16.3186L9.19718 23.1605ZM9.19718 23.1605C9.65261 22.3707 10.1805 21.3353 10.4082 20.4447C10.4083 20.444 10.4085 20.4434 10.4087 20.4427L10.8389 18.8095L10.9192 18.5046C11.0995 18.6479 11.2987 18.7749 11.5084 18.8833C12.0627 19.1698 12.7316 19.3487 13.4234 19.3487C17.4059 19.3487 20.1507 15.7014 20.1507 11.3882C20.1507 7.11079 16.6493 3.96053 12.2471 3.96053C9.53583 3.96053 7.41858 4.87087 5.97812 6.31695C4.54141 7.75927 3.80971 9.70307 3.80971 11.7138C3.80971 12.6781 4.06411 13.7405 4.51894 14.6593C4.97067 15.5718 5.64894 16.3987 6.53783 16.814L9.19718 23.1605Z" fill="white" stroke="white"/>
</svg>
